<svg width="19" height="16" viewBox="0 0 19 16" fill="none" xmlns="http://www.w3.org/2000/svg">
<path d="M17.3327 3.83333H18.166V12.1667H17.3327V14.6667C17.3327 14.8877 17.2449 15.0996 17.0886 15.2559C16.9323 15.4122 16.7204 15.5 16.4993 15.5H1.49935C1.27834 15.5 1.06637 15.4122 0.910093 15.2559C0.753813 15.0996 0.666016 14.8877 0.666016 14.6667V1.33333C0.666016 1.11232 0.753813 0.900358 0.910093 0.744078C1.06637 0.587797 1.27834 0.5 1.49935 0.5H16.4993C16.7204 0.5 16.9323 0.587797 17.0886 0.744078C17.2449 0.900358 17.3327 1.11232 17.3327 1.33333V3.83333ZM15.666 12.1667H10.666C9.56095 12.1667 8.50114 11.7277 7.71974 10.9463C6.93834 10.1649 6.49935 9.10507 6.49935 8C6.49935 6.89493 6.93834 5.83512 7.71974 5.05372C8.50114 4.27232 9.56095 3.83333 10.666 3.83333H15.666V2.16667H2.33268V13.8333H15.666V12.1667ZM16.4993 10.5V5.5H10.666C10.003 5.5 9.36709 5.76339 8.89825 6.23223C8.42941 6.70107 8.16602 7.33696 8.16602 8C8.16602 8.66304 8.42941 9.29893 8.89825 9.76777C9.36709 10.2366 10.003 10.5 10.666 10.5H16.4993ZM10.666 7.16667H13.166V8.83333H10.666V7.16667Z" fill="#A8B1BD"/>
</svg>
