<svg width="14" height="14" viewBox="0 0 14 14" fill="none" xmlns="http://www.w3.org/2000/svg">
<path d="M10.334 1.99984H13.0007C13.1775 1.99984 13.347 2.07008 13.4721 2.1951C13.5971 2.32012 13.6673 2.48969 13.6673 2.6665V13.3332C13.6673 13.51 13.5971 13.6796 13.4721 13.8046C13.347 13.9296 13.1775 13.9998 13.0007 13.9998H1.00065C0.82384 13.9998 0.654271 13.9296 0.529246 13.8046C0.404222 13.6796 0.333984 13.51 0.333984 13.3332V2.6665C0.333984 2.48969 0.404222 2.32012 0.529246 2.1951C0.654271 2.07008 0.82384 1.99984 1.00065 1.99984H3.66732V0.666504H5.00065V1.99984H9.00065V0.666504H10.334V1.99984ZM9.00065 3.33317H5.00065V4.6665H3.66732V3.33317H1.66732V5.99984H12.334V3.33317H10.334V4.6665H9.00065V3.33317ZM12.334 7.33317H1.66732V12.6665H12.334V7.33317Z" fill="#A8B1BD"/>
</svg>
