<svg width="14" height="12" viewBox="0 0 14 12" fill="none" xmlns="http://www.w3.org/2000/svg">
<path d="M0.333008 0.662C0.334228 0.486919 0.404275 0.319345 0.528016 0.195478C0.651758 0.071612 0.819261 0.00139643 0.994341 0H13.005C13.3703 0 13.6663 0.296667 13.6663 0.662V11.338C13.6651 11.5131 13.5951 11.6807 13.4713 11.8045C13.3476 11.9284 13.1801 11.9986 13.005 12H0.994341C0.818883 11.9998 0.650672 11.93 0.526667 11.8059C0.402663 11.6817 0.333008 11.5135 0.333008 11.338V0.662ZM1.66634 1.33333V10.6667H12.333V1.33333H1.66634ZM6.99967 8C7.53011 8 8.03882 7.78929 8.41389 7.41421C8.78896 7.03914 8.99967 6.53043 8.99967 6C8.99967 5.46957 8.78896 4.96086 8.41389 4.58579C8.03882 4.21071 7.53011 4 6.99967 4C6.46924 4 5.96053 4.21071 5.58546 4.58579C5.21039 4.96086 4.99967 5.46957 4.99967 6C4.99967 6.53043 5.21039 7.03914 5.58546 7.41421C5.96053 7.78929 6.46924 8 6.99967 8ZM6.99967 9.33333C6.11562 9.33333 5.26777 8.98214 4.64265 8.35702C4.01753 7.7319 3.66634 6.88406 3.66634 6C3.66634 5.11595 4.01753 4.2681 4.64265 3.64298C5.26777 3.01786 6.11562 2.66667 6.99967 2.66667C7.88373 2.66667 8.73158 3.01786 9.3567 3.64298C9.98182 4.2681 10.333 5.11595 10.333 6C10.333 6.88406 9.98182 7.7319 9.3567 8.35702C8.73158 8.98214 7.88373 9.33333 6.99967 9.33333ZM10.333 2H11.6663V3.33333H10.333V2Z" fill="white"/>
</svg>
