<svg width="63" height="52" viewBox="0 0 63 52" fill="none" xmlns="http://www.w3.org/2000/svg">
<path d="M5.66667 7.58333V3.3135C5.67185 2.5694 5.96955 1.85722 6.49545 1.33078C7.02136 0.804351 7.73324 0.505935 8.47733 0.5H59.5227C61.0753 0.5 62.3333 1.76083 62.3333 3.3135V48.6865C62.3282 49.4306 62.0305 50.1428 61.5046 50.6692C60.9786 51.1956 60.2668 51.4941 59.5227 51.5H8.47733C7.73164 51.4992 7.01674 51.2025 6.48972 50.6749C5.9627 50.1474 5.66667 49.4322 5.66667 48.6865V45.8333H56.6667V12.6833L34 33.0833L5.66667 7.58333ZM0 20.3333H14.1667V26H0V20.3333ZM0 34.5H22.6667V40.1667H0V34.5Z" fill="white"/>
</svg>
