<svg width="183" height="133" viewBox="0 0 183 133" fill="none" xmlns="http://www.w3.org/2000/svg">
<path d="M91.4375 133C141.937 133 182.875 114.735 182.875 92.2048C182.875 69.6743 141.937 51.4097 91.4375 51.4097C40.938 51.4097 0 69.6743 0 92.2048C0 114.735 40.938 133 91.4375 133Z" fill="#F5F5F5"/>
<path d="M151.727 112.211C166.054 112.211 177.667 107.029 177.667 100.637C177.667 94.2455 166.054 89.064 151.727 89.064C137.401 89.064 125.787 94.2455 125.787 100.637C125.787 107.029 137.401 112.211 151.727 112.211Z" fill="#E0E0E0"/>
<path d="M86.0772 106.88L56.8145 93.8206L90.2626 78.8989L119.529 91.9558L86.0772 106.88Z" fill="#E0E0E0"/>
<path d="M6.39648 102.842L44.1389 119.679L75.7956 105.559L38.0532 88.7217L6.39648 102.842Z" fill="#E0E0E0"/>
<path d="M62.2044 23.6993V22.0417C62.1883 21.9459 62.1405 21.855 62.0656 21.7776C61.9907 21.7003 61.8913 21.6392 61.7769 21.6003L48.8244 15.8586C48.5157 15.7387 48.175 15.6763 47.8295 15.6763C47.484 15.6763 47.1433 15.7387 46.8347 15.8586L9.60912 32.3749C9.49475 32.4138 9.39533 32.4749 9.32044 32.5522C9.24556 32.6296 9.19775 32.7205 9.18164 32.8163V34.4739C9.19739 34.5698 9.24505 34.6609 9.31998 34.7382C9.39491 34.8156 9.49453 34.8766 9.60912 34.9153L22.5578 40.648C22.8665 40.7679 23.2072 40.8303 23.5527 40.8303C23.8981 40.8303 24.2388 40.7679 24.5475 40.648L61.7731 24.1317C61.8876 24.093 61.9873 24.032 62.0622 23.9546C62.1371 23.8773 62.1848 23.7862 62.2005 23.6903L62.2044 23.6993Z" fill="#F0F0F0"/>
<path d="M9.61018 33.2487L22.5589 38.9904C22.867 39.1116 23.2079 39.1749 23.5537 39.1749C23.8995 39.1749 24.2404 39.1116 24.5486 38.9904L61.7741 22.4741C62.3221 22.2309 62.3221 21.8375 61.7741 21.5912L48.8254 15.8586C48.5168 15.7387 48.1761 15.6763 47.8306 15.6763C47.4851 15.6763 47.1444 15.7387 46.8357 15.8586L9.61018 32.3749C9.06223 32.6121 9.06223 33.0055 9.61018 33.2487Z" fill="#FAFAFA"/>
<path d="M23.5527 39.1768V40.8314C23.2065 40.8353 22.8645 40.7724 22.5578 40.6483L9.60912 34.9216C9.49453 34.8829 9.39491 34.8219 9.31998 34.7445C9.24505 34.6671 9.19739 34.5761 9.18164 34.4802V32.8196C9.18926 32.7524 9.21721 32.6876 9.26325 32.6304C9.11169 32.8436 9.22439 33.0898 9.60912 33.261L22.5578 38.9936C22.8637 39.1195 23.2062 39.1825 23.5527 39.1768Z" fill="#E0E0E0"/>
<path d="M30.5098 25.1707L41.4804 30.0025L59.6016 21.9666L48.6348 17.1318L30.5098 25.1707Z" fill="#E0E0E0"/>
<path d="M41.6071 29.636L31.0251 24.9423C31.3001 24.2491 31.2796 23.5059 30.9668 22.8223L41.4828 27.4648C41.4828 27.4648 41.6848 27.9783 41.6071 29.636Z" fill="white"/>
<path d="M40.9403 26.8136C41.2356 26.9611 41.4818 27.1603 41.6587 27.3951C41.8356 27.6299 41.9383 27.8937 41.9585 28.1649V29.7445C41.9585 30.243 41.4999 30.4442 40.9403 30.1979L30.5254 25.5614V25.171L40.8159 29.7055C41.154 29.8556 41.4261 29.7325 41.4261 29.4352V27.9697C41.4144 27.807 41.353 27.6487 41.247 27.5078C41.1409 27.3668 40.9932 27.2473 40.8159 27.1589L30.5254 22.6095V22.165L40.9403 26.8136Z" fill="#EBEBEB"/>
<path d="M30.5273 22.1795L48.6369 14.1406L59.0634 18.7652C59.3595 18.9127 59.6061 19.1124 59.7831 19.3478C59.9601 19.5832 60.0624 19.8477 60.0816 20.1195V21.7081C60.0954 21.8052 60.0749 21.9034 60.0222 21.9923C59.9695 22.0811 59.8866 22.1572 59.7824 22.2126L41.6612 30.2515C41.7635 30.1949 41.8447 30.1184 41.8966 30.0299C41.9484 29.9413 41.9691 29.8437 41.9565 29.747V28.1644C41.9376 27.8929 41.8354 27.6288 41.6584 27.3938C41.4814 27.1589 41.2346 26.9598 40.9384 26.8131L30.5273 22.1795Z" fill="#FAFAFA"/>
<path d="M41.6582 27.3865C41.8429 27.6182 41.9461 27.8832 41.9574 28.1552V29.7378C41.97 29.8345 41.9493 29.9321 41.8974 30.0207C41.8456 30.1093 41.7644 30.1857 41.6621 30.2423L59.7833 22.2034C59.8875 22.1481 59.9704 22.0719 60.0231 21.9831C60.0757 21.8942 60.0963 21.796 60.0825 21.6989V20.1193C60.0711 19.8473 59.968 19.5823 59.7833 19.3506L41.6582 27.3865Z" fill="#F0F0F0"/>
<path d="M19.3569 13.1436L19.252 14.2126L31.5011 19.2906L31.7771 18.666L19.3569 13.1436Z" fill="#EBEBEB"/>
<path d="M31.6135 18.9157L19.7491 13.6245L17.6855 14.5434L29.7832 20.0118L31.6135 18.9157Z" fill="white"/>
<path d="M27.5565 19.4438L26.3906 30.0683C26.3964 30.1882 26.4392 30.3054 26.5156 30.4099C26.592 30.5144 26.6998 30.6032 26.8298 30.6689L33.7122 33.7469C33.822 33.7938 33.9443 33.8205 34.0697 33.825L29.7949 20.3688C29.6702 20.3635 29.5484 20.3379 29.4374 20.2937L28.9438 20.0715L27.5565 19.4438Z" fill="#E0E0E0"/>
<path d="M30.3078 20.2816L31.5358 19.4678L32.4335 18.8672C32.5268 18.7531 32.6356 18.669 32.5773 18.5669L36.7977 31.924C36.856 32.0171 36.8715 32.2243 36.7044 32.3024L34.5787 33.7078C34.4178 33.7736 34.2351 33.8008 34.0541 33.7859L29.7793 20.3296C29.9578 20.3534 30.1414 20.3367 30.3078 20.2816Z" fill="#F0F0F0"/>
<path d="M32.4382 18.4798C32.6792 18.5879 32.6209 18.7081 32.4382 18.8702L30.3086 20.2786C30.1731 20.3333 30.0224 20.3619 29.8695 20.3619C29.7166 20.3619 29.5659 20.3333 29.4304 20.2786L27.5572 19.4438C27.3124 19.3357 27.2696 19.1795 27.4601 19.0954C27.5852 19.0562 27.7203 19.0396 27.855 19.0469C27.9897 19.0542 28.1205 19.0852 28.2373 19.1375L29.714 19.7981C29.7592 19.8158 29.8091 19.825 29.8598 19.825C29.9104 19.825 29.9603 19.8158 30.0055 19.7981L31.56 18.7531C31.6416 18.7171 31.6416 18.66 31.56 18.624L19.3574 13.1436L19.9403 12.8823L32.4382 18.4798Z" fill="#FAFAFA"/>
<path d="M15.8223 13.6572L27.4924 18.8643V36.0232L15.8223 30.8131V13.6572Z" fill="#EBEBEB"/>
<path d="M27.1138 19.1495L15.8206 14.1406C15.1299 14.7065 14.2254 15.0891 13.2363 15.2337L24.4362 20.2216C24.4362 20.2216 25.1591 20.0895 27.1138 19.1495Z" fill="white"/>
<path d="M23.3526 20.2064C23.6892 20.3367 24.0604 20.4045 24.4368 20.4045C24.8133 20.4045 25.1845 20.3367 25.5211 20.2064L27.4175 19.3476C28.016 19.0803 28.016 18.6509 27.4175 18.3836L16.2914 13.4468L15.8212 13.657L26.7685 18.5428C26.8493 18.561 26.9202 18.5989 26.9706 18.6509C27.0211 18.7029 27.0483 18.7661 27.0483 18.8311C27.0483 18.896 27.0211 18.9593 26.9706 19.0112C26.9202 19.0632 26.8493 19.1012 26.7685 19.1194L25.0003 19.9061C24.7984 19.9846 24.5754 20.0254 24.3494 20.0254C24.1234 20.0254 23.9004 19.9846 23.6985 19.9061L12.755 15.0173L12.2188 15.2546L23.3526 20.2064Z" fill="#FAFAFA"/>
<path d="M12.2227 15.2549V32.4107L23.3526 37.3476C23.6892 37.4779 24.0604 37.5457 24.4369 37.5457C24.8133 37.5457 25.1845 37.4779 25.5211 37.3476L27.4253 36.5038C27.5491 36.4616 27.6559 36.3944 27.7345 36.3094C27.8132 36.2243 27.8607 36.1245 27.8722 36.0203V18.8644C27.8602 18.9689 27.8114 19.0688 27.7313 19.1535C27.6512 19.2382 27.5427 19.3043 27.4175 19.3449L25.5211 20.2067C25.1845 20.337 24.8133 20.4048 24.4369 20.4048C24.0604 20.4048 23.6892 20.337 23.3526 20.2067L12.2227 15.2549Z" fill="#EBEBEB"/>
<path d="M24.4375 20.3893C24.8147 20.395 25.1877 20.3268 25.5217 20.1911L27.4181 19.3442C27.5419 19.3028 27.6488 19.2363 27.7274 19.1517C27.8061 19.0671 27.8537 18.9676 27.8651 18.8638V36.0196C27.8536 36.1238 27.806 36.2236 27.7274 36.3087C27.6487 36.3938 27.5419 36.4609 27.4181 36.5031L25.5139 37.3469C25.18 37.4827 24.807 37.5509 24.4297 37.5451L24.4375 20.3893Z" fill="#F0F0F0"/>
<path d="M118.185 82.6675C118.127 81.9078 117.994 80.9979 117.835 79.9408C117.241 75.9289 116.428 70.4335 118.581 65.1693C119.891 61.9652 123.046 58.1664 127.974 57.1124C129.07 56.8782 131.72 56.5328 132.739 58.3496C132.882 58.6121 132.967 58.8912 132.991 59.1754C133.096 60.3285 132.424 61.3465 131.678 62.2745C130.819 63.3525 129.824 64.3765 128.86 65.3735C127.951 66.3164 127.006 67.2894 126.183 68.2984C125.293 69.3947 124.513 70.5422 123.851 71.7308L123.536 71.6257C124.197 70.4251 124.977 69.2655 125.868 68.1572C126.696 67.1392 127.644 66.1603 128.561 65.2144C129.517 64.2234 130.504 63.2024 131.359 62.1363C132.074 61.2354 132.719 60.2715 132.622 59.1934C132.601 58.9392 132.525 58.6895 132.397 58.4547C131.487 56.8301 129.047 57.1544 128.04 57.3676C123.245 58.3946 120.163 62.1123 118.88 65.2474C116.751 70.4605 117.559 75.9229 118.15 79.9108C118.305 80.9708 118.441 81.8867 118.5 82.6525L118.185 82.6675Z" fill="#6C63FF"/>
<path d="M118.537 87.0338C118.511 87.0366 118.485 87.0366 118.459 87.0338C118.385 87.0226 118.314 86.998 118.254 86.962C118.194 86.926 118.146 86.8796 118.113 86.8266C118.046 86.6779 118.046 86.5158 118.113 86.3671C118.168 86.0794 118.168 85.787 118.113 85.4993C118.113 85.3371 118.078 85.166 118.078 85.0128V83.148C118.389 79.7981 119.659 76.5434 121.797 73.6196C123.694 71.0701 125.792 69.3734 128.404 68.2744C129.812 67.6766 131.356 67.2943 132.951 67.1482C134.359 67.028 135.775 67.3171 136.922 67.959C138.108 68.6827 138.64 69.923 138.193 70.9049C137.878 71.5926 137.159 72.1061 136.425 72.5716C135.115 73.3974 133.685 74.1361 132.306 74.8508C131.159 75.4514 129.974 76.052 128.866 76.7126C125.478 78.7336 122.635 81.2485 120.499 84.1149C120.15 84.5804 119.819 85.0609 119.516 85.5413L119.392 85.7305C119.271 85.9021 119.164 86.0796 119.073 86.262C119.054 86.3011 119.034 86.3821 119.007 86.4752C118.987 86.6465 118.917 86.8119 118.801 86.9587C118.728 87.0084 118.634 87.0352 118.537 87.0338ZM133.51 67.3975C133.335 67.3975 133.161 67.3975 132.982 67.4155C131.434 67.5551 129.935 67.9263 128.571 68.5086C126.022 69.5806 123.966 71.2473 122.101 73.7517C119.991 76.6393 118.737 79.8526 118.428 83.16V85.0068C118.428 85.1509 118.428 85.3071 118.463 85.4723C118.526 85.7867 118.526 86.1067 118.463 86.4212C118.421 86.5187 118.421 86.624 118.463 86.7215C118.473 86.7367 118.487 86.75 118.505 86.7604C118.522 86.7708 118.543 86.778 118.564 86.7815C118.634 86.6706 118.681 86.5521 118.704 86.4302C118.723 86.3468 118.749 86.2646 118.782 86.184C118.877 85.9911 118.988 85.8035 119.116 85.6224L119.236 85.4362C119.547 84.9497 119.882 84.4663 120.231 83.9948C120.958 83.0231 121.764 82.0883 122.645 81.1961C124.386 79.4383 126.417 77.8644 128.688 76.5145C129.807 75.8538 130.996 75.2382 132.146 74.6436C133.522 73.9319 134.94 73.1962 136.242 72.3794C136.934 71.944 137.614 71.4545 137.902 70.8299C138.29 69.95 137.812 68.8359 136.736 68.1783C135.806 67.6428 134.669 67.3675 133.51 67.3975Z" fill="#6C63FF"/>
<path d="M118.245 84.4693H118.202C118.18 84.4654 118.16 84.4582 118.141 84.4481C118.123 84.4379 118.108 84.425 118.096 84.4101C118.085 84.3953 118.077 84.3788 118.074 84.3616C118.071 84.3444 118.072 84.3269 118.078 84.3101C121.284 74.4304 130.148 70.0221 134.882 68.9741C134.925 68.9648 134.971 68.969 135.01 68.9859C135.05 69.0027 135.079 69.0309 135.092 69.0642C135.104 69.098 135.098 69.1342 135.077 69.165C135.055 69.1958 135.018 69.2189 134.975 69.2293C130.312 70.2593 121.579 74.6106 118.412 84.3732C118.401 84.4009 118.379 84.4253 118.349 84.4426C118.319 84.4599 118.283 84.4692 118.245 84.4693Z" fill="#6C63FF"/>
<path d="M118.224 76.3618C118.178 76.3587 118.136 76.3419 118.106 76.3149C118.077 76.2879 118.062 76.253 118.065 76.2176C119.087 65.5481 128.118 59.7014 129.144 59.0738C129.162 59.0625 129.182 59.054 129.204 59.049C129.225 59.0439 129.248 59.0423 129.271 59.0443C129.293 59.0462 129.315 59.0517 129.335 59.0604C129.354 59.0691 129.372 59.0808 129.385 59.0948C129.399 59.1084 129.41 59.124 129.416 59.1407C129.422 59.1574 129.424 59.175 129.422 59.1923C129.419 59.2096 129.412 59.2263 129.401 59.2415C129.39 59.2568 129.376 59.2702 129.358 59.281C128.344 59.9026 119.417 65.6803 118.411 76.2386C118.406 76.2737 118.384 76.3059 118.349 76.3288C118.314 76.3517 118.27 76.3635 118.224 76.3618Z" fill="#6C63FF"/>
<path d="M117.149 39.1522L95.5384 29.5157C95.3713 29.423 95.1754 29.3662 94.9706 29.3509C94.7659 29.3356 94.5595 29.3624 94.3725 29.4287L92.8181 30.1223C92.6472 30.2143 92.5112 30.3399 92.4244 30.4862C92.3376 30.6325 92.3031 30.7941 92.3245 30.9542V76.6621C92.3563 77.1074 92.5234 77.5407 92.8124 77.9268C93.1014 78.3129 93.5041 78.6409 93.9878 78.8843L115.595 88.5087C115.762 88.6019 115.957 88.6593 116.162 88.6752C116.367 88.691 116.573 88.6646 116.761 88.5988L118.315 87.9021C118.484 87.8097 118.618 87.6843 118.703 87.5386C118.789 87.3929 118.822 87.2324 118.801 87.0733V41.3744C118.771 40.9298 118.606 40.4969 118.319 40.1109C118.032 39.7248 117.631 39.3964 117.149 39.1522Z" fill="#263238"/>
<path d="M96.9802 77.4458L95.4258 78.1395V81.9412C95.4336 82.0526 95.4754 82.1609 95.5477 82.2575C95.6199 82.354 95.7206 82.436 95.8416 82.4968L96.5683 82.8211C96.6972 82.8715 96.8397 82.8978 96.9841 82.8978C97.1286 82.8978 97.271 82.8715 97.3999 82.8211L98.1267 82.4968C98.3848 82.3679 98.5845 82.18 98.6979 81.9592L100.101 78.8362L96.9802 77.4458Z" fill="#263238"/>
<path d="M95.4258 81.9409C95.4336 82.0522 95.4754 82.1606 95.5477 82.2571C95.6199 82.3537 95.7206 82.4356 95.8416 82.4964L96.5683 82.8208C96.6185 82.8442 96.675 82.8586 96.7334 82.8629C96.7918 82.8671 96.8508 82.861 96.9057 82.8451C96.9607 82.8292 97.0103 82.8039 97.0508 82.7711C97.0913 82.7383 97.1216 82.6988 97.1396 82.6556L98.5347 79.5295L95.4258 78.1392V81.9409Z" fill="#37474F"/>
<path d="M112.57 84.3794L111.016 85.0761V88.8748C111.023 88.9864 111.064 89.095 111.135 89.1921C111.207 89.2891 111.307 89.3718 111.428 89.4334L112.158 89.7577C112.286 89.808 112.428 89.8343 112.572 89.8343C112.716 89.8343 112.858 89.808 112.986 89.7577L113.717 89.4334C113.975 89.3045 114.174 89.1166 114.288 88.8958L115.687 85.7698L112.57 84.3794Z" fill="#263238"/>
<path d="M111.016 88.8749C111.023 88.9865 111.064 89.0951 111.135 89.1922C111.207 89.2892 111.307 89.3719 111.428 89.4335L112.158 89.7578C112.208 89.7813 112.265 89.7957 112.323 89.7999C112.382 89.8041 112.441 89.798 112.496 89.7821C112.551 89.7662 112.6 89.7409 112.641 89.7081C112.681 89.6753 112.711 89.6358 112.729 89.5926L114.132 86.4665L111.023 85.0762L111.016 88.8749Z" fill="#37474F"/>
<path d="M94.0892 30.2452L115.696 39.8547C116.18 40.0987 116.583 40.4273 116.872 40.8138C117.161 41.2004 117.328 41.6341 117.36 42.0799V87.7878C117.401 87.9483 117.376 88.1148 117.288 88.2638C117.201 88.4128 117.055 88.537 116.872 88.6188C116.688 88.7006 116.476 88.7359 116.265 88.7199C116.055 88.7039 115.856 88.6374 115.696 88.5295L94.0892 78.9021C93.606 78.6586 93.2039 78.3305 92.9156 77.9443C92.6273 77.5582 92.4609 77.125 92.4299 76.6799V30.984C92.3883 30.8237 92.4129 30.6574 92.5001 30.5085C92.5874 30.3596 92.7329 30.2356 92.9162 30.154C93.0994 30.0725 93.3112 30.0374 93.5217 30.0537C93.7322 30.0701 93.9307 30.1371 94.0892 30.2452Z" fill="#37474F"/>
<path d="M62.7109 92.7218L86.0823 103.148L118.804 88.5507L117.245 87.854L93.8741 77.4277L62.7109 91.3314V92.7218Z" fill="#455A64"/>
<path d="M86.082 103.147V101.757L118.804 87.1597V88.55L86.082 103.147Z" fill="#263238"/>
<path d="M86.2312 101.124L85.9941 101.001C90.1407 96.1511 90.1135 87.7729 89.7754 85.6708C89.7482 85.5297 89.7287 85.4426 89.7249 85.4096L90.0085 85.3735C90.0085 85.4396 90.0396 85.5177 90.0552 85.6108C90.3583 87.0972 92.0721 95.1722 94.1007 97.6226L93.8597 97.7427C92.2547 95.8178 90.8829 90.6227 90.1951 87.6257C90.2378 91.0281 89.5966 97.2112 86.2312 101.124Z" fill="#FAFAFA"/>
<path d="M99.8793 93.7191C99.5256 93.638 91.2636 91.7041 90.502 88.8873L90.7856 88.8423C91.5085 91.5299 99.8754 93.4879 99.9609 93.5089L99.8793 93.7191Z" fill="#FAFAFA"/>
<path d="M91.5392 92.5779L91.3294 91.8902C91.3007 91.7639 91.2174 91.6488 91.0932 91.5637C90.969 91.4787 90.8112 91.4286 90.6454 91.4217C90.5086 91.4063 90.3689 91.4236 90.2452 91.4714C90.1215 91.5192 90.0198 91.5951 89.9537 91.689L89.6855 91.6019C89.7755 91.4645 89.9183 91.3521 90.0944 91.28C90.2705 91.2079 90.4711 91.1798 90.6687 91.1995C90.8117 91.2065 90.9512 91.2368 91.0778 91.2886C91.2044 91.3404 91.3154 91.4124 91.4032 91.4998C91.4499 91.2151 91.638 90.9555 91.9279 90.7761C92.0378 90.7317 92.1606 90.71 92.2846 90.7132C92.4085 90.7163 92.5293 90.7442 92.6351 90.7941L92.5069 90.9923C92.4421 90.9601 92.3677 90.9413 92.2909 90.9376C92.214 90.9339 92.1372 90.9455 92.0678 90.9713C91.7374 91.1154 91.6092 91.671 91.5898 91.8722L91.5392 92.5779Z" fill="#FAFAFA"/>
<path d="M92.3516 94.8686L92.0951 94.2439C91.8036 93.5382 91.3179 93.1329 90.7427 93.1058C90.5024 93.1023 90.266 93.1529 90.0624 93.2516C89.8587 93.3502 89.6968 93.4927 89.5963 93.6614L89.3359 93.5653C89.4589 93.3544 89.66 93.1765 89.9139 93.0541C90.1678 92.9317 90.463 92.8703 90.7622 92.8776C91.108 92.8926 91.7026 93.0368 92.1456 93.7334C92.2428 93.1839 92.5342 92.301 93.2843 91.9317C93.5535 91.8177 93.8562 91.7592 94.1632 91.7618C94.4701 91.7644 94.771 91.8281 95.0369 91.9467L94.9165 92.1479C94.6939 92.0461 94.4412 91.9902 94.1827 91.9855C93.9241 91.9808 93.6683 92.0274 93.4397 92.1209C92.441 92.6013 92.3749 94.1899 92.3749 94.2079L92.3516 94.8686Z" fill="#FAFAFA"/>
<path d="M88.8424 96.3945L88.5859 96.2924C89.1611 95.4365 90.4241 94.8209 91.52 94.863C91.7525 94.8651 91.9814 94.9074 92.1899 94.9869C92.3984 95.0665 92.5811 95.1811 92.7247 95.3224C92.8302 94.8903 93.0478 94.4792 93.3643 94.1138C93.6809 93.7484 94.0899 93.4363 94.5667 93.1963C95.0784 92.9337 95.6689 92.7772 96.2814 92.742C96.894 92.7068 97.508 92.7939 98.0643 92.9951L97.9516 93.1963C97.4391 93.013 96.8746 92.9339 96.3114 92.9665C95.7483 92.999 95.2053 93.1423 94.7338 93.3825C94.2298 93.6349 93.8092 93.9749 93.5055 94.3754C93.2019 94.7758 93.0236 95.2256 92.9851 95.6888V96.2563L92.713 95.7278C92.6229 95.54 92.4608 95.3778 92.2484 95.263C92.0359 95.1482 91.7832 95.0861 91.5239 95.0852C90.5174 95.0461 89.3709 95.6107 88.8424 96.3945Z" fill="#FAFAFA"/>
<path d="M87.2624 99.7095L87.0098 99.6014C87.3595 99.109 89.221 96.6345 91.4244 96.1871C91.7354 96.1182 92.0618 96.1011 92.382 96.1368C92.7022 96.1725 93.0089 96.2603 93.282 96.3943L93.1343 96.5835C92.8936 96.4659 92.6234 96.3888 92.3416 96.3573C92.0597 96.3257 91.7723 96.3404 91.4983 96.4003C89.8816 96.7306 88.2106 98.3882 87.2624 99.7095Z" fill="#FAFAFA"/>
<path d="M115.687 73.2563V74.6467L86.0823 87.8537L62.7109 77.4274V76.0371L92.3157 62.8301L115.687 73.2563Z" fill="#263238"/>
<path d="M115.687 73.2563L86.0823 86.4633L62.7109 76.0371L92.3157 62.8301L115.687 73.2563Z" fill="#455A64"/>
<path d="M115.687 57.9654V59.3527L86.0823 72.5627L62.7109 62.1335V60.7461L92.3157 47.5361L115.687 57.9654Z" fill="#263238"/>
<path d="M115.687 57.9654L86.0823 71.1724L62.7109 60.7461L92.3157 47.5361L115.687 57.9654Z" fill="#455A64"/>
<path d="M85.9816 53.0371L64.3746 43.4126C64.2079 43.3194 64.0122 43.262 63.8074 43.2462C63.6026 43.2303 63.3961 43.2567 63.2088 43.3225C62.9289 43.4456 61.9341 43.8931 61.6543 44.0162C61.4841 44.1085 61.3489 44.2343 61.2628 44.3806C61.1767 44.5268 61.1428 44.6882 61.1646 44.848V90.5439C61.1964 90.9893 61.3635 91.4226 61.6525 91.8087C61.9415 92.1948 62.3442 92.5228 62.8279 92.7661L84.435 102.394C84.6017 102.487 84.7974 102.544 85.0022 102.56C85.2069 102.576 85.4135 102.549 85.6008 102.484C85.8806 102.358 86.8832 101.913 87.1553 101.784C87.3263 101.693 87.4626 101.568 87.55 101.422C87.6375 101.276 87.6729 101.115 87.6527 100.955V55.2623C87.6207 54.8159 87.4526 54.3816 87.1623 53.9949C86.8719 53.6082 86.4673 53.28 85.9816 53.0371Z" fill="#263238"/>
<path opacity="0.2" d="M86.082 60.0515L87.6442 59.3548V55.1807L86.0781 55.8773L86.082 60.0515Z" fill="black"/>
<path opacity="0.2" d="M117.25 46.1481L118.812 45.4544V41.2803L117.246 41.977L117.25 46.1481Z" fill="black"/>
<path d="M65.8259 91.3301L64.2715 92.0238V95.8255C64.2793 95.9368 64.3211 96.0452 64.3934 96.1417C64.4656 96.2383 64.5663 96.3203 64.6873 96.381L65.414 96.7054C65.5429 96.7558 65.6854 96.782 65.8298 96.782C65.9743 96.782 66.1167 96.7558 66.2457 96.7054L66.9724 96.381C67.2296 96.2527 67.4291 96.066 67.5436 95.8465L68.9465 92.7204L65.8259 91.3301Z" fill="#263238"/>
<path d="M64.2695 95.8257C64.2774 95.937 64.3191 96.0454 64.3914 96.1419C64.4636 96.2384 64.5644 96.3204 64.6853 96.3812L65.4121 96.7055C65.4623 96.729 65.5187 96.7434 65.5771 96.7476C65.6356 96.7518 65.6945 96.7458 65.7495 96.7299C65.8044 96.714 65.854 96.6887 65.8945 96.6559C65.935 96.623 65.9654 96.5836 65.9833 96.5404L67.3862 93.4143L64.2773 92.0239L64.2695 95.8257Z" fill="#37474F"/>
<path d="M81.408 98.2822L79.8535 98.9759V102.778C79.8606 102.889 79.9017 102.997 79.9733 103.094C80.0448 103.19 80.145 103.272 80.2655 103.333L80.996 103.658C81.1243 103.708 81.2661 103.734 81.4099 103.734C81.5538 103.734 81.6956 103.708 81.8238 103.658L82.5544 103.333C82.8106 103.204 83.0098 103.018 83.1257 102.799L84.5247 99.6726L81.408 98.2822Z" fill="#263238"/>
<path d="M79.8535 102.763C79.8606 102.874 79.9017 102.982 79.9733 103.079C80.0448 103.175 80.145 103.257 80.2655 103.318L80.996 103.643C81.0463 103.666 81.1027 103.68 81.1611 103.685C81.2196 103.689 81.2785 103.683 81.3335 103.667C81.3884 103.651 81.438 103.626 81.4785 103.593C81.519 103.56 81.5494 103.521 81.5673 103.477L82.9663 100.351L79.8574 98.9609L79.8535 102.763Z" fill="#37474F"/>
<path d="M62.8119 44.109L84.4228 53.7335C84.9061 53.9776 85.3082 54.3063 85.5965 54.6929C85.8848 55.0795 86.0512 55.5131 86.0822 55.9587V103.147C86.0822 103.147 84.8814 102.597 84.4228 102.393L62.8158 92.7658C62.3321 92.5225 61.9294 92.1945 61.6404 91.8084C61.3514 91.4223 61.1842 90.989 61.1525 90.5437V44.8477C61.1109 44.6875 61.1355 44.5212 61.2228 44.3723C61.31 44.2234 61.4555 44.0994 61.6388 44.0178C61.8221 43.9362 62.0339 43.9011 62.2444 43.9175C62.4548 43.9339 62.6533 44.0008 62.8119 44.109Z" fill="#37474F"/>
<path opacity="0.2" d="M84.4228 53.7335L62.8119 44.109C62.6533 44.0008 62.4548 43.9339 62.2444 43.9175C62.0339 43.9011 61.8221 43.9362 61.6388 44.0178C61.4555 44.0994 61.31 44.2234 61.2228 44.3723C61.1355 44.5212 61.1109 44.6875 61.1525 44.8477V48.9288L86.0822 60.0397V55.9587C86.0512 55.5131 85.8848 55.0795 85.5965 54.6929C85.3082 54.3063 84.9061 53.9776 84.4228 53.7335Z" fill="black"/>
<path d="M114.129 58.0765C114.091 58.0757 114.055 58.0637 114.028 58.0431C114.001 58.0224 113.986 57.9946 113.985 57.9654V44.2539L97.0606 51.8033C97.0447 51.8112 97.0269 51.8166 97.0083 51.8189C96.9897 51.8212 96.9706 51.8205 96.9523 51.8169C96.934 51.8132 96.9169 51.8066 96.9021 51.7976C96.8873 51.7885 96.8751 51.7772 96.8663 51.7643C96.8565 51.7517 96.85 51.7377 96.8472 51.7231C96.8445 51.7086 96.8455 51.6938 96.8502 51.6795C96.8549 51.6653 96.8632 51.6519 96.8746 51.6402C96.886 51.6284 96.9004 51.6185 96.9168 51.6111L114.078 43.9656C114.1 43.9552 114.125 43.9497 114.15 43.9497C114.175 43.9497 114.2 43.9552 114.222 43.9656C114.243 43.9755 114.261 43.9896 114.273 44.0065C114.286 44.0233 114.292 44.0423 114.292 44.0617V57.9654C114.292 57.9813 114.288 57.9971 114.279 58.0116C114.271 58.0262 114.259 58.0392 114.243 58.0497C114.228 58.0603 114.209 58.0681 114.19 58.0727C114.17 58.0773 114.149 58.0786 114.129 58.0765Z" fill="#FAFAFA"/>
<path d="M111.013 54.5994H110.97C110.933 54.593 110.901 54.5755 110.88 54.5507C110.86 54.526 110.853 54.496 110.861 54.4673L113.76 44.7648L108.009 52.4613C108 52.4742 107.987 52.4855 107.973 52.4946C107.958 52.5037 107.941 52.5104 107.923 52.5143C107.905 52.5183 107.886 52.5193 107.867 52.5174C107.848 52.5156 107.83 52.5108 107.814 52.5034C107.798 52.4962 107.783 52.4865 107.771 52.4749C107.759 52.4633 107.75 52.4499 107.745 52.4356C107.74 52.4214 107.739 52.4065 107.741 52.3918C107.744 52.3771 107.75 52.363 107.76 52.3502L113.978 44.008C113.995 43.9851 114.023 43.9678 114.056 43.959C114.088 43.9502 114.124 43.9505 114.156 43.96C114.188 43.97 114.215 43.9886 114.23 44.0123C114.246 44.036 114.25 44.0632 114.242 44.0891L111.133 54.5184C111.126 54.5398 111.111 54.559 111.089 54.5735C111.068 54.588 111.041 54.597 111.013 54.5994Z" fill="#FAFAFA"/>
<path d="M104.783 51.1365C104.763 51.1366 104.744 51.1334 104.726 51.1272C104.708 51.121 104.691 51.1119 104.678 51.1005C104.652 51.0797 104.637 51.0516 104.637 51.0224C104.637 50.9932 104.652 50.9651 104.678 50.9443L114.028 43.9925C114.055 43.972 114.092 43.9604 114.129 43.9604C114.167 43.9604 114.203 43.972 114.23 43.9925C114.257 44.0138 114.272 44.0424 114.272 44.0721C114.272 44.1018 114.257 44.1304 114.23 44.1517L104.88 51.1005C104.868 51.1112 104.853 51.1198 104.836 51.126C104.82 51.1322 104.802 51.1358 104.783 51.1365Z" fill="#FAFAFA"/>
<path d="M114.13 55.8573C114.092 55.8565 114.056 55.8446 114.03 55.8239C114.003 55.8032 113.987 55.7754 113.986 55.7462C113.986 53.9264 111.359 53.8033 111.247 53.8003C111.225 53.7991 111.205 53.7944 111.186 53.7867C111.167 53.7789 111.151 53.7682 111.138 53.7552C111.126 53.7424 111.117 53.7277 111.113 53.7122C111.109 53.6966 111.11 53.6805 111.115 53.6651C111.21 53.2934 111.178 52.9086 111.02 52.5497C110.863 52.1907 110.586 51.8701 110.217 51.6201C110.082 51.5162 109.92 51.4357 109.742 51.3839C109.564 51.3321 109.373 51.3103 109.183 51.3198C109.082 51.3331 108.985 51.363 108.9 51.4076C108.815 51.4521 108.743 51.5103 108.69 51.5781C108.673 51.6 108.648 51.617 108.618 51.6263C108.587 51.6355 108.554 51.6365 108.522 51.6291C108.491 51.6217 108.465 51.6064 108.446 51.5857C108.428 51.565 108.419 51.5401 108.421 51.515C108.421 51.4459 108.581 49.8274 106.739 49.6682C106.715 49.666 106.692 49.6593 106.673 49.6489C106.653 49.6384 106.637 49.6244 106.626 49.6081C106.615 49.5924 106.61 49.5749 106.61 49.5571C106.61 49.5393 106.615 49.5218 106.626 49.506C106.626 49.506 107.442 48.3259 107.127 47.7463C107.091 47.6783 107.034 47.6178 106.962 47.5698C106.89 47.5218 106.804 47.4876 106.712 47.47C106.693 47.4663 106.676 47.4596 106.661 47.4505C106.646 47.4414 106.633 47.4301 106.624 47.4172C106.615 47.4042 106.61 47.39 106.608 47.3753C106.606 47.3607 106.608 47.3459 106.614 47.3319C106.626 47.3041 106.651 47.2808 106.684 47.2668C106.718 47.2528 106.757 47.2492 106.793 47.2568C106.927 47.2834 107.051 47.334 107.155 47.4044C107.259 47.4748 107.34 47.5631 107.392 47.6622C107.691 48.2118 107.186 49.1217 106.968 49.464C108.398 49.6772 108.662 50.7192 108.701 51.2357C108.829 51.1656 108.975 51.1175 109.129 51.0946C109.362 51.0771 109.598 51.1007 109.818 51.1637C110.038 51.2266 110.237 51.3272 110.399 51.458C110.786 51.7211 111.081 52.0542 111.26 52.4274C111.438 52.8006 111.494 53.2021 111.422 53.5961C112.051 53.6591 114.274 53.9985 114.27 55.7522C114.268 55.7801 114.253 55.8064 114.227 55.8259C114.201 55.8453 114.166 55.8566 114.13 55.8573Z" fill="#FAFAFA"/>
<path d="M114.128 52.8605C114.092 52.8606 114.057 52.8501 114.031 52.8312C114.004 52.8122 113.988 52.7862 113.985 52.7584C113.922 52.1217 113.444 51.2989 112.842 51.0947C112.723 51.0535 112.59 51.0401 112.461 51.0561C112.332 51.0721 112.212 51.1168 112.115 51.1848C112.092 51.1966 112.064 51.2028 112.036 51.2028C112.007 51.2028 111.98 51.1966 111.956 51.1848C111.931 51.1743 111.911 51.1585 111.898 51.1393C111.885 51.1201 111.879 51.0983 111.882 51.0767C111.882 51.0767 112.01 49.9506 111.354 49.4851C111.211 49.3932 111.042 49.3289 110.861 49.2976C110.68 49.2662 110.492 49.2688 110.312 49.305C110.287 49.309 110.262 49.3078 110.238 49.3015C110.214 49.2951 110.193 49.2839 110.176 49.2689C110.16 49.2538 110.148 49.2356 110.144 49.2162C110.139 49.1967 110.141 49.1766 110.149 49.1578C110.281 48.8785 110.538 48.0948 110.192 47.8155C110.029 47.6864 109.729 47.6744 109.298 47.7825C109.268 47.79 109.237 47.79 109.207 47.7824C109.178 47.7748 109.152 47.7601 109.135 47.7404C109.117 47.7211 109.107 47.698 109.107 47.6744C109.107 47.6507 109.117 47.6276 109.135 47.6083C109.376 47.3741 109.97 46.6894 109.823 46.3621C109.798 46.3169 109.759 46.2775 109.708 46.2479C109.658 46.2184 109.598 46.1997 109.535 46.1939C109.517 46.1904 109.499 46.1841 109.484 46.1754C109.469 46.1667 109.456 46.1558 109.446 46.1432C109.436 46.1306 109.43 46.1167 109.427 46.1022C109.424 46.0877 109.425 46.073 109.43 46.0588C109.434 46.0445 109.441 46.0309 109.452 46.0189C109.463 46.0069 109.476 45.9968 109.492 45.9892C109.509 45.9815 109.526 45.9766 109.545 45.9746C109.564 45.9726 109.583 45.9737 109.601 45.9777C109.71 45.99 109.813 46.0242 109.9 46.0769C109.986 46.1296 110.054 46.1989 110.095 46.278C110.254 46.6353 109.865 47.1789 109.593 47.4792C109.733 47.4534 109.88 47.4545 110.019 47.4822C110.159 47.5099 110.287 47.5635 110.394 47.6383C110.821 47.9807 110.615 48.7044 110.487 49.0437C110.677 49.0262 110.869 49.0399 111.051 49.0839C111.233 49.1279 111.401 49.2012 111.544 49.299C112.123 49.7074 112.185 50.5001 112.178 50.8635C112.299 50.8193 112.432 50.7964 112.566 50.7964C112.701 50.7964 112.833 50.8193 112.955 50.8635C113.689 51.1127 114.198 51.9986 114.272 52.7163C114.274 52.7308 114.272 52.7453 114.266 52.7591C114.26 52.7729 114.251 52.7856 114.238 52.7965C114.226 52.8074 114.211 52.8163 114.194 52.8227C114.177 52.829 114.159 52.8327 114.14 52.8334L114.128 52.8605Z" fill="#FAFAFA"/>
<path d="M122.5 39.1971C122.482 39.0377 122.408 38.8849 122.288 38.7546C122.168 38.6242 122.005 38.5209 121.816 38.4554L98.6506 28.1192C98.1355 27.9179 97.5664 27.813 96.9892 27.813C96.4121 27.813 95.843 27.9179 95.3279 28.1192L59.6996 44.0169C59.5106 44.0824 59.3476 44.1857 59.2274 44.316C59.1072 44.4464 59.0341 44.5992 59.0156 44.7586V46.149C59.0341 46.3084 59.1072 46.4612 59.2274 46.5915C59.3476 46.7219 59.5106 46.8252 59.6996 46.8907L82.865 57.2239C83.3795 57.4266 83.9488 57.5323 84.5263 57.5323C85.1039 57.5323 85.6732 57.4266 86.1877 57.2239L121.816 41.3292C122.005 41.2637 122.168 41.1604 122.288 41.0301C122.408 40.8997 122.482 40.7469 122.5 40.5875V39.1971Z" fill="#37474F"/>
<path d="M82.865 55.8335L59.6996 45.5003C58.7824 45.0889 58.7824 44.4253 59.6996 44.0169L95.3279 28.1192C95.8429 27.9179 96.412 27.813 96.9892 27.813C97.5664 27.813 98.1355 27.9179 98.6506 28.1192L121.816 38.4554C122.737 38.8668 122.737 39.5275 121.816 39.9389L86.1876 55.8335C85.6731 56.0362 85.1038 56.1419 84.5263 56.1419C83.9488 56.1419 83.3795 56.0362 82.865 55.8335Z" fill="#455A64"/>
<path opacity="0.1" d="M117.245 43.3652L106.341 53.7945L87.6445 62.1367L87.6406 56.5752L117.245 43.3652Z" fill="black"/>
<path opacity="0.1" d="M115.689 59.3525L106.343 69.0851L87.6465 77.4303V71.8658L115.689 59.3525Z" fill="black"/>
<path opacity="0.1" d="M115.689 74.6465L106.343 84.3791L87.6465 92.7242V87.1598L115.689 74.6465Z" fill="black"/>
<path d="M72.8002 105.022L44.1359 117.811L11.8574 103.376L40.5217 90.5894L72.8002 105.022Z" fill="#6C63FF"/>
<path opacity="0.5" d="M72.8002 105.022L44.1359 117.811L11.8574 103.376L40.5217 90.5894L72.8002 105.022Z" fill="black"/>
<path d="M40.5217 73.2534V90.5895L11.8574 103.376V86.043L40.5217 73.2534Z" fill="#6C63FF"/>
<path opacity="0.23" d="M40.5217 73.2534V90.5895L11.8574 103.376V86.043L40.5217 73.2534Z" fill="black"/>
<path d="M44.1359 100.475V117.811L11.8574 103.376V86.043L44.1359 100.475Z" fill="#6C63FF"/>
<path opacity="0.38" d="M44.1359 100.475V117.811L11.8574 103.376V86.043L44.1359 100.475Z" fill="black"/>
<path d="M72.7999 87.6856V105.022L40.5215 90.5895V73.2534L72.7999 87.6856Z" fill="#6C63FF"/>
<path opacity="0.4" d="M72.7999 87.6856V105.022L40.5215 90.5895V73.2534L72.7999 87.6856Z" fill="black"/>
<path d="M72.7991 105.022V87.6855L44.1348 100.475V117.811L72.7991 105.022Z" fill="#6C63FF"/>
<path opacity="0.23" d="M72.7991 105.022V87.6855L44.1348 100.475V117.811L72.7991 105.022Z" fill="black"/>
<path d="M40.5215 73.2532L40.5603 63.6558L72.7611 78.106L72.7999 87.6854L40.5215 73.2532Z" fill="#6C63FF"/>
<path opacity="0.2" d="M40.5215 73.2532L40.5603 63.6558L72.7611 78.106L72.7999 87.6854L40.5215 73.2532Z" fill="black"/>
<path d="M44.1348 100.475L46.824 92.0787L75.2279 79.4062L72.7991 87.6854L44.1348 100.475Z" fill="#6C63FF"/>
<path opacity="0.3" d="M44.1348 100.475L46.824 92.0787L75.2279 79.4062L72.7991 87.6854L44.1348 100.475Z" fill="black"/>
<path d="M11.8573 86.043L8.4375 77.3344L37.1018 64.5479L40.5216 73.2534L11.8573 86.043Z" fill="#6C63FF"/>
<path opacity="0.1" d="M11.8573 86.043L8.4375 77.3344L37.1018 64.5479L40.5216 73.2534L11.8573 86.043Z" fill="black"/>
<path d="M11.8577 86.0428L5.11133 78.8447L37.3937 93.2769L44.1362 100.475L11.8577 86.0428Z" fill="#6C63FF"/>
<path opacity="0.45" d="M11.8577 86.0428L5.11133 78.8447L37.3937 93.2769L44.1362 100.475L11.8577 86.0428Z" fill="black"/>
<g opacity="0.7">
<path opacity="0.7" d="M52.5772 112.655C52.5305 112.655 52.4856 112.641 52.4521 112.616C52.4187 112.591 52.3995 112.556 52.3984 112.52V109.469C52.3994 109.433 52.4186 109.398 52.4519 109.372C52.4852 109.347 52.5301 109.332 52.5772 109.331C52.6239 109.332 52.6684 109.347 52.7011 109.373C52.7338 109.398 52.7521 109.433 52.7521 109.469V112.52C52.7521 112.556 52.7337 112.59 52.7009 112.616C52.6681 112.641 52.6236 112.655 52.5772 112.655Z" fill="white"/>
<path opacity="0.7" d="M52.0589 110.526C52.0357 110.529 52.0121 110.529 51.9889 110.526C51.9465 110.511 51.9132 110.484 51.8959 110.45C51.8785 110.417 51.8785 110.379 51.8957 110.346L52.5252 109.226L53.2247 109.85C53.2498 109.878 53.2606 109.912 53.2551 109.946C53.2496 109.98 53.2282 110.011 53.195 110.033C53.1618 110.055 53.1191 110.067 53.0752 110.067C53.0312 110.066 52.9889 110.053 52.9566 110.03L52.6263 109.73L52.2377 110.451C52.2208 110.476 52.1949 110.496 52.1631 110.509C52.1312 110.523 52.095 110.528 52.0589 110.526Z" fill="white"/>
<path opacity="0.7" d="M54.2042 111.937C54.1574 111.937 54.113 111.922 54.0803 111.896C54.0476 111.87 54.0293 111.835 54.0293 111.799V108.751C54.0293 108.715 54.0477 108.681 54.0805 108.656C54.1133 108.63 54.1578 108.616 54.2042 108.616C54.2506 108.616 54.295 108.63 54.3278 108.656C54.3606 108.681 54.3791 108.715 54.3791 108.751V111.796C54.3796 111.814 54.3755 111.833 54.3669 111.849C54.3584 111.866 54.3457 111.882 54.3295 111.895C54.3132 111.908 54.2938 111.919 54.2723 111.926C54.2508 111.933 54.2277 111.937 54.2042 111.937Z" fill="white"/>
<path opacity="0.7" d="M53.6869 109.808C53.6637 109.811 53.6401 109.811 53.617 109.808C53.5956 109.801 53.5764 109.791 53.5603 109.778C53.5442 109.765 53.5316 109.75 53.5233 109.733C53.515 109.716 53.5111 109.698 53.5118 109.68C53.5125 109.662 53.5179 109.645 53.5276 109.628L54.1532 108.493L54.8528 109.115C54.885 109.141 54.9031 109.175 54.9031 109.211C54.9031 109.247 54.885 109.281 54.8528 109.307C54.8365 109.32 54.8171 109.33 54.7958 109.337C54.7744 109.344 54.7515 109.347 54.7284 109.347C54.7053 109.347 54.6824 109.344 54.661 109.337C54.6397 109.33 54.6203 109.32 54.604 109.307L54.2737 109.007L53.8851 109.727C53.869 109.756 53.8406 109.78 53.8045 109.795C53.7684 109.81 53.727 109.814 53.6869 109.808Z" fill="white"/>
</g>
<g opacity="0.7">
<path opacity="0.7" d="M47.8798 114.723C47.8134 114.724 47.7478 114.712 47.6894 114.687C47.6191 114.653 47.5622 114.604 47.5246 114.546C47.487 114.489 47.4701 114.424 47.4756 114.36V113.985C47.4767 113.948 47.4959 113.914 47.5293 113.889C47.5628 113.864 47.6077 113.849 47.6544 113.849C47.7008 113.849 47.7453 113.864 47.7781 113.889C47.8109 113.914 47.8293 113.949 47.8293 113.985V114.36C47.8293 114.414 47.8293 114.444 47.8643 114.45C47.8992 114.456 47.9187 114.45 47.9769 114.426C48.0863 114.348 48.1725 114.253 48.2295 114.146C48.2865 114.04 48.3131 113.925 48.3073 113.81V112.249C48.3073 112.213 48.3257 112.179 48.3585 112.153C48.3913 112.128 48.4358 112.114 48.4822 112.114C48.5285 112.114 48.573 112.128 48.6058 112.153C48.6386 112.179 48.657 112.213 48.657 112.249V113.81C48.6657 113.973 48.6249 114.134 48.5378 114.282C48.4507 114.429 48.3198 114.559 48.1557 114.66C48.0727 114.7 47.9774 114.722 47.8798 114.723Z" fill="white"/>
<path opacity="0.7" d="M46.0254 113.465V113.231C46.0716 112.63 46.2991 112.045 46.6898 111.524C47.0805 111.002 47.6235 110.559 48.2755 110.228C48.9128 109.946 49.5191 109.904 49.9854 110.114C50.2341 110.246 50.4324 110.427 50.5596 110.638C50.6868 110.85 50.7381 111.083 50.7082 111.315V111.393L46.0254 113.465ZM49.3325 110.24C49.0213 110.251 48.719 110.324 48.4542 110.451C47.8955 110.735 47.4224 111.108 47.0671 111.546C46.7117 111.984 46.4823 112.476 46.3946 112.988L50.3468 111.222C50.3637 111.048 50.3221 110.874 50.2261 110.716C50.1301 110.558 49.9829 110.422 49.7988 110.321C49.6553 110.263 49.4945 110.235 49.3325 110.24Z" fill="white"/>
</g>
<path opacity="0.7" d="M5.11133 78.8447L37.3937 93.2769L44.1362 100.475L37.0361 93.5322L5.11133 78.8447Z" fill="white"/>
<path opacity="0.7" d="M72.7991 87.6855L44.1348 100.475V117.811L44.6711 100.823L72.7991 87.6855Z" fill="white"/>
<path d="M30.7344 80.7519C33.6917 80.4216 36.3926 78.9502 38.1181 77.1003C38.9227 76.236 39.5155 75.2651 39.8669 74.2355C40.24 73.2728 40.3014 72.254 40.0456 71.2686C39.5132 69.62 37.539 68.644 35.4522 68.4398C34.3932 68.3322 33.3165 68.4133 32.3044 68.6771C31.255 68.9554 30.3445 69.4804 29.7007 70.1785C29.2969 70.5505 29.043 71.0056 28.9701 71.4878C28.9639 71.6767 29.05 71.8604 29.2114 72.0023C29.3727 72.1443 29.5974 72.234 29.8406 72.2536C30.4663 72.2943 31.0917 72.1717 31.6165 71.9052C32.2565 71.6279 32.8202 71.2566 33.2759 70.8122C34.2534 69.88 34.9849 68.8087 35.4289 67.6591C35.7404 66.6726 35.7404 65.6426 35.4289 64.6561C35.1922 63.6242 34.5818 62.6652 33.6684 61.8904C32.6214 61.1546 31.2926 60.7024 29.8833 60.6021C28.4807 60.4532 27.0525 60.556 25.7096 60.9024C25.1197 61.0406 24.5732 61.2717 24.1046 61.5811C23.7704 61.8213 23.3895 62.2177 23.5255 62.6081C23.6616 62.9985 24.3999 63.1727 24.9012 63.1216C25.6432 63.0142 26.3228 62.7295 26.8443 62.3078C27.4255 61.8657 27.9192 61.3597 28.3094 60.8063C28.5993 60.4086 28.7506 59.9595 28.7485 59.503C28.698 57.5992 25.9738 56.368 23.8403 56.0196C23.2644 55.9266 22.6745 55.8963 22.0877 55.9295C21.8895 55.9295 22.0099 56.1818 22.1693 56.1728C23.3174 56.1325 24.4583 56.3316 25.4725 56.7493C26.4731 57.1047 27.3135 57.683 27.8858 58.41C28.1409 58.7684 28.2668 59.1731 28.2504 59.582C28.234 59.9908 28.0759 60.3887 27.7926 60.7343C27.412 61.2464 26.9383 61.7136 26.3858 62.1216C25.9233 62.4459 25.2199 62.8213 24.5709 62.7853C24.4638 62.7851 24.3589 62.7616 24.2681 62.7175C24.1774 62.6735 24.1046 62.6106 24.058 62.536C24.0384 62.4374 24.0489 62.3366 24.0887 62.2417C24.1285 62.1469 24.1965 62.0605 24.2872 61.9895C24.6304 61.7039 25.0548 61.4839 25.5269 61.3469C26.6928 60.9724 27.9552 60.812 29.2149 60.8784C30.5131 60.8966 31.7755 61.2099 32.8446 61.7793C33.7759 62.3768 34.4373 63.1876 34.7332 64.0946C35.1082 65.0159 35.2248 65.9885 35.0752 66.9474C34.8444 67.9123 34.3647 68.8314 33.6645 69.65C32.9456 70.5689 32.044 71.4518 30.6916 71.8121C30.3574 71.9052 29.6579 72.0404 29.5258 71.665C29.3937 71.2896 29.7745 70.8272 30.0193 70.5359C30.5607 69.8775 31.35 69.3629 32.2811 69.0614C33.1795 68.7832 34.1494 68.6701 35.1141 68.7311C36.9445 68.8362 38.802 69.5749 39.4394 70.9803C39.7591 71.8202 39.7939 72.7096 39.5404 73.5629C39.3118 74.4982 38.8767 75.3961 38.2541 76.2175C36.9149 77.9626 34.8868 79.3298 32.4676 80.1183C31.8925 80.3105 31.3018 80.4727 30.6994 80.6228C30.6372 80.6408 30.6644 80.7609 30.7344 80.7519Z" fill="#E0E0E0"/>
<path d="M18.382 54.6798C16.8275 54.5927 14.6863 55.5386 15.4479 56.2293C16.2096 56.92 18.2304 55.8029 18.2304 55.8029C18.2304 55.8029 18.04 57.1992 18.7007 57.3584C19.3613 57.5175 20.2551 56.1842 19.5945 55.3314C19.9131 55.4285 20.2583 55.4617 20.598 55.4281C20.9377 55.3945 21.2609 55.2951 21.5376 55.1392C22.478 54.6047 21.4832 54.1002 20.158 54.1903C20.158 54.1903 21.1062 51.7879 19.1903 52.2474C18.2304 52.4726 17.8923 53.3404 18.382 54.6798Z" fill="#6C63FF"/>
<path opacity="0.65" d="M18.382 54.6798C16.8275 54.5927 14.6863 55.5386 15.4479 56.2293C16.2096 56.92 18.2304 55.8029 18.2304 55.8029C18.2304 55.8029 18.04 57.1992 18.7007 57.3584C19.3613 57.5175 20.2551 56.1842 19.5945 55.3314C19.9131 55.4285 20.2583 55.4617 20.598 55.4281C20.9377 55.3945 21.2609 55.2951 21.5376 55.1392C22.478 54.6047 21.4832 54.1002 20.158 54.1903C20.158 54.1903 21.1062 51.7879 19.1903 52.2474C18.2304 52.4726 17.8923 53.3404 18.382 54.6798Z" fill="white"/>
<path d="M19.8282 55.1902C19.7422 55.1252 19.6514 55.064 19.5562 55.007C19.4202 54.926 19.2764 54.8479 19.1404 54.7698C19.0079 54.6954 18.869 54.6282 18.7246 54.5686C18.6414 54.533 18.5558 54.5009 18.4681 54.4725C18.347 54.4286 18.2123 54.4119 18.0795 54.4245C18.0446 54.4252 18.0107 54.4332 17.9813 54.4476C17.9518 54.4619 17.9279 54.4821 17.912 54.5061C17.8961 54.53 17.8889 54.5568 17.891 54.5836C17.8931 54.6105 17.9045 54.6364 17.924 54.6587C18.0308 54.7481 18.1642 54.8162 18.3126 54.8569L18.5225 54.944C18.6663 55.01 18.7945 55.0851 18.9111 55.1602C19.0277 55.2353 19.1831 55.3073 19.2997 55.3824C19.5002 55.508 19.7243 55.6093 19.9642 55.6827C19.975 55.6872 19.987 55.6895 19.9992 55.6895C20.0114 55.6895 20.0234 55.6872 20.0342 55.6827C20.2324 55.5626 19.9409 55.2773 19.8282 55.1902Z" fill="#455A64"/>
<path d="M143.72 21.6446C142.022 23.4104 139.749 33.1189 138.89 36.233C134.759 36.1399 129.233 35.9897 127.142 35.8216C124.81 35.6324 119.832 35.263 117.388 35.5213C111.321 36.1219 111.558 39.2029 111.706 40.0077C111.865 40.9266 112.716 41.347 115.981 40.7734C116.711 40.6494 117.456 40.582 118.204 40.5722C118.518 40.5722 119.183 40.4491 119.432 40.6563C119.82 40.9566 118.697 41.4611 118.417 41.5993C117.986 41.8155 117.535 42.0887 117.446 42.4791C117.42 42.5505 117.422 42.6261 117.45 42.6968C117.478 42.7676 117.532 42.8307 117.605 42.8785C117.763 42.9284 117.941 42.9284 118.099 42.8785C119.589 42.6053 121.026 42.1823 122.374 41.6203C122.882 41.3836 123.416 41.1826 123.971 41.0197C124.814 40.8095 125.685 40.9326 126.532 40.9326C128.354 40.9326 137.988 41.6713 142.271 42.0077C145.236 42.2389 145.551 39.9777 146.573 37.6864C147.828 34.8456 150.801 19.9059 150.801 19.9059C147.801 19.5696 145.741 19.5486 143.72 21.6446Z" fill="#FFA8A7"/>
<path d="M150.847 19.6719C149.413 19.4677 146.183 19.1584 144.427 20.6749C142.67 22.1914 142.254 23.783 141.481 26.0802C140.708 28.3775 139.336 32.4915 139.336 32.4915C139.336 32.4915 141.602 35.005 148.694 34.2933L150.847 19.6719Z" fill="#37474F"/>
<path d="M168.658 99.0754L163.672 99.0784L162.238 90.7151L168.53 90.5229L168.658 99.0754Z" fill="#FFA8A7"/>
<path d="M152.103 94.8984C151.256 96.0365 148.532 95.9434 146.274 95.541L146.014 87.3189L152.678 87.1147L152.103 94.8984Z" fill="#FFA8A7"/>
<path d="M168.32 46.2295C168.499 49.788 167.889 70.8297 167.889 70.8297C168.056 71.8507 169.424 73.6315 169.708 77.3161C170.123 82.6674 168.713 94.0786 168.713 94.0786C168.713 94.0786 165.856 95.2317 162.779 94.3488C162.779 94.3488 159.646 77.8326 158.504 72.5534C157.517 67.9589 156.25 55.6348 156.25 55.6348L153.79 71.4303C154.241 73.3 154.427 75.2021 154.346 77.1029C154.245 79.5593 152.434 91.487 152.434 91.487C150.368 92.0093 148.148 92.05 146.053 91.6041C146.053 91.6041 144.568 73.094 144.397 70.8507C144.203 68.2922 144.335 45.707 144.335 45.707L168.32 46.2295Z" fill="#6C63FF"/>
<path opacity="0.2" d="M156.257 55.6411C156.257 55.6411 151.901 54.6862 148.932 52.6382C148.932 52.6382 150.323 54.473 154.263 56.1006L154.038 69.8871L156.257 55.6411Z" fill="black"/>
<path d="M157.991 106.051C157.832 106.177 157.925 107.009 158.119 107.225C158.314 107.442 159.503 108.174 161.566 108.228C163.537 108.276 165.278 108.018 166.401 107.418C167.524 106.817 168.052 106.177 168.118 105.315C168.185 104.454 168.017 103.616 168.507 102.934C168.97 102.307 169.72 101.589 169.871 101.249C170.209 100.514 169.797 99.4897 169.797 99.4897L157.991 106.051Z" fill="#263238"/>
<path d="M162.964 98.3433C162.967 98.6717 162.907 98.9985 162.786 99.3133C162.364 100.337 161.73 101.302 160.909 102.169C160.341 102.731 159.626 103.202 159.024 103.746C158.379 104.261 157.984 104.932 157.905 105.646C157.881 106.848 159.576 107.193 160.87 107.331C162.272 107.474 163.699 107.371 165.043 107.031C165.752 106.866 166.383 106.546 166.861 106.11C167.34 105.675 167.645 105.141 167.74 104.574C167.795 104.241 167.74 103.905 167.787 103.571C167.919 102.806 168.294 102.077 168.879 101.451C169.218 101.089 169.507 100.701 169.742 100.292C170.103 99.5415 169.742 98.7217 169.446 97.998C169.194 97.3703 168.906 96.6587 168.623 96.7277C168.623 97.061 168.623 97.0911 168.347 97.3283C167.958 97.6286 167.977 98.046 167.569 98.3073C167.687 98.0301 167.768 97.7443 167.81 97.4544C167.83 97.3362 167.792 97.2166 167.705 97.1181C167.565 97.03 167.4 96.9683 167.224 96.9379C166.609 96.7976 165.977 96.706 165.339 96.6647C164.731 96.6029 164.114 96.6181 163.512 96.7097C163.334 96.7415 163.176 96.8188 163.061 96.9289C162.961 97.0519 162.911 97.1952 162.918 97.3403C162.918 97.5355 162.96 98.025 162.964 98.3433Z" fill="#455A64"/>
<path d="M161.487 101.505C162.047 101.157 163.329 101.112 164.037 101.151C164.753 101.176 165.45 101.341 166.061 101.632C166.151 101.678 166.26 101.698 166.368 101.688C166.475 101.678 166.575 101.639 166.648 101.577C166.691 101.542 166.724 101.501 166.744 101.455C166.763 101.409 166.77 101.361 166.764 101.313C166.757 101.265 166.737 101.219 166.705 101.177C166.673 101.136 166.63 101.1 166.578 101.073C165.903 100.719 165.112 100.519 164.297 100.496C162.564 100.457 162.07 100.701 162.07 100.701C162.07 100.701 161.297 101.115 161.487 101.505Z" fill="#F5F5F5"/>
<path d="M160.229 102.766C160.932 102.415 162.35 102.418 163.054 102.466C163.759 102.5 164.439 102.677 165.028 102.979C165.117 103.026 165.225 103.046 165.332 103.036C165.439 103.026 165.538 102.987 165.611 102.925C165.655 102.891 165.688 102.849 165.709 102.804C165.729 102.758 165.737 102.709 165.73 102.661C165.724 102.613 165.704 102.567 165.672 102.525C165.64 102.484 165.597 102.448 165.545 102.421C164.858 102.049 164.05 101.832 163.213 101.796C161.476 101.754 161.041 102.039 161.041 102.039C160.843 102.106 160.668 102.205 160.527 102.331C160.387 102.457 160.284 102.606 160.229 102.766Z" fill="#F5F5F5"/>
<path d="M164.92 99.199C164.186 99.1216 163.439 99.1919 162.751 99.4032C162.456 99.5443 162.273 99.9227 162.472 100.004C163.074 99.7949 163.733 99.7041 164.391 99.7395C165.042 99.769 165.681 99.8848 166.28 100.082C166.432 100.127 166.61 100.193 166.766 100.253C166.816 100.273 166.87 100.284 166.926 100.287C166.981 100.29 167.037 100.284 167.09 100.27C167.143 100.256 167.191 100.233 167.232 100.204C167.273 100.175 167.306 100.139 167.329 100.1C167.366 100.032 167.369 99.9552 167.337 99.8854C167.306 99.8156 167.242 99.7572 167.158 99.7215C166.469 99.4251 165.706 99.2469 164.92 99.199Z" fill="#F5F5F5"/>
<path d="M134.879 100.028C134.702 100.371 134.702 100.754 134.879 101.097C135.049 101.418 137.109 102.415 139.969 102.373C142.096 102.333 144.171 101.854 145.977 100.986C147.1 100.469 148.239 100.406 149.654 100.385C151.068 100.364 152.957 99.8986 153.299 99.4001C153.641 98.9016 153.338 98.0098 153.338 98.0098L134.879 100.028Z" fill="#263238"/>
<path d="M146.811 93.5711L146.59 93.5261C146.464 93.4966 146.332 93.4874 146.201 93.499C146.061 93.525 145.935 93.5837 145.84 93.6672C145.546 93.9335 145.285 94.2211 145.063 94.526C144.421 95.2558 143.119 95.8353 141.72 96.3548C140.764 96.7062 139.836 96.9734 138.852 97.2707C137.869 97.568 136.521 97.7362 135.744 98.1086C134.578 98.6521 134.356 100.109 135.592 100.733C136.665 101.274 139.525 101.919 142.587 101.367C144.262 101.066 146.182 99.7692 148.358 99.7181C149.745 99.6851 152.372 99.4809 153.309 98.7031C153.663 98.3578 153.309 97.2017 152.994 96.2047C152.668 95.1176 152.815 93.502 152.186 93.502L152.147 94.0456C152.089 94.2077 151.595 94.3669 151.44 94.493L150.88 94.9495C150.651 95.1608 150.371 95.3362 150.056 95.466C149.501 95.6582 148.852 95.544 148.257 95.4239C148.234 95.4239 148.556 94.5891 148.591 94.508C148.626 94.4446 148.637 94.3748 148.622 94.3068C148.592 94.2403 148.533 94.1839 148.455 94.1477C147.965 93.8699 147.405 93.6736 146.811 93.5711Z" fill="#455A64"/>
<path d="M143.049 95.8204C143.158 95.6774 143.311 95.5577 143.495 95.4722C143.679 95.3867 143.888 95.3382 144.102 95.331C144.735 95.2649 145.82 95.6613 146.484 96.1267C146.547 96.1704 146.595 96.2252 146.624 96.2864C146.653 96.3476 146.662 96.4134 146.65 96.4779C146.639 96.5425 146.607 96.6039 146.558 96.6568C146.508 96.7097 146.443 96.7525 146.368 96.7814C146.273 96.8177 146.166 96.8302 146.061 96.8173C145.957 96.8044 145.86 96.7666 145.785 96.7093C145.057 96.1494 144.076 95.8305 143.049 95.8204Z" fill="#F5F5F5"/>
<path d="M141.051 96.5922C141.196 96.4483 141.385 96.3336 141.6 96.2578C141.815 96.1821 142.05 96.1474 142.287 96.1568C142.287 96.1568 143.927 96.2529 144.894 97.0216C144.954 97.0638 145 97.1165 145.027 97.1752C145.055 97.2339 145.064 97.297 145.053 97.3589C145.042 97.4209 145.012 97.4799 144.966 97.531C144.919 97.5821 144.857 97.6237 144.785 97.6522C144.694 97.6868 144.59 97.6987 144.49 97.6863C144.389 97.674 144.295 97.638 144.222 97.5832C143.824 97.2445 143.332 96.9795 142.783 96.8079C142.234 96.6364 141.642 96.5626 141.051 96.5922Z" fill="#F5F5F5"/>
<path d="M138.855 97.2708C139.021 97.1388 139.221 97.0358 139.442 96.9689C139.663 96.9021 139.901 96.8729 140.138 96.8834C141.067 96.9627 141.94 97.2664 142.633 97.7513C142.693 97.7937 142.738 97.8467 142.766 97.9056C142.793 97.9646 142.802 98.0278 142.792 98.09C142.781 98.1521 142.751 98.2114 142.704 98.2627C142.658 98.3141 142.596 98.356 142.524 98.3849C142.432 98.42 142.328 98.4319 142.227 98.4189C142.126 98.406 142.033 98.3689 141.961 98.3129C141.583 97.9647 141.106 97.6892 140.567 97.5083C140.028 97.3275 139.442 97.2461 138.855 97.2708Z" fill="#F5F5F5"/>
<path d="M159.158 19.7376C160.992 19.8998 163.16 19.9868 164.913 20.164C167.171 20.3922 168.931 22.197 169.483 24.9898C170.089 28.0648 167.54 36.8815 167.54 36.8815L168.352 47.2777C165.045 49.1605 150.962 50.1485 143.943 46.2326C143.943 46.2326 144.107 28.5393 144.655 25.8126C145.408 22.0739 146.598 19.7526 152.038 19.4854L159.158 19.7376Z" fill="#455A64"/>
<path d="M171.697 42.2596C171.102 43.0283 170.504 43.7971 169.89 44.5568C169.665 44.8391 169.435 45.1184 169.198 45.3946C169.07 45.5299 168.92 45.652 168.751 45.758C168.456 45.9142 167.842 45.8151 167.484 45.8241C165.728 45.8701 163.977 45.9702 162.23 46.1244C162.084 46.1208 161.939 46.1421 161.805 46.1868C161.67 46.2314 161.55 46.2982 161.453 46.3826C161.381 46.4989 161.367 46.6314 161.413 46.7553C161.459 46.8792 161.561 46.9858 161.702 47.0553C161.988 47.188 162.313 47.2624 162.646 47.2715L164.162 47.4096C164.378 47.4152 164.588 47.4672 164.768 47.5598C165.32 47.9051 164.267 48.3195 163.952 48.4877C163.319 48.8275 162.643 49.1173 161.935 49.3525C158.776 50.3795 158.391 51.1243 158.974 51.9711C159.479 52.7068 161.663 55.3825 167.212 53.0792C169.447 52.1513 172.847 49.2204 174.398 47.803C176.629 45.758 180.402 41.1965 180.402 41.1965C182.547 38.9203 182.823 37.9864 182.874 37.0404C182.924 36.0945 176.267 28.8183 174.005 26.2628C171.744 23.7073 170.667 20.5993 164.912 20.1729C164.912 20.1729 162.72 25.5421 166.35 29.0165L174.732 38.0524C174.732 38.0524 172.513 41.2055 171.697 42.2596Z" fill="#FFA8A7"/>
<path d="M177.78 29.7286C176.703 28.5274 175.58 27.2902 174.496 26.065C169.93 20.9149 170.315 19.972 163.731 19.8999C163.149 20.5906 162.803 23.5635 163.681 26.5484C164.415 29.0559 167.178 30.8246 167.178 30.8246L170.474 34.275C170.474 34.275 172.491 34.227 174.908 32.8576C176.304 32.102 177.319 30.9965 177.78 29.7286Z" fill="#37474F"/>
<path d="M163.497 6.20306C163.166 5.82201 162.708 5.51744 162.171 5.32178C161.633 5.12612 161.038 5.0467 160.447 5.09197L160.105 11.5393L159.545 13.9206L159.642 16.5723C159.967 16.5368 160.275 16.4383 160.537 16.286C160.799 16.1337 161.008 15.9326 161.142 15.7014C161.655 14.9386 163.085 11.251 163.085 11.251C164.368 8.22104 164.096 6.8517 163.497 6.20306Z" fill="#263238"/>
<path d="M159.716 11.5699C159.86 11.178 160.138 10.8233 160.52 10.5429C160.998 10.1465 162.902 9.71704 163.769 10.9663C164.636 12.2155 163.174 13.8641 162.047 14.3686C160.606 15.0173 159.758 14.1344 159.758 14.1344L159.793 20.0712C159.121 21.2724 156.086 22.3415 154.279 22.1733C152.841 22.0321 151.516 21.1583 152.802 19.885L152.697 18.1914C152.697 18.1914 150.774 18.4917 149.822 18.4166C148.24 18.2905 147.187 17.3686 146.627 16.0713C145.726 13.9872 145.325 12.2936 145.706 8.11347C146.126 3.53396 152.977 3.22466 156.797 4.88229C160.617 6.53992 159.716 11.5699 159.716 11.5699Z" fill="#FFA8A7"/>
<path d="M143.526 3.35659C143.351 2.3566 143.798 1.28455 145.154 0.930203C145.652 0.769316 146.198 0.720319 146.73 0.788853C147.262 0.857387 147.759 1.04066 148.162 1.31758C148.332 0.964797 148.626 0.655648 149.011 0.424877C149.396 0.194107 149.856 0.0508623 150.341 0.0112418C150.825 -0.0283788 151.315 0.037195 151.753 0.200594C152.192 0.363993 152.564 0.618742 152.825 0.936209C153.186 0.513387 153.742 0.213493 154.38 0.0983849C154.773 0.0305207 155.18 0.024255 155.577 0.079959C155.973 0.135663 156.351 0.252206 156.688 0.422703C157.24 0.738013 157.889 1.32359 157.726 2.08334C158.818 1.744 159.956 2.02628 160.769 2.77101C161.252 3.22706 161.525 3.79434 161.546 4.3836C161.574 4.68967 161.517 4.99684 161.379 5.28448C161.223 5.55775 160.905 5.73793 160.811 6.04723C160.676 6.31937 160.606 6.60844 160.605 6.90007C160.695 7.40457 160.839 7.90906 160.924 8.40155C161.016 8.89207 161.069 9.38648 161.083 9.882C161.063 9.99854 161.011 10.1104 160.93 10.2098C160.848 10.3093 160.741 10.3941 160.613 10.4586C160.25 10.7038 159.969 11.0127 159.793 11.3595C159.657 11.5757 159.525 12.1102 159.257 12.2603C158.429 12.7078 158.336 11.2604 158.297 10.9811C158.244 10.3401 158.244 9.69716 158.297 9.05619C157.88 9.05202 157.468 8.9804 157.088 8.84594C156.709 8.71147 156.37 8.51714 156.094 8.27542C155.807 8.0038 155.618 7.67856 155.546 7.3325C155.501 7.13422 155.48 6.93316 155.484 6.73191C154.943 7.42259 153.688 7.70486 152.794 7.63279C151.294 7.52769 150.777 7.0322 150.536 6.66884C150.442 7.027 150.238 7.36257 149.942 7.64781C149.559 7.92605 149.097 8.13166 148.593 8.2484C148.159 8.33797 147.701 8.33443 147.269 8.23814C146.837 8.14185 146.447 7.95646 146.141 7.70186C145.531 8.37752 143.984 8.07723 143.642 7.88804C142.865 7.45261 142.613 6.9331 142.527 6.19137C142.442 5.44965 142.83 4.60281 143.895 4.31153C143.703 4.0116 143.578 3.68872 143.526 3.35659Z" fill="#263238"/>
<path d="M152.697 18.182C152.697 18.182 156.171 17.5033 157.361 16.9507C158.064 16.6325 158.626 16.1572 158.973 15.5874C158.823 16.1495 158.529 16.6825 158.107 17.1549C157.267 18.0768 152.736 18.9057 152.736 18.9057L152.697 18.182Z" fill="#F28F8F"/>
<path d="M152.892 11.3716C152.905 11.4853 152.961 11.5936 153.053 11.6829C153.145 11.7722 153.269 11.8387 153.41 11.8739C153.55 11.9092 153.701 11.9118 153.844 11.8814C153.986 11.8509 154.114 11.7888 154.211 11.7028C154.308 11.6167 154.37 11.5105 154.39 11.3973C154.41 11.2841 154.386 11.1689 154.322 11.0661C154.257 10.9633 154.155 10.8774 154.028 10.8191C153.901 10.7607 153.755 10.7325 153.607 10.738C153.404 10.7503 153.216 10.8235 153.082 10.942C152.948 11.0604 152.88 11.2147 152.892 11.3716Z" fill="#263238"/>
<path d="M151.731 15.7163C151.748 15.8628 151.822 16.0021 151.941 16.1167C152.06 16.2314 152.221 16.3164 152.402 16.3613C152.583 16.4061 152.778 16.4088 152.961 16.369C153.144 16.3291 153.308 16.2485 153.433 16.1372C153.557 16.0259 153.637 15.8888 153.661 15.7428C153.686 15.5969 153.654 15.4486 153.571 15.3165C153.487 15.1843 153.355 15.074 153.191 14.9993C153.027 14.9247 152.838 14.8889 152.648 14.8965C152.386 14.9126 152.143 15.0077 151.972 15.1611C151.8 15.3145 151.713 15.514 151.731 15.7163Z" fill="#F28F8F"/>
<path d="M153.518 9.37158L155.119 9.97218C155.218 9.8026 155.23 9.6099 155.151 9.43387C155.072 9.25784 154.909 9.11193 154.695 9.02624C154.589 8.987 154.473 8.96482 154.356 8.96103C154.238 8.95725 154.121 8.97194 154.011 9.00422C153.901 9.0365 153.8 9.0857 153.715 9.14885C153.631 9.21199 153.563 9.28776 153.518 9.37158Z" fill="#263238"/>
<path d="M146.553 9.89087L147.917 8.98998C147.846 8.91812 147.757 8.85825 147.655 8.81405C147.553 8.76986 147.44 8.74227 147.323 8.73299C147.207 8.72371 147.089 8.73293 146.978 8.76008C146.866 8.78724 146.763 8.83175 146.674 8.89089C146.492 9.01396 146.378 9.18627 146.356 9.37232C146.333 9.55836 146.404 9.74396 146.553 9.89087Z" fill="#263238"/>
<path d="M146.962 11.2546C146.971 11.3657 147.023 11.4722 147.11 11.5606C147.198 11.6491 147.317 11.7156 147.453 11.7518C147.59 11.788 147.737 11.7922 147.876 11.764C148.015 11.7358 148.141 11.6764 148.237 11.5932C148.332 11.5101 148.394 11.4069 148.414 11.2966C148.434 11.1864 148.412 11.074 148.35 10.9737C148.287 10.8733 148.188 10.7894 148.064 10.7326C147.94 10.6757 147.797 10.6484 147.654 10.6541C147.459 10.6641 147.278 10.7327 147.149 10.845C147.019 10.9573 146.952 11.1045 146.962 11.2546Z" fill="#263238"/>
<path d="M150.567 10.5879L150.544 14.1404L148.111 13.5999L150.567 10.5879Z" fill="#F28F8F"/>
<path d="M144.463 15.5579C144.486 15.554 144.507 15.5467 144.525 15.5364C144.544 15.5261 144.56 15.513 144.572 15.4978C144.586 15.483 144.596 15.4661 144.601 15.4483C144.606 15.4305 144.606 15.412 144.602 15.394C144.598 15.3761 144.589 15.359 144.575 15.3438C144.562 15.3286 144.545 15.3156 144.525 15.3056L142.411 14.2186C142.392 14.2085 142.37 14.2014 142.346 14.1979C142.323 14.1944 142.3 14.1944 142.276 14.1981C142.253 14.2017 142.231 14.2088 142.212 14.2191C142.192 14.2293 142.176 14.2424 142.163 14.2576C142.149 14.2726 142.139 14.2897 142.135 14.3076C142.13 14.3256 142.13 14.3441 142.134 14.3621C142.139 14.3801 142.149 14.3971 142.162 14.4122C142.176 14.4273 142.193 14.4401 142.213 14.4498L144.323 15.5369C144.343 15.5481 144.366 15.5559 144.39 15.5595C144.414 15.5631 144.439 15.5626 144.463 15.5579Z" fill="#E0E0E0"/>
<path d="M144.239 16.2604C144.271 16.2541 144.301 16.241 144.325 16.2224C144.349 16.2039 144.366 16.1807 144.375 16.1553C144.385 16.1191 144.377 16.0811 144.351 16.0496C144.326 16.0182 144.285 15.9957 144.239 15.9871L141.767 15.5457C141.744 15.5412 141.72 15.5403 141.697 15.543C141.673 15.5458 141.651 15.5521 141.631 15.5616C141.61 15.5711 141.593 15.5836 141.579 15.5984C141.565 15.6132 141.555 15.63 141.549 15.6478C141.539 15.684 141.547 15.722 141.573 15.7534C141.598 15.7849 141.639 15.8074 141.685 15.816L144.157 16.2604C144.184 16.2634 144.211 16.2634 144.239 16.2604Z" fill="#E0E0E0"/>
<path d="M141.941 17.5309H141.964L144.347 16.8582C144.391 16.8454 144.428 16.8195 144.448 16.786C144.468 16.7524 144.47 16.7142 144.453 16.6795C144.437 16.6449 144.403 16.6167 144.36 16.6012C144.317 16.5857 144.267 16.5842 144.222 16.5969L141.84 17.2696C141.818 17.2759 141.797 17.2856 141.78 17.2982C141.762 17.3107 141.748 17.3258 141.738 17.3426C141.729 17.3594 141.723 17.3775 141.723 17.3959C141.722 17.4143 141.726 17.4326 141.735 17.4498C141.751 17.4799 141.781 17.5046 141.819 17.5195C141.856 17.5343 141.9 17.5384 141.941 17.5309Z" fill="#E0E0E0"/>
<path d="M121.787 31.9357C121.837 32.0119 121.914 32.0753 122.009 32.1181C122.104 32.1608 122.214 32.181 122.324 32.1762C122.434 32.1715 122.539 32.1419 122.628 32.0911C122.716 32.0403 122.783 31.9707 122.821 31.8907L124.593 28.5124C124.622 28.4582 124.636 28.4001 124.635 28.3416C124.635 28.2831 124.618 28.2253 124.588 28.1717C124.557 28.1181 124.513 28.0698 124.458 28.0297C124.403 27.9896 124.338 27.9586 124.266 27.9384C124.195 27.9182 124.12 27.9093 124.044 27.9122C123.968 27.9151 123.894 27.9297 123.826 27.9553C123.758 27.9808 123.697 28.0167 123.647 28.0609C123.598 28.105 123.56 28.1564 123.536 28.2121L121.76 31.5904C121.734 31.6463 121.723 31.7058 121.728 31.7652C121.732 31.8246 121.753 31.8827 121.787 31.9357Z" fill="#E0E0E0"/>
<path d="M118.869 31.9178C118.925 32.0064 119.019 32.0774 119.135 32.1193C119.25 32.1612 119.381 32.1715 119.505 32.1484C119.63 32.1254 119.74 32.0704 119.818 31.9925C119.897 31.9146 119.939 31.8184 119.937 31.7196L119.879 27.5155C119.867 27.4067 119.803 27.3052 119.699 27.2312C119.595 27.1573 119.459 27.1162 119.317 27.1162C119.176 27.1162 119.04 27.1573 118.936 27.2312C118.832 27.3052 118.768 27.4067 118.756 27.5155L118.81 31.7196C118.809 31.7883 118.829 31.8562 118.869 31.9178Z" fill="#E0E0E0"/>
<path d="M113.921 29.5786L113.956 29.6296L116.634 32.6326C116.717 32.7277 116.845 32.7936 116.99 32.8161C117.136 32.8386 117.287 32.8158 117.411 32.7527C117.532 32.6871 117.615 32.588 117.643 32.476C117.671 32.364 117.643 32.248 117.562 32.1521L114.885 29.1492C114.807 29.056 114.686 28.9896 114.546 28.9637C114.406 28.9377 114.259 28.9542 114.135 29.0098C114.011 29.0653 113.919 29.1556 113.878 29.2621C113.838 29.3685 113.852 29.4829 113.917 29.5816L113.921 29.5786Z" fill="#E0E0E0"/>
</svg>
