<svg width="20" height="20" viewBox="0 0 20 20" fill="none" xmlns="http://www.w3.org/2000/svg">
<path d="M4.17 15.9985C4.3766 15.4131 4.75974 14.9062 5.2666 14.5477C5.77346 14.1891 6.37909 13.9966 7 13.9966C7.62091 13.9966 8.22654 14.1891 8.7334 14.5477C9.24026 14.9062 9.6234 15.4131 9.83 15.9985H20V17.998H9.83C9.6234 18.5834 9.24026 19.0903 8.7334 19.4489C8.22654 19.8075 7.62091 20 7 20C6.37909 20 5.77346 19.8075 5.2666 19.4489C4.75974 19.0903 4.3766 18.5834 4.17 17.998H0V15.9985H4.17ZM10.17 9.00025C10.3766 8.41486 10.7597 7.90795 11.2666 7.54939C11.7735 7.19083 12.3791 6.99828 13 6.99828C13.6209 6.99828 14.2265 7.19083 14.7334 7.54939C15.2403 7.90795 15.6234 8.41486 15.83 9.00025H20V10.9998H15.83C15.6234 11.5851 15.2403 12.0921 14.7334 12.4506C14.2265 12.8092 13.6209 13.0017 13 13.0017C12.3791 13.0017 11.7735 12.8092 11.2666 12.4506C10.7597 12.0921 10.3766 11.5851 10.17 10.9998H0V9.00025H10.17ZM4.17 2.00196C4.3766 1.41657 4.75974 0.909661 5.2666 0.551105C5.77346 0.192549 6.37909 0 7 0C7.62091 0 8.22654 0.192549 8.7334 0.551105C9.24026 0.909661 9.6234 1.41657 9.83 2.00196H20V4.00147H9.83C9.6234 4.58686 9.24026 5.09377 8.7334 5.45232C8.22654 5.81088 7.62091 6.00343 7 6.00343C6.37909 6.00343 5.77346 5.81088 5.2666 5.45232C4.75974 5.09377 4.3766 4.58686 4.17 4.00147H0V2.00196H4.17ZM7 4.00147C7.26522 4.00147 7.51957 3.89614 7.70711 3.70865C7.89464 3.52116 8 3.26687 8 3.00171C8 2.73656 7.89464 2.48227 7.70711 2.29478C7.51957 2.10729 7.26522 2.00196 7 2.00196C6.73478 2.00196 6.48043 2.10729 6.29289 2.29478C6.10536 2.48227 6 2.73656 6 3.00171C6 3.26687 6.10536 3.52116 6.29289 3.70865C6.48043 3.89614 6.73478 4.00147 7 4.00147ZM13 10.9998C13.2652 10.9998 13.5196 10.8944 13.7071 10.7069C13.8946 10.5194 14 10.2652 14 10C14 9.73485 13.8946 9.48056 13.7071 9.29307C13.5196 9.10558 13.2652 9.00025 13 9.00025C12.7348 9.00025 12.4804 9.10558 12.2929 9.29307C12.1054 9.48056 12 9.73485 12 10C12 10.2652 12.1054 10.5194 12.2929 10.7069C12.4804 10.8944 12.7348 10.9998 13 10.9998ZM7 17.998C7.26522 17.998 7.51957 17.8927 7.70711 17.7052C7.89464 17.5177 8 17.2634 8 16.9983C8 16.7331 7.89464 16.4788 7.70711 16.2914C7.51957 16.1039 7.26522 15.9985 7 15.9985C6.73478 15.9985 6.48043 16.1039 6.29289 16.2914C6.10536 16.4788 6 16.7331 6 16.9983C6 17.2634 6.10536 17.5177 6.29289 17.7052C6.48043 17.8927 6.73478 17.998 7 17.998Z" fill="#6A7381"/>
</svg>
