<svg width="20" height="20" viewBox="0 0 20 20" fill="none" xmlns="http://www.w3.org/2000/svg">
<path d="M18.1706 8.36775H17.4993V8.33317H9.99935V11.6665H14.7089C14.0219 13.6069 12.1756 14.9998 9.99935 14.9998C7.2381 14.9998 4.99935 12.7611 4.99935 9.99984C4.99935 7.23859 7.2381 4.99984 9.99935 4.99984C11.2739 4.99984 12.4335 5.48067 13.3164 6.26609L15.6735 3.909C14.1852 2.52192 12.1943 1.6665 9.99935 1.6665C5.39727 1.6665 1.66602 5.39775 1.66602 9.99984C1.66602 14.6019 5.39727 18.3332 9.99935 18.3332C14.6014 18.3332 18.3327 14.6019 18.3327 9.99984C18.3327 9.44109 18.2752 8.89567 18.1706 8.36775Z" fill="#FFC107"/>
<path d="M2.62695 6.12109L5.36487 8.129C6.1057 6.29484 7.89987 4.99984 9.99945 4.99984C11.274 4.99984 12.4336 5.48067 13.3165 6.26609L15.6736 3.909C14.1853 2.52192 12.1945 1.6665 9.99945 1.6665C6.79862 1.6665 4.02279 3.47359 2.62695 6.12109Z" fill="#FF3D00"/>
<path d="M10.0008 18.3331C12.1533 18.3331 14.1091 17.5094 15.5879 16.1698L13.0087 13.9873C12.1439 14.645 11.0872 15.0007 10.0008 14.9998C7.83328 14.9998 5.99286 13.6177 5.29953 11.689L2.58203 13.7827C3.9612 16.4815 6.76203 18.3331 10.0008 18.3331Z" fill="#4CAF50"/>
<path d="M18.1713 8.36808H17.5V8.3335H10V11.6668H14.7096C14.3809 12.5903 13.7889 13.3973 13.0067 13.9881L13.0079 13.9872L15.5871 16.1697C15.4046 16.3356 18.3333 14.1668 18.3333 10.0002C18.3333 9.44141 18.2758 8.896 18.1713 8.36808Z" fill="#1976D2"/>
</svg>
