<svg width="297" height="216" viewBox="0 0 297 216" fill="none" xmlns="http://www.w3.org/2000/svg">
<path d="M43.4942 192.962C101.48 222.556 195.505 222.556 253.503 192.962C311.502 163.368 311.496 115.387 253.503 85.7936C195.511 56.1997 101.493 56.1997 43.4942 85.7936C-14.5046 115.387 -14.4916 163.394 43.4942 192.962Z" fill="#F5F5F5"/>
<path d="M40.2017 143.455C48.4281 143.455 55.0968 140.351 55.0968 136.522C55.0968 132.693 48.4281 129.589 40.2017 129.589C31.9754 129.589 25.3066 132.693 25.3066 136.522C25.3066 140.351 31.9754 143.455 40.2017 143.455Z" fill="#EBEBEB"/>
<path d="M210.178 152.712C221.158 152.712 230.058 148.568 230.058 143.456C230.058 138.343 221.158 134.199 210.178 134.199C199.199 134.199 190.299 138.343 190.299 143.456C190.299 148.568 199.199 152.712 210.178 152.712Z" fill="#EBEBEB"/>
<path d="M269.609 105.371C269.609 105.371 271.146 100.736 276.143 95.7976C278.347 93.6196 279.786 92.1 279.326 90.802C278.911 89.656 277.511 89.0608 275.508 89.9852C272.662 91.3022 270.744 93.7462 269.609 98.6532V105.371Z" fill="#6C63FF"/>
<path opacity="0.1" d="M269.609 105.371C269.609 105.371 271.146 100.736 276.143 95.7976C278.347 93.6196 279.786 92.1 279.326 90.802C278.911 89.656 277.511 89.0608 275.508 89.9852C272.662 91.3022 270.744 93.7462 269.609 98.6532V105.371Z" fill="black"/>
<path d="M269.294 102.458H269.235C269.173 102.442 269.119 102.402 269.087 102.348C269.054 102.293 269.044 102.228 269.06 102.167C270.843 95.443 275.451 91.2768 277.402 90.3144C277.461 90.2875 277.528 90.2837 277.59 90.3037C277.651 90.3237 277.702 90.3661 277.733 90.422C277.76 90.4785 277.764 90.543 277.743 90.6021C277.723 90.6611 277.679 90.7101 277.623 90.7386C275.736 91.6694 271.271 95.7216 269.533 102.287C269.518 102.338 269.486 102.381 269.443 102.412C269.4 102.443 269.347 102.459 269.294 102.458Z" fill="white"/>
<path d="M269.609 111.126C269.609 111.126 271.742 107.042 274.315 104.871C276.888 102.699 280.194 100.483 277.394 98.7858C274.594 97.089 269.985 100.419 269.616 103.705L269.609 111.126Z" fill="#6C63FF"/>
<path d="M269.292 108.22H269.24C269.178 108.205 269.124 108.167 269.09 108.114C269.056 108.061 269.045 107.997 269.058 107.935C270.271 102.87 274.62 100.008 276.065 99.5333C276.125 99.5213 276.187 99.5312 276.239 99.5611C276.292 99.5911 276.331 99.6391 276.35 99.6957C276.368 99.7523 276.365 99.8137 276.34 99.8679C276.315 99.9221 276.27 99.9653 276.214 99.9892C274.918 100.42 270.679 103.237 269.532 108.043C269.517 108.094 269.486 108.139 269.443 108.172C269.399 108.204 269.346 108.221 269.292 108.22Z" fill="white"/>
<path d="M80.0432 152.174C80.0432 152.174 79.058 150.034 74.9421 149.129C70.9363 148.249 68.9464 149.129 66.2435 148.673C63.5406 148.217 64.2472 143.285 71.5197 143.798C78.1765 144.266 80.0432 149.382 80.0432 149.382V152.174Z" fill="#6C63FF"/>
<path d="M80.441 150.997C80.3939 150.996 80.348 150.981 80.309 150.956C80.2699 150.93 80.2393 150.893 80.2206 150.851C79.5725 149.338 77.1742 146.869 73.7972 146.115C69.6035 145.184 67.3738 146.115 67.3543 146.115C67.2964 146.134 67.2332 146.132 67.1771 146.108C67.121 146.084 67.076 146.04 67.0509 145.986C67.0258 145.931 67.0225 145.87 67.0414 145.813C67.0603 145.756 67.1003 145.708 67.1534 145.678C67.2506 145.64 69.5582 144.659 73.9009 145.628C77.6539 146.463 80.0456 149.148 80.6679 150.649C80.6806 150.677 80.6873 150.708 80.6877 150.739C80.688 150.77 80.682 150.801 80.6699 150.83C80.6578 150.859 80.64 150.885 80.6174 150.908C80.5948 150.93 80.5679 150.947 80.5382 150.959L80.441 150.997Z" fill="white"/>
<path d="M80.0459 149.737C79.2255 148.302 78.1751 147.004 76.9347 145.893C73.0456 142.208 67.8602 141.05 65.2675 139.036C62.4155 136.864 65.8703 134.357 69.539 134.515C71.6391 134.61 73.8558 135.965 75.0744 136.94C79.3653 140.366 80.0718 145.893 80.0718 145.893L80.0459 149.737Z" fill="#6C63FF"/>
<path opacity="0.5" d="M80.0459 149.737C79.2255 148.302 78.1751 147.004 76.9347 145.893C73.0456 142.208 67.8602 141.05 65.2675 139.036C62.4155 136.864 65.8703 134.357 69.539 134.515C71.6391 134.61 73.8558 135.965 75.0744 136.94C79.3653 140.366 80.0718 145.893 80.0718 145.893L80.0459 149.737Z" fill="white"/>
<path d="M80.4399 149.363C80.3819 149.363 80.3261 149.342 80.2822 149.305C80.2384 149.268 80.2093 149.217 80.2001 149.161C79.6894 146.499 78.4534 144.021 76.6222 141.987C73.5628 138.587 68.332 136.764 68.2737 136.745C68.2145 136.723 68.1661 136.68 68.1384 136.625C68.1106 136.569 68.1057 136.506 68.1246 136.447C68.1348 136.417 68.151 136.39 68.1723 136.366C68.1936 136.342 68.2195 136.323 68.2485 136.31C68.2776 136.296 68.3091 136.288 68.3413 136.287C68.3734 136.285 68.4055 136.29 68.4357 136.301C68.6561 136.371 73.8415 138.201 76.9852 141.671C78.8916 143.769 80.1718 146.338 80.6863 149.097C80.6908 149.129 80.6888 149.161 80.6804 149.191C80.672 149.222 80.6573 149.25 80.6374 149.275C80.6174 149.3 80.5925 149.32 80.5641 149.336C80.5358 149.351 80.5045 149.36 80.4724 149.363H80.4399Z" fill="white"/>
<path d="M169 189.087C169 189.087 170.102 186.998 174.263 186.308C178.308 185.637 180.246 186.593 182.975 186.308C185.703 186.023 185.263 181.027 177.971 181.16C171.301 181.281 169.156 186.289 169.156 186.289L169 189.087Z" fill="#6C63FF"/>
<path opacity="0.1" d="M169 189.087C169 189.087 170.102 186.998 174.263 186.308C178.308 185.637 180.246 186.593 182.975 186.308C185.703 186.023 185.263 181.027 177.971 181.16C171.301 181.281 169.156 186.289 169.156 186.289L169 189.087Z" fill="black"/>
<path d="M168.683 188.088C168.633 188.085 168.583 188.07 168.541 188.043C168.515 188.026 168.492 188.003 168.475 187.977C168.458 187.95 168.446 187.921 168.441 187.891C168.436 187.86 168.436 187.829 168.444 187.798C168.451 187.768 168.464 187.739 168.482 187.714C170.032 185.549 172.851 183.915 176.034 183.371C180.124 182.655 182.516 183.921 182.619 184.004C182.647 184.019 182.671 184.039 182.691 184.063C182.711 184.087 182.725 184.115 182.734 184.145C182.743 184.174 182.745 184.205 182.742 184.236C182.738 184.267 182.729 184.296 182.713 184.323C182.698 184.35 182.677 184.374 182.653 184.393C182.628 184.413 182.599 184.427 182.569 184.436C182.539 184.444 182.507 184.447 182.475 184.443C182.444 184.44 182.414 184.43 182.386 184.415C182.386 184.415 180.033 183.181 176.118 183.864C173.065 184.396 170.356 185.947 168.884 188.012C168.858 188.038 168.827 188.058 168.792 188.071C168.758 188.084 168.721 188.09 168.683 188.088Z" fill="white"/>
<path d="M169.293 186.156C170.234 184.999 171.304 183.948 172.482 183.022C176.585 179.552 181.777 178.989 184.525 177.114C187.494 175.095 184.182 172.41 180.506 172.378C178.406 172.378 176.118 173.6 174.841 174.512C172.12 176.504 170.085 179.258 169.008 182.408L169.293 186.156Z" fill="#6C63FF"/>
<path opacity="0.5" d="M169.293 186.156C170.234 184.999 171.304 183.948 172.482 183.022C176.585 179.552 181.777 178.989 184.525 177.114C187.494 175.095 184.182 172.41 180.506 172.378C178.406 172.378 176.118 173.6 174.841 174.512C172.12 176.504 170.085 179.258 169.008 182.408L169.293 186.156Z" fill="white"/>
<path d="M168.685 186.106H168.594C168.535 186.084 168.486 186.041 168.457 185.986C168.429 185.931 168.422 185.868 168.439 185.808C169.452 183.09 171.053 180.617 173.132 178.558C175.387 176.286 178.317 174.765 181.506 174.208C181.537 174.204 181.569 174.206 181.6 174.214C181.63 174.222 181.658 174.235 181.683 174.254C181.708 174.273 181.729 174.297 181.744 174.324C181.759 174.351 181.769 174.38 181.772 174.411C181.776 174.442 181.774 174.474 181.766 174.505C181.758 174.535 181.743 174.564 181.723 174.589C181.703 174.613 181.678 174.634 181.65 174.649C181.621 174.664 181.59 174.674 181.558 174.677C178.487 175.246 175.667 176.717 173.475 178.894C171.462 180.897 169.914 183.3 168.938 185.941C168.921 185.992 168.887 186.036 168.841 186.066C168.795 186.096 168.74 186.11 168.685 186.106Z" fill="white"/>
<path d="M106.367 152.706V104.871H80.0449V152.712C80.0449 154.612 81.3413 156.511 83.934 157.955C89.074 160.855 97.4096 160.855 102.55 157.955C105.142 156.505 106.4 154.612 106.406 152.712L106.367 152.706Z" fill="#37474F"/>
<path d="M83.9009 110.442C78.7544 107.542 78.7544 102.844 83.9009 99.938C89.0474 97.0318 97.3765 97.0381 102.517 99.938C107.657 102.838 107.657 107.536 102.517 110.442C97.3765 113.348 89.0409 113.336 83.9009 110.442Z" fill="#455A64"/>
<path d="M137.966 170.529V135.706H111.637V170.529C111.637 172.429 112.933 174.328 115.526 175.772C120.666 178.672 129.001 178.672 134.141 175.772C136.734 174.328 137.998 172.429 137.998 170.529H137.966Z" fill="#37474F"/>
<path d="M115.494 141.284C110.354 138.384 110.354 133.686 115.494 130.78C120.634 127.874 128.969 127.88 134.109 130.78C139.249 133.68 139.256 138.378 134.109 141.284C128.963 144.19 120.627 144.209 115.494 141.284Z" fill="#455A64"/>
<path d="M169.563 188.347V161.305H143.234V188.353C143.234 190.253 144.531 192.152 147.123 193.602C152.263 196.502 160.599 196.502 165.739 193.602C168.332 192.152 169.589 190.253 169.596 188.353L169.563 188.347Z" fill="#37474F"/>
<path d="M156.399 169.041C163.669 169.041 169.563 165.716 169.563 161.614C169.563 157.513 163.669 154.188 156.399 154.188C149.128 154.188 143.234 157.513 143.234 161.614C143.234 165.716 149.128 169.041 156.399 169.041Z" fill="#455A64"/>
<path d="M78.3585 169.574L72.1425 166.072L75.5843 161.716C76.0251 161.159 75.8177 160.855 75.1241 161.026L66.8793 163.103L60.6633 159.595C60.1412 159.336 59.5637 159.201 58.9781 159.201C58.3924 159.201 57.815 159.336 57.2928 159.595L47.4989 165.103C46.5655 165.629 46.5655 166.477 47.4989 167.003L65.1941 176.981C65.7162 177.241 66.2936 177.376 66.8793 177.376C67.465 177.376 68.0424 177.241 68.5646 176.981L78.3585 171.454C79.2854 170.947 79.2854 170.099 78.3585 169.574Z" fill="#6C63FF"/>
<path d="M68.4162 167.427C68.5175 167.417 68.6196 167.417 68.7209 167.427C68.8216 167.439 68.9186 167.471 69.0061 167.522L69.8941 168.022C69.954 168.05 70.0004 168.1 70.0237 168.161C70.0237 168.212 70.0237 168.256 69.933 168.288C69.9118 168.293 69.8894 168.293 69.8682 168.288C69.8362 168.295 69.8029 168.295 69.7709 168.288L57.4556 169.237H57.1056C57.0045 169.223 56.9076 169.188 56.8204 169.136L55.9324 168.636C55.8724 168.607 55.826 168.558 55.8027 168.497C55.8027 168.446 55.8027 168.402 55.8935 168.37C55.9147 168.364 55.9371 168.364 55.9583 168.37H56.0555L68.4162 167.427ZM64.4494 166.622C64.1859 166.794 63.9109 166.949 63.6262 167.085C63.3963 167.199 63.1553 167.29 62.9067 167.357C62.6461 167.421 62.3783 167.453 62.1095 167.452C61.5095 167.453 60.9204 167.296 60.4048 166.996C60.1588 166.878 59.9386 166.715 59.7566 166.515C59.6385 166.383 59.5719 166.215 59.5686 166.04C59.571 165.875 59.633 165.715 59.7436 165.59C59.8726 165.427 60.0307 165.287 60.2103 165.179C60.3333 165.092 60.4609 165.012 60.5928 164.938C60.7159 164.869 60.865 164.793 61.027 164.717C61.2604 164.602 61.506 164.513 61.7595 164.451C62.2979 164.32 62.8609 164.32 63.3994 164.451C63.6988 164.53 63.9864 164.647 64.255 164.799C64.4888 164.918 64.6959 165.082 64.8642 165.28C64.9838 165.411 65.0525 165.579 65.0587 165.755C65.0504 165.919 64.9891 166.076 64.8837 166.205C64.765 166.367 64.618 166.509 64.4494 166.622ZM65.6745 171.574C65.4234 171.757 65.1591 171.922 64.8837 172.068C64.6521 172.181 64.4087 172.27 64.1577 172.334C63.8981 172.403 63.6298 172.437 63.3605 172.435C63.0735 172.434 62.788 172.395 62.5114 172.321C62.2112 172.247 61.9232 172.131 61.6558 171.979C61.4245 171.856 61.218 171.693 61.0465 171.498C60.9269 171.364 60.8602 171.194 60.8585 171.017C60.8636 170.853 60.9227 170.695 61.027 170.567C61.159 170.406 61.3192 170.268 61.5002 170.162C61.6206 170.071 61.7485 169.991 61.8826 169.921C62.0224 169.838 62.1674 169.764 62.3169 169.7C62.548 169.585 62.7915 169.496 63.0429 169.434C63.304 169.371 63.5713 169.337 63.8401 169.332C64.4379 169.332 65.0246 169.49 65.5383 169.788C65.7856 169.904 66.0061 170.068 66.1865 170.269C66.301 170.397 66.364 170.562 66.364 170.732C66.364 170.902 66.301 171.066 66.1865 171.194C66.0391 171.348 65.8659 171.476 65.6745 171.574ZM61.5456 165.875C61.4167 165.946 61.3111 166.052 61.2409 166.179C61.2409 166.268 61.2409 166.356 61.4289 166.445C61.569 166.528 61.7323 166.566 61.8956 166.553C62.0839 166.524 62.2658 166.464 62.4336 166.375C62.6792 166.26 62.9154 166.127 63.1401 165.977C63.272 165.907 63.3802 165.802 63.4512 165.673C63.4512 165.584 63.4188 165.495 63.2632 165.407C63.1213 165.323 62.9549 165.287 62.7901 165.305C62.6039 165.331 62.4239 165.389 62.2586 165.476C62.011 165.582 61.7725 165.707 61.5456 165.85V165.875ZM62.7771 170.827C62.6452 170.896 62.537 171.002 62.466 171.131C62.466 171.213 62.466 171.301 62.654 171.39C62.7941 171.478 62.9614 171.517 63.1271 171.498C63.3126 171.469 63.492 171.411 63.6586 171.327C63.9071 171.213 64.1456 171.08 64.3716 170.928C64.5021 170.859 64.6083 170.753 64.6763 170.624C64.6763 170.535 64.6763 170.447 64.4883 170.358C64.3482 170.275 64.1849 170.237 64.0216 170.25C63.8352 170.279 63.6553 170.339 63.4901 170.428C63.2425 170.533 63.0041 170.658 62.7771 170.801V170.827Z" fill="white"/>
<path d="M112.596 188.872L106.367 185.364L109.809 181.014C110.243 180.457 110.036 180.147 109.342 180.324L101.097 182.395L94.8812 178.893C94.3602 178.634 93.7838 178.499 93.1992 178.499C92.6145 178.499 92.0382 178.634 91.5172 178.893L81.7362 184.414C80.8093 184.94 80.8093 185.795 81.7362 186.314L99.4314 196.299C99.9545 196.555 100.532 196.688 101.117 196.688C101.702 196.688 102.279 196.555 102.802 196.299L112.596 190.771C113.529 190.246 113.529 189.397 112.596 188.872Z" fill="#6C63FF"/>
<path d="M102.654 186.726H102.965C103.066 186.741 103.163 186.776 103.25 186.827L104.132 187.327C104.209 187.371 104.255 187.416 104.261 187.466C104.268 187.517 104.261 187.555 104.177 187.593C104.156 187.598 104.134 187.598 104.112 187.593H104.015L91.6996 188.543C91.5962 188.552 91.492 188.552 91.3885 188.543C91.2873 188.529 91.1901 188.494 91.1033 188.441L90.2218 187.948C90.144 187.903 90.0987 187.853 90.0922 187.808C90.09 187.78 90.097 187.752 90.1122 187.728C90.1273 187.704 90.1498 187.686 90.1764 187.675H90.2413H90.3385L102.654 186.726ZM98.687 185.921C98.4266 186.095 98.1537 186.249 97.8703 186.384C97.6387 186.497 97.3953 186.586 97.1443 186.65C96.8846 186.719 96.6163 186.753 96.3471 186.751C96.0601 186.75 95.7746 186.711 95.498 186.637C95.1978 186.563 94.9098 186.447 94.6424 186.295C94.4093 186.172 94.2008 186.009 94.0266 185.814C93.9091 185.686 93.8441 185.52 93.8441 185.348C93.8441 185.177 93.9091 185.011 94.0266 184.883C94.1577 184.723 94.3155 184.586 94.4933 184.478C94.6157 184.39 94.7434 184.31 94.8757 184.237C95.0184 184.156 95.1656 184.082 95.3165 184.016C95.5476 183.901 95.7911 183.812 96.0424 183.75C96.4618 183.645 96.8981 183.623 97.3264 183.684C97.7546 183.745 98.1663 183.888 98.5379 184.104C98.7723 184.225 98.9813 184.389 99.1537 184.585C99.2728 184.716 99.3395 184.885 99.3417 185.06C99.3366 185.225 99.275 185.383 99.1666 185.51C99.0338 185.675 98.8713 185.814 98.687 185.921ZM99.9185 190.873C99.6553 191.045 99.3802 191.199 99.0953 191.335C98.8665 191.45 98.6251 191.539 98.3759 191.601C98.1153 191.665 97.8474 191.697 97.5786 191.696C96.9786 191.697 96.3895 191.54 95.8739 191.24C95.6399 191.121 95.431 190.96 95.2581 190.765C95.1386 190.632 95.0719 190.461 95.0702 190.284C95.0776 190.12 95.1389 189.962 95.2452 189.834C95.3759 189.672 95.5337 189.533 95.7119 189.423C95.8415 189.334 95.9711 189.258 96.0943 189.182C96.2174 189.106 96.3665 189.037 96.5286 188.961C96.7619 188.846 97.0076 188.757 97.261 188.695C97.5228 188.637 97.7899 188.605 98.0583 188.6C98.3428 188.599 98.6262 188.635 98.9009 188.707C99.2017 188.783 99.4898 188.9 99.7565 189.056C99.9909 189.177 100.2 189.34 100.372 189.537C100.489 189.664 100.554 189.828 100.554 189.999C100.554 190.17 100.489 190.334 100.372 190.461C100.245 190.622 100.092 190.761 99.9185 190.873ZM95.7896 185.174C95.6577 185.244 95.5495 185.349 95.4785 185.478C95.4785 185.56 95.5109 185.649 95.6665 185.738C95.8067 185.826 95.9739 185.864 96.1397 185.845C96.3249 185.816 96.5042 185.758 96.6712 185.674C96.9211 185.561 97.1598 185.425 97.3842 185.269C97.5137 185.202 97.6198 185.098 97.6888 184.972C97.6888 184.883 97.6564 184.794 97.5008 184.706C97.362 184.62 97.1977 184.582 97.0341 184.598C96.8456 184.626 96.6636 184.686 96.4962 184.775C96.2506 184.881 96.0143 185.006 95.7896 185.149V185.174ZM97.0147 190.126C96.8879 190.197 96.7828 190.299 96.7101 190.423C96.7101 190.512 96.7425 190.6 96.898 190.689C97.0368 190.775 97.2012 190.813 97.3647 190.797C97.5522 190.768 97.7339 190.71 97.9027 190.626C98.148 190.508 98.3841 190.372 98.6092 190.221C98.739 190.151 98.8466 190.048 98.9203 189.923C98.9527 189.834 98.9203 189.746 98.7324 189.657C98.591 189.571 98.4247 189.534 98.2592 189.549C98.074 189.579 97.8947 189.637 97.7277 189.72C97.4818 189.832 97.2437 189.959 97.0147 190.1V190.126Z" fill="white"/>
<path d="M146.805 208.158L140.589 204.657L144.037 200.294C144.471 199.743 144.264 199.433 143.57 199.61L135.326 201.681L129.11 198.179C128.587 197.92 128.01 197.785 127.424 197.785C126.839 197.785 126.261 197.92 125.739 198.179L115.945 203.726C115.018 204.251 115.018 205.106 115.945 205.625L133.64 215.61C134.163 215.866 134.74 216 135.326 216C135.911 216 136.488 215.866 137.011 215.61L146.805 210.057C147.738 209.551 147.738 208.703 146.805 208.158Z" fill="#6C63FF"/>
<path d="M136.864 206.031H137.169C137.27 206.046 137.367 206.08 137.454 206.132L138.342 206.632C138.42 206.677 138.465 206.721 138.472 206.772C138.478 206.822 138.472 206.86 138.387 206.898H138.323H138.225L125.91 207.848C125.809 207.858 125.707 207.858 125.605 207.848C125.504 207.835 125.406 207.8 125.32 207.747L124.439 207.253C124.361 207.208 124.315 207.158 124.309 207.113C124.307 207.085 124.314 207.058 124.329 207.034C124.344 207.01 124.367 206.991 124.393 206.981H124.458C124.49 206.973 124.523 206.973 124.555 206.981L136.864 206.031ZM132.897 205.227C132.636 205.401 132.36 205.556 132.074 205.689C131.845 205.804 131.604 205.893 131.355 205.955C131.095 206.024 130.827 206.058 130.557 206.056C130.268 206.055 129.981 206.016 129.702 205.942C129.404 205.868 129.118 205.753 128.853 205.6C128.62 205.477 128.411 205.314 128.237 205.119C128.117 204.986 128.051 204.815 128.049 204.638C128.056 204.474 128.118 204.316 128.224 204.188C128.356 204.028 128.514 203.889 128.691 203.777C128.82 203.688 128.95 203.612 129.073 203.542C129.196 203.473 129.345 203.397 129.507 203.315C129.984 203.086 130.506 202.963 131.037 202.954C131.635 202.956 132.221 203.113 132.735 203.409C132.97 203.531 133.179 203.694 133.351 203.891C133.468 204.023 133.535 204.191 133.539 204.366C133.531 204.53 133.469 204.687 133.364 204.815C133.235 204.979 133.077 205.118 132.897 205.227ZM134.122 210.178C133.86 210.349 133.588 210.503 133.306 210.64C133.076 210.754 132.835 210.843 132.586 210.906C132.044 211.041 131.476 211.041 130.933 210.906C130.635 210.829 130.349 210.712 130.084 210.558C129.837 210.442 129.616 210.278 129.436 210.077C129.316 209.946 129.249 209.777 129.248 209.602C129.252 209.438 129.311 209.28 129.417 209.152C129.551 208.992 129.711 208.853 129.89 208.741C130.013 208.654 130.14 208.574 130.272 208.5C130.395 208.43 130.544 208.354 130.706 208.278C131.18 208.041 131.704 207.917 132.236 207.918C132.521 207.917 132.804 207.953 133.079 208.025C133.377 208.102 133.663 208.219 133.928 208.373C134.175 208.489 134.396 208.653 134.576 208.855C134.696 208.985 134.763 209.154 134.764 209.33C134.76 209.493 134.701 209.652 134.596 209.779C134.463 209.938 134.303 210.073 134.122 210.178ZM129.993 204.48C129.865 204.551 129.759 204.656 129.689 204.783C129.689 204.866 129.721 204.954 129.877 205.043C130.016 205.128 130.18 205.166 130.343 205.151C130.531 205.122 130.713 205.064 130.881 204.98C131.131 204.865 131.369 204.729 131.594 204.575C131.724 204.507 131.83 204.403 131.899 204.277C131.932 204.188 131.899 204.1 131.711 204.011C131.57 203.925 131.404 203.888 131.238 203.903C131.052 203.933 130.872 203.993 130.706 204.081C130.46 204.188 130.221 204.312 129.993 204.454V204.48ZM131.225 209.431C131.097 209.502 130.99 209.605 130.914 209.728C130.914 209.817 130.914 209.906 131.108 209.994C131.247 210.08 131.412 210.118 131.575 210.102C131.76 210.073 131.94 210.016 132.107 209.931C132.354 209.813 132.592 209.677 132.82 209.526C132.949 209.456 133.057 209.354 133.131 209.228C133.165 209.14 133.1 209.051 132.936 208.962C132.797 208.876 132.633 208.838 132.47 208.855C132.284 208.883 132.105 208.941 131.938 209.026C131.691 209.142 131.453 209.275 131.225 209.425V209.431Z" fill="white"/>
<path d="M235.386 103.706L224.854 97.767V68.0654L235.386 74.0045V103.706Z" fill="#37474F"/>
<path d="M235.387 103.706L245.92 97.767V68.0654L235.387 74.0045V103.706Z" fill="#455A64"/>
<path d="M224.854 68.065L235.386 74.0041L245.919 68.065L235.386 62.126L224.854 68.065Z" fill="#455A64"/>
<path d="M211.687 90.3397L201.154 84.4007V25.0039L211.687 30.9429V90.3397Z" fill="#37474F"/>
<path d="M211.689 90.3397L222.222 84.4007V25.0039L211.689 30.9429V90.3397Z" fill="#455A64"/>
<path d="M201.154 25.004L211.687 30.943L222.22 25.004L211.687 19.0649L201.154 25.004Z" fill="#455A64"/>
<path d="M187.992 76.9737L177.459 71.0347V50.248L187.992 56.1871V76.9737Z" fill="#37474F"/>
<path d="M187.992 76.9737L198.525 71.0347V50.248L187.992 56.1871V76.9737Z" fill="#455A64"/>
<path d="M177.459 50.2481L187.992 56.1872L198.525 50.2481L187.992 44.3091L177.459 50.2481Z" fill="#455A64"/>
<path d="M259.086 117.072L248.553 111.126V54.7056L259.079 60.6446L259.086 117.072Z" fill="#37474F"/>
<path d="M259.076 117.072L269.609 111.126V54.7056L259.076 60.6446V117.072Z" fill="#455A64"/>
<path d="M248.553 54.7056L259.079 60.6447L269.612 54.7056L259.086 48.7603L248.553 54.7056Z" fill="#455A64"/>
<g opacity="0.3">
<path opacity="0.3" d="M185.444 112.76L185.334 46.9872C185.311 46.6065 185.198 46.2363 185.002 45.9064C184.806 45.5765 184.533 45.2961 184.206 45.0878L104.766 0.481634C104.118 0.133396 103.645 0.418318 103.645 1.11479L103.774 66.8621C103.795 67.2432 103.909 67.614 104.105 67.9441C104.301 68.2742 104.574 68.5544 104.902 68.7616L184.349 113.399C184.952 113.748 185.444 113.463 185.444 112.76Z" fill="white"/>
</g>
<path d="M184.836 113.862C184.607 113.853 184.384 113.788 184.188 113.672L104.741 69.034C104.362 68.8009 104.046 68.4816 103.82 68.1035C103.595 67.7253 103.466 67.2995 103.445 66.8623L103.322 1.11496C103.295 0.922145 103.327 0.725805 103.414 0.550901C103.502 0.375996 103.64 0.230429 103.813 0.132699C103.985 0.0349686 104.183 -0.0105114 104.382 0.00204479C104.581 0.014601 104.771 0.0846231 104.929 0.203211L184.376 44.803C184.755 45.037 185.07 45.3564 185.296 45.7344C185.521 46.1123 185.651 46.5377 185.673 46.9747L185.783 112.747C185.798 112.939 185.762 113.132 185.676 113.305C185.591 113.479 185.46 113.627 185.297 113.735C185.158 113.817 184.999 113.861 184.836 113.862ZM104.268 0.621099C104.226 0.610092 104.181 0.610092 104.139 0.621099C104.075 0.674337 104.027 0.742225 103.997 0.818551C103.968 0.894877 103.958 0.977202 103.97 1.05798L104.08 66.8306C104.099 67.1634 104.198 67.487 104.371 67.7745C104.543 68.0619 104.784 68.3049 105.072 68.4832L184.519 113.121C184.713 113.229 184.882 113.26 184.986 113.197C185.089 113.134 185.154 112.982 185.154 112.76L185.044 46.9874C185.023 46.6632 184.926 46.3481 184.759 46.0669C184.593 45.7856 184.362 45.5459 184.085 45.3665L104.605 0.728735C104.504 0.66545 104.388 0.628405 104.268 0.621099Z" fill="#6C63FF"/>
<path d="M177.901 98.2474C175.794 96.7848 174.563 95.4615 173.727 85.293L173.655 84.4256C172.871 74.8712 172.359 68.5649 167.899 65.9626C165.76 64.6963 164.049 65.9626 162.241 67.3366C160.601 68.5586 158.916 69.8122 157.017 68.7548C153.678 66.8554 153.128 63.0944 152.09 56.2309C151.961 55.3825 151.831 54.4898 151.682 53.5527C151.455 52.0901 151.261 50.7288 151.079 49.4498C150.055 42.2444 149.433 37.8883 145.661 35.6659C145.289 35.4087 144.861 35.2399 144.411 35.1728C143.961 35.1058 143.501 35.1424 143.068 35.2797C140.209 36.2547 137.973 42.1621 135.607 48.4241C135.426 48.8863 135.251 49.3738 135.063 49.8614C133.345 54.4771 131.401 59.7133 128.711 60.6821C128.33 60.8181 127.923 60.8682 127.52 60.8287C127.117 60.7893 126.729 60.6612 126.384 60.4541C123.707 58.9725 123.227 54.9203 122.767 50.9947C122.307 47.0691 121.859 43.1245 119.332 41.6366C119.117 41.5012 118.872 41.4194 118.618 41.3985C118.363 41.3775 118.108 41.4179 117.873 41.5163C114.736 42.7066 111.955 51.7735 111.929 51.8621L111.281 51.6848C111.398 51.2986 114.179 42.2318 117.607 40.9211C117.935 40.7887 118.29 40.735 118.643 40.7648C118.996 40.7945 119.337 40.9068 119.636 41.0921C122.43 42.7256 122.916 46.8855 123.389 50.9061C123.862 54.9266 124.29 58.5673 126.688 59.8906C126.95 60.0529 127.246 60.1539 127.554 60.1857C127.862 60.2176 128.174 60.1794 128.464 60.0742C130.869 59.2068 132.846 53.9009 134.434 49.6334C134.622 49.1396 134.797 48.6583 134.979 48.1898C137.506 41.51 139.691 35.7419 142.834 34.6655C143.356 34.5005 143.909 34.4552 144.45 34.5332C144.992 34.6112 145.508 34.8103 145.959 35.1151C149.99 37.4957 150.632 41.9595 151.682 49.3548C151.864 50.6211 152.058 51.9888 152.285 53.445C152.434 54.3884 152.564 55.2812 152.693 56.1233C153.685 62.7968 154.236 66.4691 157.302 68.1913C158.825 69.0461 160.206 68.014 161.807 66.8237C163.621 65.4687 165.696 63.9428 168.191 65.4054C172.929 68.1787 173.461 74.6179 174.258 84.3622L174.329 85.2297C175.185 95.6008 176.468 96.4873 178.218 97.7219L177.901 98.2474Z" fill="#6C63FF"/>
<g opacity="0.4">
<path opacity="0.4" d="M177.901 98.2474C175.794 96.7848 174.563 95.4615 173.727 85.293L173.655 84.4256C172.871 74.8712 172.359 68.5649 167.899 65.9626C165.76 64.6963 164.049 65.9626 162.241 67.3366C160.601 68.5586 158.916 69.8122 157.017 68.7548C153.678 66.8554 153.128 63.0944 152.09 56.2309C151.961 55.3825 151.831 54.4898 151.682 53.5527C151.455 52.0901 151.261 50.7288 151.079 49.4498C150.055 42.2444 149.433 37.8883 145.661 35.6659C145.289 35.4087 144.861 35.2399 144.411 35.1728C143.961 35.1058 143.501 35.1424 143.068 35.2797C140.209 36.2547 137.973 42.1621 135.607 48.4241C135.426 48.8863 135.251 49.3738 135.063 49.8614C133.345 54.4771 131.401 59.7133 128.711 60.6821C128.33 60.8181 127.923 60.8682 127.52 60.8287C127.117 60.7893 126.729 60.6612 126.384 60.4541C123.707 58.9725 123.227 54.9203 122.767 50.9947C122.307 47.0691 121.859 43.1245 119.332 41.6366C119.117 41.5012 118.872 41.4194 118.618 41.3985C118.363 41.3775 118.108 41.4179 117.873 41.5163C114.736 42.7066 111.955 51.7735 111.929 51.8621L111.281 51.6848C111.398 51.2986 114.179 42.2318 117.607 40.9211C117.935 40.7887 118.29 40.735 118.643 40.7648C118.996 40.7945 119.337 40.9068 119.636 41.0921C122.43 42.7256 122.916 46.8855 123.389 50.9061C123.862 54.9266 124.29 58.5673 126.688 59.8906C126.95 60.0529 127.246 60.1539 127.554 60.1857C127.862 60.2176 128.174 60.1794 128.464 60.0742C130.869 59.2068 132.846 53.9009 134.434 49.6334C134.622 49.1396 134.797 48.6583 134.979 48.1898C137.506 41.51 139.691 35.7419 142.834 34.6655C143.356 34.5005 143.909 34.4552 144.45 34.5332C144.992 34.6112 145.508 34.8103 145.959 35.1151C149.99 37.4957 150.632 41.9595 151.682 49.3548C151.864 50.6211 152.058 51.9888 152.285 53.445C152.434 54.3884 152.564 55.2812 152.693 56.1233C153.685 62.7968 154.236 66.4691 157.302 68.1913C158.825 69.0461 160.206 68.014 161.807 66.8237C163.621 65.4687 165.696 63.9428 168.191 65.4054C172.929 68.1787 173.461 74.6179 174.258 84.3622L174.329 85.2297C175.185 95.6008 176.468 96.4873 178.218 97.7219L177.901 98.2474Z" fill="black"/>
</g>
<path d="M166.939 63.1645C167.421 63.473 167.822 63.8873 168.112 64.3743C168.401 64.8612 168.569 65.4074 168.604 65.9694C168.604 67.0014 167.859 67.4193 166.945 66.9065C166.461 66.6001 166.058 66.1864 165.768 65.699C165.479 65.2115 165.311 64.6642 165.279 64.1016C165.279 63.0948 165.999 62.677 166.939 63.1645Z" fill="#6C63FF"/>
<g opacity="0.2">
<path opacity="0.2" d="M166.939 63.1645C167.421 63.473 167.822 63.8873 168.112 64.3743C168.401 64.8612 168.569 65.4074 168.604 65.9694C168.604 67.0014 167.859 67.4193 166.945 66.9065C166.461 66.6001 166.058 66.1864 165.768 65.699C165.479 65.2115 165.311 64.6642 165.279 64.1016C165.279 63.0948 165.999 62.677 166.939 63.1645Z" fill="black"/>
</g>
<path d="M145.829 33.5264C146.312 33.8338 146.714 34.2479 147.002 34.7352C147.29 35.2226 147.457 35.7693 147.489 36.3313C147.489 37.3634 146.75 37.7812 145.836 37.2684C145.351 36.9624 144.948 36.5488 144.658 36.0613C144.369 35.5738 144.201 35.0263 144.17 34.4635C144.17 33.4061 144.909 33.0136 145.829 33.5264Z" fill="#6C63FF"/>
<g opacity="0.5">
<path opacity="0.5" d="M145.829 33.5264C146.312 33.8338 146.714 34.2479 147.002 34.7352C147.29 35.2226 147.457 35.7693 147.489 36.3313C147.489 37.3634 146.75 37.7812 145.836 37.2684C145.351 36.9624 144.948 36.5488 144.658 36.0613C144.369 35.5738 144.201 35.0263 144.17 34.4635C144.17 33.4061 144.909 33.0136 145.829 33.5264Z" fill="white"/>
</g>
<path d="M119.506 39.5099C119.991 39.8145 120.394 40.227 120.684 40.7135C120.974 41.2 121.141 41.7466 121.172 42.3085C121.172 43.3469 120.433 43.7648 119.513 43.2519C119.031 42.9441 118.629 42.5299 118.341 42.0427C118.053 41.5555 117.886 41.0089 117.854 40.447C117.847 39.415 118.592 38.9908 119.506 39.5099Z" fill="#6C63FF"/>
<path opacity="0.65" d="M143.23 109.861V44.0878C143.208 43.7076 143.096 43.3375 142.901 43.0076C142.706 42.6777 142.435 42.397 142.109 42.1884L73.2659 3.36298C72.6177 3.01474 72.1445 3.29967 72.1445 3.99614V69.7688C72.1656 70.1492 72.2781 70.5194 72.4729 70.8494C72.6677 71.1794 72.9394 71.46 73.2659 71.6683L142.109 110.494C142.731 110.848 143.23 110.563 143.23 109.861Z" fill="white"/>
<path d="M142.614 110.962C142.385 110.953 142.162 110.888 141.966 110.772L73.1036 71.9463C72.7253 71.7106 72.4103 71.3899 72.1848 71.011C71.9593 70.6321 71.8298 70.206 71.8072 69.7683V3.99561C71.7816 3.8033 71.8149 3.6079 71.9029 3.43407C71.9909 3.26024 72.1297 3.11577 72.3017 3.01891C72.4736 2.92204 72.6711 2.87711 72.8692 2.8898C73.0673 2.90248 73.2571 2.97222 73.4147 3.09019L142.257 41.9156C142.636 42.1499 142.951 42.4695 143.176 42.8473C143.402 43.2252 143.531 43.6504 143.554 44.0873V109.86C143.569 110.052 143.533 110.244 143.447 110.418C143.362 110.591 143.231 110.74 143.068 110.848C142.929 110.924 142.773 110.963 142.614 110.962ZM72.7665 3.5334C72.724 3.52267 72.6794 3.52267 72.6369 3.5334C72.5736 3.58663 72.525 3.65452 72.4956 3.73085C72.4662 3.80717 72.4568 3.8895 72.4684 3.97028V69.7683C72.4887 70.0935 72.5859 70.4096 72.7523 70.692C72.9188 70.9743 73.1499 71.2151 73.4277 71.3955L142.27 110.221C142.336 110.271 142.414 110.305 142.497 110.318C142.58 110.331 142.665 110.324 142.744 110.297C142.847 110.24 142.906 110.082 142.906 109.86V44.0873C142.886 43.7629 142.789 43.4474 142.622 43.166C142.456 42.8846 142.224 42.6451 141.946 42.4664L73.1036 3.64737C73.0043 3.57933 72.8876 3.53985 72.7665 3.5334Z" fill="#6C63FF"/>
<path d="M131.388 94.9111V51.6283C131.376 51.4379 131.32 51.2527 131.222 51.0877C131.124 50.9227 130.987 50.7825 130.824 50.6785L124.05 46.8796C123.739 46.7023 123.486 46.8416 123.486 47.1962V90.4537C123.496 90.6444 123.552 90.8302 123.65 90.9954C123.748 91.1607 123.885 91.3005 124.05 91.4034L130.824 95.2024C131.135 95.405 131.388 95.2593 131.388 94.9111Z" fill="#6C63FF"/>
<g opacity="0.3">
<path opacity="0.3" d="M131.388 94.9111V51.6283C131.376 51.4379 131.32 51.2527 131.222 51.0877C131.124 50.9227 130.987 50.7825 130.824 50.6785L124.05 46.8796C123.739 46.7023 123.486 46.8416 123.486 47.1962V90.4537C123.496 90.6444 123.552 90.8302 123.65 90.9954C123.748 91.1607 123.885 91.3005 124.05 91.4034L130.824 95.2024C131.135 95.405 131.388 95.2593 131.388 94.9111Z" fill="black"/>
</g>
<path d="M118.222 87.4843V64.9945C118.21 64.8041 118.154 64.6189 118.056 64.4539C117.958 64.2889 117.821 64.1487 117.658 64.0447L110.878 60.2458C110.573 60.0748 110.32 60.2458 110.32 60.5624V83.0585C110.332 83.2482 110.388 83.4326 110.485 83.5974C110.581 83.7622 110.716 83.9029 110.878 84.0083L117.658 87.8072C117.969 87.9782 118.222 87.8579 118.222 87.4843Z" fill="#6C63FF"/>
<g opacity="0.2">
<path opacity="0.2" d="M118.222 87.4843V64.9945C118.21 64.8041 118.154 64.6189 118.056 64.4539C117.958 64.2889 117.821 64.1487 117.658 64.0447L110.878 60.2458C110.573 60.0748 110.32 60.2458 110.32 60.5624V83.0585C110.332 83.2482 110.388 83.4326 110.485 83.5974C110.581 83.7622 110.716 83.9029 110.878 84.0083L117.658 87.8072C117.969 87.9782 118.222 87.8579 118.222 87.4843Z" fill="white"/>
</g>
<path d="M105.071 80.0636V45.6893C105.06 45.4989 105.003 45.3137 104.905 45.1487C104.807 44.9837 104.671 44.8436 104.507 44.7396L97.7274 40.9406C97.4227 40.7633 97.1699 40.9026 97.1699 41.2572V75.6251C97.1803 75.815 97.2362 75.9998 97.333 76.1648C97.4298 76.3297 97.5649 76.4702 97.7274 76.5749L104.507 80.3738C104.805 80.5511 105.071 80.4118 105.071 80.0636Z" fill="#6C63FF"/>
<g opacity="0.2">
<path opacity="0.2" d="M105.071 80.0636V45.6893C105.06 45.4989 105.003 45.3137 104.905 45.1487C104.807 44.9837 104.671 44.8436 104.507 44.7396L97.7274 40.9406C97.4227 40.7633 97.1699 40.9026 97.1699 41.2572V75.6251C97.1803 75.815 97.2362 75.9998 97.333 76.1648C97.4298 76.3297 97.5649 76.4702 97.7274 76.5749L104.507 80.3738C104.805 80.5511 105.071 80.4118 105.071 80.0636Z" fill="black"/>
</g>
<path d="M91.885 72.6619V23.4147C91.8751 23.2247 91.8195 23.0397 91.7226 22.8747C91.6258 22.7097 91.4904 22.5693 91.3276 22.465L84.5477 18.666C84.243 18.4887 83.9902 18.666 83.9902 18.9826V68.2044C84.0016 68.3941 84.0579 68.5785 84.1546 68.7433C84.2514 68.9081 84.3859 69.0488 84.5477 69.1542L91.3276 72.9532C91.6387 73.1304 91.885 72.9848 91.885 72.6619Z" fill="#6C63FF"/>
<path d="M231.872 80.5319C231.781 80.0571 229.402 74.6499 228.423 72.5225L223.465 74.7892L225.364 79.0377L230.498 82.9189C230.997 82.7703 231.419 82.4392 231.675 81.9946C231.931 81.55 232.001 81.0261 231.872 80.5319Z" fill="#FFA8A7"/>
<path d="M221.992 137.168H218.168V142.614H221.992V137.168Z" fill="#FFA8A7"/>
<path d="M208.523 130.443L204.701 130.572L204.893 136.014L208.715 135.885L208.523 130.443Z" fill="#FFA8A7"/>
<path d="M209.479 59.188C208.095 59.2194 206.742 59.5923 205.545 60.272C204.348 60.9518 203.347 61.9162 202.634 63.0756C200.521 66.1464 196.801 71.3953 196.801 71.3953L203.769 73.5544L209.479 59.188Z" fill="#6C63FF"/>
<g opacity="0.7">
<path opacity="0.7" d="M209.479 59.188C208.095 59.2194 206.742 59.5923 205.545 60.272C204.348 60.9518 203.347 61.9162 202.634 63.0756C200.521 66.1464 196.801 71.3953 196.801 71.3953L203.769 73.5544L209.479 59.188Z" fill="white"/>
</g>
<path d="M221.741 84.0586C221.741 87.6296 222.214 110.721 222.214 110.721C222.305 111.747 223.29 113.64 223.076 117.584C222.784 122.947 222.311 137.846 222.311 137.846C222.311 137.846 220.516 139.587 217.981 137.846C217.981 137.846 214.514 117.616 213.833 112.304C213.23 107.669 212.219 95.0819 212.219 95.0819L208.674 109.904C208.674 109.904 209.322 113.387 209.432 115.843C209.542 118.3 208.784 132.508 208.784 132.508C208.163 132.887 207.452 133.1 206.721 133.128C205.99 133.156 205.265 132.997 204.616 132.666C204.616 132.666 201.544 111.911 201.148 109.689C200.753 107.467 203.845 84.0586 203.845 84.0586H221.741Z" fill="#6C63FF"/>
<path opacity="0.2" d="M221.741 84.0586C221.741 87.6296 222.214 110.721 222.214 110.721C222.305 111.747 223.29 113.64 223.076 117.584C222.784 122.947 222.311 137.846 222.311 137.846C222.311 137.846 220.516 139.587 217.981 137.846C217.981 137.846 214.514 117.616 213.833 112.304C213.23 107.669 212.219 95.0819 212.219 95.0819L208.674 109.904C208.674 109.904 209.322 113.387 209.432 115.843C209.542 118.3 208.784 132.508 208.784 132.508C208.163 132.887 207.452 133.1 206.721 133.128C205.99 133.156 205.265 132.997 204.616 132.666C204.616 132.666 201.544 111.911 201.148 109.689C200.753 107.467 203.845 84.0586 203.845 84.0586H221.741Z" fill="black"/>
<path d="M215.985 59.3018C219.414 60.1059 223.763 61.4609 225.293 64.5507C226.822 67.6405 229.182 72.6488 229.182 72.6488L223.504 75.9286L221.741 72.9654V84.0584C219.057 86.9076 209.697 88.2372 203.838 84.0584V65.798C203.838 62.8918 205.497 59.3905 210.067 59.1309L215.985 59.3018Z" fill="#6C63FF"/>
<path opacity="0.7" d="M215.985 59.3018C219.414 60.1059 223.763 61.4609 225.293 64.5507C226.822 67.6405 229.182 72.6488 229.182 72.6488L223.504 75.9286L221.741 72.9654V84.0584C219.057 86.9076 209.697 88.2372 203.838 84.0584V65.798C203.838 62.8918 205.497 59.3905 210.067 59.1309L215.985 59.3018Z" fill="white"/>
<path d="M217.276 44.3973C217.584 44.3627 217.896 44.3972 218.188 44.4982C218.48 44.5991 218.744 44.7638 218.961 44.9798C219.687 45.7016 219.538 47.0439 218.961 50.1211L216.719 50.3743L217.276 44.3973Z" fill="#263238"/>
<path d="M204.241 43.5365C203.76 43.5423 203.283 43.4496 202.841 43.2642C202.154 42.878 201.972 43.6378 202.348 44.3026C202.597 44.7768 202.966 45.181 203.42 45.4769C203.874 45.7727 204.397 45.9505 204.941 45.9932C204.941 45.8982 205.589 44.2836 205.589 44.2836L204.241 43.5365Z" fill="#263238"/>
<path d="M216.226 50.3748C216.556 50.5711 217.029 49.9443 217.438 49.5264C217.599 49.3466 217.805 49.2098 218.035 49.1288C218.265 49.0478 218.513 49.0252 218.754 49.0632C218.996 49.1012 219.224 49.1984 219.416 49.3459C219.609 49.4934 219.76 49.6862 219.856 49.9063C220.536 51.3056 218.993 53.1734 218.086 53.7876C217.832 54.0016 217.516 54.1321 217.182 54.1605C216.848 54.1889 216.513 54.1138 216.226 53.9459L215.986 59.3024C215.585 60.1608 214.973 60.9086 214.204 61.4788C213.435 62.0491 212.532 62.4238 211.578 62.5695C208.337 62.9937 209.018 60.4041 210.075 59.1314V57.1813C209.27 57.3516 208.443 57.3943 207.624 57.3079C207.203 57.2003 206.205 56.0416 205.557 54.693C204.831 53.205 203.612 50.5648 204.701 46.101C205.855 41.308 211.125 41.1623 214.275 43.0935C217.425 45.0246 216.226 50.3748 216.226 50.3748Z" fill="#FFA8A7"/>
<path d="M216.225 50.9194C216.387 50.9194 217.029 49.8936 217.437 49.5264C218.014 49.0136 217.275 44.3978 217.275 44.3978C217.275 44.3978 217.852 42.6503 216.717 41.4853C215.583 40.3203 213.392 40.5229 211.785 40.4659C209.812 40.4756 207.858 40.0921 206.042 39.3389C203.76 38.3701 203.592 38.2562 203.307 39.2376C203.021 40.219 202.918 42.454 204.279 43.9546L205.413 44.3662C205.413 44.3662 206.023 44.8917 208.149 45.1449C210.114 45.2908 212.089 45.2547 214.047 45.0373C214.663 44.955 214.792 45.5375 215.123 47.1331C215.421 48.5387 215.661 50.913 216.225 50.9194Z" fill="#263238"/>
<path d="M217.271 44.7587L219.281 43.7014C219.217 43.5695 219.126 43.4518 219.014 43.3553C218.902 43.2588 218.771 43.1855 218.629 43.1399C218.488 43.0943 218.338 43.0773 218.189 43.09C218.04 43.1028 217.896 43.1449 217.764 43.2138C217.494 43.36 217.292 43.6021 217.201 43.8899C217.109 44.1776 217.134 44.4888 217.271 44.7587Z" fill="#263238"/>
<path d="M210.074 57.1811C211.449 56.9281 212.796 56.5508 214.099 56.0541C214.713 55.7439 215.215 55.2579 215.538 54.6611C215.382 55.2578 215.104 55.8177 214.722 56.3073C213.957 57.2571 210.074 57.9599 210.074 57.9599V57.1811Z" fill="#F28F8F"/>
<path d="M210.8 49.6462C210.797 49.7243 210.81 49.8021 210.839 49.875C210.868 49.9479 210.912 50.0144 210.967 50.0705C211.023 50.1266 211.089 50.1712 211.163 50.2017C211.237 50.2321 211.316 50.2478 211.396 50.2477C211.527 50.2579 211.658 50.2287 211.772 50.1642C211.886 50.0996 211.977 50.0027 212.033 49.8864C212.089 49.77 212.108 49.6397 212.086 49.5128C212.065 49.3859 212.004 49.2685 211.913 49.1761C211.821 49.0837 211.703 49.0207 211.574 48.9956C211.445 48.9705 211.311 48.9844 211.19 49.0354C211.069 49.0865 210.967 49.1723 210.897 49.2814C210.827 49.3905 210.793 49.5178 210.8 49.6462Z" fill="#263238"/>
<path d="M211.43 47.4432L212.726 48.1333C212.816 47.9618 212.835 47.7632 212.78 47.5783C212.724 47.3934 212.598 47.2363 212.428 47.1392C212.343 47.0915 212.248 47.0615 212.151 47.051C212.053 47.0406 211.955 47.0499 211.861 47.0784C211.767 47.107 211.681 47.1541 211.606 47.2168C211.532 47.2796 211.472 47.3566 211.43 47.4432Z" fill="#263238"/>
<path d="M210.846 53.6035L209.479 54.1037C209.509 54.1926 209.558 54.2746 209.621 54.345C209.684 54.4155 209.761 54.473 209.847 54.5142C209.934 54.5554 210.027 54.5796 210.123 54.5852C210.219 54.5908 210.315 54.5778 210.405 54.5469C210.589 54.4747 210.736 54.3366 210.818 54.1611C210.9 53.9856 210.91 53.786 210.846 53.6035Z" fill="#F28F8F"/>
<path d="M205.471 47.9311L206.632 47.051C206.577 46.9743 206.507 46.9093 206.426 46.8599C206.345 46.8104 206.254 46.7776 206.159 46.7634C206.065 46.7492 205.968 46.7539 205.876 46.7772C205.783 46.8005 205.696 46.842 205.62 46.899C205.464 47.0191 205.362 47.1935 205.334 47.3858C205.306 47.5781 205.355 47.7734 205.471 47.9311Z" fill="#263238"/>
<path d="M205.83 49.4824C205.83 49.5589 205.846 49.6346 205.875 49.7053C205.905 49.7759 205.949 49.8402 206.005 49.8943C206.06 49.9483 206.126 49.9913 206.198 50.0205C206.271 50.0498 206.348 50.0649 206.426 50.0649C206.505 50.0649 206.582 50.0498 206.655 50.0205C206.727 49.9913 206.793 49.9483 206.848 49.8943C206.903 49.8402 206.947 49.7759 206.977 49.7053C207.007 49.6346 207.023 49.5589 207.023 49.4824C207.025 49.4043 207.012 49.3265 206.983 49.2536C206.954 49.1807 206.911 49.1143 206.855 49.0581C206.799 49.002 206.733 48.9574 206.659 48.9269C206.586 48.8965 206.506 48.8808 206.426 48.8809C206.266 48.8842 206.113 48.9492 206.002 49.0619C205.89 49.1745 205.828 49.3256 205.83 49.4824Z" fill="#263238"/>
<path d="M208.868 48.9253L208.674 52.4393L206.801 51.8125L208.868 48.9253Z" fill="#F28F8F"/>
<path d="M193.26 70.0723L208.544 74.0042L213.055 92.5368L198.523 88.4149L193.26 70.0723Z" fill="#6C63FF"/>
<path d="M199.923 82.3364C199.654 82.8055 199.247 83.1848 198.755 83.4252C198.262 83.6657 197.707 83.7562 197.162 83.6851L196.941 82.9189L199.923 82.3364Z" fill="#6C63FF"/>
<path d="M203.338 82.9189C203.403 83.4128 204.446 84.3246 206.203 84.8944C208.199 85.5276 211.265 85.2047 211.265 85.2047L210.993 84.2802L203.338 82.9189Z" fill="#6C63FF"/>
<path opacity="0.43" d="M197.758 72.7572L197.628 72.1874C197.563 71.8708 198.458 71.8581 199.638 72.1557L201.887 72.7255C203.067 73.0295 204.071 73.5233 204.142 73.8399L204.272 74.4097L197.758 72.7572Z" fill="#455A64"/>
<path d="M196.671 70.6106C196.632 70.4143 196.995 70.3637 197.488 70.4966L198.408 70.7625C198.408 70.7625 198.142 69.4962 200.126 69.9584C200.655 70.0347 201.155 70.2432 201.577 70.5638C202 70.8844 202.33 71.3062 202.537 71.7883L203.49 72.0542C204.015 72.1998 204.488 72.4721 204.553 72.6873L204.663 73.0419L196.787 71.0158L196.671 70.6106Z" fill="#37474F"/>
<path d="M197.758 71.2245C198.478 71.3955 198.776 71.4904 198.886 71.9716C198.996 72.4528 199.061 72.934 199.061 72.934L202.542 73.8331C202.542 73.8331 202.373 73.1303 202.321 72.8581C202.27 72.5858 202.386 72.4212 202.97 72.5605L203.015 72.3452L197.551 70.9902L197.758 71.2245Z" fill="#37474F"/>
<path d="M197.637 72.8139L197.514 72.244C197.442 71.9274 198.337 71.9148 199.517 72.2123L201.766 72.7822C202.945 73.0798 203.957 73.5736 204.028 73.8902L204.151 74.4601L197.637 72.8139Z" fill="#37474F"/>
<path d="M230.498 82.9187L225.365 79.0375C225.365 79.0375 214.605 81.0129 213.393 81.1079C212.181 81.2029 211.222 80.0315 210.761 78.8665C210.301 77.7015 209.368 77.8471 209.368 77.8471C209.368 77.8471 209.724 79.3287 209.841 79.7973C209.958 80.2658 207.151 80.652 205.537 80.1202C203.923 79.5883 201.583 80.3608 203.029 82.5135C204.474 84.6663 207.3 84.9069 209.258 84.9132C210.077 84.9053 210.895 84.8504 211.708 84.7486C212.356 84.6726 213.004 84.6093 213.607 84.565C217.613 84.2864 228.677 83.4759 230.498 82.9187Z" fill="#FFA8A7"/>
<path d="M194.81 75.4921L195.49 77.8537C195.62 78.3096 197.396 79.1201 198.524 79.4366C199.651 79.7532 200.876 80.0698 200.345 81.6337C199.852 83.0457 198.005 83.3686 197.065 83.3306C196.432 83.2261 195.841 82.9525 195.357 82.5402C194.873 82.1279 194.515 81.5928 194.323 80.9942C193.675 79.1897 194.025 77.2586 193.766 76.2012C193.507 75.1438 194.252 74.8652 194.81 75.4921Z" fill="#F28F8F"/>
<path d="M218.171 140.771V140.233C217.808 140.391 216.952 143.563 215.435 144.912C214.23 145.988 212.583 147.235 212.194 148.432C211.806 149.629 214.489 150.37 215.617 150.173C216.913 149.945 219.201 149.046 219.772 148.21C220.342 147.375 220.608 146.14 221.068 145.526C221.528 144.912 222.598 144.26 222.85 143.525C222.926 142.863 222.85 142.193 222.63 141.562C222.455 140.897 222.261 140.176 222.034 140.233C222.034 140.315 222.034 140.644 222.034 140.644C221.478 141.065 220.792 141.288 220.089 141.277C219.525 141.296 218.164 141.189 218.171 140.771Z" fill="#37474F"/>
<path d="M204.888 134.851C204.687 134.851 204.525 135.13 204.091 135.592C203.435 136.239 202.673 136.774 201.835 137.175C200.403 137.878 197.622 138.954 196.358 139.511C195.567 139.859 195.606 140.778 196.423 141.316C197.24 141.854 199.204 142.227 201.563 141.708C202.859 141.43 204.525 140.271 205.582 140.328C206.638 140.385 208.622 140.379 209.406 139.853C210.19 139.328 209.873 138.201 209.652 137.232C209.432 136.263 209.069 134.566 208.712 134.636V134.971C208.252 135.649 205.906 135.928 204.895 135.427L204.888 134.851Z" fill="#37474F"/>
<path d="M39.1578 132.577L41.5496 135.825C40.4592 136.317 39.2697 136.564 38.0688 136.547C35.9299 136.63 35.34 135.914 35.2622 135.775C34.8993 135.021 35.4632 133.654 35.6187 132.476L39.1578 132.577Z" fill="#37474F"/>
<path d="M35.2617 129.31C35.2617 129.31 35.6247 132.261 35.6506 132.894C35.6766 133.527 38.5998 133.736 39.1573 132.577L39.2415 128.968L35.2617 129.31Z" fill="#F28F8F"/>
<path d="M35.262 71.1802C33.2656 74.2193 31.3729 76.8786 30.9581 80.3103C30.1025 87.522 32.9026 95.7658 33.5054 101.097C32.372 102.618 31.7166 104.429 31.6192 106.308C31.6192 108.511 35.262 129.311 35.262 129.311C35.262 129.311 37.9065 130.102 39.2418 128.969L41.7437 90.7068L40.4474 86.0468L35.262 71.1802Z" fill="#6C63FF"/>
<path opacity="0.5" d="M35.262 71.1802C33.2656 74.2193 31.3729 76.8786 30.9581 80.3103C30.1025 87.522 32.9026 95.7658 33.5054 101.097C32.372 102.618 31.7166 104.429 31.6192 106.308C31.6192 108.511 35.262 129.311 35.262 129.311C35.262 129.311 37.9065 130.102 39.2418 128.969L41.7437 90.7068L40.4474 86.0468L35.262 71.1802Z" fill="white"/>
<path d="M53.7164 56.9277L66.8809 63.101L58.9796 80.456L46.7031 73.5355L53.7164 56.9277Z" fill="#6C63FF"/>
<path d="M65.3317 63.4178L58.5129 78.2084L49.0625 72.8898L54.4229 58.3335L65.3317 63.4178Z" fill="#6C63FF"/>
<path d="M54.4238 58.3335L65.3326 63.4178L57.9694 78.3667L47.6504 72.6113L54.4238 58.3335Z" fill="white"/>
<path d="M56.7949 60.473L57.0477 59.9412C57.1903 59.6499 58.0913 59.7702 59.0635 60.2198L60.9238 61.0808C61.8961 61.5241 62.5637 62.1319 62.4276 62.4231L62.1683 62.955L56.7949 60.473Z" fill="#E0E0E0"/>
<path d="M30.795 63.1641C29.8357 65.8361 27.9366 70.0782 28.5458 70.933C29.1551 71.7878 32.8108 71.6041 34.8461 71.5282C37.4388 71.4332 39.5908 71.3319 39.5908 71.3319L39.1565 66.8998H35.4748L37.0953 62.417L30.795 63.1641Z" fill="#F28F8F"/>
<path d="M34.4847 53.667C33.143 55.8197 30.4336 63.4177 30.4336 63.4177C31.1864 64.2516 32.1848 64.8377 33.2921 65.0955C34.259 65.3854 35.2865 65.4246 36.2737 65.2095L39.2682 57.9282L34.4847 53.667Z" fill="#6C63FF"/>
<path opacity="0.4" d="M34.4847 53.667C33.143 55.8197 30.4336 63.4177 30.4336 63.4177C31.1864 64.2516 32.1848 64.8377 33.2921 65.0955C34.259 65.3854 35.2865 65.4246 36.2737 65.2095L39.2682 57.9282L34.4847 53.667Z" fill="black"/>
<path d="M47.8822 55.022C50.2351 55.7121 51.6676 55.8324 54.2668 59.739C56.866 63.6456 62.557 71.3955 63.1209 72.3262C63.9052 73.5926 64.2422 75.1628 63.5681 76.3531C62.894 77.5435 61.0986 76.9863 58.5188 74.7639C55.9391 72.5415 51.0778 66.5835 51.0778 66.5835C51.0778 66.5835 46.009 61.0053 47.8822 55.022Z" fill="#FFA8A7"/>
<path d="M46.0039 49.9565L45.3687 55.446L39.8203 56.0728L40.624 48.7852L46.0039 49.9565Z" fill="#FFA8A7"/>
<path d="M34.1348 41.9347C34.595 36.8694 37.3756 34.7736 39.5859 34.2734C43.9741 33.2604 47.8891 34.818 49.6651 37.8255C50.1318 38.6169 50.9161 41.5801 49.3539 43.3276C47.7918 45.0752 34.1348 41.9347 34.1348 41.9347Z" fill="#263238"/>
<path d="M50.1009 43.7202C50.1009 43.7202 51.2546 45.6197 51.0796 45.835C50.7729 46.009 50.4372 46.129 50.0879 46.1895L50.1009 43.7202Z" fill="#F28F8F"/>
<path d="M46.5992 37.6101C47.7919 38.3003 49.8401 39.5603 50.1188 43.9924C50.4105 48.5448 49.5225 49.9441 48.8225 50.5013C48.3753 50.8812 46.0807 50.7545 44.9334 50.343C43.5269 49.8238 40.3962 48.4118 39.048 45.9932C37.4924 43.1503 37.3563 39.4716 39.4175 38.1483C40.4683 37.4681 41.6798 37.0616 42.9367 36.9675C44.1937 36.8733 45.4544 37.0945 46.5992 37.6101Z" fill="#FFA8A7"/>
<path d="M46.9467 37.8375C46.9467 37.8375 47.7699 42.0227 46.3439 44.5553C46.3439 44.5553 45.6958 42.9028 44.2438 43.289C42.7919 43.6752 42.8114 45.5367 43.8809 46.5498C44.1518 46.838 44.5006 47.0457 44.887 47.1487C45.2735 47.2518 45.6819 47.2461 46.0652 47.1323C45.8637 48.4358 45.2415 49.6425 44.2892 50.5767C42.7776 50.9183 41.1979 50.8356 39.7322 50.3383C38.2666 49.8409 36.9747 48.949 36.0055 47.7654C32.7646 44.0045 33.6138 37.6349 38.7538 36.2673C43.8938 34.8996 46.9467 37.8375 46.9467 37.8375Z" fill="#263238"/>
<path d="M41.414 134.268C41.414 134.268 44.3179 134.084 46.3207 133.837C48.3236 133.591 49.9116 134.547 49.4385 135.357C48.9653 136.167 47.8634 136.832 46.1457 137.396C44.6744 137.883 42.9048 138.232 41.3751 138.662C39.8455 139.093 38.7824 139.65 37.8944 139.352C36.9027 139.017 36.4749 138.63 36.5592 137.921C36.7756 136.913 37.0439 135.915 37.3629 134.933L41.414 134.268Z" fill="#37474F"/>
<path d="M38.2062 131.128L37.1627 135.604C37.1627 135.604 37.0654 136.149 39.4507 136.497C41.836 136.845 45.5825 135.281 46.2242 134.959C46.8659 134.636 46.9372 134.009 44.5908 134.135C42.2444 134.262 41.4147 134.268 41.4147 134.268L42.199 132.28L38.2062 131.128Z" fill="#FFA8A7"/>
<path d="M41.7447 90.7067L40.4483 86.0467C37.9662 85.4084 35.5722 84.4794 33.3184 83.2798C33.3184 83.2798 34.6666 85.6795 38.5038 86.9901L40.5196 92.9798L40.6946 106.681L41.7447 90.7067Z" fill="#6C63FF"/>
<path d="M35.2624 71.1802C34.1929 72.8834 31.6391 75.8022 32.1771 78.6008C32.8252 82.0009 34.7114 84.3816 40.4284 86.0468L45.7953 105.042C45.7953 105.042 43.0016 107.574 42.146 110.025C41.2904 112.475 38.2051 131.147 38.2051 131.147C38.2051 131.147 39.1579 132.666 42.1719 132.299C42.1719 132.299 52.6789 108.872 53.4243 107.346C54.3136 105.81 54.6276 104.019 54.3123 102.281C53.9817 99.818 50.4232 72.9277 50.4232 72.9277L35.2624 71.1802Z" fill="#6C63FF"/>
<path opacity="0.5" d="M35.2624 71.1802C34.1929 72.8834 31.6391 75.8022 32.1771 78.6008C32.8252 82.0009 34.7114 84.3816 40.4284 86.0468L45.7953 105.042C45.7953 105.042 43.0016 107.574 42.146 110.025C41.2904 112.475 38.2051 131.147 38.2051 131.147C38.2051 131.147 39.1579 132.666 42.1719 132.299C42.1719 132.299 52.6789 108.872 53.4243 107.346C54.3136 105.81 54.6276 104.019 54.3123 102.281C53.9817 99.818 50.4232 72.9277 50.4232 72.9277L35.2624 71.1802Z" fill="white"/>
<path d="M34.29 54.0592C34.7048 52.9828 36.0271 52.0837 37.2198 52.4003C40.9597 53.3943 46.7739 54.705 47.8823 55.0216C47.8823 55.0216 47.3896 63.2526 51.6935 65.7093C51.4926 67.2732 50.3972 72.883 50.3972 72.883C50.3972 72.883 45.2118 75.3397 40.9597 74.1493C36.7077 72.959 35.2623 71.1988 35.2623 71.1988L37.3948 67.8051C36.941 66.697 35.178 62.9551 34.0437 59.4727C33.6266 57.6793 33.7116 55.8093 34.29 54.0592Z" fill="#6C63FF"/>
<path opacity="0.2" d="M34.29 54.0592C34.7048 52.9828 36.0271 52.0837 37.2198 52.4003C40.9597 53.3943 46.7739 54.705 47.8823 55.0216C47.8823 55.0216 47.3896 63.2526 51.6935 65.7093C51.4926 67.2732 50.3972 72.883 50.3972 72.883C50.3972 72.883 45.2118 75.3397 40.9597 74.1493C36.7077 72.959 35.2623 71.1988 35.2623 71.1988L37.3948 67.8051C36.941 66.697 35.178 62.9551 34.0437 59.4727C33.6266 57.6793 33.7116 55.8093 34.29 54.0592Z" fill="black"/>
<path opacity="0.25" d="M36.8125 66.4502C38.585 67.4916 40.443 68.3875 42.3674 69.1285C40.6212 69.0955 38.9115 68.6339 37.3959 67.7862L36.8125 66.4502Z" fill="#6C63FF"/>
<path d="M37.9136 35.4C37.9136 35.4 36.1376 32.4432 31.7883 33.2093C27.439 33.9754 25.676 38.4835 25.7408 41.3391C25.8056 44.1946 26.7844 46.1891 24.1657 49.5701C23.6496 50.2369 23.2859 51.0041 23.0992 51.8199C22.9125 52.6356 22.9071 53.4811 23.0835 54.299C23.2598 55.117 23.6137 55.8886 24.1213 56.5615C24.6289 57.2345 25.2784 57.7933 26.026 58.2001C29.5197 60.0996 30.3688 56.7945 29.5586 53.9706C28.6252 50.7351 32.0929 50.1716 33.0198 47.7213C33.9467 45.271 32.1253 40.1234 33.2921 38.3759C34.5884 36.4764 36.3385 36.7423 37.1811 37.3881L37.9136 35.4Z" fill="#263238"/>
<path d="M47.8833 55.022C49.0457 55.2633 50.1811 55.6153 51.2732 56.073C52.6992 56.7568 58.2606 65.2855 58.2606 65.2855C58.2606 65.2855 57.8652 68.4956 53.315 69.7683L50.6251 66.4505C50.6251 66.4505 46.6712 60.6824 47.8833 55.022Z" fill="#6C63FF"/>
<path opacity="0.1" d="M47.8833 55.022C49.0457 55.2633 50.1811 55.6153 51.2732 56.073C52.6992 56.7568 58.2606 65.2855 58.2606 65.2855C58.2606 65.2855 57.8652 68.4956 53.315 69.7683L50.6251 66.4505C50.6251 66.4505 46.6712 60.6824 47.8833 55.022Z" fill="black"/>
<path d="M51.4147 67.4511C50.2195 66.0923 49.3178 64.5115 48.7637 62.8037C48.7637 62.8037 48.7637 66.4887 51.2462 68.3945L51.4147 67.4511Z" fill="#6C63FF"/>
<path opacity="0.4" d="M51.4147 67.4511C50.2195 66.0923 49.3178 64.5115 48.7637 62.8037C48.7637 62.8037 48.7637 66.4887 51.2462 68.3945L51.4147 67.4511Z" fill="black"/>
<path d="M57.2662 58.1813C57.3504 57.9977 57.7458 58.0103 58.1477 58.1813L58.8737 58.5295C58.8737 58.5295 59.4376 57.3835 61.1228 58.0736C62.8081 58.7638 62.2895 60.0871 62.2895 60.0871L63.0609 60.4733C63.4887 60.6822 63.7739 61.0052 63.7091 61.1951L63.5794 61.5307L57.0977 58.4915L57.2662 58.1813Z" fill="#455A64"/>
<path d="M57.9269 58.9032C58.5361 59.1691 58.7695 59.2957 58.575 59.7516C58.3806 60.2075 58.1019 60.6444 58.1019 60.6444L60.9668 61.9867C60.9668 61.9867 61.2714 61.3535 61.4011 61.0749C61.5307 60.7963 61.7641 60.6887 62.2178 60.904L62.4122 60.714L57.875 58.6562L57.9269 58.9032Z" fill="#455A64"/>
<path d="M56.7441 60.3152L57.0034 59.7833C57.146 59.4857 58.047 59.6124 59.0192 60.0619L60.8795 60.923C61.8453 61.3662 62.5194 61.9677 62.3768 62.2653L62.1175 62.7971L56.7441 60.3152Z" fill="#455A64"/>
</svg>
