<svg width="298" height="217" viewBox="0 0 298 217" fill="none" xmlns="http://www.w3.org/2000/svg">
<path d="M43.5341 193.881C101.583 224.204 195.692 224.204 253.741 193.881C311.79 163.558 311.783 114.39 253.741 84.0668C195.699 53.7434 101.583 53.7434 43.5341 84.0668C-14.5148 114.39 -14.5079 163.578 43.5341 193.881Z" fill="#F5F5F5"/>
<path d="M216.268 142.053C226.798 147.076 243.875 147.076 254.371 142.053C264.867 137.03 264.902 128.89 254.371 123.874C243.841 118.858 226.763 118.858 216.268 123.874C205.772 128.89 205.737 137.037 216.268 142.053Z" fill="#E0E0E0"/>
<path d="M91.0911 26.5926C91.0096 26.5926 90.9313 26.5607 90.873 26.5038C90.8148 26.4468 90.7811 26.3693 90.7793 26.2878V13.8176C90.7793 8.6147 93.6405 2.7329 97.153 0.709955C98.6217 -0.13525 100.083 -0.232242 101.268 0.453621C102.896 1.38889 103.825 3.64739 103.825 6.64024V19.0343C103.825 19.0746 103.818 19.1146 103.803 19.152C103.788 19.1894 103.766 19.2234 103.737 19.2519C103.709 19.2804 103.675 19.3028 103.637 19.3178C103.6 19.3328 103.56 19.34 103.52 19.3391C103.479 19.34 103.439 19.3328 103.401 19.3179C103.363 19.303 103.329 19.2807 103.3 19.2523C103.271 19.2239 103.248 19.19 103.232 19.1525C103.216 19.1151 103.208 19.0749 103.208 19.0343V6.66103C103.208 3.88986 102.39 1.81149 100.956 1.00785C99.9588 0.432834 98.7533 0.522898 97.4924 1.26418C94.1532 3.19707 91.4305 8.83639 91.4305 13.8383V26.3086C91.428 26.3499 91.417 26.3903 91.3983 26.4273C91.3797 26.4642 91.3537 26.497 91.3219 26.5236C91.2901 26.5502 91.2533 26.57 91.2136 26.5819C91.1739 26.5938 91.1322 26.5974 91.0911 26.5926Z" fill="#455A64"/>
<path d="M127.082 70.4186L125.717 11.7878L115.741 6.0376L114.557 63.1928L127.082 70.4186Z" fill="#6C63FF"/>
<g opacity="0.2">
<path opacity="0.2" d="M127.084 70.4191L125.719 11.7883L115.743 6.03809L114.559 63.1933L127.084 70.4191Z" fill="black"/>
</g>
<path d="M80.6738 26.2879L79.4961 83.4362L114.558 63.1928L115.743 6.0376L80.6738 26.2879Z" fill="#6C63FF"/>
<g opacity="0.4">
<path opacity="0.4" d="M80.6738 26.2879L79.4961 83.4362L114.558 63.1928L115.743 6.0376L80.6738 26.2879Z" fill="black"/>
</g>
<path d="M90.6543 32.0309L92.0122 90.6618L127.081 70.4185L125.716 11.7876L90.6543 32.0309Z" fill="#6C63FF"/>
<path d="M80.6738 26.2876L90.657 32.0308L92.0148 90.6617L79.4961 83.4359L80.6738 26.2876Z" fill="#6C63FF"/>
<g opacity="0.2">
<path opacity="0.2" d="M80.6738 26.2876L90.657 32.0308L92.0148 90.6617L79.4961 83.4359L80.6738 26.2876Z" fill="black"/>
</g>
<path opacity="0.2" d="M92.0148 90.662L86.9505 81.9536L86.043 46.4966L85.1423 81.434L79.4961 83.4362L92.0148 90.662Z" fill="black"/>
<g opacity="0.2">
<path opacity="0.2" d="M101.096 30.5626C100.731 30.8002 100.428 31.1203 100.21 31.497C99.9919 31.8737 99.8659 32.2965 99.8418 32.731C99.8418 33.5277 100.403 33.8602 101.096 33.4654C101.466 33.2237 101.773 32.897 101.991 32.5125C102.209 32.1281 102.332 31.697 102.35 31.2554C102.35 30.4586 101.789 30.1261 101.096 30.5626Z" fill="black"/>
</g>
<g opacity="0.2">
<path opacity="0.2" d="M113.525 23.2946C113.161 23.5322 112.857 23.8524 112.639 24.2291C112.422 24.6058 112.296 25.0286 112.271 25.4631C112.271 26.2667 112.833 26.5923 113.525 26.1974C113.889 25.9591 114.191 25.6386 114.408 25.2619C114.624 24.8853 114.749 24.4629 114.772 24.029C114.772 23.2254 114.218 22.8998 113.525 23.2946Z" fill="black"/>
</g>
<path d="M101.097 32.2869C101.051 32.2912 101.005 32.2853 100.962 32.2698C100.919 32.2542 100.88 32.2293 100.847 32.1969C100.815 32.1645 100.79 32.1253 100.774 32.0822C100.759 32.0391 100.753 31.9931 100.757 31.9474V19.4772C100.757 14.2813 103.618 8.39253 107.124 6.37651C108.6 5.52438 110.061 5.43431 111.239 6.11325C112.867 7.05544 113.802 9.31394 113.802 12.3068V24.7424C113.809 24.7868 113.806 24.832 113.794 24.8751C113.781 24.9182 113.76 24.9581 113.73 24.9921C113.701 25.0261 113.665 25.0534 113.624 25.0721C113.583 25.0908 113.539 25.1005 113.494 25.1005C113.449 25.1005 113.405 25.0908 113.364 25.0721C113.323 25.0534 113.287 25.0261 113.258 24.9921C113.229 24.9581 113.207 24.9182 113.195 24.8751C113.182 24.832 113.179 24.7868 113.186 24.7424V12.3553C113.186 9.58413 112.368 7.50576 110.934 6.6952C109.937 6.12018 108.724 6.21024 107.47 6.95845C104.131 8.88441 101.408 14.5237 101.408 19.5257V31.9959C101.403 32.0749 101.368 32.149 101.31 32.203C101.252 32.2571 101.176 32.2871 101.097 32.2869Z" fill="#455A64"/>
<path d="M46.7164 56.6806C46.6821 56.6815 46.6481 56.6756 46.6162 56.6631C46.5843 56.6506 46.5552 56.6319 46.5306 56.608C46.5061 56.5841 46.4866 56.5555 46.4733 56.524C46.46 56.4924 46.4531 56.4585 46.4531 56.4242V46.0324C46.4531 41.6747 48.8502 36.7559 51.7876 35.0586C52.2908 34.7109 52.8793 34.5072 53.4897 34.4693C54.1001 34.4315 54.7093 34.561 55.2516 34.8438C56.6371 35.6267 57.3992 37.518 57.3992 40.0259V50.4177C57.3891 50.4794 57.3575 50.5354 57.3099 50.5758C57.2623 50.6162 57.2019 50.6384 57.1394 50.6384C57.077 50.6384 57.0166 50.6162 56.969 50.5758C56.9214 50.5354 56.8897 50.4794 56.8796 50.4177V40.0259C56.8796 37.705 56.1868 35.98 54.9952 35.2872C54.5326 35.0549 54.0155 34.9528 53.4993 34.9919C52.983 35.0309 52.4872 35.2097 52.0647 35.5089C49.2936 37.1231 46.9935 41.841 46.9935 46.0324V56.4242C46.9936 56.4597 46.9864 56.4948 46.9722 56.5274C46.958 56.5599 46.9373 56.5892 46.9112 56.6133C46.8852 56.6374 46.8544 56.6558 46.8209 56.6674C46.7873 56.679 46.7518 56.6834 46.7164 56.6806Z" fill="#455A64"/>
<path d="M76.8599 93.3702L75.7168 44.286L67.3618 39.478L66.3711 87.3222L76.8599 93.3702Z" fill="#6C63FF"/>
<g opacity="0.2">
<path opacity="0.2" d="M76.8619 93.3702L75.7188 44.286L67.3637 39.478L66.373 87.3222L76.8619 93.3702Z" fill="black"/>
</g>
<path d="M38.0102 56.4237L37.0195 104.268L66.3731 87.3222L67.3638 39.478L38.0102 56.4237Z" fill="#6C63FF"/>
<g opacity="0.4">
<path opacity="0.4" d="M38.0102 56.4237L37.0195 104.268L66.3731 87.3222L67.3638 39.478L38.0102 56.4237Z" fill="black"/>
</g>
<path d="M46.3652 61.2323L47.5014 110.323L76.8619 93.3708L75.7188 44.2866L46.3652 61.2323Z" fill="#6C63FF"/>
<path d="M38.0102 56.4243L46.3653 61.2323L47.5015 110.323L37.0195 104.268L38.0102 56.4243Z" fill="#6C63FF"/>
<g opacity="0.2">
<path opacity="0.2" d="M38.0102 56.4243L46.3653 61.2323L47.5015 110.323L37.0195 104.268L38.0102 56.4243Z" fill="black"/>
</g>
<path opacity="0.2" d="M47.5015 110.323L43.2616 103.028L42.5064 73.3491L41.7444 102.592L37.0195 104.268L47.5015 110.323Z" fill="black"/>
<g opacity="0.2">
<path opacity="0.2" d="M55.1028 59.9715C54.7985 60.1727 54.5455 60.4423 54.3639 60.7586C54.1823 61.0749 54.077 61.4293 54.0566 61.7935C54.0566 62.4863 54.5277 62.7357 55.1028 62.4032C55.4105 62.2067 55.6666 61.9394 55.8498 61.6236C56.033 61.3078 56.138 60.9527 56.1558 60.5881C56.1558 59.9161 55.6847 59.6597 55.1028 59.9715Z" fill="#455A64"/>
</g>
<g opacity="0.2">
<path opacity="0.2" d="M65.507 53.9232C65.2022 54.1222 64.9486 54.3902 64.7668 54.7056C64.585 55.021 64.4802 55.3748 64.4609 55.7383C64.4609 56.4311 64.932 56.6805 65.507 56.3549C65.8127 56.1568 66.0669 55.8889 66.2488 55.5734C66.4306 55.2578 66.535 54.9036 66.5532 54.5398C66.5532 53.8609 66.1167 53.5907 65.507 53.9232Z" fill="#455A64"/>
</g>
<path d="M55.1001 61.4465C55.0326 61.4447 54.9685 61.4171 54.9208 61.3694C54.8731 61.3217 54.8455 61.2576 54.8438 61.1901V50.7636C54.8438 46.4129 57.2339 41.4941 60.1782 39.7967C60.6811 39.4487 61.2692 39.2442 61.8794 39.2051C62.4897 39.1661 63.0991 39.2939 63.6422 39.575C65.0278 40.3648 65.7829 42.2562 65.7829 44.7571V55.149C65.7839 55.1829 65.7779 55.2167 65.7653 55.2482C65.7528 55.2797 65.734 55.3084 65.71 55.3324C65.686 55.3564 65.6573 55.3752 65.6258 55.3877C65.5943 55.4003 65.5605 55.4063 65.5266 55.4053C65.4586 55.4053 65.3934 55.3783 65.3453 55.3302C65.2973 55.2822 65.2702 55.217 65.2702 55.149V44.7571C65.2702 42.4432 64.5775 40.7182 63.3789 40.0254C62.9184 39.7899 62.4018 39.686 61.886 39.7251C61.3702 39.7643 60.8752 39.9448 60.4554 40.2471C57.6842 41.8613 55.3841 46.5792 55.3841 50.7636V61.1901C55.3833 61.2259 55.3752 61.2612 55.3602 61.2937C55.3453 61.3263 55.3239 61.3555 55.2973 61.3795C55.2707 61.4035 55.2395 61.4218 55.2056 61.4333C55.1717 61.4448 55.1358 61.4493 55.1001 61.4465Z" fill="#455A64"/>
<path d="M41.0944 135.223L44.6 133.428C44.6 133.428 44.0111 126.798 42.8195 120.175C41.1776 111.065 33.8617 102.121 25.7907 102.391C17.7197 102.661 19.6179 108.703 23.2828 111.792C25.6036 113.753 38.635 123.397 41.0944 135.223Z" fill="#6C63FF"/>
<g opacity="0.1">
<path opacity="0.1" d="M41.0944 135.223L44.6 133.428C44.6 133.428 44.0111 126.798 42.8195 120.175C41.1776 111.065 33.8617 102.121 25.7907 102.391C17.7197 102.661 19.6179 108.703 23.2828 111.792C25.6036 113.753 38.635 123.397 41.0944 135.223Z" fill="black"/>
</g>
<path d="M42.8216 134.481H42.78C42.6648 134.469 42.559 134.412 42.4852 134.323C42.4113 134.234 42.3755 134.119 42.3852 134.003C43.3204 124.782 34.3419 108.481 23.8599 104.553C23.7516 104.512 23.6637 104.431 23.6156 104.325C23.5676 104.22 23.5632 104.1 23.6036 103.992C23.6441 103.883 23.7259 103.796 23.8311 103.747C23.9364 103.699 24.0564 103.695 24.1648 103.735C34.9446 107.788 44.2141 124.561 43.2581 134.121C43.2413 134.224 43.1878 134.317 43.1076 134.383C43.0273 134.45 42.9257 134.485 42.8216 134.481Z" fill="white"/>
<path d="M43.5412 143.009L44.6011 135.964C43.8179 131.386 41.5196 127.204 38.0751 124.089C32.2556 118.755 24.0738 116.379 18.6076 118C13.1415 119.621 13.9313 124.99 18.7531 126.805C23.5749 128.62 30.0872 128.537 36.0729 132.708C40.1534 135.61 43.7421 140.557 43.5412 143.009Z" fill="#6C63FF"/>
<path d="M43.9504 138.638C43.8491 138.636 43.7515 138.599 43.6744 138.534C43.5973 138.468 43.5455 138.378 43.5278 138.278C41.9829 129.59 28.4804 120.473 18.5873 121.436C18.5307 121.443 18.4733 121.438 18.4186 121.422C18.3639 121.406 18.313 121.379 18.269 121.343C18.225 121.306 18.1888 121.262 18.1625 121.211C18.1362 121.16 18.1205 121.105 18.1162 121.048C18.1095 120.991 18.1143 120.933 18.1303 120.878C18.1463 120.823 18.1731 120.772 18.2093 120.727C18.2455 120.683 18.2902 120.646 18.3408 120.619C18.3915 120.592 18.447 120.575 18.5042 120.57C28.9515 119.531 42.7519 128.884 44.3661 138.125C44.3771 138.181 44.3768 138.239 44.3653 138.295C44.3538 138.351 44.3312 138.404 44.299 138.451C44.2667 138.498 44.2254 138.538 44.1775 138.569C44.1295 138.6 44.0759 138.621 44.0197 138.631L43.9504 138.638Z" fill="white"/>
<path d="M190.877 89.1932L174.818 79.9236L154.54 68.2155H154.491C152.669 67.204 151.533 64.9801 151.533 61.8002C151.533 58.7519 150.494 56.5835 148.811 55.5166L162.666 63.5114L164.856 64.7723L185.106 76.4597L185.328 76.5913C187.066 77.6305 188.14 79.8266 188.14 82.9234C188.14 86.0202 189.166 88.1332 190.877 89.1932Z" fill="#6C63FF"/>
<g opacity="0.1">
<path opacity="0.1" d="M190.877 89.1932L174.818 79.9236L154.54 68.2155H154.491C152.669 67.204 151.533 64.9801 151.533 61.8002C151.533 58.7519 150.494 56.5835 148.811 55.5166L162.666 63.5114L164.856 64.7723L185.106 76.4597L185.328 76.5913C187.066 77.6305 188.14 79.8266 188.14 82.9234C188.14 86.0202 189.166 88.1332 190.877 89.1932Z" fill="black"/>
</g>
<path d="M207.817 66.6359V71.5201C207.817 77.8037 203.411 85.4383 197.972 88.5766C195.291 90.1284 192.853 90.2947 191.079 89.311L190.878 89.1932C189.167 88.1332 188.107 85.9578 188.107 82.8957C188.107 79.8336 187.033 77.6028 185.294 76.5636L185.073 76.432L164.822 64.7446C168.563 60.9689 171.224 55.2741 171.224 50.3969V45.5474L207.817 66.6359Z" fill="#6C63FF"/>
<path d="M185.084 76.4321C183.31 75.4969 180.927 75.677 178.267 77.2081C176.996 77.9547 175.831 78.8681 174.803 79.9238C171.062 83.6926 168.408 89.3873 168.408 94.2646C168.408 100.548 163.995 108.183 158.557 111.328L148.705 117.016L112.133 95.8926L121.984 90.2048C127.423 87.0665 131.836 79.425 131.836 73.1414C131.836 66.8578 136.242 59.2232 141.687 56.0849C144.361 54.5399 146.793 54.3737 148.567 55.3505L148.802 55.4821L162.658 63.4769L164.847 64.7378L185.084 76.4321Z" fill="#6C63FF"/>
<g opacity="0.4">
<path opacity="0.4" d="M185.084 76.4321C183.31 75.4969 180.927 75.677 178.267 77.2081C176.996 77.9547 175.831 78.8681 174.803 79.9238C171.062 83.6926 168.408 89.3873 168.408 94.2646C168.408 100.548 163.995 108.183 158.557 111.328L148.705 117.016L112.133 95.8926L121.984 90.2048C127.423 87.0665 131.836 79.425 131.836 73.1414C131.836 66.8578 136.242 59.2232 141.687 56.0849C144.361 54.5399 146.793 54.3737 148.567 55.3505L148.802 55.4821L162.658 63.4769L164.847 64.7378L185.084 76.4321Z" fill="white"/>
</g>
<path d="M157.131 98.8364C156.902 97.3122 155.662 96.758 154.166 97.624L148.72 100.762L137.636 107.157C135.611 108.267 133.66 109.507 131.796 110.87C128.933 113.328 126.275 116.016 123.849 118.906C119 124.449 114.15 130.462 109.301 133.261L84.1593 147.775C83.2863 148.345 82.5599 149.112 82.0387 150.015C81.5176 150.917 81.2164 151.93 81.1595 152.971V162.289C81.1595 164.063 82.3164 164.859 83.8059 164.201C82.9085 164.584 81.9382 164.766 80.9629 164.735C79.9876 164.704 79.0309 164.46 78.1597 164.021L44.781 144.741C43.9081 144.171 43.1817 143.404 42.6605 142.501C42.1393 141.598 41.8381 140.586 41.7812 139.545V130.227C41.837 129.186 42.1378 128.172 42.659 127.27C43.1803 126.367 43.9074 125.6 44.781 125.031L69.9224 110.482C74.7719 107.711 79.6215 101.67 84.471 96.1345C86.9068 93.2504 89.5736 90.5696 92.445 88.1189C94.3077 86.7591 96.2561 85.5211 98.2783 84.4124L109.363 78.018L114.801 74.8727C115.731 74.4011 116.759 74.1553 117.801 74.1553C118.844 74.1553 119.871 74.4011 120.801 74.8727L154.2 94.16C154.992 94.6873 155.663 95.3769 156.168 96.1831C156.674 96.9893 157.002 97.8937 157.131 98.8364Z" fill="#455A64"/>
<path d="M83.9939 154.378C83.9939 154.378 41.7821 130.221 41.7891 130.013C41.7891 130.013 41.7891 130.151 41.7891 130.221V139.539C41.8448 140.58 42.1456 141.593 42.6669 142.496C43.1881 143.399 43.9152 144.166 44.7888 144.734L78.1883 164.022C79.1179 164.493 80.1457 164.739 81.1881 164.739C82.2305 164.739 83.2582 164.493 84.1879 164.022L85.615 163.197L83.9939 154.378Z" fill="#37474F"/>
<path d="M154.158 97.6178L137.649 107.158C135.626 108.268 133.675 109.506 131.809 110.864C124.313 116.919 116.817 128.939 109.321 133.255L84.1795 147.804C83.3058 148.372 82.5787 149.14 82.0575 150.042C81.5362 150.945 81.2355 151.958 81.1797 153V162.318C81.1797 164.23 82.5237 165.006 84.1795 164.05L154.151 123.646C155.024 123.076 155.751 122.309 156.272 121.406C156.793 120.504 157.094 119.491 157.151 118.45V99.3498C157.165 97.4377 155.821 96.6618 154.158 97.6178Z" fill="#263238"/>
<path d="M132.023 103.908C129.998 105.018 128.047 106.258 126.183 107.621C124.74 108.812 123.372 110.091 122.089 111.452C121.808 111.724 121.448 111.9 121.062 111.955C120.675 112.011 120.281 111.944 119.934 111.764L94.1831 96.8967C94.0312 96.8226 93.8997 96.7126 93.7999 96.5762C93.7002 96.4398 93.6352 96.2811 93.6106 96.1139C93.5861 95.9467 93.6027 95.776 93.659 95.6166C93.7153 95.4573 93.8096 95.3141 93.9337 95.1994C95.2222 93.8383 96.5943 92.5588 98.042 91.3683C99.9046 90.0085 101.853 88.7705 103.875 87.6618C107.027 85.8329 110.561 83.7891 113.748 81.9602C114.12 81.7725 114.532 81.6748 114.95 81.6748C115.367 81.6748 115.779 81.7725 116.152 81.9602L141.896 96.8205C142.039 96.871 142.163 96.9647 142.251 97.0888C142.339 97.2129 142.386 97.3612 142.386 97.5133C142.386 97.6654 142.339 97.8137 142.251 97.9378C142.163 98.0619 142.039 98.1557 141.896 98.2061L132.023 103.908Z" fill="#37474F"/>
<path d="M116.153 83.2139C115.78 83.0258 115.369 82.9277 114.951 82.9277C114.534 82.9277 114.122 83.0258 113.749 83.2139L103.877 88.9225C101.855 90.0311 99.9061 91.2692 98.0435 92.629C96.5976 93.8189 95.2256 95.096 93.9352 96.4532L93.8105 96.6125C93.9136 96.7436 94.0405 96.8541 94.1846 96.9381L119.936 111.805C120.282 111.986 120.677 112.053 121.063 111.997C121.45 111.941 121.809 111.765 122.09 111.494C123.374 110.133 124.741 108.853 126.185 107.663C128.049 106.3 130 105.059 132.025 103.949L141.897 98.2475L142.015 98.1644L141.897 98.0812L116.153 83.2139Z" fill="white"/>
<path d="M78.3662 157.627C78.3662 158.528 77.6734 158.867 76.8629 158.389L46.096 140.626C45.6681 140.357 45.3096 139.991 45.0496 139.558C44.7896 139.125 44.6354 138.636 44.5996 138.132C44.5996 137.231 45.2924 136.892 46.096 137.37L76.8629 155.14C77.2912 155.407 77.6505 155.772 77.9117 156.204C78.1729 156.636 78.3286 157.124 78.3662 157.627Z" fill="#263238"/>
<path d="M89.453 125.544V124.311L88.0258 124.207L84.8251 122.344C84.3603 122.108 83.8464 121.985 83.3253 121.985C82.8041 121.985 82.2903 122.108 81.8254 122.344L79.6639 123.591L78.5762 123.508V124.706C78.587 124.896 78.6504 125.08 78.7592 125.237C78.8681 125.393 79.0181 125.516 79.1928 125.593L83.2248 127.921C83.6897 128.156 84.2035 128.279 84.7247 128.279C85.2459 128.279 85.7597 128.156 86.2246 127.921L88.8572 126.403C89.0252 126.327 89.1705 126.209 89.2786 126.059C89.3868 125.91 89.454 125.735 89.4738 125.551L89.453 125.544Z" fill="#E0E0E0"/>
<path d="M84.8242 121.124L88.8632 123.452C89.0442 123.513 89.2013 123.63 89.3126 123.785C89.424 123.94 89.4838 124.127 89.4838 124.318C89.4838 124.509 89.424 124.695 89.3126 124.85C89.2013 125.006 89.0442 125.122 88.8632 125.184L86.2306 126.701C85.7657 126.936 85.2519 127.059 84.7307 127.059C84.2095 127.059 83.6957 126.936 83.2308 126.701L79.1988 124.373C79.0178 124.312 78.8606 124.195 78.7493 124.04C78.638 123.885 78.5781 123.698 78.5781 123.507C78.5781 123.316 78.638 123.13 78.7493 122.974C78.8606 122.819 79.0178 122.703 79.1988 122.641L81.8244 121.124C82.2893 120.888 82.8032 120.766 83.3243 120.766C83.8455 120.766 84.3593 120.888 84.8242 121.124Z" fill="#F5F5F5"/>
<path d="M78.9026 119.433V118.2L77.4754 118.096L74.247 116.232C73.7821 115.997 73.2683 115.874 72.7471 115.874C72.226 115.874 71.7121 115.997 71.2472 116.232L69.0857 117.479L67.998 117.403V118.595C68.0115 118.784 68.0768 118.967 68.1867 119.122C68.2967 119.277 68.4471 119.399 68.6216 119.475L72.6536 121.802C73.1175 122.041 73.6317 122.166 74.1535 122.166C74.6753 122.166 75.1895 122.041 75.6534 121.802L78.2791 120.285C78.4492 120.211 78.5966 120.093 78.7062 119.944C78.8158 119.794 78.8835 119.618 78.9026 119.433Z" fill="#E0E0E0"/>
<path d="M74.2461 115.014L78.2781 117.348C78.4591 117.41 78.6163 117.526 78.7276 117.682C78.8389 117.837 78.8988 118.023 78.8988 118.214C78.8988 118.405 78.8389 118.592 78.7276 118.747C78.6163 118.902 78.4591 119.019 78.2781 119.08L75.6525 120.625C75.1876 120.861 74.6737 120.983 74.1526 120.983C73.6314 120.983 73.1176 120.861 72.6527 120.625L68.6206 118.29C68.4397 118.229 68.2825 118.113 68.1712 117.957C68.0599 117.802 68 117.616 68 117.424C68 117.233 68.0599 117.047 68.1712 116.892C68.2825 116.736 68.4397 116.62 68.6206 116.558L71.2463 115.041C71.709 114.801 72.2217 114.674 72.7429 114.669C73.2641 114.664 73.779 114.782 74.2461 115.014Z" fill="#F5F5F5"/>
<path d="M100.005 131.634V130.401L98.6191 130.297L95.3837 128.433C94.9188 128.197 94.405 128.075 93.8838 128.075C93.3627 128.075 92.8488 128.197 92.384 128.433L90.2294 129.68L89.1348 129.597V130.795C89.1464 130.986 89.2101 131.169 89.3188 131.325C89.4275 131.482 89.5772 131.605 89.7513 131.682L93.7903 134.01C94.2552 134.246 94.769 134.368 95.2902 134.368C95.8114 134.368 96.3252 134.246 96.7901 134.01L99.4158 132.493C99.5846 132.418 99.7306 132.299 99.839 132.15C99.9473 132 100.014 131.824 100.032 131.641L100.005 131.634Z" fill="#E0E0E0"/>
<path d="M95.3546 127.214L99.3866 129.542C99.5676 129.603 99.7248 129.72 99.8361 129.875C99.9474 130.03 100.007 130.216 100.007 130.408C100.007 130.599 99.9474 130.785 99.8361 130.94C99.7248 131.096 99.5676 131.212 99.3866 131.274L96.761 132.791C96.2961 133.026 95.7822 133.149 95.2611 133.149C94.7399 133.149 94.2261 133.026 93.7612 132.791L89.7222 130.463C89.5412 130.402 89.3841 130.285 89.2727 130.13C89.1614 129.974 89.1016 129.788 89.1016 129.597C89.1016 129.406 89.1614 129.22 89.2727 129.064C89.3841 128.909 89.5412 128.792 89.7222 128.731L92.3548 127.214C92.8197 126.978 93.3335 126.855 93.8547 126.855C94.3759 126.855 94.8897 126.978 95.3546 127.214Z" fill="#F5F5F5"/>
<path d="M97.8967 120.674V119.441L96.4696 119.337L93.2412 117.473C92.7763 117.238 92.2624 117.115 91.7413 117.115C91.2201 117.115 90.7063 117.238 90.2414 117.473L88.0799 118.72L86.9922 118.637V119.835C87.0038 120.026 87.0675 120.209 87.1762 120.365C87.285 120.522 87.4346 120.645 87.6088 120.722L91.6477 123.05C92.1126 123.286 92.6265 123.408 93.1476 123.408C93.6688 123.408 94.1826 123.286 94.6475 123.05L97.2732 121.533C97.4417 121.457 97.5877 121.338 97.6969 121.189C97.8062 121.039 97.875 120.864 97.8967 120.681V120.674Z" fill="#E0E0E0"/>
<path d="M93.2415 116.253L97.2735 118.581C97.4545 118.643 97.6117 118.759 97.723 118.914C97.8343 119.07 97.8942 119.256 97.8942 119.447C97.8942 119.638 97.8343 119.825 97.723 119.98C97.6117 120.135 97.4545 120.252 97.2735 120.313L94.6479 121.83C94.183 122.066 93.6691 122.189 93.148 122.189C92.6268 122.189 92.113 122.066 91.6481 121.83L87.5953 119.503C87.4143 119.441 87.2571 119.325 87.1458 119.169C87.0345 119.014 86.9746 118.828 86.9746 118.637C86.9746 118.446 87.0345 118.259 87.1458 118.104C87.2571 117.949 87.4143 117.832 87.5953 117.771L90.2279 116.253C90.6945 116.016 91.2109 115.892 91.7347 115.892C92.2585 115.892 92.7748 116.016 93.2415 116.253Z" fill="#F5F5F5"/>
<path d="M87.3459 114.563V113.33L85.9188 113.226L82.6904 111.363C82.2255 111.127 81.7117 111.004 81.1905 111.004C80.6693 111.004 80.1555 111.127 79.6906 111.363L77.5291 112.61L76.4414 112.534V113.697C76.4523 113.888 76.5156 114.071 76.6245 114.228C76.7333 114.384 76.8834 114.508 77.058 114.584L81.097 116.912C81.5619 117.148 82.0757 117.27 82.5969 117.27C83.118 117.27 83.6319 117.148 84.0967 116.912L86.7224 115.395C86.8917 115.32 87.0381 115.202 87.1465 115.052C87.2549 114.903 87.3213 114.727 87.339 114.543L87.3459 114.563Z" fill="#E0E0E0"/>
<path d="M82.691 110.143L86.7231 112.478C86.904 112.539 87.0612 112.656 87.1725 112.811C87.2839 112.966 87.3437 113.153 87.3437 113.344C87.3437 113.535 87.2839 113.721 87.1725 113.876C87.0612 114.032 86.904 114.148 86.7231 114.21L84.132 115.727C83.6672 115.962 83.1533 116.085 82.6322 116.085C82.111 116.085 81.5972 115.962 81.1323 115.727L77.0933 113.392C76.9123 113.331 76.7552 113.214 76.6438 113.059C76.5325 112.904 76.4727 112.717 76.4727 112.526C76.4727 112.335 76.5325 112.149 76.6438 111.994C76.7552 111.838 76.9123 111.722 77.0933 111.66L79.7259 110.143C80.1863 109.913 80.6939 109.793 81.2085 109.793C81.7231 109.793 82.2306 109.913 82.691 110.143Z" fill="#F5F5F5"/>
<path d="M108.449 126.763V125.53L107.022 125.426L103.794 123.562C103.329 123.327 102.815 123.204 102.294 123.204C101.773 123.204 101.259 123.327 100.794 123.562L98.6326 124.809L97.5449 124.726V125.925C97.5587 126.115 97.624 126.298 97.7338 126.455C97.8436 126.611 97.9939 126.734 98.1684 126.812L102.2 129.139C102.665 129.375 103.179 129.498 103.7 129.498C104.222 129.498 104.735 129.375 105.2 129.139L107.833 127.622C108.001 127.546 108.146 127.427 108.254 127.278C108.362 127.129 108.43 126.953 108.449 126.77V126.763Z" fill="#E0E0E0"/>
<path d="M103.793 122.344L107.832 124.671C108.013 124.733 108.17 124.849 108.281 125.005C108.393 125.16 108.453 125.346 108.453 125.537C108.453 125.729 108.393 125.915 108.281 126.07C108.17 126.225 108.013 126.342 107.832 126.403L105.199 127.921C104.734 128.156 104.221 128.279 103.699 128.279C103.178 128.279 102.664 128.156 102.2 127.921L98.1675 125.593C97.9865 125.531 97.8294 125.415 97.7181 125.26C97.6067 125.104 97.5469 124.918 97.5469 124.727C97.5469 124.536 97.6067 124.349 97.7181 124.194C97.8294 124.039 97.9865 123.922 98.1675 123.861L100.793 122.344C101.258 122.108 101.772 121.985 102.293 121.985C102.814 121.985 103.328 122.108 103.793 122.344Z" fill="#F5F5F5"/>
<path d="M81.0139 130.435V129.202L79.5868 129.098L76.3584 127.235C75.8944 126.996 75.3802 126.871 74.8585 126.871C74.3367 126.871 73.8225 126.996 73.3586 127.235L71.1971 128.482L70.1094 128.398V129.632C70.1225 129.821 70.1868 130.004 70.2953 130.16C70.4039 130.316 70.5527 130.44 70.726 130.518L74.7649 132.846C75.2298 133.082 75.7437 133.204 76.2648 133.204C76.786 133.204 77.2998 133.082 77.7647 132.846L80.3904 131.329C80.5589 131.253 80.7049 131.134 80.8141 130.985C80.9234 130.835 80.9922 130.66 81.0139 130.477V130.435Z" fill="#E0E0E0"/>
<path d="M76.3604 126.015L80.3925 128.343C80.5735 128.404 80.7306 128.521 80.8419 128.676C80.9533 128.831 81.0131 129.018 81.0131 129.209C81.0131 129.4 80.9533 129.586 80.8419 129.742C80.7306 129.897 80.5735 130.013 80.3925 130.075L77.7668 131.592C77.3019 131.828 76.7881 131.95 76.2669 131.95C75.7458 131.95 75.2319 131.828 74.767 131.592L70.7281 129.264C70.5471 129.203 70.3899 129.086 70.2786 128.931C70.1673 128.776 70.1074 128.589 70.1074 128.398C70.1074 128.207 70.1673 128.021 70.2786 127.866C70.3899 127.71 70.5471 127.594 70.7281 127.532L73.3607 126.015C73.8256 125.779 74.3394 125.657 74.8606 125.657C75.3817 125.657 75.8956 125.779 76.3604 126.015Z" fill="#F5F5F5"/>
<path d="M70.4558 124.325V123.091L69.0702 122.988L65.8349 121.124C65.37 120.888 64.8562 120.766 64.335 120.766C63.8139 120.766 63.3 120.888 62.8351 121.124L60.6805 122.371L59.5859 122.288V123.486C59.5976 123.676 59.6612 123.86 59.77 124.016C59.8787 124.173 60.0283 124.296 60.2025 124.373L64.2415 126.701C64.7064 126.936 65.2202 127.059 65.7414 127.059C66.2625 127.059 66.7764 126.936 67.2413 126.701L69.867 125.184C70.0358 125.109 70.1818 124.99 70.2901 124.841C70.3984 124.691 70.4652 124.515 70.4835 124.332L70.4558 124.325Z" fill="#E0E0E0"/>
<path d="M65.7988 119.932L69.8378 122.26C70.0188 122.321 70.1759 122.438 70.2873 122.593C70.3986 122.748 70.4584 122.935 70.4584 123.126C70.4584 123.317 70.3986 123.503 70.2873 123.659C70.1759 123.814 70.0188 123.93 69.8378 123.992L67.2121 125.474C66.7472 125.71 66.2334 125.833 65.7122 125.833C65.1911 125.833 64.6772 125.71 64.2123 125.474L60.1734 123.147C59.9924 123.085 59.8352 122.969 59.7239 122.813C59.6126 122.658 59.5527 122.472 59.5527 122.281C59.5527 122.09 59.6126 121.903 59.7239 121.748C59.8352 121.593 59.9924 121.476 60.1734 121.415L62.7991 119.897C63.2667 119.667 63.7819 119.55 64.3031 119.556C64.8242 119.562 65.3367 119.691 65.7988 119.932Z" fill="#F5F5F5"/>
<path d="M91.5656 136.559V135.326L90.1384 135.222L86.9031 133.324C86.4392 133.085 85.925 132.96 85.4032 132.96C84.8814 132.96 84.3672 133.085 83.9033 133.324L81.7418 134.571L80.668 134.481V135.679C80.6825 135.87 80.748 136.052 80.8578 136.208C80.9675 136.365 81.1174 136.488 81.2915 136.566L85.3235 138.894C85.7884 139.129 86.3022 139.252 86.8234 139.252C87.3446 139.252 87.8584 139.129 88.3233 138.894L90.949 137.377C91.1175 137.3 91.2635 137.182 91.3727 137.033C91.482 136.883 91.5508 136.708 91.5725 136.525L91.5656 136.559Z" fill="#E0E0E0"/>
<path d="M86.9016 132.105L90.9337 134.433C91.1147 134.494 91.2718 134.611 91.3831 134.766C91.4945 134.921 91.5543 135.107 91.5543 135.299C91.5543 135.49 91.4945 135.676 91.3831 135.831C91.2718 135.987 91.1147 136.103 90.9337 136.165L88.2872 137.682C87.8223 137.917 87.3085 138.04 86.7873 138.04C86.2662 138.04 85.7523 137.917 85.2874 137.682L81.2554 135.354C81.0744 135.293 80.9173 135.176 80.8059 135.021C80.6946 134.865 80.6348 134.679 80.6348 134.488C80.6348 134.297 80.6946 134.111 80.8059 133.955C80.9173 133.8 81.0744 133.683 81.2554 133.622L83.8811 132.105C84.3487 131.866 84.8663 131.741 85.3914 131.741C85.9165 131.741 86.4341 131.866 86.9016 132.105Z" fill="#F5F5F5"/>
<path d="M72.5627 135.298V134.065L71.1356 133.961L67.9072 132.091C67.4423 131.855 66.9284 131.732 66.4073 131.732C65.8861 131.732 65.3723 131.855 64.9074 132.091L62.7459 133.338L61.6582 133.262V134.481C61.6717 134.671 61.737 134.853 61.8469 135.008C61.9568 135.163 62.1072 135.285 62.2817 135.361L66.3138 137.695C66.7786 137.931 67.2925 138.054 67.8137 138.054C68.3348 138.054 68.8487 137.931 69.3135 137.695L71.9461 136.178C72.1151 136.102 72.261 135.982 72.3692 135.831C72.4774 135.68 72.5441 135.504 72.5627 135.319V135.298Z" fill="#E0E0E0"/>
<path d="M67.9063 130.871L71.9452 133.206C72.1262 133.267 72.2834 133.384 72.3947 133.539C72.506 133.694 72.5659 133.881 72.5659 134.072C72.5659 134.263 72.506 134.449 72.3947 134.604C72.2834 134.76 72.1262 134.876 71.9452 134.938L69.3126 136.455C68.8477 136.69 68.3339 136.813 67.8127 136.813C67.2916 136.813 66.7777 136.69 66.3128 136.455L62.2808 134.127C62.0998 134.066 61.9427 133.949 61.8313 133.794C61.72 133.639 61.6602 133.452 61.6602 133.261C61.6602 133.07 61.72 132.884 61.8313 132.728C61.9427 132.573 62.0998 132.457 62.2808 132.395L64.9065 130.871C65.3714 130.635 65.8852 130.513 66.4064 130.513C66.9275 130.513 67.4414 130.635 67.9063 130.871Z" fill="#F5F5F5"/>
<path d="M62.012 129.188V127.955L60.5848 127.851L57.3564 125.987C56.8915 125.752 56.3777 125.629 55.8565 125.629C55.3353 125.629 54.8215 125.752 54.3566 125.987L52.1951 127.234L51.1074 127.151V128.35C51.1191 128.54 51.1827 128.723 51.2915 128.879C51.4002 129.036 51.5498 129.159 51.724 129.236L55.763 131.564C56.2279 131.8 56.7417 131.922 57.2629 131.922C57.784 131.922 58.2979 131.8 58.7628 131.564L61.3884 130.047C61.557 129.971 61.7029 129.852 61.8122 129.703C61.9214 129.554 61.9902 129.379 62.012 129.195V129.188Z" fill="#E0E0E0"/>
<path d="M57.3546 124.782L61.3866 127.11C61.5676 127.171 61.7248 127.287 61.8361 127.443C61.9474 127.598 62.0073 127.784 62.0073 127.976C62.0073 128.167 61.9474 128.353 61.8361 128.508C61.7248 128.664 61.5676 128.78 61.3866 128.841L58.761 130.324C58.2961 130.56 57.7822 130.682 57.2611 130.682C56.7399 130.682 56.2261 130.56 55.7612 130.324L51.7222 127.996C51.5412 127.935 51.3841 127.818 51.2727 127.663C51.1614 127.508 51.1016 127.321 51.1016 127.13C51.1016 126.939 51.1614 126.753 51.2727 126.598C51.3841 126.442 51.5412 126.326 51.7222 126.264L54.341 124.782C54.8076 124.544 55.324 124.42 55.8478 124.42C56.3716 124.42 56.8879 124.544 57.3546 124.782Z" fill="#F5F5F5"/>
<path d="M83.1116 141.408V140.175L81.6913 140.071L78.456 138.201C77.9911 137.965 77.4773 137.842 76.9561 137.842C76.435 137.842 75.9211 137.965 75.4562 138.201L73.2947 139.448L72.207 139.371V140.57C72.2191 140.759 72.2831 140.941 72.3918 141.096C72.5006 141.252 72.65 141.374 72.8236 141.45L76.8557 143.784C77.3206 144.02 77.8344 144.143 78.3555 144.143C78.8767 144.143 79.3906 144.02 79.8554 143.784L82.4881 142.267C82.6579 142.192 82.8045 142.072 82.9129 141.921C83.0212 141.77 83.0874 141.593 83.1046 141.408H83.1116Z" fill="#E0E0E0"/>
<path d="M78.457 136.961L82.496 139.296C82.677 139.357 82.8341 139.474 82.9455 139.629C83.0568 139.785 83.1167 139.971 83.1167 140.162C83.1167 140.353 83.0568 140.539 82.9455 140.695C82.8341 140.85 82.677 140.967 82.496 141.028L79.8634 142.545C79.3985 142.781 78.8847 142.904 78.3635 142.904C77.8424 142.904 77.3285 142.781 76.8636 142.545L72.8316 140.217C72.6506 140.156 72.4934 140.04 72.3821 139.884C72.2708 139.729 72.2109 139.543 72.2109 139.351C72.2109 139.16 72.2708 138.974 72.3821 138.819C72.4934 138.663 72.6506 138.547 72.8316 138.485L75.4573 136.961C75.9221 136.726 76.436 136.603 76.9571 136.603C77.4783 136.603 77.9921 136.726 78.457 136.961Z" fill="#F5F5F5"/>
<path d="M94.2614 106.16L94.0051 105.1L92.9382 105.01L89.4742 102.994C87.8185 102.038 85.6223 102.238 84.5554 103.416C84.329 103.663 84.163 103.96 84.0705 104.282H83.7656L84.0358 105.404C84.1557 105.803 84.3542 106.173 84.6196 106.493C84.8849 106.813 85.2117 107.076 85.5807 107.268L89.8345 109.721C90.1799 109.905 90.5753 109.975 90.963 109.919C91.3506 109.862 91.7101 109.684 91.989 109.409C92.6587 108.693 93.3308 107.954 94.0051 107.192C94.1309 107.055 94.2203 106.889 94.2651 106.709C94.3099 106.528 94.3086 106.339 94.2614 106.16Z" fill="#E0E0E0"/>
<path d="M89.563 108.647L85.3092 106.195C83.6535 105.239 83.2309 103.534 84.277 102.357C85.3231 101.179 87.54 100.971 89.1958 101.934L93.4495 104.386C93.6009 104.465 93.7318 104.578 93.8319 104.716C93.932 104.854 93.9985 105.013 94.0261 105.181C94.0537 105.349 94.0416 105.522 93.9908 105.684C93.94 105.847 93.8519 105.996 93.7336 106.118C93.0593 106.881 92.3873 107.619 91.7176 108.335C91.4392 108.611 91.0796 108.791 90.6917 108.847C90.3038 108.903 89.9081 108.833 89.563 108.647Z" fill="#F5F5F5"/>
<path d="M115.999 119.392L115.743 118.318H115.438C115.148 117.972 114.799 117.681 114.406 117.459L110.159 115.007C109.817 114.823 109.424 114.758 109.04 114.82C108.657 114.883 108.305 115.07 108.039 115.353C107.346 116.094 106.716 116.829 106.058 117.535L105.455 117.487L105.725 118.602C105.761 118.748 105.827 118.885 105.919 119.004C106.011 119.124 106.127 119.223 106.259 119.295L110.506 121.747C112.161 122.703 114.406 122.551 115.48 121.373C115.73 121.116 115.91 120.798 116.001 120.451C116.092 120.104 116.091 119.739 115.999 119.392Z" fill="#E0E0E0"/>
<path d="M110.27 120.625L106.024 118.172C105.873 118.097 105.743 117.987 105.644 117.85C105.545 117.714 105.481 117.555 105.456 117.389C105.432 117.222 105.448 117.052 105.503 116.893C105.559 116.734 105.652 116.591 105.774 116.475C106.444 115.755 107.116 115.016 107.79 114.258C108.056 113.975 108.408 113.788 108.792 113.726C109.175 113.663 109.568 113.729 109.91 113.912L114.157 116.364C115.82 117.32 116.312 119.073 115.245 120.251C114.178 121.429 111.933 121.567 110.27 120.625Z" fill="#F5F5F5"/>
<path d="M105.359 112.672L105.103 111.626L104.292 111.57L99.2 108.633C98.7728 108.405 98.2824 108.323 97.8042 108.401C97.3261 108.478 96.8866 108.711 96.5536 109.063C96.034 109.644 95.5213 110.213 95.0017 110.774C94.954 110.831 94.91 110.891 94.8701 110.954H94.3574L94.6207 112.048C94.667 112.235 94.7528 112.41 94.8723 112.56C94.9919 112.711 95.1423 112.834 95.3135 112.921L100.766 116.067C101.196 116.298 101.69 116.385 102.174 116.315C102.657 116.245 103.106 116.022 103.454 115.679C103.973 115.124 104.493 114.549 105.006 113.974C105.171 113.805 105.29 113.597 105.352 113.369C105.413 113.141 105.416 112.901 105.359 112.672Z" fill="#E0E0E0"/>
<path d="M104.756 112.879C104.244 113.454 103.724 114.029 103.211 114.584C102.862 114.927 102.412 115.149 101.928 115.219C101.443 115.289 100.949 115.202 100.517 114.972L95.0643 111.826C94.8766 111.732 94.7144 111.593 94.5914 111.423C94.4684 111.253 94.3883 111.055 94.3577 110.847C94.3271 110.639 94.347 110.427 94.4157 110.229C94.4845 110.03 94.6 109.851 94.7525 109.706C95.2721 109.145 95.7848 108.577 96.3044 107.995C96.6374 107.643 97.0769 107.411 97.555 107.333C98.0332 107.256 98.5236 107.337 98.9508 107.566L104.403 110.711C104.59 110.812 104.751 110.954 104.875 111.127C104.998 111.3 105.08 111.499 105.114 111.708C105.148 111.918 105.134 112.132 105.072 112.335C105.01 112.538 104.902 112.725 104.756 112.879Z" fill="#F5F5F5"/>
<path d="M262.148 83.8454L245.943 74.4858L244.766 101.83L262.148 111.91V83.8454Z" fill="#6C63FF"/>
<path d="M262.146 111.91L270.245 107.234L265.389 81.9746L262.146 83.8451V111.91Z" fill="#37474F"/>
<path d="M270.245 107.234L264.959 106.548L262.146 111.91L270.245 107.234Z" fill="#37474F"/>
<path d="M270.245 107.234L264.959 106.548L262.146 111.91L270.245 107.234Z" fill="#37474F"/>
<path d="M270.245 107.234L264.959 106.548L262.146 111.91L270.245 107.234Z" fill="#6C63FF"/>
<path opacity="0.1" d="M270.245 107.234L264.959 106.548L262.146 111.91L270.245 107.234Z" fill="black"/>
<path d="M264.959 106.548L262.146 81.9746V83.8451V111.91L264.959 106.548Z" fill="#6C63FF"/>
<path opacity="0.2" d="M264.959 106.548L262.146 81.9746V83.8451V111.91L264.959 106.548Z" fill="black"/>
<path d="M245.943 74.4853L248.777 74.2775L249.186 72.6147L265.39 81.9744H262.148V83.8449L245.943 74.4853Z" fill="#6C63FF"/>
<path opacity="0.2" d="M245.943 74.4853L248.777 74.2775L249.186 72.6147L265.39 81.9744H262.148V83.8449L245.943 74.4853Z" fill="black"/>
<path d="M256.855 82.6813C256.855 82.9168 256.682 83.0207 256.474 82.896C256.365 82.8244 256.274 82.7282 256.209 82.6151C256.144 82.5019 256.106 82.3751 256.1 82.2448C256.1 82.0023 256.266 81.9053 256.474 82.0231C256.585 82.095 256.677 82.1921 256.743 82.3065C256.809 82.4209 256.848 82.5493 256.855 82.6813Z" fill="#6C63FF"/>
<path opacity="0.3" d="M256.855 82.6813C256.855 82.9168 256.682 83.0207 256.474 82.896C256.365 82.8244 256.274 82.7282 256.209 82.6151C256.144 82.5019 256.106 82.3751 256.1 82.2448C256.1 82.0023 256.266 81.9053 256.474 82.0231C256.585 82.095 256.677 82.1921 256.743 82.3065C256.809 82.4209 256.848 82.5493 256.855 82.6813Z" fill="black"/>
<path d="M252.048 79.8269C252.048 80.0694 251.875 80.1664 251.667 80.0486C251.552 79.9731 251.458 79.8702 251.393 79.7493C251.328 79.6284 251.293 79.4932 251.293 79.3558C251.293 79.1203 251.459 79.0164 251.667 79.1411C251.782 79.2156 251.876 79.3171 251.943 79.4367C252.009 79.5562 252.045 79.6902 252.048 79.8269Z" fill="#6C63FF"/>
<path opacity="0.3" d="M252.048 79.8269C252.048 80.0694 251.875 80.1664 251.667 80.0486C251.552 79.9731 251.458 79.8702 251.393 79.7493C251.328 79.6284 251.293 79.4932 251.293 79.3558C251.293 79.1203 251.459 79.0164 251.667 79.1411C251.782 79.2156 251.876 79.3171 251.943 79.4367C252.009 79.5562 252.045 79.6902 252.048 79.8269Z" fill="black"/>
<g style="mix-blend-mode:multiply">
<path d="M260.103 80.7624C260.103 81.0049 259.93 81.1019 259.722 80.9841C259.612 80.9118 259.52 80.8145 259.455 80.7001C259.39 80.5856 259.353 80.4574 259.348 80.3259C259.348 80.0904 259.514 79.9934 259.722 80.1112C259.832 80.1824 259.924 80.2784 259.99 80.3915C260.056 80.5046 260.095 80.6316 260.103 80.7624Z" fill="#6C63FF"/>
</g>
<g style="mix-blend-mode:multiply" opacity="0.2">
<path d="M260.103 80.7624C260.103 81.0049 259.93 81.1019 259.722 80.9841C259.612 80.9118 259.52 80.8145 259.455 80.7001C259.39 80.5856 259.353 80.4574 259.348 80.3259C259.348 80.0904 259.514 79.9934 259.722 80.1112C259.832 80.1824 259.924 80.2784 259.99 80.3915C260.056 80.5046 260.095 80.6316 260.103 80.7624Z" fill="black"/>
</g>
<g style="mix-blend-mode:multiply">
<path d="M255.253 77.9153C255.253 78.1578 255.08 78.2548 254.872 78.137C254.762 78.0648 254.671 77.9674 254.606 77.853C254.541 77.7386 254.504 77.6104 254.498 77.4789C254.498 77.2433 254.664 77.1394 254.872 77.2641C254.982 77.3353 255.074 77.4313 255.14 77.5444C255.206 77.6575 255.245 77.7846 255.253 77.9153Z" fill="#6C63FF"/>
</g>
<g style="mix-blend-mode:multiply" opacity="0.2">
<path d="M255.253 77.9153C255.253 78.1578 255.08 78.2548 254.872 78.137C254.762 78.0648 254.671 77.9674 254.606 77.853C254.541 77.7386 254.504 77.6104 254.498 77.4789C254.498 77.2433 254.664 77.1394 254.872 77.2641C254.982 77.3353 255.074 77.4313 255.14 77.5444C255.206 77.6575 255.245 77.7846 255.253 77.9153Z" fill="black"/>
</g>
<path d="M265.389 81.9746H262.146L264.959 106.548L270.245 107.234L265.389 81.9746Z" fill="#6C63FF"/>
<path d="M249.186 72.6147L248.777 74.2775L249.186 76.3558L250.004 76.8338L249.186 72.6147Z" fill="#6C63FF"/>
<path d="M243.732 27.2021C245.984 27.2021 250.515 27.9365 252.863 38.2314C253.397 40.5661 253.84 43.1156 254.249 46.3925C254.879 51.242 255.635 55.2463 256.23 59.8326C256.314 60.47 256.618 62.3474 256.695 62.9294C257.124 66.04 257.99 67.9867 257.99 70.3492C257.637 71.7763 256.812 73.3559 253.625 73.6815C250.633 72.7185 251.215 72.2543 251.145 69.5732C251.076 66.8921 251.914 66.2756 251.644 63.0818C250.494 55.5096 248.229 42.6029 248.229 42.6029L243.732 27.2021Z" fill="#FFA8A7"/>
<path d="M259.689 80.7621C259.638 80.7615 259.589 80.7431 259.55 80.7103C259.51 80.6775 259.484 80.6322 259.474 80.582C259.474 80.582 258.913 77.2497 258.22 74.7418C257.666 72.7535 256.253 72.2339 255.006 71.7766C254.729 71.6797 254.465 71.5827 254.237 71.4787C254.211 71.4675 254.187 71.4511 254.168 71.4307C254.148 71.4103 254.132 71.3862 254.122 71.3598C254.112 71.3334 254.107 71.3052 254.107 71.2769C254.108 71.2485 254.114 71.2206 254.126 71.1947C254.137 71.1687 254.153 71.1452 254.174 71.1255C254.194 71.1059 254.218 71.0904 254.245 71.0801C254.271 71.0698 254.299 71.0648 254.328 71.0655C254.356 71.0661 254.384 71.0724 254.41 71.0839C254.639 71.1878 254.888 71.2778 255.151 71.3748C256.433 71.839 258.019 72.4209 258.615 74.624C259.308 77.1596 259.883 80.4781 259.89 80.5127C259.898 80.5695 259.884 80.6273 259.85 80.6738C259.817 80.7203 259.766 80.752 259.71 80.7621H259.689Z" fill="#455A64"/>
<path d="M256.473 67.5236C255.925 68.4281 255.501 69.4021 255.212 70.4194C255.102 70.9667 254.222 70.4818 254.055 69.7266C253.971 68.5735 253.971 67.4158 254.055 66.2627C253.773 67.3288 253.647 68.4303 253.681 69.5327C253.861 70.5996 254.145 70.8351 254.88 71.0984C255.614 71.3616 255.573 70.6896 255.78 69.8098C255.988 68.9299 256.473 67.5236 256.473 67.5236Z" fill="#F28F8F"/>
<path d="M256.287 82.2314V75.7469C256.287 74.3059 256.287 72.6778 253.952 71.3061C253.121 70.8211 252.49 70.6687 252.178 70.8696C251.867 71.0705 251.908 71.6109 251.908 71.6178V79.5711C251.908 79.628 251.886 79.6826 251.845 79.7229C251.805 79.7632 251.75 79.7858 251.693 79.7858C251.636 79.7858 251.582 79.7632 251.542 79.7229C251.501 79.6826 251.479 79.628 251.479 79.5711V71.6386C251.458 71.4251 251.49 71.2099 251.573 71.0118C251.655 70.8137 251.784 70.6387 251.95 70.5024C252.421 70.2045 253.162 70.35 254.167 70.932C256.73 72.4353 256.723 74.2712 256.716 75.7469V82.2314C256.716 82.2883 256.694 82.343 256.653 82.3832C256.613 82.4235 256.558 82.4461 256.501 82.4461C256.444 82.4461 256.39 82.4235 256.35 82.3832C256.309 82.343 256.287 82.2883 256.287 82.2314Z" fill="#455A64"/>
<path d="M254.88 77.9154C254.829 77.9161 254.779 77.8983 254.739 77.8652C254.7 77.8322 254.674 77.786 254.665 77.7353L253.869 72.8234C253.859 72.7674 253.871 72.7096 253.904 72.6628C253.936 72.6161 253.986 72.5841 254.042 72.574C254.099 72.5659 254.156 72.5802 254.203 72.6137C254.249 72.6473 254.281 72.6977 254.291 72.7541L255.095 77.6452C255.105 77.7013 255.092 77.759 255.06 77.8058C255.027 77.8525 254.978 77.8845 254.922 77.8946L254.88 77.9154Z" fill="#455A64"/>
<path d="M253.417 71.0009C252.239 70.5229 250.999 69.6153 250.563 70.1072C250.35 70.3667 250.203 70.6738 250.135 71.0024C250.067 71.3309 250.079 71.671 250.171 71.9937C250.263 72.3164 250.432 72.612 250.663 72.8554C250.894 73.0987 251.18 73.2825 251.498 73.391C252.84 73.845 254.302 73.7982 255.613 73.2594L253.417 71.0009Z" fill="#FFA8A7"/>
<path d="M242.027 26.9604C245.54 26.9604 249.78 28.0689 251.47 31.3181C253.278 34.7821 254.47 44.0724 254.47 44.0724C254.47 44.0724 253.14 46.9336 248.235 46.6149L242.027 26.9604Z" fill="#37474F"/>
<path d="M213.97 113.49C213.097 113.033 212.536 114.148 211.747 115.042C211.185 115.665 210.319 116.656 210.188 117.369C210.001 118.429 210.95 120.092 212.003 121.007C213.056 121.921 214.282 122.579 214.663 124.588C214.76 125.51 215.117 126.385 215.692 127.111C216.268 127.837 217.038 128.385 217.912 128.69C220.192 129.673 223.247 129.382 224.286 128.69C225.512 127.893 224.39 127.027 222.672 124.533C220.427 121.318 218.674 119.025 218.674 116.025L213.97 113.49Z" fill="#263238"/>
<path d="M215.764 110.857L213.922 113.559C213.532 114.121 213.379 114.814 213.495 115.488C213.612 116.162 213.989 116.763 214.545 117.161L214.601 117.196C215.159 117.537 215.821 117.669 216.467 117.568C217.114 117.468 217.704 117.142 218.134 116.649L221.009 113.51L215.764 110.857Z" fill="#FFA8A7"/>
<path d="M249.644 58.1084C249.762 61.5724 248.785 75.4767 246.409 81.6633C244.032 87.8499 242.647 91.6464 241.899 92.9281C241.15 94.2097 219.577 115.215 219.577 115.215C219.577 115.215 215.912 114.945 215.33 111.398C215.33 111.398 224.17 96.3712 226.089 93.2883C228.008 90.2054 234.784 85.4806 234.784 85.4806L234.167 58.5241L249.644 58.1084Z" fill="#37474F"/>
<path d="M244.885 131.502L249.445 130.465L247.935 123.825L243.375 124.862L244.885 131.502Z" fill="#FFA8A7"/>
<path d="M249.643 58.1084H227.764C227.57 60.5332 227.071 61.891 226.94 67.752C226.774 77.2363 235.593 94.4661 235.593 94.4661C235.482 95.7547 234.935 101.158 236.161 105.946C238.101 113.504 243.373 126.286 243.373 126.286C243.373 126.286 246.671 126.757 248.312 124.852C248.312 124.852 245.396 98.8861 244.606 92.2353C243.754 85.0372 241.572 71.8949 241.572 71.8949C243.015 70.453 244.325 68.8832 245.486 67.2047C247.509 64.5068 248.927 61.4041 249.643 58.1084Z" fill="#37474F"/>
<path d="M219.68 52.7324C220.664 42.5899 223.733 35.4611 224.183 32.9116L227.162 45.465C226.225 48.8325 225.482 52.2513 224.939 55.7044C224.814 56.5704 223.401 64.108 223.622 67.3225C223.66 67.89 223.907 68.4233 224.315 68.819C225.41 69.8928 225.735 70.8211 226.47 72.0266C227.045 72.9757 227.64 73.3083 227.488 73.5369C227.284 73.7795 226.996 73.9364 226.681 73.9762C226.367 74.016 226.049 73.9358 225.791 73.7516C225.209 73.3547 224.676 72.8895 224.204 72.3661C224.391 73.609 224.777 74.8137 225.347 75.9339C226.643 78.5042 226.428 79.8551 222.833 79.1C220.581 78.622 219.091 76.8415 218.496 71.5139C218.387 69.5937 218.398 67.6686 218.53 65.7499C218.703 61.2814 219.382 55.7737 219.68 52.7324Z" fill="#FFA8A7"/>
<path d="M234.803 27.1684C230.612 28.1799 224.889 29.4962 223.233 34.0409C221.578 38.5856 219.77 47.2039 219.77 47.2039C221.079 48.735 225.153 49.5386 226.912 48.5895L227.737 45.8668V58.0738C231.014 61.6417 242.451 63.3044 249.615 58.0738V35.3018C249.615 31.6577 247.592 27.2862 241.994 26.9883L234.803 27.1684Z" fill="#455A64"/>
<path d="M227.764 45.894L229.863 39.2778L227.764 48.8591V45.894Z" fill="#37474F"/>
<path d="M233.23 8.52494C232.853 8.47461 232.47 8.51085 232.11 8.63091C231.75 8.75097 231.422 8.95168 231.151 9.21774C230.264 10.1253 230.458 11.8018 231.151 15.6538L233.888 15.9724L233.23 8.52494Z" fill="#263238"/>
<path d="M249.19 7.4097C249.778 7.4126 250.36 7.2947 250.901 7.0633C251.739 6.57835 251.961 7.5344 251.504 8.35882C251.197 8.95236 250.744 9.45791 250.188 9.82765C249.631 10.1974 248.99 10.4191 248.324 10.4718C248.324 10.3541 247.541 8.33111 247.541 8.33111L249.19 7.4097Z" fill="#263238"/>
<path d="M234.513 16.0141C234.104 16.2566 233.529 15.4738 233.024 14.9472C232.827 14.7217 232.575 14.5502 232.293 14.4489C232.012 14.3476 231.709 14.3199 231.413 14.3685C231.118 14.4171 230.839 14.5402 230.605 14.7264C230.37 14.9125 230.187 15.1555 230.072 15.4322C229.241 17.1849 231.132 19.5127 232.241 20.2817C232.55 20.55 232.936 20.7138 233.344 20.7499C233.752 20.786 234.161 20.6924 234.513 20.4826L234.804 27.1819C235.294 28.2565 236.043 29.1929 236.984 29.9074C237.924 30.6218 239.027 31.0922 240.194 31.2763C244.129 31.8098 243.319 28.5606 242.03 26.9741V24.5355C243.013 24.7473 244.023 24.7987 245.023 24.6879C245.535 24.5493 246.762 23.0737 247.551 21.411C248.438 19.5543 249.914 16.2497 248.598 10.6658C247.212 4.66622 240.741 4.48609 236.896 6.90393C233.051 9.32177 234.513 16.0141 234.513 16.0141Z" fill="#FFA8A7"/>
<path d="M234.513 16.7068C234.312 16.7068 233.529 15.4183 233.024 14.9541C232.331 14.3167 233.231 8.54577 233.231 8.54577C233.231 8.54577 232.539 6.34962 233.924 4.90169C235.31 3.45376 237.998 3.68931 239.958 3.62003C242.368 3.64217 244.756 3.17062 246.976 2.23445C249.748 1.02206 249.976 0.848864 250.323 2.10281C250.669 3.35677 250.801 6.13486 249.138 8.01232L248.23 9.48797C248.23 9.48797 247.385 10.1808 244.766 10.5202C242.148 10.8597 237.735 9.43947 237.146 9.36326C236.398 9.25935 236.231 9.9937 235.829 11.9889C235.497 13.7001 235.199 16.7068 234.513 16.7068Z" fill="#263238"/>
<path d="M233.23 8.96852L230.777 7.65222C230.942 7.32467 231.23 7.07584 231.578 6.96026C231.926 6.84469 232.306 6.87179 232.634 7.03564C232.963 7.21888 233.209 7.52224 233.32 7.8824C233.431 8.24255 233.399 8.63167 233.23 8.96852Z" fill="#263238"/>
<path d="M242.021 24.5215C242.021 24.5215 238.377 23.7871 237.103 23.1359C236.353 22.7455 235.738 22.1399 235.336 21.397C235.527 22.1505 235.869 22.8576 236.34 23.4753C237.269 24.6669 242.021 25.5537 242.021 25.5537V24.5215Z" fill="#F28F8F"/>
<path d="M242.14 15.8685C242.135 16.0125 242.087 16.1516 242.003 16.2687C241.919 16.3857 241.803 16.4755 241.668 16.5269C241.533 16.5783 241.387 16.5889 241.246 16.5575C241.106 16.5261 240.977 16.4541 240.877 16.3504C240.777 16.2466 240.71 16.1158 240.684 15.9742C240.658 15.8325 240.674 15.6863 240.73 15.5537C240.787 15.4212 240.881 15.3081 241.001 15.2285C241.121 15.149 241.262 15.1065 241.406 15.1064C241.504 15.1082 241.601 15.1294 241.691 15.1687C241.781 15.2079 241.863 15.2646 241.931 15.3354C241.999 15.4061 242.053 15.4896 242.088 15.5811C242.124 15.6726 242.142 15.7703 242.14 15.8685Z" fill="#263238"/>
<path d="M241.398 13.1116L239.833 13.9707C239.721 13.7568 239.696 13.5077 239.765 13.2762C239.833 13.0447 239.989 12.849 240.2 12.7306C240.303 12.6737 240.416 12.6383 240.534 12.6268C240.651 12.6152 240.769 12.6276 240.881 12.6633C240.993 12.6989 241.097 12.7571 241.186 12.8342C241.275 12.9113 241.347 13.0057 241.398 13.1116Z" fill="#263238"/>
<path d="M241.69 20.7529L243.359 21.3764C243.323 21.4886 243.264 21.5922 243.186 21.6811C243.109 21.7701 243.015 21.8425 242.909 21.8942C242.803 21.9459 242.687 21.9758 242.569 21.9821C242.452 21.9883 242.334 21.9708 242.223 21.9307C242 21.8408 241.819 21.6682 241.72 21.4488C241.621 21.2294 241.61 20.9802 241.69 20.7529Z" fill="#F28F8F"/>
<path d="M248.65 13.7137L247.223 12.619C247.289 12.5222 247.375 12.4401 247.475 12.3778C247.574 12.3154 247.686 12.2742 247.802 12.2567C247.918 12.2391 248.037 12.2457 248.151 12.2758C248.264 12.306 248.371 12.3591 248.463 12.432C248.653 12.5802 248.779 12.7963 248.814 13.0352C248.849 13.2741 248.79 13.5172 248.65 13.7137Z" fill="#263238"/>
<path d="M248.208 15.6605C248.203 15.8048 248.155 15.9442 248.071 16.0614C247.987 16.1786 247.87 16.2684 247.735 16.3195C247.6 16.3707 247.453 16.3809 247.312 16.3489C247.171 16.317 247.043 16.2443 246.943 16.1399C246.844 16.0355 246.777 15.904 246.752 15.7619C246.726 15.6198 246.743 15.4734 246.801 15.341C246.858 15.2085 246.953 15.0959 247.074 15.0172C247.195 14.9385 247.337 14.8972 247.481 14.8985C247.579 14.9003 247.676 14.9214 247.765 14.9608C247.855 15.0002 247.936 15.0569 248.004 15.1278C248.071 15.1986 248.124 15.2822 248.159 15.3737C248.195 15.4651 248.211 15.5626 248.208 15.6605Z" fill="#263238"/>
<path d="M244.771 15.5703L244.078 19.9141L246.489 19.6301L244.771 15.5703Z" fill="#F28F8F"/>
<path d="M248.929 128.246L248.783 127.595C249.262 127.685 251.305 131.059 253.342 132.563C255.566 134.184 257.499 135.14 258.489 135.867C259.82 136.844 257.894 138.839 254.624 139.019C252.996 139.109 250.037 138.611 249.13 137.752C248.222 136.892 247.557 135.451 246.837 134.828C246.116 134.204 244.648 133.664 244.156 132.867C243.884 132.08 243.787 131.243 243.872 130.415C243.872 129.556 243.927 128.621 244.218 128.634C244.218 128.731 244.336 129.133 244.336 129.133C245.193 129.568 246.146 129.778 247.107 129.743C247.876 129.674 249.31 129.493 248.929 128.246Z" fill="#263238"/>
<path d="M244.03 87.8288C244.03 87.8288 242.09 74.0284 241.57 71.8946C241.57 71.8946 244.702 70.1557 245.886 68.7979C244.987 70.0938 244.001 71.3275 242.935 72.4904L244.03 87.8288Z" fill="#263238"/>
<path d="M232.314 87.3716C232.314 87.3716 234.649 93.1841 235.591 94.4658C235.591 94.4658 235.356 98.8927 235.39 99.7864L234.164 100.86C234.128 98.8556 234.312 96.853 234.712 94.8884C233.64 92.4779 232.836 89.9573 232.314 87.3716Z" fill="#263238"/>
<path d="M79.5677 173.187L164.407 124.2C164.778 124.012 165.189 123.914 165.605 123.914C166.022 123.914 166.432 124.012 166.804 124.2L220.689 155.313C221.039 155.541 221.33 155.847 221.538 156.209C221.747 156.57 221.866 156.975 221.888 157.392V157.87C221.866 158.286 221.746 158.691 221.537 159.053C221.329 159.414 221.039 159.721 220.689 159.948L135.85 208.928C135.48 209.118 135.071 209.217 134.655 209.217C134.239 209.217 133.83 209.118 133.46 208.928L79.5607 177.296C79.213 177.067 78.924 176.76 78.717 176.399C78.51 176.038 78.3909 175.633 78.3691 175.217C78.3969 174.809 78.5197 174.413 78.7278 174.06C78.9359 173.708 79.2235 173.409 79.5677 173.187Z" fill="#6C63FF"/>
<g opacity="0.2">
<path opacity="0.2" d="M79.5677 173.187L164.407 124.2C164.778 124.012 165.189 123.914 165.605 123.914C166.022 123.914 166.432 124.012 166.804 124.2L220.689 155.313C221.039 155.541 221.33 155.847 221.538 156.209C221.747 156.57 221.866 156.975 221.888 157.392V157.87C221.866 158.286 221.746 158.691 221.537 159.053C221.329 159.414 221.039 159.721 220.689 159.948L135.85 208.928C135.48 209.118 135.071 209.217 134.655 209.217C134.239 209.217 133.83 209.118 133.46 208.928L79.5607 177.296C79.213 177.067 78.924 176.76 78.717 176.399C78.51 176.038 78.3909 175.633 78.3691 175.217C78.3969 174.809 78.5197 174.413 78.7278 174.06C78.9359 173.708 79.2235 173.409 79.5677 173.187Z" fill="white"/>
</g>
<path d="M78.3691 175.238C78.3909 175.654 78.51 176.058 78.717 176.419C78.924 176.78 79.213 177.088 79.5607 177.316L133.46 208.942C133.841 209.096 134.242 209.194 134.651 209.233V199.874L131.839 162.505L100.885 160.876L79.5677 173.187C79.2208 173.411 78.9315 173.713 78.7233 174.069C78.515 174.426 78.3937 174.826 78.3691 175.238Z" fill="#6C63FF"/>
<path d="M78.3691 175.238C78.3909 175.654 78.51 176.058 78.717 176.419C78.924 176.78 79.213 177.088 79.5607 177.316L133.46 208.942C133.841 209.096 134.242 209.194 134.651 209.233V199.874L131.839 162.505L100.885 160.876L79.5677 173.187C79.2208 173.411 78.9315 173.713 78.7233 174.069C78.515 174.426 78.3937 174.826 78.3691 175.238Z" fill="#6C63FF"/>
<g opacity="0.2">
<path opacity="0.2" d="M78.3691 175.238C78.3909 175.654 78.51 176.058 78.717 176.419C78.924 176.78 79.213 177.088 79.5607 177.316L133.46 208.942C133.841 209.096 134.242 209.194 134.651 209.233V199.874L131.839 162.505L100.885 160.876L79.5677 173.187C79.2208 173.411 78.9315 173.713 78.7233 174.069C78.515 174.426 78.3937 174.826 78.3691 175.238Z" fill="black"/>
</g>
<path d="M166.805 124.2L220.69 155.313C220.837 155.36 220.965 155.453 221.056 155.577C221.147 155.702 221.196 155.852 221.196 156.006C221.196 156.16 221.147 156.311 221.056 156.435C220.965 156.56 220.837 156.652 220.69 156.699L135.851 205.679C135.48 205.867 135.069 205.965 134.653 205.965C134.236 205.965 133.826 205.867 133.454 205.679L79.5689 174.573C79.4254 174.523 79.3012 174.429 79.2133 174.305C79.1253 174.181 79.0781 174.032 79.0781 173.88C79.0781 173.728 79.1253 173.58 79.2133 173.456C79.3012 173.332 79.4254 173.238 79.5689 173.187L164.408 124.2C164.78 124.012 165.19 123.914 165.607 123.914C166.023 123.914 166.434 124.012 166.805 124.2Z" fill="#6C63FF"/>
<path d="M126.649 159.421C126.494 159.407 126.345 159.357 126.213 159.276L120.948 156.234C120.788 156.144 120.705 156.054 120.691 155.978C120.677 155.902 120.747 155.812 120.892 155.729L123.241 154.378C123.778 154.045 124.397 153.869 125.028 153.869C125.66 153.869 126.279 154.045 126.815 154.378C127.051 154.496 127.248 154.678 127.384 154.904C127.433 154.986 127.459 155.079 127.459 155.175C127.459 155.27 127.433 155.363 127.384 155.445C127.733 155.355 128.097 155.336 128.454 155.39C128.811 155.443 129.154 155.568 129.462 155.756C130.009 156.075 130.293 156.449 130.314 156.823C130.335 157.197 130.016 157.606 129.372 157.98L127.086 159.262C126.96 159.358 126.808 159.414 126.649 159.421ZM125.361 155.957C125.52 155.86 125.603 155.763 125.596 155.659C125.589 155.556 125.499 155.445 125.319 155.341C125.154 155.238 124.966 155.181 124.772 155.175C124.591 155.178 124.415 155.228 124.259 155.32L123.393 155.826L124.495 156.456L125.361 155.957ZM127.938 157.294C128.111 157.197 128.18 157.087 128.159 156.969C128.137 156.895 128.098 156.827 128.047 156.77C127.996 156.712 127.932 156.667 127.862 156.636C127.675 156.524 127.463 156.462 127.245 156.456C127.048 156.452 126.854 156.502 126.684 156.602L125.714 157.163L126.94 157.856L127.938 157.294Z" fill="white"/>
<path d="M131.055 156.782C131.002 156.746 130.956 156.701 130.916 156.651L127.383 152.307C127.328 152.244 127.292 152.167 127.279 152.085C127.279 152.03 127.335 151.974 127.439 151.919L128.131 151.503C128.222 151.449 128.324 151.418 128.429 151.413C128.556 151.415 128.683 151.436 128.803 151.475L136.334 153.512C136.409 153.526 136.482 153.551 136.549 153.588C136.604 153.588 136.632 153.651 136.632 153.685C136.632 153.72 136.632 153.755 136.556 153.782L135.336 154.475C135.266 154.514 135.188 154.537 135.108 154.544C135.016 154.549 134.924 154.535 134.838 154.503L133.688 154.163L132.039 155.113L132.642 155.771C132.664 155.791 132.682 155.815 132.694 155.843C132.706 155.87 132.711 155.9 132.711 155.93C132.684 155.989 132.638 156.035 132.579 156.062L131.367 156.754C131.322 156.787 131.27 156.807 131.215 156.811C131.16 156.816 131.105 156.806 131.055 156.782ZM132.129 153.658L130.099 153.048L131.166 154.219L132.129 153.658Z" fill="white"/>
<path d="M137.242 153.27C137.087 153.256 136.938 153.206 136.806 153.125L131.533 150.076C131.376 149.989 131.293 149.905 131.284 149.827C131.275 149.748 131.344 149.665 131.492 149.577L132.115 149.217C132.199 149.167 132.29 149.132 132.386 149.113C132.5 149.093 132.617 149.093 132.732 149.113L137.581 149.806L134.81 148.199C134.658 148.109 134.568 148.019 134.554 147.942C134.54 147.866 134.609 147.776 134.755 147.693L135.524 147.25C135.656 147.171 135.807 147.13 135.96 147.132C136.117 147.145 136.269 147.195 136.404 147.277L141.676 150.326C141.833 150.413 141.916 150.497 141.925 150.575C141.925 150.651 141.856 150.734 141.704 150.824L141.087 151.178C141.004 151.231 140.913 151.268 140.817 151.289C140.705 151.308 140.59 151.308 140.477 151.289L135.628 150.596L138.399 152.21C138.556 152.302 138.639 152.386 138.648 152.459C138.648 152.536 138.579 152.619 138.427 152.709L137.665 153.152C137.537 153.229 137.391 153.27 137.242 153.27Z" fill="white"/>
<path d="M147.393 147.339C147.442 147.339 147.476 147.401 147.476 147.436C147.476 147.471 147.476 147.505 147.4 147.533L146.181 148.226C146.12 148.261 146.055 148.289 145.987 148.309C145.923 148.323 145.857 148.323 145.793 148.309L141.685 147.72L143.909 149.009C144.068 149.099 144.151 149.182 144.165 149.265C144.179 149.348 144.103 149.424 143.95 149.514L143.181 149.951C143.056 150.034 142.909 150.078 142.759 150.075C142.602 150.063 142.452 150.01 142.322 149.923L137.057 146.889C136.898 146.799 136.814 146.709 136.801 146.632C136.787 146.556 136.856 146.466 137.001 146.383L137.764 145.94C137.895 145.861 138.046 145.82 138.2 145.822C138.357 145.834 138.509 145.884 138.643 145.967L140.826 147.228L139.786 144.921C139.776 144.903 139.771 144.883 139.771 144.862C139.771 144.842 139.776 144.821 139.786 144.803C139.83 144.755 139.881 144.715 139.939 144.686L141.151 143.993C141.202 143.965 141.26 143.951 141.318 143.951C141.379 143.95 141.439 143.967 141.491 144C141.546 144.027 141.588 144.074 141.609 144.131L142.641 146.674L147.165 147.263C147.246 147.27 147.324 147.296 147.393 147.339Z" fill="white"/>
<path d="M150.488 144.956C149.365 144.919 148.27 144.594 147.308 144.014C146.248 143.398 145.7 142.795 145.652 142.185C145.603 141.575 146.054 141.014 146.982 140.474C147.373 140.249 147.786 140.065 148.215 139.927C148.611 139.797 149.02 139.713 149.435 139.677C149.521 139.667 149.608 139.684 149.684 139.726C149.738 139.761 149.783 139.809 149.816 139.864L150.141 140.446C150.19 140.509 150.19 140.557 150.141 140.585C150.072 140.618 149.996 140.637 149.92 140.64C149.431 140.704 148.96 140.864 148.534 141.111C148.042 141.388 147.841 141.7 147.89 142.04C147.938 142.379 148.292 142.732 148.922 143.1C149.486 143.443 150.126 143.643 150.786 143.682C151.36 143.715 151.932 143.582 152.434 143.301C152.797 143.119 153.092 142.825 153.273 142.462C153.294 142.413 153.328 142.371 153.37 142.338C153.446 142.312 153.529 142.312 153.605 142.338L154.658 142.532C154.731 142.543 154.801 142.567 154.866 142.601C154.893 142.616 154.914 142.638 154.927 142.665C154.941 142.693 154.946 142.723 154.942 142.753C154.852 143.21 154.374 143.688 153.515 144.18C152.599 144.718 151.55 144.987 150.488 144.956Z" fill="white"/>
<path d="M155.393 142.732C155.338 142.696 155.289 142.652 155.247 142.601L151.721 138.257C151.659 138.199 151.622 138.12 151.617 138.035C151.617 137.98 151.673 137.924 151.77 137.869L152.462 137.453C152.55 137.399 152.65 137.368 152.753 137.363C152.883 137.365 153.011 137.386 153.134 137.426L160.665 139.462C160.738 139.475 160.809 139.501 160.873 139.539C160.928 139.539 160.956 139.601 160.956 139.636C160.956 139.67 160.956 139.705 160.88 139.733L159.66 140.425C159.593 140.465 159.517 140.489 159.439 140.495C159.347 140.499 159.255 140.485 159.169 140.453L158.019 140.114L156.363 141.07L156.972 141.763C157.021 141.818 157.049 141.873 157.035 141.915C157.021 141.956 156.986 142.005 156.903 142.047L155.691 142.739C155.645 142.765 155.593 142.778 155.541 142.777C155.488 142.776 155.437 142.76 155.393 142.732ZM156.46 139.608L154.437 138.998L155.504 140.169L156.46 139.608Z" fill="white"/>
<path d="M161.579 139.22C161.422 139.207 161.27 139.157 161.136 139.074L155.87 136.033C155.718 135.943 155.635 135.86 155.621 135.777C155.607 135.694 155.67 135.617 155.822 135.527L157.755 134.412C158.388 134.007 159.123 133.792 159.875 133.792C160.626 133.792 161.362 134.007 161.995 134.412C162.861 134.911 163.166 135.423 162.916 135.95L165.653 136.643C165.713 136.654 165.772 136.675 165.826 136.705C165.848 136.716 165.868 136.731 165.883 136.75C165.899 136.769 165.91 136.792 165.916 136.816C165.916 136.857 165.916 136.892 165.833 136.927L164.731 137.564C164.661 137.602 164.587 137.63 164.51 137.647C164.432 137.667 164.351 137.667 164.274 137.647L161.773 136.954L161.163 137.308L162.729 138.208C162.888 138.298 162.972 138.388 162.978 138.465C162.985 138.541 162.923 138.624 162.771 138.714L162.002 139.157C161.869 139.216 161.723 139.238 161.579 139.22ZM160.45 136.165C160.928 135.887 160.907 135.603 160.401 135.312C160.189 135.171 159.941 135.09 159.685 135.08C159.43 135.071 159.176 135.132 158.953 135.257L158.33 135.617L159.868 136.504L160.45 136.165Z" fill="white"/>
<path d="M166.577 136.331C166.422 136.317 166.273 136.267 166.14 136.185L160.875 133.144C160.723 133.054 160.633 132.971 160.619 132.888C160.605 132.805 160.674 132.728 160.82 132.645L162.559 131.641C163.407 131.136 164.378 130.875 165.365 130.886C166.444 130.938 167.492 131.262 168.413 131.828C169.445 132.43 169.985 133.012 170.027 133.581C170.069 134.149 169.639 134.696 168.738 135.216L167.006 136.213C166.879 136.295 166.729 136.336 166.577 136.331ZM167.491 134.412C167.872 134.19 168.018 133.955 167.935 133.719C167.852 133.484 167.484 133.144 166.826 132.763C166.328 132.443 165.769 132.228 165.184 132.133C164.759 132.08 164.327 132.17 163.958 132.389L163.335 132.749L166.868 134.793L167.491 134.412Z" fill="white"/>
<path d="M96.4517 176.437L110.938 168.068C111.311 167.88 111.723 167.782 112.14 167.782C112.557 167.782 112.969 167.88 113.342 168.068L125.009 174.808C125.155 174.855 125.283 174.948 125.374 175.072C125.465 175.197 125.514 175.347 125.514 175.501C125.514 175.655 125.465 175.806 125.374 175.93C125.283 176.055 125.155 176.147 125.009 176.194L110.522 184.556C110.151 184.744 109.74 184.842 109.324 184.842C108.907 184.842 108.497 184.744 108.125 184.556L96.4517 177.822C96.3083 177.772 96.184 177.678 96.0961 177.554C96.0082 177.43 95.9609 177.281 95.9609 177.129C95.9609 176.977 96.0082 176.829 96.0961 176.705C96.184 176.581 96.3083 176.487 96.4517 176.437Z" fill="#E0E0E0"/>
<path d="M117.829 183.926L107.728 178.21C107.359 178.001 106.941 177.891 106.516 177.891C106.091 177.891 105.673 178.001 105.303 178.21L98.237 182.284L97.8906 181.688L104.957 177.608C105.431 177.339 105.967 177.197 106.512 177.197C107.058 177.197 107.594 177.339 108.068 177.608L118.169 183.323L117.829 183.926Z" fill="white"/>
<path d="M114.953 175.411C114.397 175.412 113.849 175.267 113.367 174.989L103.529 169.301L103.876 168.705L113.72 174.386C114.096 174.604 114.523 174.718 114.957 174.718C115.391 174.718 115.818 174.604 116.194 174.386L123.225 170.326L123.572 170.929L116.54 174.989C116.058 175.268 115.51 175.414 114.953 175.411Z" fill="white"/>
<path d="M112.306 174.178L111.959 173.575L119.885 169.003L117.765 167.777L109.493 172.55L109.146 171.954L117.765 166.98L121.27 169.003L112.306 174.178Z" fill="white"/>
<path d="M103.696 185.651L100.184 183.628L109.211 178.453L109.557 179.048L101.576 183.628L103.696 184.847L112.023 180.046L112.37 180.642L103.696 185.651Z" fill="white"/>
<path d="M116.745 187.466L130.033 179.797C130.591 179.513 131.208 179.365 131.834 179.365C132.46 179.365 133.077 179.513 133.635 179.797L135.658 180.967C136.656 181.535 136.656 182.471 135.658 183.046L122.377 190.715C121.819 190.999 121.202 191.146 120.576 191.146C119.95 191.146 119.333 190.999 118.775 190.715L116.745 189.544C115.754 188.969 115.754 188.034 116.745 187.466Z" fill="#6C63FF"/>
<g opacity="0.7">
<path opacity="0.7" d="M117.436 187.466L130.724 179.797C131.282 179.513 131.899 179.365 132.525 179.365C133.151 179.365 133.769 179.513 134.327 179.797L136.35 180.967C137.347 181.535 137.347 182.471 136.35 183.046L123.069 190.715C122.511 190.999 121.894 191.146 121.268 191.146C120.642 191.146 120.024 190.999 119.466 190.715L117.436 189.544C116.446 188.969 116.446 188.034 117.436 187.466Z" fill="white"/>
</g>
<path d="M136.447 176.09L149.728 168.428C150.286 168.144 150.903 167.997 151.529 167.997C152.155 167.997 152.773 168.144 153.331 168.428L155.361 169.599C156.351 170.174 156.351 171.102 155.361 171.677L142.073 179.346C141.516 179.63 140.9 179.778 140.275 179.778C139.65 179.778 139.034 179.63 138.477 179.346L136.447 178.175C135.45 177.594 135.45 176.665 136.447 176.09Z" fill="#6C63FF"/>
<path d="M136.447 176.09L149.728 168.428C150.286 168.144 150.903 167.997 151.529 167.997C152.155 167.997 152.773 168.144 153.331 168.428L155.361 169.599C156.351 170.174 156.351 171.102 155.361 171.677L142.073 179.346C141.516 179.63 140.9 179.778 140.275 179.778C139.65 179.778 139.034 179.63 138.477 179.346L136.447 178.175C135.45 177.594 135.45 176.665 136.447 176.09Z" fill="#6C63FF"/>
<path opacity="0.7" d="M136.447 176.09L149.728 168.428C150.286 168.144 150.903 167.997 151.529 167.997C152.155 167.997 152.773 168.144 153.331 168.428L155.361 169.599C156.351 170.174 156.351 171.102 155.361 171.677L142.073 179.346C141.516 179.63 140.9 179.778 140.275 179.778C139.65 179.778 139.034 179.63 138.477 179.346L136.447 178.175C135.45 177.594 135.45 176.665 136.447 176.09Z" fill="white"/>
<path d="M156.141 164.715L169.429 157.046C169.986 156.762 170.602 156.614 171.227 156.614C171.852 156.614 172.468 156.762 173.025 157.046L175.055 158.216C176.052 158.791 176.052 159.72 175.055 160.295L161.774 167.964C161.216 168.247 160.599 168.395 159.973 168.395C159.347 168.395 158.729 168.247 158.171 167.964L156.141 166.793C155.151 166.218 155.151 165.29 156.141 164.715Z" fill="#6C63FF"/>
<path opacity="0.7" d="M156.141 164.715L169.429 157.046C169.986 156.762 170.602 156.614 171.227 156.614C171.852 156.614 172.468 156.762 173.025 157.046L175.055 158.216C176.052 158.791 176.052 159.72 175.055 160.295L161.774 167.964C161.216 168.247 160.599 168.395 159.973 168.395C159.347 168.395 158.729 168.247 158.171 167.964L156.141 166.793C155.151 166.218 155.151 165.29 156.141 164.715Z" fill="white"/>
<path d="M175.844 153.346L189.125 145.677C189.683 145.393 190.3 145.246 190.926 145.246C191.552 145.246 192.169 145.393 192.727 145.677L194.757 146.848C195.748 147.416 195.748 148.351 194.757 148.926L181.469 156.595C180.911 156.879 180.294 157.027 179.668 157.027C179.042 157.027 178.425 156.879 177.867 156.595L175.844 155.425C174.846 154.85 174.846 153.914 175.844 153.346Z" fill="#6C63FF"/>
<path opacity="0.7" d="M175.844 153.346L189.125 145.677C189.683 145.393 190.3 145.246 190.926 145.246C191.552 145.246 192.169 145.393 192.727 145.677L194.757 146.848C195.748 147.416 195.748 148.351 194.757 148.926L181.469 156.595C180.911 156.879 180.294 157.027 179.668 157.027C179.042 157.027 178.425 156.879 177.867 156.595L175.844 155.425C174.846 154.85 174.846 153.914 175.844 153.346Z" fill="white"/>
<path d="M203.924 152.14C204.506 152.48 204.443 153.061 203.778 153.449L169.596 173.18C169.253 173.371 168.869 173.479 168.477 173.493C168.084 173.507 167.694 173.429 167.338 173.263C166.756 172.924 166.818 172.342 167.483 171.961L201.665 152.223C202.01 152.035 202.393 151.93 202.785 151.915C203.177 151.901 203.567 151.978 203.924 152.14Z" fill="#6C63FF"/>
<g opacity="0.1">
<path opacity="0.1" d="M203.924 152.14C204.506 152.48 204.443 153.061 203.778 153.449L169.596 173.18C169.253 173.371 168.869 173.479 168.477 173.493C168.084 173.507 167.694 173.429 167.338 173.263C166.756 172.924 166.818 172.342 167.483 171.961L201.665 152.223C202.01 152.035 202.393 151.93 202.785 151.915C203.177 151.901 203.567 151.978 203.924 152.14Z" fill="black"/>
</g>
<path d="M209.578 155.397C210.167 155.736 210.105 156.318 209.439 156.699L187.547 169.329C187.204 169.52 186.821 169.627 186.428 169.642C186.035 169.656 185.645 169.578 185.289 169.412C184.707 169.08 184.769 168.491 185.434 168.11L207.319 155.48C207.663 155.289 208.046 155.182 208.439 155.167C208.831 155.153 209.222 155.231 209.578 155.397Z" fill="#6C63FF"/>
<g opacity="0.1">
<path opacity="0.1" d="M209.578 155.397C210.167 155.736 210.105 156.318 209.439 156.699L187.547 169.329C187.204 169.52 186.821 169.627 186.428 169.642C186.035 169.656 185.645 169.578 185.289 169.412C184.707 169.08 184.769 168.491 185.434 168.11L207.319 155.48C207.663 155.289 208.046 155.182 208.439 155.167C208.831 155.153 209.222 155.231 209.578 155.397Z" fill="black"/>
</g>
</svg>
