<svg width="18" height="18" viewBox="0 0 18 18" fill="none" xmlns="http://www.w3.org/2000/svg">
<path d="M8.99935 17.3332C4.39685 17.3332 0.666016 13.6023 0.666016 8.99984C0.666016 5.26817 3.11852 2.10984 6.49935 1.04817V2.81817C5.06679 3.39987 3.88085 4.46126 3.1444 5.82077C2.40795 7.18027 2.16675 8.75343 2.46206 10.2711C2.75737 11.7888 3.57084 13.1568 4.76332 14.1409C5.9558 15.1251 7.45319 15.6644 8.99935 15.6665C10.3275 15.6665 11.6254 15.2699 12.7267 14.5275C13.828 13.7852 14.6826 12.7309 15.181 11.4998H16.951C15.8893 14.8807 12.731 17.3332 8.99935 17.3332ZM17.291 9.83317H8.16602V0.708171C8.44018 0.680671 8.71852 0.666504 8.99935 0.666504C13.6018 0.666504 17.3327 4.39734 17.3327 8.99984C17.3327 9.28067 17.3185 9.559 17.291 9.83317ZM9.83268 2.38484V8.1665H15.6143C15.4289 6.69784 14.7601 5.33262 13.7133 4.28587C12.6666 3.23912 11.3013 2.57033 9.83268 2.38484Z" fill="#A8B1BD"/>
</svg>
