<svg width="18" height="18" viewBox="0 0 18 18" fill="none" xmlns="http://www.w3.org/2000/svg">
<path d="M1.78375 13.1665C1.43148 12.5573 1.15764 11.9061 0.96875 11.2282C1.37984 11.0191 1.72508 10.7004 1.96627 10.3073C2.20747 9.91415 2.33522 9.46199 2.33539 9.00078C2.33557 8.53957 2.20815 8.08731 1.96725 7.69402C1.72635 7.30073 1.38135 6.98174 0.970417 6.77235C1.34711 5.41026 2.06436 4.16648 3.05458 3.15819C3.44133 3.40962 3.8901 3.54915 4.35123 3.56134C4.81236 3.57352 5.26788 3.45788 5.66736 3.22721C6.06684 2.99655 6.39471 2.65985 6.61469 2.25439C6.83467 1.84892 6.93817 1.3905 6.91375 0.929852C8.28217 0.576204 9.71811 0.576778 11.0862 0.931519C11.062 1.39216 11.1658 1.85051 11.3859 2.25586C11.606 2.66121 11.934 2.99775 12.3336 3.22824C12.7332 3.45872 13.1887 3.57418 13.6498 3.56181C14.1109 3.54945 14.5596 3.40975 14.9462 3.15819C15.4287 3.64985 15.8571 4.20902 16.2171 4.83319C16.5779 5.45735 16.8479 6.10819 17.0321 6.77152C16.621 6.9806 16.2758 7.29933 16.0346 7.69244C15.7934 8.08555 15.6656 8.53772 15.6654 8.99892C15.6653 9.46013 15.7927 9.91239 16.0336 10.3057C16.2745 10.699 16.6195 11.018 17.0304 11.2274C16.6537 12.5894 15.9365 13.8332 14.9462 14.8415C14.5595 14.5901 14.1107 14.4506 13.6496 14.4384C13.1885 14.4262 12.733 14.5418 12.3335 14.7725C11.934 15.0032 11.6061 15.3399 11.3861 15.7453C11.1662 16.1508 11.0627 16.6092 11.0871 17.0699C9.71866 17.4235 8.28272 17.4229 6.91458 17.0682C6.93879 16.6075 6.83508 16.1492 6.61493 15.7438C6.39479 15.3385 6.06678 15.002 5.66723 14.7715C5.26767 14.541 4.81213 14.4255 4.35102 14.4379C3.88991 14.4503 3.44122 14.59 3.05458 14.8415C2.56208 14.339 2.13508 13.7762 1.78375 13.1665ZM6.50042 13.3299C7.38844 13.842 8.05612 14.664 8.37542 15.6382C8.79125 15.6774 9.20875 15.6782 9.62458 15.639C9.94408 14.6647 10.6121 13.8427 11.5004 13.3307C12.3881 12.8171 13.4342 12.6494 14.4379 12.8599C14.6796 12.5199 14.8879 12.1574 15.0612 11.7782C14.3774 11.0144 13.9997 10.025 14.0004 8.99985C14.0004 7.94985 14.3921 6.96902 15.0612 6.22152C14.8867 5.84248 14.6775 5.48038 14.4362 5.13985C13.4332 5.35011 12.3877 5.18275 11.5004 4.66985C10.6124 4.15766 9.94471 3.33567 9.62542 2.36152C9.20958 2.32235 8.79208 2.32152 8.37625 2.36069C8.05675 3.33497 7.38875 4.15699 6.50042 4.66902C5.61273 5.18261 4.56665 5.35029 3.56292 5.13985C3.32172 5.48009 3.11303 5.84224 2.93958 6.22152C3.62339 6.98532 4.00115 7.97468 4.00042 8.99985C4.00042 10.0499 3.60875 11.0307 2.93958 11.7782C3.11414 12.1572 3.32337 12.5193 3.56458 12.8599C4.56768 12.6496 5.61309 12.817 6.50042 13.3299ZM9.00042 11.4999C8.33737 11.4999 7.70149 11.2365 7.23265 10.7676C6.76381 10.2988 6.50042 9.66289 6.50042 8.99985C6.50042 8.33681 6.76381 7.70093 7.23265 7.23209C7.70149 6.76324 8.33737 6.49985 9.00042 6.49985C9.66346 6.49985 10.2993 6.76324 10.7682 7.23209C11.237 7.70093 11.5004 8.33681 11.5004 8.99985C11.5004 9.66289 11.237 10.2988 10.7682 10.7676C10.2993 11.2365 9.66346 11.4999 9.00042 11.4999ZM9.00042 9.83319C9.22143 9.83319 9.43339 9.74539 9.58967 9.58911C9.74595 9.43283 9.83375 9.22087 9.83375 8.99985C9.83375 8.77884 9.74595 8.56688 9.58967 8.4106C9.43339 8.25432 9.22143 8.16652 9.00042 8.16652C8.7794 8.16652 8.56744 8.25432 8.41116 8.4106C8.25488 8.56688 8.16708 8.77884 8.16708 8.99985C8.16708 9.22087 8.25488 9.43283 8.41116 9.58911C8.56744 9.74539 8.7794 9.83319 9.00042 9.83319Z" fill="#A8B1BD"/>
</svg>
