<svg width="144" height="140" viewBox="0 0 144 140" fill="none" xmlns="http://www.w3.org/2000/svg">
<path d="M21.0553 129.477C49.1311 143.505 94.6489 143.51 122.725 129.477C150.8 115.445 150.796 92.7029 122.725 78.6748C94.653 64.6468 49.1311 64.6468 21.0553 78.6748C-7.02048 92.7029 -7.0164 115.449 21.0553 129.477Z" fill="#EAF1FB"/>
<path d="M122.626 119.11C127.797 119.11 131.989 117.016 131.989 114.433C131.989 111.85 127.797 109.755 122.626 109.755C117.455 109.755 113.264 111.85 113.264 114.433C113.264 117.016 117.455 119.11 122.626 119.11Z" fill="#6FA1EC"/>
<path d="M18.9238 115.103L22.2362 113.1C24.0856 111.518 25.4932 109.441 26.3105 107.09C27.3331 104.134 27.1905 101.887 26.4572 100.759C25.5567 99.371 23.2222 99.6145 23.1285 102.536C22.9329 108.294 21.3317 112.288 18.9238 115.103Z" fill="#2F73DA"/>
<path opacity="0.2" d="M18.9238 115.103L22.2362 113.1C24.0856 111.518 25.4932 109.441 26.3105 107.09C27.3331 104.134 27.1905 101.887 26.4572 100.759C25.5567 99.371 23.2222 99.6145 23.1285 102.536C22.9329 108.294 21.3317 112.288 18.9238 115.103Z" fill="black"/>
<path d="M18.9239 115.317C18.8807 115.316 18.8389 115.301 18.8043 115.274C18.7698 115.247 18.7444 115.209 18.7317 115.166C18.719 115.123 18.7197 115.076 18.7337 115.034C18.7478 114.991 18.7744 114.954 18.8098 114.928C26.4694 109.375 24.9864 101.631 24.9701 101.554C24.9645 101.526 24.9642 101.497 24.9692 101.468C24.9743 101.44 24.9846 101.413 24.9995 101.389C25.0145 101.365 25.0338 101.345 25.0563 101.329C25.0789 101.312 25.1043 101.301 25.131 101.295C25.1578 101.289 25.1854 101.289 25.2122 101.294C25.2391 101.3 25.2647 101.31 25.2876 101.326C25.3105 101.342 25.3302 101.362 25.3456 101.386C25.3611 101.409 25.3719 101.436 25.3775 101.464C25.3775 101.545 26.942 109.554 19.0542 115.278C19.016 115.306 18.9702 115.319 18.9239 115.317Z" fill="white"/>
<path d="M12.287 119.123C12.287 119.123 11.134 118.14 11.4111 116.808C11.6881 115.475 12.4337 114.518 11.1585 112.801C9.88322 111.084 9.52875 108.794 11.0525 107.555C12.2137 106.594 14.0267 107.953 14.6786 105.42C15.1594 103.566 14.9964 99.4606 17.2495 98.0937C19.5026 96.7267 20.9163 98.7857 20.5619 101.571C20.2522 104.061 19.8122 106.458 20.1545 107.124C20.8145 108.405 21.9431 108.23 21.8901 110.571C21.8453 112.75 19.8774 114.552 19.8774 114.552L12.287 119.123Z" fill="#2F73DA"/>
<path d="M16.0729 117.034C16.0231 117.034 15.9751 117.014 15.9377 116.98C15.9004 116.945 15.876 116.898 15.8692 116.846C15.2866 111.784 16.684 103.044 17.8248 100.447C17.8344 100.418 17.8498 100.392 17.8699 100.37C17.8901 100.348 17.9145 100.331 17.9415 100.319C17.9685 100.308 17.9975 100.303 18.0266 100.304C18.0557 100.306 18.0841 100.314 18.11 100.328C18.1344 100.339 18.1562 100.356 18.1744 100.376C18.1925 100.397 18.2066 100.421 18.2157 100.447C18.2248 100.473 18.2288 100.501 18.2275 100.529C18.2261 100.557 18.2194 100.584 18.2078 100.61C17.0792 103.173 15.7307 111.938 16.2888 116.778C16.2946 116.834 16.2789 116.89 16.2454 116.934C16.2118 116.978 16.163 117.006 16.1096 117.013L16.0729 117.034Z" fill="white"/>
<path d="M15.9623 113.091C15.9311 113.093 15.9001 113.086 15.8727 113.07C14.4589 112.348 13.5626 109.772 13.5259 109.653C13.5159 109.626 13.5111 109.598 13.5118 109.569C13.5124 109.541 13.5186 109.513 13.5298 109.487C13.541 109.46 13.5571 109.437 13.577 109.418C13.597 109.398 13.6205 109.383 13.6461 109.374C13.6718 109.364 13.699 109.36 13.7262 109.361C13.7534 109.363 13.78 109.37 13.8045 109.382C13.829 109.395 13.8509 109.412 13.8688 109.434C13.8867 109.455 13.9003 109.48 13.9089 109.507C13.9089 109.533 14.7848 112.028 16.0519 112.673C16.0935 112.694 16.127 112.729 16.1469 112.773C16.1669 112.817 16.172 112.866 16.1616 112.913C16.1512 112.96 16.1258 113.002 16.0896 113.032C16.0534 113.063 16.0085 113.079 15.9623 113.079V113.091Z" fill="white"/>
<path d="M15.9369 114.8C15.896 114.8 15.8562 114.787 15.8227 114.763C15.7892 114.738 15.7636 114.704 15.7494 114.663C15.7292 114.611 15.7294 114.553 15.75 114.501C15.7706 114.449 15.8099 114.408 15.8595 114.386C18.2388 113.386 19.7219 110.417 19.7382 110.383C19.763 110.333 19.8059 110.295 19.8575 110.278C19.9091 110.26 19.9651 110.265 20.0132 110.291C20.0613 110.318 20.0975 110.363 20.1139 110.417C20.1304 110.471 20.1256 110.529 20.1008 110.58C20.0356 110.708 18.5322 113.724 16.0265 114.783C15.9986 114.797 15.9677 114.803 15.9369 114.8Z" fill="white"/>
<path d="M99.106 91.8183C99.106 91.8183 97.3256 88.794 97.1504 85.5091C96.9752 82.2243 97.6637 80.8573 98.609 80.4643C99.5542 80.0714 99.6275 81.2802 100.112 81.9936C100.597 82.7069 101.587 82.3011 101.954 80.0756C102.321 77.8501 103.657 74.0953 106.436 73.3649C109.491 72.5704 107.853 76.3294 107.083 77.7946C106.313 79.2597 105.719 81.2589 106.224 81.8014C106.729 82.3439 107.515 81.34 108.261 82.2712C109.169 83.3947 106.346 87.4399 104.724 88.4181L99.106 91.8183Z" fill="#2F73DA"/>
<path d="M101.545 90.5499C101.519 90.5488 101.492 90.5422 101.468 90.5304C101.444 90.5187 101.422 90.502 101.404 90.4814C101.385 90.4607 101.371 90.4366 101.362 90.4102C101.353 90.3839 101.349 90.3559 101.35 90.3278C101.626 85.0436 103.197 79.9235 105.913 75.4625C105.928 75.4393 105.948 75.4196 105.971 75.4045C105.994 75.3895 106.019 75.3795 106.046 75.3751C106.073 75.3707 106.1 75.372 106.126 75.379C106.152 75.3859 106.177 75.3984 106.198 75.4155C106.241 75.4488 106.269 75.4983 106.278 75.5533C106.286 75.6084 106.274 75.6647 106.243 75.7103C103.576 80.106 102.033 85.1472 101.761 90.3492C101.76 90.3772 101.753 90.4047 101.741 90.43C101.729 90.4553 101.713 90.4779 101.693 90.4965C101.673 90.5152 101.65 90.5295 101.624 90.5387C101.599 90.5478 101.572 90.5517 101.545 90.5499Z" fill="white"/>
<path d="M101.779 88.0255C101.745 88.0252 101.712 88.0164 101.681 87.9999C100.541 87.3378 99.9092 85.3728 99.8847 85.2917C99.8757 85.265 99.8719 85.2368 99.8734 85.2086C99.8749 85.1804 99.8817 85.1528 99.8934 85.1273C99.9052 85.1019 99.9216 85.0792 99.9418 85.0605C99.962 85.0418 99.9855 85.0274 100.011 85.0183C100.062 85.0008 100.118 85.0053 100.166 85.031C100.214 85.0566 100.251 85.1012 100.268 85.155C100.268 85.155 100.879 87.0473 101.897 87.624C101.944 87.6526 101.977 87.6988 101.992 87.7529C102.006 87.807 102 87.8649 101.975 87.9145C101.956 87.9512 101.928 87.9814 101.893 88.0012C101.858 88.021 101.819 88.0294 101.779 88.0255Z" fill="white"/>
<path d="M101.977 86.7312C101.932 86.7306 101.889 86.7144 101.853 86.685C101.818 86.6557 101.793 86.6148 101.782 86.5688C101.775 86.5419 101.774 86.5138 101.777 86.4863C101.781 86.4587 101.79 86.4323 101.804 86.4084C101.818 86.3845 101.836 86.3638 101.857 86.3473C101.878 86.3308 101.903 86.319 101.929 86.3125C104.87 85.5308 105.889 83.9162 105.897 83.8991C105.911 83.8752 105.93 83.8546 105.952 83.8384C105.974 83.8221 105.999 83.8106 106.025 83.8045C106.052 83.7983 106.079 83.7977 106.105 83.8025C106.132 83.8074 106.157 83.8177 106.18 83.8329C106.203 83.848 106.222 83.8677 106.238 83.8908C106.253 83.9139 106.264 83.94 106.27 83.9676C106.276 83.9952 106.277 84.0237 106.272 84.0515C106.267 84.0793 106.258 84.1059 106.243 84.1297C106.198 84.2023 105.139 85.8982 102.03 86.7269L101.977 86.7312Z" fill="white"/>
<path d="M54.778 85.1805C54.778 85.1805 50.8708 84.1809 50.6671 76.509C50.4511 68.2306 51.6245 58.5682 47.0002 57.7865C42.3759 57.0048 39.8091 62.9124 39.8662 69.8111C39.9191 75.8512 42.2415 88.9651 54.7617 91.5366L54.778 85.1805Z" fill="#2F73DA"/>
<path opacity="0.2" d="M54.778 85.1805C54.778 85.1805 50.8708 84.1809 50.6671 76.509C50.4511 68.2306 51.6245 58.5682 47.0002 57.7865C42.3759 57.0048 39.8091 62.9124 39.8662 69.8111C39.9191 75.8512 42.2415 88.9651 54.7617 91.5366L54.778 85.1805Z" fill="black"/>
<path d="M54.7771 90.7508H54.7404C51.9251 90.2125 49.6313 88.585 47.9241 85.9195C42.8639 78.0042 44.4569 63.2244 44.9825 60.6443C44.9943 60.5894 45.0259 60.5413 45.0707 60.5102C45.1155 60.4792 45.1701 60.4675 45.2229 60.4777C45.2757 60.491 45.3215 60.525 45.3511 60.5727C45.3807 60.6203 45.3916 60.6781 45.3818 60.734C44.8644 63.297 43.2795 77.8889 48.2623 85.6803C48.9876 86.8886 49.9445 87.9257 51.0723 88.7257C52.2001 89.5258 53.4742 90.0714 54.8137 90.3279C54.8403 90.333 54.8657 90.3436 54.8883 90.3591C54.9109 90.3746 54.9304 90.3946 54.9456 90.4181C54.9607 90.4415 54.9713 90.4679 54.9767 90.4957C54.982 90.5235 54.982 90.5521 54.9767 90.5799C54.9681 90.6285 54.9433 90.6724 54.9067 90.7036C54.8702 90.7349 54.8242 90.7516 54.7771 90.7508Z" fill="white"/>
<path d="M54.7783 110.439C50.7407 111.011 44.1852 111.003 40.4002 107.876C36.6152 104.749 37.4056 102.058 38.8602 100.934C40.3147 99.811 41.5777 98.5295 39.0761 96.0348C36.5745 93.5402 32.5573 89.5334 31.2535 83.5232C29.9497 77.5131 30.5935 73.754 33.1521 72.5024C35.6333 71.2893 36.2893 73.2201 37.809 77.2012C39.3287 81.1824 42.747 77.7694 45.6723 79.0124C48.5977 80.2554 48.4795 82.7159 48.6629 84.8304C48.8462 86.9448 49.8118 87.53 51.47 87.53C53.1283 87.53 54.7783 88.5296 54.7783 90.5202V110.439Z" fill="#2F73DA"/>
<path d="M54.7774 103.459C54.76 103.463 54.7419 103.463 54.7244 103.459C54.5492 103.407 50.3731 102.134 44.2902 96.278C37.8121 90.0414 34.7564 80.6865 34.7238 80.5925C34.7082 80.5387 34.7131 80.4806 34.7374 80.4305C34.7617 80.3803 34.8035 80.3419 34.8542 80.3234C34.905 80.3057 34.9604 80.3097 35.0085 80.3344C35.0565 80.3592 35.0933 80.4028 35.1109 80.4558C35.1394 80.5498 38.1666 89.8022 44.5673 95.9619C50.5646 101.741 54.7896 103.036 54.8344 103.048C54.8601 103.056 54.8841 103.069 54.9049 103.087C54.9258 103.105 54.9432 103.126 54.956 103.151C54.9689 103.175 54.977 103.202 54.9799 103.23C54.9828 103.258 54.9805 103.286 54.973 103.313C54.9598 103.356 54.9335 103.394 54.8983 103.42C54.863 103.446 54.8206 103.46 54.7774 103.459Z" fill="white"/>
<path d="M45.989 97.7646C45.9481 97.7652 45.908 97.7524 45.8743 97.7279C45.8407 97.7033 45.8153 97.6684 45.8016 97.6279C44.4938 94.108 44.1964 86.5772 44.1719 86.2568C44.1708 86.2004 44.1905 86.1458 44.227 86.1044C44.2634 86.0629 44.3138 86.038 44.3675 86.0347C44.4207 86.0355 44.4717 86.0568 44.5108 86.0947C44.5499 86.1325 44.5743 86.1842 44.5793 86.2397C44.5793 86.3166 44.8849 94.0183 46.1683 97.4741C46.1781 97.5004 46.1829 97.5286 46.1822 97.5568C46.1816 97.5851 46.1756 97.613 46.1646 97.6388C46.1536 97.6646 46.1378 97.6879 46.1182 97.7073C46.0985 97.7267 46.0754 97.7418 46.0502 97.7517C46.0305 97.7592 46.0099 97.7635 45.989 97.7646Z" fill="white"/>
<path d="M45.9576 102.826C45.582 102.83 45.2065 102.81 44.8331 102.767C44.8063 102.763 44.7805 102.754 44.757 102.741C44.7335 102.727 44.7128 102.708 44.6962 102.686C44.6795 102.664 44.6672 102.638 44.66 102.611C44.6527 102.584 44.6506 102.556 44.6538 102.527C44.657 102.499 44.6655 102.472 44.6787 102.448C44.6919 102.423 44.7096 102.401 44.7308 102.384C44.7519 102.367 44.7762 102.354 44.8021 102.346C44.8281 102.338 44.8552 102.336 44.882 102.34C44.9186 102.34 48.7118 102.792 50.4515 100.934C50.4696 100.912 50.492 100.893 50.5171 100.88C50.5423 100.867 50.5698 100.86 50.5978 100.859C50.6259 100.857 50.6539 100.862 50.6801 100.873C50.7063 100.883 50.7302 100.899 50.7501 100.92C50.7701 100.941 50.7858 100.965 50.7963 100.993C50.8067 101.02 50.8116 101.049 50.8107 101.079C50.8099 101.108 50.8032 101.137 50.7911 101.164C50.7791 101.19 50.762 101.214 50.7408 101.233C49.4818 102.596 47.2858 102.826 45.9576 102.826Z" fill="white"/>
<path d="M58.804 116.154L97.1022 92.9678C97.1865 92.9367 97.2596 92.8789 97.3113 92.8024C97.363 92.7259 97.3908 92.6345 97.3908 92.5407C97.3908 92.4469 97.363 92.3555 97.3113 92.2789C97.2596 92.2024 97.1865 92.1446 97.1022 92.1135L93.5616 89.9777C93.3423 89.862 93.1002 89.8018 92.8547 89.8018C92.6092 89.8018 92.3671 89.862 92.1478 89.9777L53.8375 113.143C53.7531 113.174 53.68 113.232 53.6283 113.308C53.5766 113.385 53.5488 113.476 53.5488 113.57C53.5488 113.664 53.5766 113.755 53.6283 113.832C53.68 113.908 53.7531 113.966 53.8375 113.997L57.3902 116.133C57.6079 116.252 57.8492 116.316 58.0947 116.32C58.3402 116.323 58.5831 116.267 58.804 116.154Z" fill="#E0E0E0"/>
<path d="M96.0516 3.4472L61.5181 24.3526C61.0047 24.7038 60.5775 25.1769 60.271 25.7335C59.9645 26.2901 59.7874 26.9145 59.7539 27.5563V113.446C59.7539 114.625 60.5443 115.103 61.5181 114.514L96.0516 93.6085C96.5656 93.258 96.9934 92.7851 97.2999 92.2283C97.6065 91.6716 97.7833 91.0467 97.8157 90.4048V4.51511C97.8157 3.33614 97.0294 2.85772 96.0516 3.4472Z" fill="#455A64"/>
<path d="M61.518 24.3525L96.0515 3.44716C96.9234 2.91748 97.6445 3.24639 97.7912 4.16479C97.7097 3.58737 97.5126 3.03458 97.2127 2.54277C96.9129 2.05096 96.5171 1.63128 96.0515 1.31134L94.6173 0.457018C94.0706 0.166206 93.4662 0.0146484 92.8532 0.0146484C92.2401 0.0146484 91.6357 0.166206 91.089 0.457018L56.5514 21.3453C56.0312 21.6873 55.6023 22.162 55.3047 22.725L60.2712 25.7152C60.5687 25.1566 60.998 24.6874 61.518 24.3525Z" fill="#37474F"/>
<path d="M54.7793 110.439C54.8127 111.081 54.9899 111.705 55.2964 112.262C55.6029 112.818 56.0301 113.291 56.5435 113.642L57.9817 114.497C58.4795 114.758 59.0242 114.906 59.5803 114.931C60.1364 114.956 60.6912 114.857 61.2085 114.642C60.3936 114.975 59.7458 114.484 59.7458 113.429V27.5563C59.7662 26.9119 59.9444 26.2837 60.2633 25.7323L55.2967 22.7422C54.9824 23.2894 54.8044 23.9108 54.7793 24.5491V110.439Z" fill="#263238"/>
<path d="M62.467 35.7964L95.1141 16.0401C95.7008 15.6898 96.1735 15.976 96.1735 16.6808V80.2512C96.1539 80.6365 96.0477 81.0115 95.8636 81.3455C95.6795 81.6796 95.4227 81.9633 95.1141 82.1735L62.4792 101.93C61.8925 102.284 61.4199 101.998 61.4199 101.289V37.7186C61.4385 37.3346 61.5429 36.9605 61.7248 36.6266C61.9067 36.2926 62.1609 36.0083 62.467 35.7964Z" fill="white"/>
<path d="M78.7834 17.155C78.6032 17.2791 78.4532 17.4457 78.3457 17.6416C78.2381 17.8375 78.1759 18.0571 78.1641 18.2827C78.1641 18.7099 78.4411 18.8679 78.7834 18.6586C78.9642 18.5354 79.1147 18.3689 79.2223 18.1729C79.33 17.9768 79.3918 17.7568 79.4026 17.5309C79.4026 17.1166 79.1256 16.95 78.7834 17.155Z" fill="#37474F"/>
<path d="M78.7844 95.0908C78.0722 95.5793 77.4797 96.2369 77.055 97.0102C76.6303 97.7835 76.3853 98.6508 76.3398 99.5419C76.3398 101.178 77.4358 101.844 78.7844 101.024C79.4964 100.535 80.0887 99.8778 80.5134 99.1045C80.9381 98.3313 81.1832 97.4641 81.229 96.5731C81.2371 94.9371 80.1371 94.2707 78.7844 95.0908Z" fill="#37474F"/>
<path d="M72.9215 23.7675C72.5634 24.0167 72.2662 24.3507 72.0539 24.7424C71.8416 25.1342 71.7201 25.5728 71.6992 26.0229C71.6992 26.8516 72.2533 27.1891 72.9215 26.7747C73.2834 26.5279 73.5845 26.1949 73.8004 25.803C74.0164 25.4111 74.141 24.9713 74.1642 24.5193C74.1642 23.6906 73.6101 23.3531 72.9215 23.7675Z" fill="#37474F"/>
<path d="M75.9648 23.4854C75.9648 24.0407 76.3723 24.25 76.849 23.9553L84.9975 19.013C85.2499 18.8477 85.4615 18.6223 85.6152 18.3551C85.7688 18.0879 85.8601 17.7864 85.8816 17.4752C85.8816 16.9242 85.4742 16.7149 84.9975 17.0096L76.849 21.9519C76.5971 22.1167 76.3858 22.3415 76.2322 22.6079C76.0786 22.8743 75.987 23.175 75.9648 23.4854Z" fill="#37474F"/>
<path d="M57.533 38.547C57.8221 38.7445 58.0628 39.0106 58.2355 39.3238C58.4083 39.637 58.5082 39.9884 58.5271 40.3496C58.5271 41.016 58.083 41.2851 57.533 40.9519C57.2449 40.7538 57.0052 40.4874 56.8332 40.1743C56.6612 39.8612 56.5618 39.5101 56.543 39.1493C56.543 38.4872 56.9871 38.2181 57.533 38.547Z" fill="#37474F"/>
<path d="M57.533 46.5692C57.8221 46.7666 58.0628 47.0327 58.2355 47.3459C58.4083 47.6591 58.5082 48.0106 58.5271 48.3718C58.5271 49.0339 58.083 49.303 57.533 48.9741C57.2449 48.7759 57.0052 48.5096 56.8332 48.1964C56.6612 47.8833 56.5618 47.5323 56.543 47.1715C56.543 46.5051 56.9871 46.236 57.533 46.5692Z" fill="#37474F"/>
<path d="M57.2226 38.7096C57.5118 38.907 57.7525 39.1731 57.9252 39.4863C58.0979 39.7995 58.1978 40.151 58.2168 40.5122C58.2168 41.1743 57.7727 41.4434 57.2226 41.1145C56.9335 40.917 56.6928 40.6509 56.5201 40.3377C56.3474 40.0245 56.2475 39.6731 56.2285 39.3119C56.2326 38.6455 56.6767 38.3892 57.2226 38.7096Z" fill="#455A64"/>
<path d="M57.2226 46.7272C57.5123 46.9251 57.7533 47.1918 57.9261 47.5058C58.0988 47.8198 58.1984 48.1721 58.2168 48.5341C58.2168 49.1962 57.7727 49.4653 57.2226 49.1321C56.9328 48.9354 56.6916 48.6695 56.5188 48.3561C56.346 48.0428 56.2465 47.691 56.2285 47.3295C56.2326 46.6674 56.6767 46.3983 57.2226 46.7272Z" fill="#455A64"/>
<path d="M102.781 18.6928C102.781 17.9837 102.308 17.6975 101.722 18.052L97.8143 20.4142L69.0867 37.8083C68.7781 38.0185 68.5213 38.3022 68.3372 38.6363C68.1531 38.9703 68.0469 39.3453 68.0273 39.7305V103.284C68.0273 103.993 68.5 104.279 69.0867 103.925L97.8266 86.5262L101.722 84.1683C102.03 83.9581 102.287 83.6744 102.471 83.3403C102.655 83.0063 102.761 82.6313 102.781 82.2461V18.6928Z" fill="white"/>
<path d="M103.189 18.6925C103.215 18.4783 103.18 18.2609 103.088 18.0676C102.996 17.8742 102.853 17.7134 102.674 17.6054C102.496 17.4973 102.291 17.4468 102.086 17.4601C101.88 17.4734 101.683 17.5499 101.519 17.6801L97.7908 19.9398L68.8838 37.4535C68.5117 37.6998 68.2022 38.0373 67.9822 38.4369C67.7621 38.8366 67.6381 39.2863 67.6208 39.7474V103.284C67.6045 103.497 67.6436 103.711 67.734 103.903C67.8244 104.094 67.9627 104.257 68.1342 104.373C68.2801 104.462 68.4462 104.508 68.6149 104.505C68.8538 104.497 69.0867 104.425 69.2913 104.296L98.2186 86.7823L101.938 84.5312C102.308 84.2825 102.616 83.9444 102.836 83.5453C103.056 83.1462 103.181 82.6976 103.201 82.2373L103.189 18.6925ZM97.7989 86.0519L97.4648 86.2569L68.9001 103.548C68.8521 103.587 68.7965 103.614 68.7373 103.627C68.6781 103.641 68.6168 103.64 68.5579 103.625C68.5049 103.591 68.452 103.472 68.452 103.275V39.7303C68.4731 39.4201 68.561 39.1191 68.7092 38.8497C68.8574 38.5804 69.062 38.3498 69.3076 38.1754L97.8438 20.8753L101.918 18.4021C101.966 18.3634 102.022 18.3364 102.081 18.3231C102.14 18.3098 102.201 18.3105 102.26 18.3252C102.313 18.3593 102.366 18.4789 102.366 18.6754V82.2458C102.345 82.556 102.257 82.8571 102.109 83.1264C101.961 83.3958 101.756 83.6263 101.511 83.8007L97.7908 86.0519H97.7989Z" fill="#2F73DA"/>
<path d="M85.4058 33.4599C89.0727 31.2472 92.0265 33.0327 92.0265 37.4709C92.0265 41.9092 89.0605 47.2957 85.4058 49.4913C81.7512 51.6869 78.7852 49.9185 78.7852 45.4845C78.7852 41.0505 81.7512 35.6768 85.4058 33.4599Z" fill="#2F73DA"/>
<path d="M85.405 36.9452C86.5906 36.2275 87.5521 36.8085 87.5521 38.2267C87.5118 39.0079 87.2964 39.7682 86.9233 40.4459C86.5503 41.1235 86.0301 41.6993 85.405 42.1267C84.2193 42.8443 83.2578 42.2634 83.2578 40.8452C83.2981 40.0639 83.5135 39.3036 83.8866 38.626C84.2596 37.9484 84.7798 37.3725 85.405 36.9452Z" fill="#2F73DA"/>
<path d="M89.5895 44.6C89.5895 42.2421 88.0127 41.2853 86.0611 42.4642L84.8389 43.2032C82.8914 44.3822 81.3105 47.2527 81.3105 49.6107V50.2471C82.4391 50.6359 83.857 50.4266 85.3848 49.4911C87.0773 48.3965 88.5086 46.9105 89.5691 45.1468L89.5895 44.6Z" fill="#2F73DA"/>
<path opacity="0.7" d="M85.405 36.9452C86.5906 36.2275 87.5521 36.8085 87.5521 38.2267C87.5118 39.0079 87.2964 39.7682 86.9233 40.4459C86.5503 41.1235 86.0301 41.6993 85.405 42.1267C84.2193 42.8443 83.2578 42.2634 83.2578 40.8452C83.2981 40.0639 83.5135 39.3036 83.8866 38.626C84.2596 37.9484 84.7798 37.3725 85.405 36.9452Z" fill="white"/>
<path opacity="0.7" d="M89.5895 44.6C89.5895 42.2421 88.0127 41.2853 86.0611 42.4642L84.8389 43.2032C82.8914 44.3822 81.3105 47.2527 81.3105 49.6107V50.2471C82.4391 50.6359 83.857 50.4266 85.3848 49.4911C87.0773 48.3965 88.5086 46.9105 89.5691 45.1468L89.5895 44.6Z" fill="white"/>
<path d="M72.5955 59.2515L81.1148 54.0957C81.5222 53.8607 81.8196 54.0487 81.8196 54.5228V54.8176C81.8067 55.0743 81.7362 55.3242 81.6137 55.5469C81.4912 55.7696 81.3202 55.9588 81.1148 56.0991L72.5955 61.2549C72.2084 61.4899 71.8906 61.2976 71.8906 60.8278V60.533C71.9038 60.2764 71.9746 60.0266 72.097 59.804C72.2195 59.5813 72.3902 59.3921 72.5955 59.2515Z" fill="#2F73DA"/>
<path opacity="0.1" d="M72.5955 59.2515L81.1148 54.0957C81.5222 53.8607 81.8196 54.0487 81.8196 54.5228V54.8176C81.8067 55.0743 81.7362 55.3242 81.6137 55.5469C81.4912 55.7696 81.3202 55.9588 81.1148 56.0991L72.5955 61.2549C72.2084 61.4899 71.8906 61.2976 71.8906 60.8278V60.533C71.9038 60.2764 71.9746 60.0266 72.097 59.804C72.2195 59.5813 72.3902 59.3921 72.5955 59.2515Z" fill="black"/>
<path d="M72.2451 65.4756L98.0189 49.8756C98.2104 49.756 98.3693 49.8499 98.3693 50.0892V53.2416C98.3621 53.3696 98.3268 53.494 98.266 53.6052C98.2052 53.7164 98.1206 53.8112 98.0189 53.8824L72.2451 69.4824C72.0495 69.602 71.8906 69.5037 71.8906 69.2688V66.1163C71.8976 65.9878 71.9334 65.8629 71.9949 65.7516C72.0565 65.6403 72.1422 65.5457 72.2451 65.4756Z" fill="#2F73DA"/>
<path opacity="0.2" d="M72.2451 65.4756L98.0189 49.8756C98.2104 49.756 98.3693 49.8499 98.3693 50.0892V53.2416C98.3621 53.3696 98.3268 53.494 98.266 53.6052C98.2052 53.7164 98.1206 53.8112 98.0189 53.8824L72.2451 69.4824C72.0495 69.602 71.8906 69.5037 71.8906 69.2688V66.1163C71.8976 65.9878 71.9334 65.8629 71.9949 65.7516C72.0565 65.6403 72.1422 65.5457 72.2451 65.4756Z" fill="white"/>
<path d="M72.5955 73.2757L81.1148 68.1198C81.5222 67.8849 81.8196 68.0771 81.8196 68.547V68.8417C81.807 69.0985 81.7366 69.3485 81.6141 69.5713C81.4916 69.794 81.3205 69.9832 81.1148 70.1232L72.5955 75.279C72.2084 75.5183 71.8906 75.326 71.8906 74.8519V74.5572C71.9045 74.3007 71.9755 74.0512 72.0979 73.8286C72.2203 73.6061 72.3907 73.4167 72.5955 73.2757Z" fill="#2F73DA"/>
<path opacity="0.1" d="M72.5955 73.2757L81.1148 68.1198C81.5222 67.8849 81.8196 68.0771 81.8196 68.547V68.8417C81.807 69.0985 81.7366 69.3485 81.6141 69.5713C81.4916 69.794 81.3205 69.9832 81.1148 70.1232L72.5955 75.279C72.2084 75.5183 71.8906 75.326 71.8906 74.8519V74.5572C71.9045 74.3007 71.9755 74.0512 72.0979 73.8286C72.2203 73.6061 72.3907 73.4167 72.5955 73.2757Z" fill="black"/>
<path d="M72.2451 79.4992L98.0189 63.8992C98.2104 63.7796 98.3693 63.8779 98.3693 64.1128V67.2653C98.3621 67.3932 98.3268 67.5176 98.266 67.6288C98.2052 67.74 98.1206 67.8349 98.0189 67.906L72.2451 83.506C72.0495 83.6256 71.8906 83.5316 71.8906 83.2924V80.1399C71.8976 80.0115 71.9334 79.8866 71.9949 79.7752C72.0565 79.6639 72.1422 79.5694 72.2451 79.4992Z" fill="#2F73DA"/>
<path opacity="0.2" d="M72.2451 79.4992L98.0189 63.8992C98.2104 63.7796 98.3693 63.8779 98.3693 64.1128V67.2653C98.3621 67.3932 98.3268 67.5176 98.266 67.6288C98.2052 67.74 98.1206 67.8349 98.0189 67.906L72.2451 83.506C72.0495 83.6256 71.8906 83.5316 71.8906 83.2924V80.1399C71.8976 80.0115 71.9334 79.8866 71.9949 79.7752C72.0565 79.6639 72.1422 79.5694 72.2451 79.4992Z" fill="white"/>
<path d="M82.5252 81.2891L92.7108 75.1337C93.1183 74.8945 93.4198 75.0867 93.4198 75.5608V78.8585C93.4064 79.1156 93.3352 79.3658 93.212 79.5885C93.0888 79.8112 92.9171 80.0002 92.7108 80.14L82.5252 86.2997C82.1177 86.5347 81.8203 86.3424 81.8203 85.8726V82.5706C81.8345 82.3142 81.9056 82.0648 82.028 81.8423C82.1503 81.6198 82.3206 81.4304 82.5252 81.2891Z" fill="#2F73DA"/>
<path opacity="0.1" d="M82.5252 81.2891L92.7108 75.1337C93.1183 74.8945 93.4198 75.0867 93.4198 75.5608V78.8585C93.4064 79.1156 93.3352 79.3658 93.212 79.5885C93.0888 79.8112 92.9171 80.0002 92.7108 80.14L82.5252 86.2997C82.1177 86.5347 81.8203 86.3424 81.8203 85.8726V82.5706C81.8345 82.3142 81.9056 82.0648 82.028 81.8423C82.1503 81.6198 82.3206 81.4304 82.5252 81.2891Z" fill="black"/>
<path d="M106.643 67.3722C106.643 67.3722 101.64 60.1361 101.347 59.2561C101.115 58.6068 101.347 57.6415 101.42 57.1929C101.493 56.7444 101.559 55.7449 101.632 55.4843C101.754 54.9973 101.155 55.0956 100.817 55.5398C100.479 55.9841 100.365 56.8726 100.19 57.0178C100.014 57.163 98.6822 55.1255 97.9855 54.1857C97.2888 53.2459 96.8529 52.6735 96.4251 53.0238C96.1195 53.2758 96.3476 53.8226 96.8529 54.6257C97.1479 55.0581 97.42 55.5073 97.6677 55.9712C97.7451 56.1464 97.3296 56.1592 97.1055 56.5223C96.9303 56.8042 97.1055 57.2613 96.861 57.4791C96.7106 57.5992 96.6075 57.773 96.5714 57.9676C96.5354 58.1622 96.5688 58.3639 96.6654 58.5342C97.119 59.2809 97.7038 59.9304 98.3889 60.4479C99.1385 60.9904 99.44 61.1826 99.8841 61.9216C100.328 62.6606 104.313 70.2086 104.582 70.6614C104.851 71.1142 105.368 72.0368 106.154 72.0625C106.941 72.0881 113.378 66.2787 113.708 65.9882C114.767 65.0613 115.106 64.9289 115.285 65.7618C115.347 66.0579 115.393 66.3574 115.423 66.6589C115.55 67.7182 116.238 71.5029 116.238 71.5029C116.238 71.5029 119.498 73.156 122.174 72.3572C124.851 71.5584 125.756 70.3666 125.756 70.3666L124.415 68.077C124.778 67.133 126.452 63.3056 126.994 60.6273L118.601 59.2049C118.43 59.1664 118.153 59.0938 117.786 58.9956C117.326 58.8674 116.157 58.4445 115.273 59.2561C112.388 61.8917 106.651 67.3722 106.651 67.3722" fill="#FFA8A7"/>
<path d="M123.283 111.771L121.779 113.963C122.463 114.297 123.209 114.465 123.963 114.454C125.312 114.505 125.682 114.027 125.731 113.933C125.959 113.42 125.605 112.498 125.507 111.703L123.283 111.771Z" fill="#37474F"/>
<path d="M121.865 112.912C121.865 112.912 120.04 112.788 118.781 112.626C117.522 112.463 116.524 113.104 116.817 113.647C117.111 114.189 117.807 114.642 118.891 115.022C119.816 115.351 120.928 115.586 121.89 115.876C122.851 116.167 123.519 116.547 124.078 116.342C124.701 116.116 124.97 115.855 124.917 115.377C124.781 114.696 124.612 114.023 124.412 113.36L121.865 112.912Z" fill="#37474F"/>
<path d="M125.73 109.571C125.73 109.571 125.502 111.562 125.486 111.989C125.47 112.416 123.632 112.553 123.282 111.771L123.225 109.336L125.73 109.571Z" fill="#F28F8F"/>
<path d="M123.882 110.793L124.538 113.818C124.538 113.818 124.599 114.185 123.099 114.42C121.6 114.655 119.245 113.596 118.842 113.382C118.438 113.168 118.394 112.737 119.868 112.822C121.343 112.908 121.865 112.912 121.865 112.912L121.384 111.575L123.882 110.793Z" fill="#FFA8A7"/>
<path d="M126.97 60.6016L128.008 60.2983C128.008 60.2983 130.18 67.5046 130.42 68.2009C130.661 68.8971 130.934 69.6319 130.465 70.4904C129.907 71.5114 126.97 75.6164 126.97 75.6164L125.104 73.7027L127.222 69.6361L125.348 65.6635L126.97 60.6016Z" fill="#F28F8F"/>
<path d="M116.299 51.2425C116.056 50.7631 115.932 50.2268 115.94 49.6837C115.948 49.1406 116.087 48.6085 116.344 48.137C117.379 46.1251 119.685 45.1469 122.431 45.5185C123.702 45.6936 125.201 46.8 126.02 48.4531C126.925 50.2856 127.01 53.9763 127.243 55.3731L116.299 51.2425Z" fill="#37474F"/>
<path d="M116.225 52.0327C116.225 52.0327 115.573 53.3356 115.687 53.4552C115.856 53.5586 116.041 53.6309 116.233 53.6687L116.225 52.0327Z" fill="#FFA8A7"/>
<path d="M118.206 47.9149C117.497 48.3976 116.275 49.2861 116.222 52.2122C116.165 55.2023 116.573 56.189 116.996 56.535C117.281 56.77 118.956 56.6504 119.673 56.4752C120.39 56.3001 122.456 55.2279 123.201 53.6004C124.077 51.6867 123.898 48.9016 122.598 48.0473C121.937 47.6372 121.187 47.4099 120.419 47.3867C119.65 47.3636 118.889 47.5453 118.206 47.9149Z" fill="#FFA8A7"/>
<path d="M125.731 70.3496C126.985 72.4 128.175 74.1941 128.436 76.5093C128.974 81.3747 127.214 86.9363 126.835 90.5373C127.547 91.5616 127.958 92.7823 128.016 94.0486C128.016 95.5394 125.731 109.572 125.731 109.572C125.731 109.572 124.068 110.101 123.225 109.337L121.656 83.5233L122.471 80.3794L125.731 70.3496Z" fill="#2F73DA"/>
<path opacity="0.2" d="M125.731 70.3496C126.985 72.4 128.175 74.1941 128.436 76.5093C128.974 81.3747 127.214 86.9363 126.835 90.5373C127.547 91.5616 127.958 92.7823 128.016 94.0486C128.016 95.5394 125.731 109.572 125.731 109.572C125.731 109.572 124.068 110.101 123.225 109.337L121.656 83.5233L122.471 80.3794L125.731 70.3496Z" fill="black"/>
<path d="M121.656 83.5233L122.471 80.3794C124.031 79.9488 125.536 79.322 126.953 78.5127C126.953 78.5127 126.105 80.1316 123.669 81.0201L122.41 85.0568L122.304 94.3049L121.656 83.5233Z" fill="#2F73DA"/>
<path opacity="0.3" d="M121.656 83.5233L122.471 80.3794C124.031 79.9488 125.536 79.322 126.953 78.5127C126.953 78.5127 126.105 80.1316 123.669 81.0201L122.41 85.0568L122.304 94.3049L121.656 83.5233Z" fill="black"/>
<path d="M125.732 70.3496C126.404 71.5029 128.009 73.4679 127.667 75.3602C127.26 77.6498 126.078 79.2602 122.485 80.3794L119.111 93.1943C119.111 93.1943 120.867 94.9029 121.405 96.5561C121.943 98.2092 123.882 110.802 123.882 110.802C123.882 110.802 123.279 111.831 121.385 111.584C121.385 111.584 114.78 95.7786 114.316 94.7492C113.752 93.7066 113.554 92.4899 113.757 91.3105C113.965 89.6531 116.202 71.5115 116.202 71.5115L125.732 70.3496Z" fill="#2F73DA"/>
<path opacity="0.2" d="M125.732 70.3496C126.404 71.5029 128.009 73.4679 127.667 75.3602C127.26 77.6498 126.078 79.2602 122.485 80.3794L119.111 93.1943C119.111 93.1943 120.867 94.9029 121.405 96.5561C121.943 98.2092 123.882 110.802 123.882 110.802C123.882 110.802 123.279 111.831 121.385 111.584C121.385 111.584 114.78 95.7786 114.316 94.7492C113.752 93.7066 113.554 92.4899 113.757 91.3105C113.965 89.6531 116.202 71.5115 116.202 71.5115L125.732 70.3496Z" fill="black"/>
<path d="M126.97 60.6015L118.577 59.179C118.406 59.1406 118.129 59.068 117.762 58.9697C117.762 58.9697 117.403 64.4887 115.248 65.7531C115.301 66.0179 115.346 66.3127 115.387 66.6501C115.513 67.7095 116.201 71.4942 116.201 71.4942C116.201 71.4942 119.461 73.1473 122.138 72.3485C124.814 71.5497 125.719 70.3579 125.719 70.3579L124.378 68.0683C124.753 67.1157 126.44 63.2883 126.97 60.6015Z" fill="#2F73DA"/>
<path opacity="0.7" d="M126.97 60.6015L118.577 59.179C118.406 59.1406 118.129 59.068 117.762 58.9697C117.762 58.9697 117.403 64.4887 115.248 65.7531C115.301 66.0179 115.346 66.3127 115.387 66.6501C115.513 67.7095 116.201 71.4942 116.201 71.4942C116.201 71.4942 119.461 73.1473 122.138 72.3485C124.814 71.5497 125.719 70.3579 125.719 70.3579L124.378 68.0683C124.753 67.1157 126.44 63.2883 126.97 60.6015Z" fill="white"/>
<path d="M124.757 67.1587C123.643 67.8604 122.475 68.4648 121.266 68.9656C122.363 68.9426 123.438 68.6313 124.391 68.06L124.757 67.1587Z" fill="#2F73DA"/>
<path d="M117.998 48.0601C117.998 48.0601 117.59 50.8366 118.552 52.4684C118.552 52.4684 118.91 51.362 119.803 51.5713C120.695 51.7807 120.744 53.0152 120.116 53.7072C119.957 53.9013 119.749 54.0443 119.515 54.1199C119.282 54.1954 119.032 54.2004 118.796 54.1343C118.796 54.1343 118.654 56.142 118.576 57.825C118.499 59.508 118.075 63.1774 119.88 64.6596C121.685 66.1419 126.216 66.663 128.338 63.5533C129.52 61.8233 127.951 58.7648 127.222 55.3346C126.55 52.1822 126.171 47.509 122.981 46.7572C119.791 46.0054 117.998 48.0601 117.998 48.0601Z" fill="#37474F"/>
<path d="M129.704 10.1237L129.032 10.5508C129.088 10.3001 129.12 10.0438 129.125 9.78621C129.125 8.35522 128.168 7.77855 126.986 8.50472C126.627 8.73213 126.306 9.02087 126.037 9.35905C126.037 7.43682 124.75 6.65511 123.161 7.61622C122.323 8.18874 121.627 8.96013 121.127 9.86781C120.627 10.7755 120.338 11.7939 120.284 12.8404C120.284 12.9387 120.284 13.0327 120.284 13.1266C119.875 13.0726 119.461 13.1725 119.115 13.4086C118.492 13.8339 117.974 14.4072 117.603 15.0818C117.231 15.7565 117.016 16.5135 116.976 17.2915C116.976 17.4723 116.994 17.6527 117.029 17.8297L116.67 18.0475C115.697 18.637 114.906 19.7861 114.906 20.6105C114.906 21.435 115.697 21.6314 116.67 21.0377L129.708 13.1565C130.682 12.567 131.472 11.418 131.472 10.5936C131.472 9.76913 130.678 9.52992 129.704 10.1237Z" fill="#EBEBEB"/>
</svg>
