<svg id="svg" version="1.1" xmlns="http://www.w3.org/2000/svg" xmlns:xlink="http://www.w3.org/1999/xlink" width="400" height="868.632707774799" viewBox="0, 0, 400,868.632707774799"><g id="svgg"><path id="path0" d="M0.000 434.200 L 0.000 868.400 200.000 868.400 L 400.000 868.400 400.000 434.200 L 400.000 0.000 200.000 0.000 L 0.000 0.000 0.000 434.200 M233.947 370.435 C 236.895 373.600,234.965 374.624,225.543 374.892 C 207.018 375.420,165.288 374.671,164.630 373.800 C 163.721 372.597,163.878 371.354,165.054 370.429 C 166.723 369.116,232.723 369.122,233.947 370.435 M191.202 382.353 C 191.972 382.929,192.962 383.617,193.402 383.882 C 193.841 384.148,195.515 385.202,197.122 386.225 C 199.836 387.952,200.095 388.038,200.753 387.442 C 201.144 387.089,201.659 386.800,201.898 386.800 C 202.138 386.800,202.393 386.643,202.467 386.452 C 202.610 386.079,208.208 382.136,209.801 381.287 C 211.407 380.431,213.600 381.566,213.600 383.254 C 213.600 384.600,212.301 386.400,211.330 386.400 C 211.039 386.400,210.800 386.580,210.800 386.800 C 210.800 387.020,210.618 387.200,210.396 387.200 C 210.174 387.200,208.654 388.190,207.017 389.400 C 205.381 390.610,203.948 391.600,203.833 391.600 C 203.718 391.600,202.841 392.152,201.884 392.826 C 200.202 394.012,198.000 394.199,198.000 393.157 C 198.000 392.960,197.847 392.800,197.659 392.800 C 197.277 392.800,191.980 389.380,191.627 388.905 C 191.305 388.472,189.926 387.619,189.100 387.342 C 188.715 387.212,188.400 386.948,188.400 386.753 C 188.400 386.559,188.187 386.400,187.926 386.400 C 187.160 386.400,185.600 384.726,185.600 383.904 C 185.600 380.924,188.290 380.179,191.202 382.353 M167.681 390.819 C 169.567 391.679,169.600 392.071,169.600 413.682 L 169.600 434.005 199.700 433.903 L 229.800 433.800 229.916 430.530 L 230.031 427.259 219.516 427.111 C 207.885 426.948,207.741 426.918,204.633 424.086 C 200.941 420.722,200.143 414.291,202.943 410.477 C 206.399 405.770,207.333 405.479,219.800 405.213 L 229.800 405.000 230.000 398.477 C 230.196 392.098,230.222 391.936,231.200 391.186 C 232.474 390.207,232.855 390.213,234.149 391.232 L 235.206 392.063 235.103 415.332 L 235.000 438.600 199.600 438.600 L 164.200 438.600 164.097 415.296 L 163.994 391.992 165.297 391.198 C 166.835 390.260,166.553 390.305,167.681 390.819 M208.677 411.748 C 205.906 414.015,205.639 417.696,208.069 420.126 C 209.728 421.785,211.412 422.021,220.811 421.908 L 229.800 421.800 229.911 416.300 L 230.023 410.800 219.911 410.814 C 209.967 410.829,209.781 410.844,208.677 411.748 M216.000 413.586 C 216.801 414.202,217.000 414.707,217.000 416.132 C 217.000 419.242,213.888 420.725,211.782 418.618 C 208.871 415.707,212.745 411.085,216.000 413.586 M274.298 476.600 C 274.443 483.677,274.397 483.587,276.809 481.553 C 278.385 480.225,278.702 479.764,278.341 479.329 C 277.655 478.502,278.084 478.345,280.655 478.486 C 282.315 478.577,282.790 478.714,282.283 478.957 C 279.014 480.516,278.412 482.310,280.189 485.200 C 280.662 485.970,281.291 487.200,281.587 487.934 C 281.883 488.668,282.379 489.521,282.688 489.831 C 283.682 490.825,282.828 491.200,279.576 491.200 C 276.770 491.200,276.400 491.115,276.400 490.471 C 276.400 490.071,276.054 489.036,275.631 488.171 C 274.502 485.868,274.026 487.221,274.845 490.400 C 274.971 490.886,274.436 491.023,272.037 491.119 C 268.655 491.254,267.614 491.026,268.333 490.307 C 269.188 489.452,268.971 472.957,268.100 472.595 C 266.780 472.047,269.335 471.367,271.869 471.593 L 274.200 471.800 274.298 476.600 M98.026 472.814 C 98.454 473.043,98.800 473.648,98.800 474.168 C 98.800 475.094,99.321 477.078,100.803 481.800 L 101.556 484.200 101.581 482.600 C 101.594 481.720,101.874 480.484,102.202 479.854 C 102.531 479.224,102.803 478.144,102.806 477.454 C 102.812 476.205,103.490 473.896,104.157 472.851 C 104.421 472.438,105.225 472.348,107.388 472.487 C 110.841 472.708,111.500 473.000,110.666 473.940 C 109.735 474.990,109.719 489.403,110.649 489.923 C 112.084 490.726,110.721 491.200,106.976 491.200 C 103.323 491.200,102.133 490.707,103.600 489.800 C 104.099 489.491,104.135 481.731,103.639 481.424 C 103.440 481.301,103.188 482.055,103.078 483.100 C 102.457 489.043,101.294 491.581,99.189 491.594 C 97.441 491.604,96.503 490.604,96.201 488.404 C 96.049 487.302,95.762 486.300,95.563 486.177 C 95.363 486.054,95.200 485.279,95.200 484.456 C 95.200 483.633,94.993 482.753,94.740 482.500 C 94.488 482.248,94.148 481.357,93.986 480.520 C 93.792 479.517,93.676 480.793,93.646 484.276 C 93.619 487.414,93.762 489.653,94.000 489.800 C 95.071 490.462,94.345 491.200,92.624 491.200 C 90.624 491.200,89.972 490.657,91.189 490.006 C 92.271 489.427,92.463 474.882,91.400 474.000 C 90.062 472.890,90.860 472.517,94.726 472.446 C 96.116 472.421,97.601 472.586,98.026 472.814 M137.070 472.900 C 137.715 473.915,138.800 477.403,138.800 478.461 C 138.800 479.061,138.980 479.664,139.200 479.800 C 139.420 479.936,139.600 480.472,139.600 480.991 C 139.600 484.124,140.970 483.124,141.430 479.655 C 141.582 478.515,141.862 477.485,142.053 477.367 C 142.244 477.249,142.400 476.443,142.400 475.576 C 142.400 473.273,143.437 472.400,146.174 472.400 C 149.316 472.400,150.717 472.987,149.853 473.942 C 148.922 474.970,148.871 489.229,149.796 489.996 C 150.873 490.891,150.001 491.200,146.400 491.200 C 142.799 491.200,141.927 490.891,143.004 489.996 C 143.703 489.417,143.869 480.236,143.200 479.200 C 142.918 478.764,142.811 479.102,142.806 480.433 C 142.803 481.442,142.665 482.401,142.500 482.565 C 142.217 482.848,141.506 485.848,140.881 489.400 L 140.600 491.000 138.469 491.000 L 136.339 491.000 135.569 488.815 C 135.146 487.614,134.800 486.139,134.800 485.539 C 134.800 484.939,134.630 484.342,134.423 484.214 C 134.216 484.086,133.925 483.176,133.778 482.191 C 133.630 481.206,133.362 480.400,133.182 480.400 C 133.003 480.400,132.778 479.995,132.682 479.500 C 132.587 479.005,132.484 481.066,132.454 484.080 C 132.408 488.781,132.493 489.612,133.056 489.927 C 134.093 490.508,133.300 491.200,131.600 491.200 C 129.856 491.200,129.316 490.734,130.204 489.996 C 130.978 489.354,131.095 474.455,130.332 473.692 C 129.975 473.335,130.093 473.133,130.832 472.838 C 132.280 472.259,136.691 472.303,137.070 472.900 M228.116 472.871 C 228.727 473.190,228.816 473.699,228.716 476.323 C 228.576 480.024,227.956 480.355,226.682 477.410 C 225.803 475.380,224.718 474.000,224.000 474.000 C 223.747 474.000,223.600 476.933,223.600 482.000 C 223.600 489.840,223.617 490.000,224.433 490.000 C 224.921 490.000,225.198 490.207,225.102 490.500 C 224.845 491.282,221.102 491.755,218.332 491.356 C 215.841 490.997,214.769 490.173,216.477 489.931 C 217.460 489.792,218.185 475.225,217.256 474.296 C 216.806 473.846,214.800 475.929,214.800 476.847 C 214.800 477.207,214.530 477.726,214.200 478.000 C 213.870 478.274,213.600 478.759,213.600 479.078 C 213.600 479.418,213.309 479.601,212.900 479.519 C 211.825 479.304,211.926 473.736,213.020 472.936 C 213.913 472.283,226.886 472.226,228.116 472.871 M161.599 478.800 C 164.544 480.303,165.536 483.177,164.596 487.475 C 163.488 492.537,154.004 493.301,151.731 488.512 C 148.639 481.996,155.203 475.535,161.599 478.800 M177.734 478.814 C 179.428 479.814,179.588 480.375,179.595 485.369 C 179.599 488.452,179.744 489.496,180.245 490.050 C 181.105 491.000,180.033 491.287,176.245 491.120 L 173.506 491.000 173.573 485.900 C 173.638 480.944,173.481 480.279,172.480 481.280 C 171.849 481.911,171.816 489.839,172.443 490.226 C 173.340 490.781,171.777 491.188,168.724 491.194 C 165.870 491.200,164.621 490.805,165.593 490.204 C 166.196 489.832,166.129 479.489,165.520 478.880 C 164.916 478.276,170.458 478.189,171.571 478.785 C 172.075 479.054,172.515 478.998,173.045 478.597 C 174.127 477.778,176.135 477.871,177.734 478.814 M190.900 478.652 C 192.637 479.550,192.953 479.942,193.539 481.929 C 194.301 484.511,193.803 484.909,190.020 484.737 L 187.000 484.600 186.896 486.600 C 186.720 489.990,189.707 491.266,191.768 488.681 C 192.647 487.578,193.200 487.601,193.200 488.741 C 193.200 489.700,191.555 491.200,190.504 491.200 C 189.978 491.200,189.204 491.384,188.784 491.608 C 186.893 492.620,182.563 490.594,181.406 488.156 C 178.547 482.130,185.046 475.624,190.900 478.652 M240.725 478.730 C 242.155 479.830,241.869 483.221,240.300 483.770 C 238.503 484.398,237.040 483.657,236.794 481.991 C 236.441 479.599,236.000 481.687,236.000 485.753 C 236.000 487.927,236.183 489.623,236.445 489.885 C 237.359 490.799,236.320 491.200,233.043 491.200 C 229.567 491.200,228.931 491.006,229.634 490.159 C 229.907 489.830,230.014 487.596,229.931 483.969 L 229.800 478.293 233.293 478.520 C 235.293 478.650,236.884 478.588,237.016 478.374 C 237.403 477.749,239.742 477.973,240.725 478.730 M250.981 478.484 C 253.099 479.582,253.392 480.329,253.538 484.989 L 253.676 489.400 254.421 488.000 C 254.831 487.230,255.174 485.756,255.183 484.724 C 255.192 483.692,255.380 482.736,255.600 482.600 C 255.820 482.464,256.000 482.035,256.000 481.646 C 256.000 478.897,262.624 476.979,265.751 478.824 C 267.809 480.039,268.179 482.962,266.442 484.286 C 264.357 485.874,261.316 483.061,263.049 481.146 C 263.773 480.345,263.536 479.200,262.645 479.200 C 261.078 479.200,260.277 486.327,261.571 488.746 C 262.296 490.100,264.541 489.918,265.652 488.416 C 266.619 487.107,267.200 487.162,267.200 488.562 C 267.200 490.664,263.248 492.287,260.000 491.518 C 258.139 491.077,256.000 489.464,256.000 488.502 C 256.000 488.200,255.820 488.064,255.600 488.200 C 255.380 488.336,255.200 488.859,255.200 489.362 C 255.200 491.442,251.892 492.403,249.255 491.087 C 248.545 490.733,247.985 490.644,247.909 490.873 C 247.483 492.152,243.288 491.792,241.900 490.357 C 240.577 488.989,241.543 485.200,243.216 485.200 C 243.898 485.200,243.624 484.207,242.800 483.693 C 238.733 481.153,246.542 476.180,250.981 478.484 M292.674 478.597 C 297.411 480.960,296.985 484.962,292.020 484.737 L 289.000 484.600 288.880 486.664 C 288.699 489.788,292.475 491.629,293.673 489.000 C 294.154 487.943,295.200 487.627,295.200 488.538 C 295.200 489.446,293.425 491.200,292.506 491.200 C 292.028 491.200,291.215 491.392,290.699 491.627 C 288.932 492.433,285.621 491.237,284.102 489.244 C 279.753 483.543,286.297 475.416,292.674 478.597 M308.104 479.016 C 309.428 480.244,309.555 482.045,308.400 483.200 C 307.044 484.556,304.488 484.065,303.912 482.336 C 303.401 480.802,302.800 482.786,302.800 486.010 C 302.800 489.238,302.880 489.615,303.654 490.029 C 305.040 490.771,303.797 491.188,300.200 491.188 C 296.633 491.188,295.580 490.847,296.581 490.016 C 297.310 489.411,297.507 479.837,296.800 479.400 C 296.580 479.264,296.400 478.983,296.400 478.776 C 296.400 478.242,302.146 478.306,302.686 478.846 C 303.015 479.175,303.376 479.122,304.055 478.646 C 305.384 477.716,306.846 477.849,308.104 479.016 M118.462 479.100 C 118.047 479.893,118.309 482.297,118.846 482.629 C 119.041 482.749,119.200 483.276,119.200 483.800 C 119.200 484.324,119.388 484.869,119.618 485.011 C 120.256 485.405,121.280 484.350,121.063 483.521 C 120.958 483.117,121.148 482.510,121.485 482.172 C 121.918 481.739,122.037 481.090,121.888 479.979 L 121.676 478.400 123.238 478.400 C 124.773 478.400,125.331 478.911,124.250 479.325 C 123.948 479.442,123.608 480.046,123.496 480.668 C 123.285 481.836,122.664 483.666,121.734 485.860 C 121.440 486.554,121.200 487.398,121.200 487.737 C 121.200 488.076,121.020 488.464,120.800 488.600 C 120.580 488.736,120.400 489.355,120.400 489.975 C 120.400 490.595,120.130 491.326,119.800 491.600 C 119.470 491.874,119.200 492.532,119.200 493.063 C 119.200 496.988,112.799 499.488,111.052 496.245 C 109.885 494.077,111.713 492.011,114.238 492.645 C 115.374 492.931,116.201 494.676,115.563 495.445 C 115.203 495.878,115.239 496.000,115.724 496.000 C 116.066 496.000,116.472 495.595,116.627 495.100 C 116.781 494.605,117.050 494.108,117.224 493.995 C 118.093 493.431,117.793 491.451,116.802 491.209 C 116.237 491.071,115.748 490.626,115.675 490.182 C 115.604 489.752,115.288 488.833,114.973 488.140 C 114.658 487.446,114.400 486.602,114.400 486.263 C 114.400 485.924,114.220 485.536,114.000 485.400 C 113.780 485.264,113.600 484.876,113.600 484.537 C 113.600 484.198,113.355 483.354,113.056 482.660 C 111.110 478.150,110.984 478.400,115.214 478.400 C 118.529 478.400,118.798 478.458,118.462 479.100 M200.668 480.158 C 200.705 481.124,201.020 482.465,201.368 483.138 C 201.716 483.810,202.001 484.774,202.003 485.280 C 202.005 486.147,202.051 486.130,202.800 485.000 C 203.237 484.340,203.596 483.479,203.597 483.086 C 203.599 482.693,203.902 481.911,204.272 481.347 C 204.809 480.526,204.849 480.171,204.472 479.566 C 203.791 478.476,203.851 478.400,205.400 478.400 C 206.748 478.400,207.233 478.885,206.400 479.400 C 206.180 479.536,206.000 480.076,206.000 480.600 C 206.000 481.124,205.820 481.664,205.600 481.800 C 205.380 481.936,205.200 482.452,205.200 482.947 C 205.200 483.442,204.936 484.196,204.613 484.624 C 204.290 485.051,204.020 485.884,204.013 486.476 C 204.006 487.068,203.820 487.664,203.600 487.800 C 203.380 487.936,203.199 488.352,203.198 488.724 C 203.196 489.096,202.926 489.916,202.598 490.546 C 202.269 491.176,202.000 491.935,202.000 492.233 C 202.000 494.777,199.197 497.569,196.626 497.587 C 192.702 497.613,191.332 494.329,194.566 492.651 C 196.408 491.696,198.814 493.937,197.564 495.444 C 197.342 495.710,197.318 496.026,197.509 496.144 C 198.239 496.595,200.654 492.838,200.272 491.845 C 200.136 491.490,199.654 491.200,199.200 491.200 C 198.746 491.200,198.277 490.885,198.158 490.500 C 198.039 490.115,197.775 489.487,197.571 489.105 C 197.367 488.723,197.200 488.145,197.200 487.819 C 197.200 487.493,196.948 486.636,196.640 485.914 C 196.333 485.191,195.771 483.790,195.392 482.800 C 194.776 481.187,194.092 479.536,193.695 478.700 C 193.617 478.535,195.138 478.400,197.076 478.400 L 200.600 478.400 200.668 480.158 M157.500 479.647 C 156.505 480.205,156.438 489.486,157.427 489.866 C 158.661 490.339,159.001 489.282,158.964 485.080 C 158.924 480.383,158.564 479.051,157.500 479.647 M246.683 479.451 C 246.557 479.577,246.644 480.099,246.878 480.610 C 247.453 481.873,247.011 483.377,245.909 483.908 C 245.046 484.323,245.066 484.347,246.300 484.373 L 247.600 484.400 247.600 482.024 C 247.600 479.840,247.257 478.877,246.683 479.451 M186.877 481.463 C 186.972 482.949,187.166 483.424,187.723 483.530 C 188.353 483.650,188.431 483.418,188.323 481.737 C 188.228 480.251,188.034 479.776,187.477 479.670 C 186.847 479.550,186.769 479.782,186.877 481.463 M288.800 481.600 C 288.800 483.333,288.907 483.600,289.600 483.600 C 290.293 483.600,290.400 483.333,290.400 481.600 C 290.400 479.867,290.293 479.600,289.600 479.600 C 288.907 479.600,288.800 479.867,288.800 481.600 M247.052 486.900 C 246.683 488.279,246.755 489.600,247.200 489.600 C 247.420 489.600,247.600 488.790,247.600 487.800 C 247.600 485.818,247.421 485.524,247.052 486.900 " stroke="none" fill="#094caf" fill-rule="evenodd"></path><path id="path1" d="M166.100 370.812 C 165.211 371.170,164.966 372.124,165.443 373.367 C 165.870 374.480,233.003 374.316,233.600 373.200 C 234.095 372.276,233.600 371.039,232.578 370.647 C 231.544 370.250,167.100 370.411,166.100 370.812 M186.753 382.700 C 186.655 384.135,186.881 384.627,188.125 385.689 C 188.826 386.288,189.520 386.783,189.667 386.789 C 189.878 386.798,194.028 389.552,199.013 392.992 C 199.529 393.348,201.738 392.445,202.400 391.607 C 202.593 391.363,207.751 387.818,209.105 387.000 C 209.469 386.780,210.012 386.375,210.312 386.100 C 210.612 385.825,211.020 385.600,211.219 385.600 C 212.043 385.600,212.871 383.680,212.414 382.827 C 211.737 381.562,210.135 381.804,207.836 383.519 C 199.683 389.603,200.254 389.543,193.566 385.012 C 188.988 381.911,186.855 381.187,186.753 382.700 M165.384 392.100 C 165.278 392.375,165.239 402.860,165.296 415.400 L 165.400 438.200 199.800 438.200 L 234.200 438.200 234.303 415.445 C 234.412 391.540,234.416 391.600,232.631 391.600 C 230.953 391.600,230.800 392.219,230.800 399.000 C 230.800 403.476,230.654 405.586,230.320 405.920 C 229.972 406.268,227.016 406.400,219.532 406.400 C 209.882 406.400,209.123 406.453,207.634 407.229 C 205.746 408.213,202.800 411.375,202.800 412.417 C 202.800 412.822,202.620 413.264,202.400 413.400 C 202.180 413.536,202.000 414.796,202.000 416.200 C 202.000 417.604,202.180 418.864,202.400 419.000 C 202.620 419.136,202.800 419.571,202.800 419.967 C 202.800 421.103,205.822 424.241,207.905 425.266 C 209.704 426.153,210.325 426.210,220.200 426.400 L 230.600 426.600 230.600 430.400 L 230.600 434.200 199.600 434.200 L 168.600 434.200 168.391 413.000 C 168.276 401.340,168.141 391.755,168.091 391.700 C 167.779 391.358,165.541 391.689,165.384 392.100 M230.557 410.233 C 231.151 411.781,230.818 422.307,230.167 422.557 C 228.588 423.163,210.784 422.812,209.480 422.149 C 204.149 419.439,204.246 412.612,209.650 410.254 C 211.730 409.347,230.210 409.328,230.557 410.233 M212.245 414.518 C 211.157 415.313,211.527 417.492,212.889 418.315 C 214.967 419.569,217.402 416.571,215.770 414.767 C 214.971 413.884,213.275 413.764,212.245 414.518 M269.400 481.400 L 269.400 490.800 271.400 490.800 L 273.400 490.800 273.341 487.100 C 273.309 485.065,273.264 480.835,273.241 477.700 L 273.200 472.000 271.300 472.000 L 269.400 472.000 269.400 481.400 M92.800 474.311 C 92.800 474.922,93.115 475.867,93.500 476.411 C 94.228 477.439,95.026 479.851,95.548 482.600 C 95.716 483.480,96.066 484.593,96.326 485.074 C 96.587 485.554,96.800 486.412,96.800 486.979 C 96.800 487.547,96.967 488.323,97.171 488.705 C 97.375 489.087,97.644 489.726,97.768 490.126 C 98.184 491.458,100.570 490.873,100.731 489.400 C 100.803 488.740,101.028 488.029,101.231 487.820 C 101.679 487.358,101.724 485.600,101.288 485.600 C 100.910 485.600,100.037 483.520,99.610 481.600 C 97.866 473.768,97.550 473.200,94.939 473.200 C 92.867 473.200,92.800 473.235,92.800 474.311 M104.826 473.576 C 104.345 473.880,104.333 474.187,104.751 475.469 C 105.093 476.521,105.210 479.159,105.125 483.901 L 105.000 490.801 107.200 490.801 L 109.400 490.801 109.289 482.500 C 109.229 477.935,109.099 473.975,109.002 473.700 C 108.796 473.118,105.694 473.026,104.826 473.576 M132.258 473.794 C 132.132 474.120,132.281 474.885,132.587 475.494 C 133.226 476.764,134.400 480.621,134.400 481.451 C 134.400 481.759,134.559 482.323,134.753 482.705 C 135.199 483.584,136.001 486.572,136.281 488.400 C 136.703 491.159,139.134 491.912,139.961 489.540 C 140.507 487.974,140.532 485.711,140.006 485.533 C 139.789 485.460,139.442 484.590,139.235 483.600 C 139.028 482.610,138.567 480.720,138.211 479.400 C 137.855 478.080,137.382 476.284,137.160 475.410 C 136.606 473.232,132.937 472.022,132.258 473.794 M144.076 473.900 C 143.883 474.285,143.763 475.140,143.811 475.800 C 143.858 476.460,143.920 480.105,143.948 483.900 L 144.000 490.800 146.400 490.800 L 148.800 490.800 148.800 482.414 C 148.800 474.533,148.753 474.003,148.026 473.614 C 146.763 472.938,144.477 473.104,144.076 473.900 M213.806 473.700 C 213.587 474.352,213.491 475.251,213.562 476.000 C 213.639 476.824,215.179 474.839,215.191 473.900 C 215.201 473.103,214.063 472.939,213.806 473.700 M218.602 473.700 C 218.507 473.975,218.377 477.935,218.314 482.500 L 218.200 490.801 220.500 490.800 L 222.800 490.800 222.800 482.000 L 222.800 473.200 220.787 473.200 C 219.536 473.200,218.709 473.389,218.602 473.700 M226.000 473.925 C 226.000 474.323,226.344 475.019,226.765 475.470 C 227.186 475.922,227.611 476.721,227.711 477.246 C 227.811 477.776,227.915 477.383,227.946 476.362 C 227.985 475.039,227.795 474.338,227.269 473.862 C 226.327 473.010,226.000 473.026,226.000 473.925 M113.007 479.588 C 112.875 479.802,113.045 480.513,113.384 481.168 C 113.723 481.824,114.000 482.612,114.000 482.919 C 114.000 483.437,114.746 485.263,115.626 486.895 C 115.832 487.277,116.000 487.912,116.000 488.306 C 116.000 488.700,116.287 489.432,116.639 489.934 C 118.093 492.011,120.861 489.802,119.675 487.511 C 119.416 487.010,118.742 485.165,118.177 483.411 C 117.612 481.657,116.959 479.992,116.726 479.711 C 116.231 479.114,113.359 479.020,113.007 479.588 M154.103 480.099 C 151.142 482.168,151.069 487.913,153.977 489.984 C 156.154 491.534,156.235 491.354,156.176 485.120 C 156.118 478.968,156.029 478.752,154.103 480.099 M159.968 479.473 C 159.951 479.653,159.963 481.987,159.996 484.659 C 160.034 487.740,159.899 489.615,159.628 489.783 C 159.013 490.163,159.101 490.800,159.768 490.800 C 163.442 490.800,165.650 483.776,162.900 480.838 C 161.810 479.673,160.029 478.844,159.968 479.473 M167.423 479.649 C 167.318 479.952,167.180 482.585,167.116 485.501 L 167.000 490.801 169.054 490.801 L 171.107 490.800 171.285 485.300 C 171.383 482.275,171.413 479.734,171.352 479.653 C 170.973 479.157,167.595 479.154,167.423 479.649 M174.000 479.576 C 174.000 479.783,174.180 480.064,174.400 480.200 C 174.633 480.344,174.800 482.611,174.800 485.645 L 174.800 490.842 176.849 490.721 L 178.897 490.600 178.827 485.628 C 178.763 481.125,178.678 480.588,177.917 479.928 C 177.040 479.168,174.000 478.895,174.000 479.576 M184.907 479.506 C 179.526 480.395,181.158 490.870,186.662 490.773 C 187.974 490.750,188.080 490.687,187.380 490.347 C 185.906 489.631,185.036 483.237,186.042 480.514 C 186.415 479.506,186.178 479.297,184.907 479.506 M189.188 479.345 C 189.085 479.447,189.062 480.537,189.137 481.766 L 189.274 484.000 191.037 484.000 C 192.761 484.000,192.800 483.971,192.791 482.700 C 192.778 480.750,190.194 478.343,189.188 479.345 M195.397 479.605 C 195.259 479.828,195.429 480.576,195.773 481.267 C 196.118 481.958,196.400 482.821,196.400 483.185 C 196.400 483.549,196.664 484.196,196.987 484.624 C 197.310 485.051,197.580 485.769,197.587 486.220 C 197.594 486.671,197.766 487.211,197.969 487.420 C 198.171 487.629,198.495 488.419,198.688 489.176 C 199.161 491.033,200.859 491.581,201.780 490.174 C 202.486 489.097,202.591 487.766,202.000 487.400 C 201.780 487.264,201.599 486.848,201.598 486.476 C 201.596 486.104,201.326 485.284,200.998 484.654 C 200.669 484.024,200.400 483.179,200.400 482.777 C 200.400 480.289,196.502 477.818,195.397 479.605 M231.067 479.467 C 230.920 479.613,230.800 482.223,230.800 485.267 L 230.800 490.800 232.800 490.800 L 234.800 490.800 234.800 486.574 C 234.800 484.249,234.971 482.027,235.181 481.636 C 236.032 480.046,232.402 478.132,231.067 479.467 M238.400 480.120 C 238.400 480.626,238.214 481.226,237.987 481.453 C 237.270 482.170,238.003 483.200,239.229 483.200 C 241.002 483.200,241.840 481.097,240.571 479.829 C 239.605 478.862,238.400 479.023,238.400 480.120 M244.407 479.496 C 241.962 480.455,242.105 483.200,244.600 483.200 C 246.083 483.200,246.400 483.070,246.400 482.461 C 246.400 481.839,245.287 479.135,245.071 479.232 C 245.032 479.249,244.733 479.368,244.407 479.496 M248.763 479.450 C 248.742 479.643,248.741 481.945,248.761 484.566 C 248.803 490.311,249.067 490.800,252.124 490.800 C 254.036 490.800,254.095 490.768,253.462 490.069 C 252.937 489.488,252.800 488.492,252.800 485.252 C 252.800 481.860,252.677 481.034,252.075 480.388 C 251.305 479.562,248.825 478.860,248.763 479.450 M259.438 479.515 C 254.470 480.608,255.563 490.800,260.648 490.800 L 262.139 490.800 261.239 489.842 C 260.398 488.946,260.345 488.577,260.438 484.244 C 260.546 479.217,260.557 479.269,259.438 479.515 M264.239 479.494 C 264.108 479.626,264.000 480.153,264.000 480.667 C 264.000 481.180,263.820 481.600,263.600 481.600 C 262.724 481.600,263.221 483.190,264.171 483.428 C 267.182 484.184,268.079 480.533,265.139 479.490 C 264.776 479.361,264.371 479.363,264.239 479.494 M286.664 479.485 C 285.699 479.731,284.400 481.046,284.400 481.776 C 284.400 482.093,284.220 482.464,284.000 482.600 C 282.673 483.420,284.049 488.611,285.953 489.967 C 287.490 491.061,290.054 491.165,289.085 490.094 C 287.866 488.747,287.558 485.600,288.120 480.243 C 288.208 479.414,287.793 479.198,286.664 479.485 M291.097 479.499 C 291.013 479.664,291.019 480.745,291.111 481.900 L 291.277 484.000 292.851 484.000 C 294.978 484.000,295.453 482.350,293.897 480.366 C 293.340 479.656,291.332 479.033,291.097 479.499 M298.617 479.677 C 298.521 479.965,298.387 482.585,298.321 485.500 L 298.200 490.800 300.311 490.800 L 302.422 490.800 302.311 485.100 L 302.200 479.400 300.496 479.277 C 299.359 479.195,298.734 479.328,298.617 479.677 M305.477 480.734 C 304.538 482.864,304.617 483.200,306.056 483.200 C 308.070 483.200,309.106 481.163,307.771 479.829 C 306.789 478.846,306.209 479.075,305.477 480.734 M276.200 483.034 C 275.582 483.565,274.936 484.000,274.765 484.000 C 274.594 484.000,275.049 485.161,275.775 486.579 C 276.501 487.998,277.192 489.528,277.310 489.979 C 277.495 490.685,277.842 490.800,279.796 490.800 C 281.045 490.800,282.007 490.655,281.933 490.477 C 281.311 488.972,278.135 482.900,277.778 482.534 C 277.435 482.180,277.052 482.302,276.200 483.034 M243.800 485.893 C 242.303 486.267,241.817 488.960,243.029 490.171 C 243.908 491.051,246.981 491.047,246.643 490.167 C 246.509 489.819,246.400 488.649,246.400 487.567 C 246.400 485.474,246.142 485.308,243.800 485.893 M112.100 493.465 C 110.718 494.023,112.106 497.200,113.731 497.200 C 114.480 497.200,114.627 496.587,113.974 496.184 C 113.694 496.011,113.780 495.664,114.222 495.175 C 115.453 493.815,114.044 492.680,112.100 493.465 M194.480 493.680 C 193.716 494.444,193.922 495.900,194.889 496.577 C 196.089 497.418,196.505 497.361,196.199 496.398 C 196.030 495.865,196.155 495.515,196.572 495.355 C 197.387 495.043,197.383 493.756,196.567 493.443 C 195.618 493.078,195.013 493.147,194.480 493.680 " stroke="none" fill="#eef2f8" fill-rule="evenodd"></path><path id="path2" d="M165.054 370.429 C 164.474 370.885,164.006 371.650,164.013 372.129 C 164.026 373.063,165.052 374.682,165.406 374.328 C 165.523 374.210,165.345 373.886,165.010 373.608 C 164.139 372.886,164.256 371.875,165.326 370.870 L 166.252 370.000 199.664 370.000 C 236.859 370.000,234.828 369.848,234.304 372.589 C 234.154 373.375,234.225 373.511,234.614 373.189 C 235.242 372.667,234.966 371.529,233.947 370.435 C 232.723 369.122,166.723 369.116,165.054 370.429 M199.600 374.400 L 165.800 374.607 188.200 374.803 C 215.236 375.041,232.737 374.881,233.578 374.388 C 233.920 374.188,234.020 374.062,233.800 374.109 C 233.580 374.155,218.190 374.286,199.600 374.400 M187.326 381.207 C 184.962 382.149,185.453 386.400,187.926 386.400 C 188.187 386.400,188.400 386.580,188.400 386.800 C 188.400 387.020,188.602 387.200,188.849 387.200 C 189.159 387.200,189.144 387.015,188.800 386.600 C 188.526 386.270,188.058 386.000,187.760 386.000 C 186.872 386.000,185.881 384.127,186.167 382.989 C 186.616 381.200,188.220 380.968,190.470 382.367 C 192.701 383.754,192.969 383.728,191.100 382.305 C 189.467 381.062,188.440 380.763,187.326 381.207 M209.729 381.306 C 207.691 382.463,202.406 386.227,202.403 386.524 C 202.401 386.701,203.525 386.023,204.900 385.015 C 209.656 381.531,210.619 381.070,211.885 381.674 C 213.774 382.575,213.639 384.403,211.584 385.763 C 210.672 386.366,210.058 386.981,210.218 387.130 C 210.378 387.278,210.590 387.175,210.688 386.900 C 210.786 386.625,211.090 386.400,211.364 386.400 C 213.653 386.400,214.351 382.273,212.213 381.380 C 210.564 380.691,210.801 380.698,209.729 381.306 M192.800 383.763 C 192.800 384.055,198.907 388.000,199.359 388.000 C 199.601 388.000,198.286 387.010,196.436 385.800 C 193.099 383.617,192.800 383.449,192.800 383.763 M208.400 387.918 C 207.850 388.290,207.180 388.803,206.911 389.058 C 206.641 389.313,205.777 389.920,204.990 390.406 C 204.202 390.893,203.641 391.375,203.743 391.476 C 203.928 391.662,209.600 387.684,209.600 387.368 C 209.600 387.126,209.510 387.168,208.400 387.918 M191.600 388.727 C 191.600 389.056,196.240 392.279,197.400 392.756 C 197.620 392.846,197.925 393.113,198.078 393.348 C 198.231 393.584,198.472 393.662,198.613 393.521 C 198.753 393.380,197.483 392.395,195.790 391.332 C 194.097 390.270,192.462 389.162,192.156 388.871 C 191.850 388.581,191.600 388.516,191.600 388.727 M166.000 390.800 C 165.544 391.095,165.709 391.189,166.686 391.194 C 168.809 391.204,168.800 391.114,168.800 413.150 C 168.800 426.320,168.942 433.640,169.200 433.800 C 169.837 434.194,169.740 393.656,169.100 392.299 C 168.415 390.845,166.993 390.158,166.000 390.800 M231.300 391.070 C 230.805 391.415,230.400 391.868,230.400 392.077 C 230.400 392.286,230.683 392.174,231.029 391.829 C 231.921 390.937,233.876 391.021,234.386 391.974 C 234.657 392.481,234.800 400.595,234.800 415.546 L 234.800 438.344 233.900 438.538 C 233.107 438.708,233.119 438.723,234.000 438.666 L 235.000 438.600 235.103 415.332 L 235.206 392.063 234.149 391.232 C 232.904 390.252,232.504 390.230,231.300 391.070 M164.446 391.745 C 163.581 392.787,164.032 438.574,164.908 438.654 C 165.403 438.699,165.433 438.662,165.008 438.530 C 164.258 438.297,164.071 393.362,164.814 391.974 C 165.294 391.076,165.100 390.956,164.446 391.745 M201.800 392.635 L 200.600 393.666 201.900 392.806 C 202.615 392.333,203.200 391.868,203.200 391.773 C 203.200 391.473,203.031 391.578,201.800 392.635 M229.994 399.000 L 229.800 405.000 219.733 405.200 C 214.195 405.310,209.575 405.490,209.465 405.600 C 209.355 405.710,213.886 405.743,219.533 405.672 C 225.180 405.602,229.940 405.408,230.111 405.241 C 230.282 405.074,230.370 402.252,230.305 398.969 L 230.188 393.000 229.994 399.000 M206.160 407.133 C 205.302 407.757,204.337 408.612,204.015 409.033 C 203.694 409.455,203.964 409.323,204.615 408.741 C 205.267 408.158,206.517 407.303,207.394 406.841 C 208.271 406.378,208.703 406.000,208.354 406.000 C 208.005 406.000,207.018 406.510,206.160 407.133 M202.396 411.206 C 201.924 411.869,201.596 412.584,201.669 412.794 C 201.741 413.004,202.190 412.461,202.667 411.588 C 203.698 409.698,203.584 409.537,202.396 411.206 M220.211 410.696 L 230.022 410.814 229.911 416.307 L 229.800 421.800 220.834 421.908 C 211.996 422.014,208.400 421.575,208.400 420.388 C 208.400 420.222,208.105 419.972,207.743 419.834 C 206.488 419.352,208.043 420.806,209.672 421.636 C 211.075 422.353,211.952 422.406,220.698 422.307 L 230.200 422.200 230.200 416.400 L 230.200 410.600 220.300 410.589 L 210.400 410.579 220.211 410.696 M208.246 411.635 C 206.131 413.299,205.278 416.893,206.587 418.624 C 206.910 419.051,207.180 419.186,207.187 418.924 C 207.194 418.662,207.020 418.336,206.800 418.200 C 205.533 417.417,206.716 413.353,208.677 411.748 C 210.081 410.599,209.693 410.497,208.246 411.635 M211.858 413.781 C 211.043 414.537,210.812 415.110,210.854 416.281 C 210.891 417.298,210.961 417.470,211.066 416.800 C 211.442 414.416,211.636 414.066,212.809 413.657 C 214.119 413.200,215.000 413.378,216.100 414.323 C 216.485 414.653,216.800 414.737,216.800 414.508 C 216.800 412.892,213.364 412.386,211.858 413.781 M201.328 416.000 C 201.328 417.430,201.401 418.015,201.489 417.300 C 201.578 416.585,201.578 415.415,201.489 414.700 C 201.401 413.985,201.328 414.570,201.328 416.000 M215.656 418.434 C 214.503 419.369,213.514 419.403,212.086 418.557 L 211.000 417.913 211.944 418.757 C 213.269 419.940,217.970 419.030,216.757 417.824 C 216.670 417.739,216.175 418.013,215.656 418.434 M202.400 421.051 C 202.400 422.647,208.544 427.589,209.428 426.705 C 209.537 426.597,209.035 426.272,208.313 425.984 C 206.291 425.178,204.839 424.047,203.564 422.287 C 202.924 421.403,202.400 420.847,202.400 421.051 M220.129 427.100 L 230.058 427.214 229.929 430.608 C 229.858 432.475,229.935 434.001,230.100 434.001 C 230.265 434.000,230.400 432.380,230.400 430.400 L 230.400 426.800 220.300 426.893 L 210.200 426.985 220.129 427.100 M268.011 471.985 C 267.507 472.304,267.521 472.395,268.111 472.621 C 268.920 472.932,269.189 489.712,268.393 490.204 C 267.946 490.481,268.240 491.200,268.801 491.200 C 268.997 491.200,269.156 486.821,269.156 481.400 C 269.156 476.010,269.031 471.603,268.878 471.606 C 268.725 471.609,268.335 471.780,268.011 471.985 M273.590 471.863 C 273.840 471.988,274.000 474.220,274.000 477.600 C 274.000 483.702,274.222 484.225,276.076 482.498 C 277.288 481.370,278.208 481.501,278.819 482.891 C 279.202 483.763,279.210 483.757,279.018 482.766 C 278.817 481.725,280.433 479.839,282.283 478.957 C 282.790 478.714,282.315 478.577,280.655 478.486 C 278.084 478.345,277.655 478.502,278.341 479.329 C 278.702 479.764,278.385 480.225,276.809 481.553 C 274.399 483.586,274.443 483.673,274.298 476.633 C 274.226 473.152,274.062 471.838,273.690 471.763 C 273.410 471.706,273.365 471.752,273.590 471.863 M91.500 472.676 C 90.642 472.900,90.608 473.343,91.400 474.000 C 92.463 474.882,92.271 489.427,91.189 490.006 C 90.210 490.530,90.513 491.202,91.724 491.194 C 92.368 491.189,92.456 491.097,92.057 490.844 C 91.655 490.589,91.636 490.425,91.983 490.210 C 92.323 490.001,92.428 487.580,92.365 481.460 L 92.278 473.000 94.951 472.881 L 97.623 472.763 98.196 474.081 C 98.764 475.390,98.769 475.392,98.784 474.314 C 98.809 472.630,94.975 471.768,91.500 472.676 M104.157 472.851 C 103.490 473.896,102.812 476.205,102.806 477.454 C 102.803 478.144,102.531 479.224,102.202 479.854 C 101.874 480.484,101.594 481.720,101.581 482.600 L 101.556 484.200 100.801 481.800 C 100.386 480.480,99.763 478.500,99.417 477.400 C 99.071 476.300,98.864 475.940,98.957 476.600 C 99.287 478.929,100.275 482.288,101.178 484.154 C 102.069 485.994,102.084 486.439,101.355 489.200 C 101.171 489.896,101.220 490.079,101.515 489.800 C 101.988 489.353,102.771 485.995,103.077 483.100 C 103.187 482.055,103.440 481.301,103.639 481.424 C 104.135 481.731,104.099 489.491,103.600 489.800 C 102.843 490.268,103.183 491.201,104.100 491.172 C 104.892 491.147,104.911 491.109,104.261 490.853 C 103.590 490.589,103.581 490.514,104.161 490.032 C 104.702 489.584,104.790 488.541,104.736 483.251 C 104.701 479.813,104.599 477.585,104.511 478.300 C 104.413 479.089,104.123 479.600,103.775 479.600 C 103.114 479.600,102.944 476.424,103.569 475.780 C 103.772 475.571,103.997 474.860,104.069 474.200 C 104.193 473.067,104.310 472.993,106.173 472.875 C 110.061 472.629,109.816 472.050,109.684 481.178 C 109.612 486.152,109.725 489.485,109.981 489.964 C 110.282 490.527,110.259 490.790,109.897 490.936 C 109.595 491.058,109.665 491.149,110.076 491.168 C 111.043 491.214,111.434 490.363,110.649 489.923 C 109.719 489.403,109.735 474.990,110.666 473.940 C 111.500 473.000,110.841 472.708,107.388 472.487 C 105.225 472.348,104.421 472.438,104.157 472.851 M130.832 472.838 C 130.093 473.133,129.975 473.335,130.332 473.692 C 131.095 474.455,130.978 489.354,130.204 489.996 C 129.316 490.734,129.856 491.200,131.600 491.200 C 133.300 491.200,134.093 490.508,133.056 489.927 C 132.493 489.612,132.408 488.781,132.454 484.080 C 132.484 481.066,132.587 479.005,132.682 479.500 C 132.778 479.995,133.003 480.400,133.182 480.400 C 133.362 480.400,133.630 481.206,133.778 482.191 C 133.925 483.176,134.246 484.105,134.491 484.256 C 134.784 484.438,134.844 484.292,134.666 483.828 C 134.518 483.442,134.285 482.647,134.149 482.063 C 133.623 479.804,132.495 476.759,132.156 476.681 C 131.418 476.513,131.510 489.237,132.252 490.057 C 132.894 490.767,132.865 490.800,131.613 490.800 C 130.534 490.800,130.384 490.701,130.767 490.240 C 131.096 489.844,131.198 487.262,131.116 481.422 C 130.983 471.989,130.704 472.641,134.779 472.876 L 136.915 473.000 137.492 474.800 C 137.810 475.790,138.213 477.230,138.389 478.000 C 138.650 479.146,138.716 479.216,138.754 478.385 C 138.798 477.411,137.734 473.944,137.070 472.900 C 136.691 472.303,132.280 472.259,130.832 472.838 M143.200 473.200 C 142.671 473.729,142.400 474.533,142.400 475.576 C 142.400 476.443,142.220 477.264,142.000 477.400 C 141.780 477.536,141.613 478.132,141.628 478.724 C 141.653 479.685,141.693 479.714,142.000 479.000 C 142.254 478.410,142.346 478.725,142.354 480.200 L 142.364 482.200 141.814 481.000 C 141.275 479.821,141.264 479.818,141.220 480.800 C 141.162 482.070,140.175 483.477,139.872 482.721 C 139.757 482.435,139.649 482.594,139.632 483.076 C 139.591 484.195,140.232 484.613,140.585 483.698 C 141.129 482.286,141.688 484.220,141.221 485.899 C 140.706 487.755,140.694 488.387,141.189 487.603 C 141.397 487.275,141.685 486.058,141.830 484.898 C 141.975 483.738,142.252 482.691,142.447 482.571 C 142.641 482.451,142.803 481.508,142.806 480.476 C 142.811 479.117,142.919 478.765,143.200 479.200 C 143.503 479.669,143.589 479.566,143.594 478.724 C 143.597 478.132,143.420 477.536,143.200 477.400 C 142.585 477.020,142.726 474.684,143.423 473.689 C 144.324 472.403,148.664 472.362,149.135 473.635 C 149.411 474.382,149.499 474.404,149.965 473.842 C 151.203 472.350,144.670 471.730,143.200 473.200 M213.020 472.936 C 211.926 473.736,211.825 479.304,212.900 479.519 C 213.309 479.601,213.600 479.418,213.600 479.078 C 213.600 478.759,213.870 478.274,214.200 478.000 C 214.530 477.726,214.794 477.209,214.788 476.851 C 214.780 476.483,214.374 476.852,213.853 477.699 C 212.671 479.622,212.431 479.328,212.694 476.274 C 213.000 472.708,212.691 472.842,220.530 472.873 C 228.516 472.905,228.400 472.855,228.400 476.249 C 228.400 479.196,228.017 479.455,226.998 477.196 C 226.600 476.314,226.211 475.656,226.133 475.734 C 225.803 476.064,227.700 479.634,228.129 479.492 C 228.984 479.209,228.973 473.319,228.116 472.871 C 226.886 472.226,213.913 472.283,213.020 472.936 M215.854 474.429 C 215.274 474.885,214.800 475.468,214.800 475.725 C 214.800 475.982,215.261 475.695,215.824 475.087 C 216.388 474.480,217.045 474.104,217.286 474.253 C 217.548 474.415,217.609 474.339,217.438 474.062 C 217.069 473.464,217.087 473.459,215.854 474.429 M223.467 473.867 C 222.611 474.722,223.202 490.075,224.100 490.315 C 224.999 490.555,224.999 490.555,224.000 490.858 L 223.000 491.161 223.969 491.081 C 225.175 490.980,225.596 490.000,224.433 490.000 C 223.617 490.000,223.600 489.840,223.600 482.000 C 223.600 474.219,223.985 472.099,224.945 474.600 C 225.071 474.930,225.388 475.200,225.649 475.200 C 225.932 475.200,225.832 474.877,225.400 474.400 C 224.663 473.585,223.946 473.387,223.467 473.867 M93.443 478.633 C 92.996 479.798,93.171 489.935,93.643 490.226 C 93.951 490.417,93.921 490.604,93.543 490.844 C 93.120 491.112,93.155 491.189,93.700 491.194 C 94.450 491.200,94.663 490.210,94.000 489.800 C 93.762 489.653,93.619 487.414,93.646 484.276 C 93.676 480.793,93.792 479.517,93.986 480.520 C 94.148 481.357,94.514 482.257,94.799 482.520 C 95.216 482.906,95.257 482.843,95.010 482.200 C 94.841 481.760,94.530 480.635,94.319 479.700 C 93.895 477.823,93.799 477.705,93.443 478.633 M154.613 478.683 C 152.660 479.725,151.200 481.628,151.200 483.130 C 151.200 483.482,151.605 482.977,152.100 482.008 C 153.133 479.987,154.402 478.978,156.400 478.589 C 157.545 478.365,157.709 478.411,157.300 478.838 C 156.549 479.622,156.699 480.082,157.556 479.624 C 158.469 479.135,158.685 479.724,159.020 483.600 C 159.344 487.350,158.814 489.809,157.690 489.769 C 157.022 489.746,156.917 489.859,157.244 490.253 C 157.570 490.645,157.402 490.835,156.535 491.053 L 155.400 491.340 156.553 491.649 C 158.140 492.076,160.557 491.624,159.258 491.143 C 158.413 490.831,158.400 490.760,158.986 489.627 C 159.735 488.179,159.809 483.194,159.120 480.619 C 158.857 479.633,158.763 478.704,158.912 478.555 C 159.486 477.981,162.869 479.694,163.632 480.946 C 164.066 481.657,164.398 481.927,164.399 481.570 C 164.405 479.014,157.700 477.037,154.613 478.683 M173.045 478.597 C 172.515 478.998,172.075 479.054,171.571 478.785 C 170.458 478.189,164.916 478.276,165.520 478.880 C 166.129 479.489,166.196 489.832,165.593 490.204 C 165.028 490.553,165.506 491.201,166.324 491.194 C 166.709 491.190,166.828 491.061,166.600 490.894 C 166.349 490.709,166.274 488.441,166.400 484.800 L 166.600 479.000 168.757 478.877 C 169.944 478.810,171.105 478.945,171.337 479.177 C 171.943 479.783,173.020 479.699,173.600 479.000 C 174.363 478.081,176.365 478.279,177.862 479.420 C 178.598 479.982,179.200 480.269,179.200 480.060 C 179.200 478.617,174.495 477.499,173.045 478.597 M184.371 478.791 C 183.586 479.206,182.689 479.873,182.378 480.273 C 181.840 480.967,181.851 480.969,182.622 480.315 C 185.459 477.909,189.859 477.810,192.300 480.096 C 193.240 480.977,193.586 480.729,192.680 479.823 C 190.806 477.949,186.886 477.461,184.371 478.791 M237.016 478.374 C 236.884 478.588,235.293 478.650,233.293 478.520 L 229.800 478.293 229.931 483.969 C 230.022 487.939,229.918 489.816,229.586 490.217 C 229.090 490.815,230.130 491.603,230.684 491.049 C 230.821 490.912,230.768 490.800,230.567 490.801 C 230.352 490.801,230.283 488.356,230.400 484.901 L 230.600 479.000 232.531 478.877 C 233.603 478.808,234.713 478.962,235.026 479.222 C 235.336 479.479,235.856 479.587,236.182 479.462 C 236.959 479.164,237.376 479.856,236.673 480.275 C 235.404 481.033,234.493 489.116,235.600 489.800 C 236.218 490.182,236.074 490.722,235.300 490.924 C 234.759 491.066,234.800 491.118,235.476 491.154 C 236.527 491.209,237.065 490.505,236.445 489.885 C 236.183 489.623,236.000 487.927,236.000 485.753 C 236.000 481.687,236.441 479.599,236.794 481.991 C 237.133 484.284,241.246 484.811,241.473 482.592 C 241.537 481.966,241.511 481.947,241.348 482.500 C 240.741 484.557,236.983 483.779,237.386 481.680 C 237.543 480.866,237.657 479.795,237.640 479.300 C 237.593 477.950,239.668 478.052,240.771 479.454 C 241.317 480.148,241.600 480.300,241.600 479.900 C 241.600 478.577,237.694 477.277,237.016 478.374 M243.500 479.055 C 241.698 480.205,241.311 482.763,242.800 483.693 C 243.624 484.207,243.898 485.200,243.216 485.200 C 242.380 485.200,241.200 486.998,241.200 488.271 C 241.200 489.554,242.189 491.200,242.959 491.200 C 243.168 491.200,242.948 490.783,242.470 490.274 C 240.276 487.939,241.963 485.482,246.200 484.840 L 247.800 484.597 247.820 481.625 C 247.834 479.699,248.008 478.597,248.317 478.494 C 249.122 478.226,251.727 479.270,252.470 480.158 C 252.857 480.621,253.179 480.857,253.187 480.683 C 253.205 480.237,251.954 478.988,250.981 478.484 C 249.421 477.674,245.155 478.000,243.500 479.055 M259.000 478.694 C 257.326 479.544,255.998 480.823,256.012 481.570 C 256.021 482.050,256.134 482.009,256.483 481.400 C 258.117 478.551,262.960 477.498,265.744 479.388 C 266.545 479.931,267.200 480.219,267.200 480.027 C 267.200 478.384,261.451 477.450,259.000 478.694 M286.800 478.642 C 286.100 479.071,286.040 479.178,286.600 478.999 C 289.785 477.980,293.275 478.630,294.573 480.483 C 294.918 480.975,295.200 481.189,295.200 480.959 C 295.200 480.485,293.846 479.249,292.505 478.500 C 291.279 477.815,288.016 477.896,286.800 478.642 M304.055 478.646 C 303.376 479.122,303.015 479.175,302.686 478.846 C 302.146 478.306,296.400 478.242,296.400 478.776 C 296.400 478.983,296.580 479.264,296.800 479.400 C 297.507 479.837,297.310 489.411,296.581 490.016 C 296.087 490.426,296.067 490.596,296.481 490.859 C 297.130 491.270,298.357 491.303,297.800 490.894 C 297.549 490.709,297.474 488.441,297.600 484.800 L 297.800 479.000 299.852 478.881 C 302.377 478.734,303.376 479.488,302.989 481.249 C 302.783 482.189,302.852 482.355,303.368 482.157 C 303.750 482.010,304.007 482.129,304.018 482.457 C 304.027 482.756,304.293 482.280,304.609 481.400 C 304.924 480.520,305.084 479.485,304.964 479.100 C 304.650 478.092,306.404 478.174,307.746 479.229 C 309.718 480.780,308.840 483.325,306.200 483.707 L 305.000 483.880 306.300 483.940 C 309.055 484.067,310.195 480.955,308.104 479.016 C 306.846 477.849,305.384 477.716,304.055 478.646 M111.606 478.700 C 111.613 479.031,112.422 481.238,113.109 482.800 C 113.363 483.377,113.560 483.538,113.575 483.180 C 113.589 482.839,113.426 482.386,113.214 482.174 C 113.002 481.962,112.777 481.161,112.714 480.394 L 112.600 479.000 115.000 479.000 L 117.400 479.000 117.860 480.864 C 118.409 483.088,119.168 484.609,119.188 483.524 C 119.195 483.152,119.041 482.749,118.846 482.629 C 118.309 482.297,118.047 479.893,118.462 479.100 C 118.798 478.458,118.529 478.400,115.214 478.400 C 113.226 478.400,111.603 478.535,111.606 478.700 M121.888 479.979 C 122.039 481.106,121.918 481.739,121.467 482.190 C 121.119 482.538,120.936 483.090,121.062 483.417 C 121.361 484.197,120.428 485.296,119.702 485.018 C 119.361 484.887,119.200 485.000,119.301 485.300 C 119.393 485.575,119.813 485.808,120.234 485.819 C 121.041 485.838,121.061 485.930,120.635 487.734 C 120.460 488.476,120.512 488.778,120.784 488.610 C 121.013 488.468,121.200 488.076,121.200 487.737 C 121.200 487.398,121.440 486.554,121.734 485.860 C 122.664 483.666,123.285 481.836,123.496 480.668 C 123.608 480.046,123.948 479.442,124.250 479.325 C 125.331 478.911,124.773 478.400,123.238 478.400 L 121.676 478.400 121.888 479.979 M193.695 478.700 C 194.134 479.623,194.780 481.160,195.213 482.313 C 195.914 484.173,196.081 483.699,195.400 481.785 C 194.401 478.982,194.505 478.800,197.100 478.802 C 199.377 478.804,199.406 478.819,200.035 480.302 L 200.671 481.800 200.642 480.100 L 200.614 478.400 197.083 478.400 C 195.141 478.400,193.617 478.535,193.695 478.700 M204.000 478.605 C 204.000 478.718,204.212 479.151,204.472 479.566 C 204.849 480.171,204.809 480.526,204.272 481.347 C 203.902 481.911,203.600 482.672,203.600 483.039 C 203.600 483.405,203.219 484.321,202.754 485.074 C 202.289 485.826,202.015 486.548,202.145 486.678 C 202.275 486.808,202.495 486.619,202.633 486.257 C 202.772 485.896,203.046 485.600,203.243 485.600 C 203.706 485.600,203.709 487.086,203.246 487.371 C 203.051 487.492,202.798 488.087,202.684 488.695 C 202.157 491.488,200.800 494.061,200.800 492.267 C 200.800 491.680,200.637 491.200,200.437 491.200 C 200.238 491.200,200.164 491.542,200.273 491.959 C 200.574 493.109,197.953 496.895,197.436 496.058 C 197.299 495.836,197.370 495.542,197.593 495.404 C 197.817 495.266,198.000 494.949,198.000 494.700 C 198.000 494.235,196.836 495.582,196.813 496.073 C 196.806 496.223,197.205 496.480,197.700 496.644 L 198.600 496.941 197.600 497.231 L 196.600 497.520 197.600 497.547 C 199.213 497.590,202.000 494.224,202.000 492.233 C 202.000 491.935,202.269 491.176,202.598 490.546 C 202.926 489.916,203.196 489.096,203.198 488.724 C 203.199 488.352,203.380 487.936,203.600 487.800 C 203.820 487.664,204.006 487.068,204.013 486.476 C 204.020 485.884,204.290 485.051,204.613 484.624 C 204.936 484.196,205.200 483.442,205.200 482.947 C 205.200 482.452,205.380 481.936,205.600 481.800 C 205.820 481.664,206.000 481.124,206.000 480.600 C 206.000 480.076,206.180 479.536,206.400 479.400 C 207.233 478.885,206.748 478.400,205.400 478.400 C 204.630 478.400,204.000 478.492,204.000 478.605 M246.194 479.219 C 246.051 479.670,246.112 480.255,246.329 480.519 C 246.546 480.784,246.807 481.360,246.909 481.800 C 247.029 482.316,247.063 482.245,247.007 481.600 C 246.959 481.050,246.848 480.420,246.760 480.200 C 246.672 479.980,246.780 479.710,247.000 479.600 C 247.240 479.480,247.448 480.402,247.519 481.900 L 247.638 484.400 246.319 484.394 C 245.363 484.389,245.159 484.287,245.580 484.021 C 245.993 483.760,245.647 483.617,244.380 483.527 C 241.465 483.319,241.612 480.257,244.600 478.954 C 246.254 478.234,246.494 478.274,246.194 479.219 M261.410 479.980 C 261.075 480.629,260.814 481.484,260.832 481.880 C 260.849 482.276,261.134 481.835,261.465 480.900 C 262.082 479.155,262.660 478.822,263.544 479.700 C 263.948 480.101,263.995 480.061,263.781 479.500 C 263.366 478.409,262.089 478.667,261.410 479.980 M289.200 479.200 C 288.715 479.514,288.772 479.589,289.500 479.594 C 289.995 479.597,290.400 479.420,290.400 479.200 C 290.400 478.699,289.976 478.699,289.200 479.200 M187.500 479.612 C 188.697 480.094,188.884 483.751,187.700 483.526 C 187.201 483.431,186.935 482.877,186.774 481.596 C 186.645 480.565,186.548 481.673,186.548 484.200 C 186.548 486.969,186.631 487.859,186.774 486.600 L 187.000 484.600 190.020 484.737 C 193.574 484.898,194.375 484.407,193.648 482.513 C 193.344 481.722,193.231 481.631,193.256 482.200 C 193.354 484.376,193.328 484.400,190.838 484.400 L 188.476 484.400 188.687 482.824 C 189.000 480.494,188.569 479.195,187.492 479.225 L 186.600 479.251 187.500 479.612 M205.476 481.100 C 205.375 481.485,205.293 481.170,205.293 480.400 C 205.293 479.630,205.375 479.315,205.476 479.700 C 205.576 480.085,205.576 480.715,205.476 481.100 M138.828 479.876 C 138.918 480.915,139.544 481.796,139.572 480.924 C 139.587 480.442,139.420 479.936,139.200 479.800 C 138.980 479.664,138.813 479.698,138.828 479.876 M172.011 481.173 C 171.700 481.924,171.575 483.863,171.663 486.573 C 171.741 488.969,171.641 490.801,171.433 490.800 C 171.232 490.800,171.173 490.906,171.303 491.037 C 171.433 491.167,171.847 491.102,172.221 490.892 C 172.683 490.634,172.757 490.421,172.451 490.232 C 171.817 489.839,171.842 481.918,172.480 481.280 C 173.481 480.279,173.638 480.944,173.574 485.900 C 173.512 490.605,173.565 491.007,174.254 491.093 C 174.664 491.144,174.820 491.099,174.600 490.993 C 174.354 490.874,174.255 488.946,174.342 485.992 C 174.443 482.594,174.341 481.010,173.993 480.592 C 173.237 479.681,172.545 479.884,172.011 481.173 M288.559 484.400 C 288.550 487.087,288.626 487.880,288.772 486.600 L 289.000 484.600 292.020 484.737 C 295.514 484.896,296.328 484.410,295.759 482.505 C 295.437 481.424,295.427 481.433,295.291 482.900 L 295.152 484.400 292.835 484.400 L 290.517 484.400 290.604 482.500 C 290.661 481.252,290.633 481.114,290.522 482.100 C 290.266 484.383,288.897 484.232,288.710 481.900 C 288.635 480.965,288.567 482.090,288.559 484.400 M102.698 483.300 C 102.560 484.090,102.503 484.115,102.227 483.499 C 102.055 483.114,102.056 482.304,102.229 481.699 C 102.608 480.377,102.985 481.661,102.698 483.300 M179.336 486.119 C 179.325 490.395,179.417 491.202,179.894 491.019 C 180.208 490.899,180.569 490.800,180.695 490.800 C 180.821 490.800,180.633 490.478,180.276 490.084 C 179.789 489.546,179.594 488.332,179.489 485.184 C 179.355 481.179,179.348 481.220,179.336 486.119 M262.880 481.280 C 261.155 483.005,264.512 485.752,266.500 484.243 C 267.610 483.400,267.313 483.172,266.050 483.897 C 264.093 485.020,261.752 482.808,263.280 481.280 C 263.544 481.016,263.670 480.800,263.560 480.800 C 263.450 480.800,263.144 481.016,262.880 481.280 M253.278 485.280 C 253.212 488.885,253.304 489.618,253.856 489.927 C 254.997 490.566,254.028 491.200,251.910 491.200 C 250.786 491.200,249.978 491.311,250.114 491.447 C 251.320 492.654,255.200 491.063,255.200 489.362 C 255.200 488.859,255.380 488.336,255.600 488.200 C 255.820 488.064,256.000 488.200,256.000 488.502 C 256.000 489.143,258.289 491.445,258.608 491.125 C 258.727 491.006,258.370 490.610,257.815 490.246 C 256.347 489.285,255.504 487.002,255.699 484.519 C 255.789 483.374,255.714 482.530,255.531 482.642 C 255.349 482.755,255.200 483.640,255.200 484.610 C 255.200 485.580,254.885 487.036,254.500 487.847 L 253.800 489.321 253.578 485.161 L 253.357 481.000 253.278 485.280 M283.232 481.939 C 281.776 484.660,283.747 490.721,286.219 491.124 C 286.808 491.220,286.722 491.061,285.866 490.475 C 283.518 488.869,282.145 483.615,283.673 482.087 C 283.934 481.826,284.038 481.505,283.906 481.372 C 283.773 481.240,283.470 481.495,283.232 481.939 M156.542 485.000 C 156.541 486.980,156.608 487.840,156.692 486.912 C 156.776 485.984,156.777 484.364,156.695 483.312 C 156.612 482.260,156.543 483.020,156.542 485.000 M121.960 483.700 C 121.923 484.915,121.901 484.935,121.623 484.000 C 121.460 483.450,121.398 482.865,121.487 482.700 C 121.822 482.073,121.999 482.446,121.960 483.700 M180.928 484.800 C 180.928 486.230,181.001 486.815,181.089 486.100 C 181.178 485.385,181.178 484.215,181.089 483.500 C 181.001 482.785,180.928 483.370,180.928 484.800 M200.820 482.400 C 200.816 482.510,201.071 483.320,201.388 484.200 C 201.705 485.080,201.966 485.440,201.968 485.000 C 201.971 484.335,200.845 481.785,200.820 482.400 M164.412 484.800 C 164.412 486.366,164.524 486.827,164.800 486.400 C 165.013 486.070,165.188 485.350,165.188 484.800 C 165.188 484.250,165.013 483.530,164.800 483.200 C 164.524 482.773,164.412 483.234,164.412 484.800 M95.216 484.876 C 95.207 485.468,95.363 486.054,95.563 486.177 C 95.762 486.300,96.048 487.292,96.197 488.380 C 96.347 489.469,96.724 490.571,97.034 490.828 C 97.506 491.220,97.500 491.018,96.999 489.598 C 96.670 488.664,96.400 487.583,96.400 487.196 C 96.400 486.809,96.137 485.886,95.816 485.146 C 95.245 483.831,95.231 483.825,95.216 484.876 M113.600 484.510 C 113.600 484.863,113.780 485.264,114.000 485.400 C 114.220 485.536,114.400 485.895,114.400 486.198 C 114.400 486.970,115.184 488.949,115.404 488.730 C 115.591 488.542,114.198 484.465,113.816 484.083 C 113.697 483.964,113.600 484.156,113.600 484.510 M196.017 484.400 C 196.031 485.117,197.165 487.200,197.186 486.546 C 197.194 486.296,196.931 485.576,196.602 484.946 C 196.274 484.316,196.010 484.070,196.017 484.400 M280.320 486.289 C 280.966 487.658,281.783 489.220,282.136 489.759 C 282.618 490.494,282.656 490.790,282.290 490.939 C 281.926 491.086,281.922 491.145,282.276 491.168 C 282.924 491.211,283.398 490.372,282.906 490.055 C 282.688 489.915,281.934 488.630,281.229 487.200 C 280.525 485.770,279.768 484.420,279.548 484.200 C 279.328 483.980,279.675 484.920,280.320 486.289 M134.859 486.000 C 134.846 486.550,135.100 487.540,135.422 488.200 C 136.045 489.475,136.006 489.104,135.211 486.200 C 134.908 485.096,134.880 485.080,134.859 486.000 M246.828 486.467 C 246.855 487.345,246.877 487.353,247.200 486.600 C 247.459 485.998,247.551 486.270,247.572 487.700 C 247.591 488.965,247.433 489.602,247.100 489.606 C 246.738 489.611,246.752 489.709,247.151 489.961 C 248.125 490.578,247.207 491.199,245.276 491.228 C 243.956 491.248,243.635 491.348,244.191 491.565 C 245.151 491.940,247.605 491.439,248.009 490.786 C 248.218 490.447,248.377 490.439,248.574 490.757 C 248.724 491.001,249.048 491.200,249.293 491.200 C 249.539 491.200,249.360 490.795,248.896 490.300 C 248.366 489.734,248.006 488.744,247.927 487.631 C 247.797 485.813,246.776 484.731,246.828 486.467 M274.069 488.153 C 274.172 489.759,274.074 490.865,273.819 490.987 C 273.588 491.096,273.760 491.133,274.200 491.069 C 274.671 491.001,274.936 490.715,274.845 490.376 C 274.197 487.961,274.430 485.969,275.215 487.211 C 275.530 487.708,275.589 487.693,275.594 487.114 C 275.597 486.737,275.218 486.224,274.751 485.974 C 273.918 485.528,273.905 485.571,274.069 488.153 M151.228 487.076 C 151.213 487.558,151.380 488.064,151.600 488.200 C 152.073 488.492,152.073 488.101,151.600 487.000 C 151.269 486.229,151.255 486.231,151.228 487.076 M260.835 487.600 C 260.819 489.256,261.753 490.098,263.579 490.073 C 264.470 490.060,265.200 490.195,265.200 490.373 C 265.200 490.732,262.948 491.170,260.800 491.230 L 259.400 491.269 260.562 491.616 C 263.070 492.367,267.200 490.461,267.200 488.554 C 267.200 487.155,266.616 487.112,265.635 488.438 C 264.302 490.241,262.007 490.008,261.323 488.000 C 260.916 486.808,260.844 486.748,260.835 487.600 M197.216 487.705 C 197.207 488.093,197.367 488.723,197.571 489.105 C 197.775 489.487,198.039 490.115,198.158 490.500 C 198.277 490.885,198.606 491.186,198.887 491.168 C 199.289 491.144,199.292 491.093,198.900 490.935 C 198.625 490.824,198.400 490.499,198.400 490.213 C 198.400 489.384,197.233 486.914,197.216 487.705 M163.795 488.490 C 163.578 488.980,162.788 489.790,162.041 490.290 C 161.293 490.791,160.957 491.200,161.293 491.200 C 162.034 491.200,164.400 488.858,164.400 488.124 C 164.400 487.379,164.247 487.471,163.795 488.490 M181.203 487.887 C 181.199 488.519,183.881 491.201,184.513 491.197 C 184.781 491.196,184.485 490.855,183.857 490.441 C 183.228 490.026,182.374 489.172,181.959 488.543 C 181.545 487.915,181.204 487.619,181.203 487.887 M191.729 488.708 C 190.798 489.956,187.867 490.267,187.186 489.191 C 186.924 488.777,186.810 488.753,186.806 489.110 C 186.798 489.792,188.746 490.500,189.860 490.221 C 190.350 490.098,190.851 490.160,190.974 490.358 C 191.097 490.557,189.893 490.855,188.299 491.022 C 185.667 491.297,185.520 491.357,186.703 491.675 C 187.521 491.894,188.294 491.871,188.777 491.612 C 189.201 491.386,189.978 491.200,190.504 491.200 C 191.576 491.200,193.200 489.693,193.200 488.698 C 193.200 487.584,192.565 487.588,191.729 488.708 M275.600 488.296 C 275.600 488.547,275.780 488.864,276.000 489.000 C 276.220 489.136,276.400 489.687,276.400 490.224 C 276.400 490.761,276.567 491.200,276.772 491.200 C 277.000 491.200,277.003 490.707,276.779 489.927 C 276.392 488.577,275.600 487.482,275.600 488.296 M293.673 489.000 C 293.120 490.213,291.127 490.373,289.589 489.328 L 288.600 488.655 289.342 489.506 C 289.778 490.005,290.688 490.413,291.542 490.494 C 292.632 490.596,292.242 490.720,290.000 490.983 C 287.191 491.313,287.088 491.359,288.374 491.698 C 289.270 491.935,290.076 491.911,290.693 491.631 C 291.212 491.394,292.028 491.200,292.506 491.200 C 293.425 491.200,295.200 489.446,295.200 488.538 C 295.200 487.627,294.154 487.943,293.673 489.000 M140.446 489.420 C 140.421 489.871,140.184 490.456,139.920 490.720 C 139.547 491.093,139.549 491.200,139.933 491.200 C 140.554 491.200,140.925 490.268,140.680 489.323 C 140.519 488.699,140.486 488.713,140.446 489.420 M152.000 489.133 C 152.000 489.555,154.354 491.403,154.561 491.144 C 154.624 491.065,154.074 490.487,153.338 489.861 C 152.602 489.234,152.000 488.907,152.000 489.133 M115.606 489.876 C 115.603 490.358,115.792 490.871,116.027 491.016 C 116.682 491.421,116.717 491.098,116.139 490.000 C 115.633 489.041,115.612 489.036,115.606 489.876 M120.054 489.886 C 120.000 490.780,118.939 491.615,118.200 491.347 C 117.980 491.267,117.760 491.773,117.711 492.471 C 117.661 493.169,117.461 493.843,117.265 493.970 C 117.068 494.096,116.781 494.605,116.627 495.100 C 116.472 495.595,116.066 496.000,115.724 496.000 C 115.239 496.000,115.203 495.878,115.563 495.445 C 116.057 494.850,115.413 492.800,114.732 492.800 C 114.546 492.800,114.618 493.160,114.893 493.600 C 115.283 494.224,115.287 494.568,114.914 495.166 C 114.528 495.784,114.555 496.031,115.057 496.447 C 115.612 496.908,115.599 496.993,114.939 497.253 C 114.324 497.495,114.368 497.546,115.200 497.559 C 116.849 497.583,119.200 494.990,119.200 493.146 C 119.200 492.660,119.484 491.949,119.832 491.564 C 120.182 491.177,120.385 490.450,120.287 489.933 C 120.113 489.023,120.108 489.021,120.054 489.886 M142.852 490.137 C 142.341 490.752,142.646 491.203,143.567 491.194 C 144.082 491.189,144.097 491.123,143.649 490.839 C 143.346 490.647,143.221 490.289,143.372 490.045 C 143.756 489.423,143.391 489.488,142.852 490.137 M149.374 489.945 C 149.576 490.280,149.490 490.624,149.151 490.839 C 148.711 491.117,148.736 491.189,149.276 491.194 C 150.267 491.203,150.491 490.571,149.719 489.945 C 149.152 489.486,149.098 489.486,149.374 489.945 M216.477 489.885 C 215.203 490.129,215.602 490.984,217.031 491.072 C 217.674 491.111,217.875 491.051,217.479 490.938 C 216.907 490.776,216.855 490.616,217.228 490.167 C 217.486 489.855,217.631 489.625,217.549 489.654 C 217.467 489.684,216.985 489.788,216.477 489.885 M302.682 490.410 C 302.463 491.247,303.014 491.432,303.954 490.837 C 304.400 490.555,304.350 490.401,303.698 490.053 C 303.025 489.692,302.853 489.752,302.682 490.410 M98.500 491.476 C 98.885 491.576,99.515 491.576,99.900 491.476 C 100.285 491.375,99.970 491.293,99.200 491.293 C 98.430 491.293,98.115 491.375,98.500 491.476 M219.507 491.490 C 220.226 491.579,221.306 491.577,221.907 491.486 C 222.508 491.395,221.920 491.322,220.600 491.324 C 219.280 491.326,218.788 491.401,219.507 491.490 M118.632 493.901 C 118.171 494.363,117.934 493.640,118.249 492.730 L 118.571 491.800 118.718 492.734 C 118.798 493.248,118.760 493.773,118.632 493.901 M194.566 492.651 C 192.533 493.706,192.204 495.301,193.726 496.730 C 195.001 497.928,195.395 497.831,194.182 496.618 C 192.097 494.533,194.209 491.813,196.826 493.214 C 197.911 493.794,197.793 493.418,196.657 492.674 C 195.817 492.124,195.587 492.122,194.566 492.651 M110.639 494.336 C 110.215 495.023,111.580 497.600,112.367 497.600 C 112.817 497.600,112.788 497.480,112.242 497.080 C 111.852 496.795,111.405 495.941,111.250 495.183 C 111.056 494.233,110.866 493.970,110.639 494.336 M117.994 494.700 C 117.976 495.577,117.212 496.159,117.206 495.300 C 117.203 494.805,117.380 494.400,117.600 494.400 C 117.820 494.400,117.997 494.535,117.994 494.700 " stroke="none" fill="#6088ca" fill-rule="evenodd"></path><path id="path3" d="M215.523 405.899 C 218.231 405.968,222.551 405.968,225.123 405.899 C 227.695 405.829,225.480 405.772,220.200 405.773 C 214.920 405.773,212.815 405.830,215.523 405.899 M204.575 408.900 L 203.400 410.200 204.700 409.025 C 205.415 408.379,206.000 407.794,206.000 407.725 C 206.000 407.416,205.670 407.688,204.575 408.900 M214.400 410.279 C 222.867 410.564,230.309 410.574,230.139 410.300 C 230.037 410.135,225.688 410.037,220.476 410.082 C 215.264 410.127,212.530 410.216,214.400 410.279 M184.930 434.300 C 193.251 434.360,206.751 434.360,214.930 434.300 C 223.108 434.239,216.300 434.190,199.800 434.190 C 183.300 434.190,176.608 434.239,184.930 434.300 M182.530 438.700 C 191.951 438.760,207.251 438.760,216.530 438.700 C 225.808 438.640,218.100 438.591,199.400 438.591 C 180.700 438.591,173.108 438.640,182.530 438.700 M273.782 477.567 C 273.797 482.344,273.903 483.362,274.400 483.498 C 274.832 483.615,274.863 483.564,274.512 483.314 C 274.179 483.078,273.982 481.191,273.894 477.384 L 273.764 471.800 273.782 477.567 M106.700 473.082 C 107.195 473.178,108.005 473.178,108.500 473.082 C 108.995 472.987,108.590 472.909,107.600 472.909 C 106.610 472.909,106.205 472.987,106.700 473.082 M132.200 473.039 C 134.041 473.338,137.111 473.378,136.939 473.100 C 136.836 472.935,135.548 472.825,134.076 472.854 C 132.604 472.884,131.760 472.967,132.200 473.039 M145.100 473.089 C 145.815 473.178,146.985 473.178,147.700 473.089 C 148.415 473.001,147.830 472.928,146.400 472.928 C 144.970 472.928,144.385 473.001,145.100 473.089 M214.300 473.082 C 214.795 473.178,215.605 473.178,216.100 473.082 C 216.595 472.987,216.190 472.909,215.200 472.909 C 214.210 472.909,213.805 472.987,214.300 473.082 M225.505 473.083 C 226.002 473.179,226.722 473.175,227.105 473.075 C 227.487 472.975,227.080 472.896,226.200 472.901 C 225.320 472.905,225.007 472.987,225.505 473.083 M148.969 481.600 C 148.969 486.110,149.027 487.955,149.098 485.700 C 149.170 483.445,149.170 479.755,149.098 477.500 C 149.027 475.245,148.969 477.090,148.969 481.600 M217.516 481.677 C 217.605 487.751,217.508 489.838,217.116 490.339 C 216.655 490.930,216.675 490.941,217.300 490.451 C 218.038 489.872,218.413 474.303,217.700 473.861 C 217.535 473.759,217.452 477.276,217.516 481.677 M131.246 481.638 C 131.201 489.302,131.220 489.493,132.100 490.238 L 133.000 491.000 132.290 490.157 C 131.315 489.000,131.407 476.513,132.389 476.730 C 132.875 476.837,132.864 476.732,132.330 476.130 C 131.974 475.728,131.595 475.040,131.488 474.600 C 131.381 474.160,131.272 477.327,131.246 481.638 M142.800 475.776 C 142.800 476.533,142.938 477.238,143.107 477.343 C 143.276 477.447,143.348 476.828,143.265 475.966 C 143.081 474.032,142.800 473.918,142.800 475.776 M103.467 475.867 C 103.320 476.013,103.215 476.598,103.234 477.167 C 103.268 478.181,103.275 478.179,103.621 477.020 C 103.985 475.803,103.931 475.402,103.467 475.867 M104.000 477.824 C 104.000 478.671,103.838 479.147,103.600 479.000 C 103.380 478.864,103.200 478.943,103.200 479.176 C 103.200 479.409,103.470 479.600,103.800 479.600 C 104.168 479.600,104.400 479.226,104.400 478.633 C 104.400 478.101,104.509 477.381,104.643 477.033 C 104.776 476.685,104.686 476.400,104.443 476.400 C 104.199 476.400,104.000 477.041,104.000 477.824 M186.278 478.657 C 186.540 478.764,186.705 479.065,186.643 479.326 C 186.582 479.587,186.607 479.665,186.699 479.500 C 186.972 479.012,188.316 479.158,188.535 479.700 C 188.661 480.012,188.749 479.949,188.768 479.533 C 188.786 479.167,189.025 478.776,189.300 478.665 C 189.575 478.554,188.900 478.463,187.800 478.463 C 186.700 478.463,186.015 478.551,186.278 478.657 M237.606 479.100 C 237.611 479.657,237.684 479.687,237.964 479.245 C 238.178 478.907,238.717 478.767,239.345 478.887 C 239.912 478.996,240.281 478.930,240.164 478.742 C 239.741 478.058,237.600 478.357,237.606 479.100 M245.606 479.300 C 245.611 480.028,245.686 480.085,246.000 479.600 C 246.501 478.824,246.501 478.400,246.000 478.400 C 245.780 478.400,245.603 478.805,245.606 479.300 M247.867 478.667 C 247.720 478.813,247.603 479.128,247.606 479.367 C 247.610 479.660,247.707 479.653,247.906 479.346 C 248.068 479.097,248.560 478.803,249.000 478.693 C 249.774 478.499,249.773 478.491,248.967 478.446 C 248.508 478.421,248.013 478.520,247.867 478.667 M260.700 478.665 C 260.975 478.776,261.205 479.167,261.212 479.533 C 261.223 480.135,261.264 480.132,261.632 479.500 C 262.096 478.703,263.453 478.558,263.693 479.280 C 263.793 479.580,263.951 479.505,264.114 479.080 C 264.340 478.491,264.094 478.404,262.287 478.432 C 261.139 478.449,260.425 478.554,260.700 478.665 M288.432 479.500 C 288.450 480.142,288.558 480.350,288.692 480.000 C 289.208 478.644,290.382 478.444,290.446 479.700 C 290.489 480.517,290.511 480.526,290.693 479.800 C 290.803 479.360,291.097 478.868,291.346 478.706 C 291.596 478.544,291.035 478.409,290.100 478.406 C 288.503 478.400,288.402 478.467,288.432 479.500 M304.957 479.561 C 304.981 480.199,305.151 480.629,305.335 480.516 C 305.519 480.402,305.583 479.979,305.477 479.574 C 305.371 479.169,305.491 478.754,305.742 478.651 C 305.994 478.548,305.911 478.449,305.557 478.432 C 305.099 478.409,304.927 478.732,304.957 479.561 M116.000 479.077 C 116.550 479.189,117.149 479.488,117.330 479.740 C 117.551 480.048,117.607 480.001,117.500 479.600 C 117.409 479.262,116.829 478.972,116.169 478.937 C 115.162 478.882,115.139 478.901,116.000 479.077 M166.575 479.322 C 166.464 479.609,166.431 482.084,166.501 484.822 L 166.627 489.800 166.714 484.529 C 166.790 479.889,166.884 479.237,167.500 479.076 C 168.156 478.904,168.155 478.890,167.487 478.846 C 167.096 478.821,166.685 479.035,166.575 479.322 M230.661 479.100 C 230.559 479.265,231.364 479.337,232.449 479.261 C 233.692 479.173,234.678 479.321,235.112 479.661 C 235.733 480.147,235.747 480.132,235.251 479.500 C 234.688 478.782,231.055 478.465,230.661 479.100 M297.775 479.322 C 297.664 479.609,297.631 482.084,297.701 484.822 L 297.827 489.800 297.914 484.521 L 298.000 479.242 300.100 479.095 L 302.200 478.948 300.087 478.874 C 298.662 478.824,297.910 478.970,297.775 479.322 M143.757 484.400 C 143.757 487.370,143.820 488.585,143.897 487.100 C 143.974 485.615,143.974 483.185,143.897 481.700 C 143.820 480.215,143.757 481.430,143.757 484.400 M248.072 482.313 C 248.011 484.093,247.861 484.477,247.115 484.753 L 246.230 485.081 247.115 485.554 C 247.817 485.930,248.014 486.418,248.070 487.914 L 248.140 489.800 248.294 488.070 C 248.381 487.096,248.242 486.092,247.975 485.770 C 247.612 485.332,247.611 485.068,247.974 484.631 C 248.248 484.301,248.383 483.250,248.295 482.131 L 248.144 480.200 248.072 482.313 M102.243 481.433 C 101.905 482.313,101.940 483.515,102.309 483.744 C 102.479 483.849,102.618 483.230,102.618 482.367 C 102.618 480.612,102.587 480.535,102.243 481.433 M302.548 486.000 C 302.548 488.310,302.614 489.255,302.695 488.100 C 302.776 486.945,302.776 485.055,302.695 483.900 C 302.614 482.745,302.548 483.690,302.548 486.000 M260.520 484.800 C 260.520 486.010,260.595 486.505,260.687 485.900 C 260.778 485.295,260.778 484.305,260.687 483.700 C 260.595 483.095,260.520 483.590,260.520 484.800 M273.674 487.300 L 273.748 489.800 273.895 487.690 C 273.977 486.516,274.209 485.682,274.417 485.810 C 274.622 485.937,274.684 485.762,274.553 485.421 C 274.024 484.043,273.604 484.942,273.674 487.300 M202.740 486.000 C 202.587 487.018,202.627 487.200,203.000 487.205 C 203.220 487.208,203.420 486.848,203.445 486.405 C 203.491 485.604,202.854 485.238,202.740 486.000 M246.493 488.400 C 246.493 489.170,246.575 489.485,246.676 489.100 C 246.776 488.715,246.776 488.085,246.676 487.700 C 246.575 487.315,246.493 487.630,246.493 488.400 M201.304 491.300 C 200.854 491.869,200.785 493.257,201.219 492.988 C 201.481 492.827,202.013 490.800,201.794 490.800 C 201.741 490.800,201.520 491.025,201.304 491.300 " stroke="none" fill="#84a4d4" fill-rule="evenodd"></path><path id="path4" d="M166.042 370.502 C 164.785 371.155,164.336 372.424,165.028 373.370 C 165.507 374.026,165.541 373.947,165.333 372.663 C 165.122 371.366,165.208 371.177,166.175 370.809 C 167.348 370.364,231.432 370.207,232.578 370.647 C 233.621 371.047,234.090 372.273,233.592 373.300 C 233.173 374.164,233.181 374.169,233.778 373.424 C 234.545 372.466,234.543 372.023,233.770 371.000 C 233.015 370.000,167.929 369.522,166.042 370.502 M182.730 374.300 C 192.041 374.360,207.161 374.360,216.330 374.300 C 225.498 374.240,217.880 374.191,199.400 374.191 C 180.920 374.191,173.418 374.240,182.730 374.300 M209.168 382.300 C 208.718 382.896,208.722 382.925,209.199 382.500 C 210.081 381.714,211.911 381.886,212.400 382.800 C 212.950 383.828,212.369 384.974,210.890 385.776 C 210.290 386.102,210.011 386.375,210.269 386.384 C 211.061 386.411,213.200 384.374,213.200 383.593 C 213.200 381.805,210.257 380.862,209.168 382.300 M190.494 382.903 C 191.855 384.045,194.201 385.449,193.881 384.931 C 193.750 384.719,192.689 383.970,191.522 383.266 C 190.135 382.429,189.779 382.303,190.494 382.903 M186.295 382.900 C 185.959 383.784,186.702 385.077,188.069 385.989 L 189.400 386.876 188.050 385.708 C 187.145 384.924,186.700 384.187,186.700 383.469 C 186.700 382.296,186.586 382.136,186.295 382.900 M205.529 384.730 C 202.187 387.069,201.576 387.681,204.200 386.060 C 206.124 384.872,208.814 382.812,208.400 382.844 C 208.290 382.853,206.998 383.701,205.529 384.730 M194.400 385.409 C 194.400 385.694,198.794 388.541,198.955 388.361 C 199.034 388.272,198.042 387.531,196.749 386.713 C 195.457 385.895,194.400 385.308,194.400 385.409 M208.400 387.400 C 208.122 387.735,208.079 388.000,208.302 388.000 C 208.522 388.000,208.926 387.730,209.200 387.400 C 209.478 387.065,209.521 386.800,209.298 386.800 C 209.078 386.800,208.674 387.070,208.400 387.400 M200.600 388.027 C 199.940 388.450,199.605 388.797,199.856 388.798 C 200.106 388.799,200.736 388.446,201.256 388.013 C 202.445 387.023,202.159 387.029,200.600 388.027 M191.769 388.351 C 191.901 388.563,192.921 389.298,194.038 389.986 C 195.155 390.673,195.962 391.061,195.831 390.849 C 195.699 390.637,194.679 389.902,193.562 389.214 C 192.445 388.527,191.638 388.139,191.769 388.351 M204.914 389.733 C 203.547 390.650,202.422 391.546,202.414 391.726 C 202.399 392.066,207.094 388.895,207.445 388.327 C 207.741 387.849,207.635 387.907,204.914 389.733 M165.021 392.111 C 164.269 393.260,164.248 438.016,165.000 438.267 C 165.264 438.355,165.400 430.456,165.400 415.100 L 165.400 391.800 166.557 391.668 C 167.203 391.594,167.878 391.771,168.087 392.068 C 168.384 392.490,168.428 392.476,168.300 392.000 C 168.015 390.940,165.738 391.017,165.021 392.111 M196.400 391.346 C 196.400 391.456,196.940 391.930,197.600 392.400 C 198.260 392.870,198.800 393.164,198.800 393.054 C 198.800 392.944,198.260 392.470,197.600 392.000 C 196.940 391.530,196.400 391.236,196.400 391.346 M231.168 391.900 C 230.718 392.496,230.722 392.525,231.199 392.100 C 231.942 391.438,233.389 391.464,233.958 392.149 C 234.289 392.549,234.384 398.897,234.307 415.511 C 234.248 428.058,234.335 438.240,234.500 438.138 C 235.258 437.670,234.837 392.557,234.069 391.862 C 233.118 391.002,231.835 391.018,231.168 391.900 M168.594 413.395 C 168.600 433.893,168.611 434.190,169.400 434.272 C 170.015 434.335,170.039 434.306,169.504 434.148 C 168.855 433.957,168.800 432.518,168.698 413.271 L 168.589 392.600 168.594 413.395 M230.489 399.300 C 230.440 402.765,230.355 405.637,230.300 405.683 C 230.245 405.729,225.520 405.870,219.800 405.996 L 209.400 406.227 219.651 406.313 C 232.025 406.418,230.859 407.175,230.699 399.146 L 230.578 393.000 230.489 399.300 M204.806 408.994 C 204.063 409.761,203.532 410.450,203.627 410.525 C 203.722 410.600,204.406 409.973,205.146 409.131 C 206.829 407.218,206.612 407.131,204.806 408.994 M210.537 409.906 C 210.283 410.068,214.603 410.200,220.137 410.200 L 230.200 410.200 230.416 416.400 L 230.632 422.600 230.716 416.733 C 230.762 413.506,230.691 410.581,230.557 410.233 C 230.297 409.554,211.572 409.249,210.537 409.906 M207.975 411.222 C 205.486 413.380,204.794 416.975,206.400 419.400 C 206.837 420.060,207.196 420.409,207.197 420.176 C 207.199 419.944,206.936 419.404,206.613 418.976 C 205.123 417.007,206.117 413.008,208.522 411.300 C 209.219 410.805,209.594 410.400,209.356 410.400 C 209.117 410.400,208.496 410.770,207.975 411.222 M212.176 414.222 C 211.426 414.823,211.430 414.830,212.274 414.422 C 214.228 413.478,216.034 414.235,216.512 416.200 C 216.701 416.975,216.709 416.975,216.754 416.170 C 216.863 414.207,213.815 412.910,212.176 414.222 M201.720 416.000 C 201.720 417.210,201.795 417.705,201.887 417.100 C 201.978 416.495,201.978 415.505,201.887 414.900 C 201.795 414.295,201.720 414.790,201.720 416.000 M211.344 416.355 C 211.385 417.339,211.673 417.872,212.400 418.304 L 213.400 418.898 212.527 418.149 C 212.047 417.737,211.572 416.860,211.471 416.200 C 211.302 415.098,211.292 415.111,211.344 416.355 M214.841 418.234 C 214.093 418.765,213.616 419.200,213.779 419.200 C 214.291 419.200,216.400 417.843,216.400 417.514 C 216.400 417.115,216.446 417.093,214.841 418.234 M203.394 421.800 C 204.033 422.940,207.116 425.600,207.799 425.600 C 207.976 425.600,207.401 425.079,206.522 424.443 C 205.644 423.806,204.429 422.681,203.823 421.943 C 202.755 420.641,202.742 420.637,203.394 421.800 M209.600 422.158 C 210.436 422.671,212.205 422.760,220.400 422.699 L 230.200 422.627 220.200 422.414 C 214.700 422.296,209.840 422.053,209.400 421.872 C 208.960 421.692,209.050 421.821,209.600 422.158 M220.800 426.696 L 230.400 426.814 230.400 430.374 C 230.400 432.406,230.224 434.021,229.990 434.137 C 229.764 434.248,229.810 434.293,230.090 434.237 C 230.460 434.162,230.600 433.099,230.600 430.367 L 230.600 426.600 220.900 426.589 L 211.200 426.578 220.800 426.696 M271.300 471.881 L 273.200 472.044 273.267 477.722 C 273.303 480.845,273.289 484.660,273.235 486.200 C 273.182 487.740,273.307 489.450,273.515 490.000 C 273.782 490.708,273.834 490.094,273.693 487.900 C 273.508 485.001,273.923 483.780,274.545 485.400 C 274.671 485.730,274.965 486.000,275.197 486.000 C 275.430 486.000,275.326 485.553,274.963 485.000 C 274.603 484.450,274.481 484.000,274.692 484.000 C 274.903 484.000,275.587 483.561,276.212 483.024 L 277.348 482.048 278.074 482.885 C 278.473 483.346,278.800 483.574,278.800 483.393 C 278.800 481.993,277.458 481.613,276.118 482.635 C 273.841 484.372,273.636 483.971,273.511 477.517 L 273.400 471.800 271.400 471.759 L 269.400 471.718 271.300 471.881 M92.600 473.106 C 91.881 473.634,92.076 490.801,92.800 490.801 C 93.312 490.801,93.382 489.915,93.279 484.743 C 93.154 478.466,93.324 476.917,94.015 478.011 C 94.302 478.464,94.389 478.476,94.394 478.063 C 94.397 477.768,94.040 477.069,93.600 476.509 C 91.974 474.442,92.481 473.200,94.951 473.200 C 96.970 473.200,97.134 473.275,97.605 474.413 C 97.882 475.080,98.187 475.547,98.283 475.450 C 99.713 474.020,94.360 471.813,92.600 473.106 M219.900 473.082 C 220.395 473.178,221.205 473.178,221.700 473.082 C 222.195 472.987,221.790 472.909,220.800 472.909 C 219.810 472.909,219.405 472.987,219.900 473.082 M269.370 481.400 C 269.371 486.240,269.429 488.165,269.499 485.678 C 269.569 483.191,269.569 479.231,269.498 476.878 C 269.428 474.525,269.370 476.560,269.370 481.400 M109.200 481.767 C 109.310 486.480,109.564 490.485,109.764 490.668 C 109.977 490.863,110.019 490.698,109.864 490.267 C 109.719 489.864,109.600 485.859,109.600 481.367 C 109.600 476.875,109.465 473.200,109.300 473.199 C 109.135 473.199,109.090 477.055,109.200 481.767 M131.446 474.300 C 131.590 474.905,131.930 475.670,132.202 476.000 C 132.473 476.330,132.795 476.870,132.916 477.200 C 133.073 477.625,133.146 477.564,133.168 476.989 C 133.186 476.543,132.930 475.793,132.600 475.322 C 132.270 474.850,132.109 474.180,132.243 473.833 C 132.403 473.416,132.264 473.200,131.835 473.200 C 131.329 473.200,131.243 473.444,131.446 474.300 M143.357 474.231 C 143.214 474.798,143.284 476.193,143.511 477.331 L 143.924 479.400 143.809 477.000 C 143.745 475.680,143.859 474.285,144.061 473.900 C 144.296 473.452,144.282 473.200,144.022 473.200 C 143.798 473.200,143.499 473.664,143.357 474.231 M213.052 474.100 C 212.654 475.587,212.782 479.169,213.197 478.141 C 213.388 477.668,213.737 477.163,213.972 477.017 C 214.207 476.872,214.400 476.573,214.400 476.353 C 214.400 476.133,214.235 476.055,214.034 476.179 C 213.488 476.516,213.282 475.547,213.634 474.300 C 213.804 473.695,213.798 473.200,213.619 473.200 C 213.440 473.200,213.185 473.605,213.052 474.100 M215.200 473.920 C 215.200 474.316,215.065 474.815,214.900 475.028 C 214.735 475.242,214.981 474.990,215.447 474.469 C 217.482 472.190,217.780 473.047,218.005 481.805 L 218.209 489.800 218.405 481.500 L 218.600 473.199 216.900 473.200 C 215.530 473.200,215.200 473.340,215.200 473.920 M222.800 482.000 L 222.800 490.800 220.700 490.867 C 218.870 490.926,218.801 490.955,220.162 491.095 C 223.585 491.447,223.400 491.965,223.400 482.017 C 223.400 477.168,223.265 473.200,223.100 473.200 C 222.935 473.200,222.800 477.160,222.800 482.000 M224.510 473.478 C 224.900 473.579,225.753 474.593,226.406 475.731 C 227.059 476.869,227.594 477.477,227.596 477.083 C 227.598 476.689,227.240 475.980,226.800 475.508 C 226.360 475.036,226.000 474.323,226.000 473.925 C 226.000 473.390,225.712 473.212,224.900 473.246 C 224.205 473.276,224.061 473.361,224.510 473.478 M227.390 473.989 C 227.943 474.600,228.061 475.229,227.912 476.775 C 227.806 477.874,227.873 478.678,228.060 478.563 C 228.953 478.011,228.264 473.200,227.291 473.200 C 226.771 473.200,226.786 473.322,227.390 473.989 M103.732 476.316 C 103.483 477.628,103.448 478.762,103.649 478.980 C 103.855 479.203,104.000 478.750,104.000 477.880 C 104.000 477.066,104.180 476.400,104.400 476.400 C 105.024 476.400,104.929 489.703,104.300 490.370 C 103.896 490.798,103.916 490.865,104.400 490.717 C 105.237 490.462,105.488 477.177,104.692 475.284 L 104.166 474.033 103.732 476.316 M137.239 475.800 C 137.224 476.020,137.471 476.920,137.788 477.800 C 138.105 478.680,138.365 479.040,138.364 478.600 C 138.364 477.772,137.285 475.090,137.239 475.800 M98.457 476.800 C 98.459 477.350,98.703 478.430,99.000 479.200 C 99.705 481.030,99.710 480.322,99.009 477.800 C 98.688 476.642,98.455 476.221,98.457 476.800 M133.212 478.400 C 133.212 478.730,133.387 479.270,133.600 479.600 C 133.945 480.133,133.988 480.133,133.988 479.600 C 133.988 479.270,133.813 478.730,133.600 478.400 C 133.255 477.867,133.212 477.867,133.212 478.400 M173.639 479.166 L 172.756 479.932 173.600 480.200 C 174.409 480.457,174.439 480.677,174.322 485.635 C 174.255 488.476,174.335 490.801,174.500 490.801 C 174.961 490.800,174.863 480.486,174.400 480.200 C 173.553 479.676,174.063 479.199,175.500 479.172 C 176.703 479.149,176.842 479.076,176.200 478.800 C 174.985 478.278,174.600 478.333,173.639 479.166 M305.722 478.681 C 305.460 478.775,305.350 479.125,305.478 479.459 C 305.648 479.901,305.792 479.937,306.006 479.591 C 306.431 478.902,307.910 479.487,308.222 480.468 C 308.630 481.753,307.670 483.135,306.244 483.315 L 305.000 483.472 306.291 483.536 C 308.865 483.664,309.632 480.242,307.294 479.062 C 306.692 478.758,305.985 478.587,305.722 478.681 M159.048 479.500 C 159.598 480.651,159.715 489.179,159.190 489.812 C 158.623 490.495,159.017 491.216,159.924 491.154 C 160.533 491.112,160.531 491.089,159.900 490.924 C 159.113 490.719,158.984 490.180,159.628 489.783 C 159.902 489.613,160.023 487.764,159.964 484.625 C 159.913 481.933,160.001 479.521,160.160 479.265 C 160.344 478.966,160.138 478.800,159.581 478.800 C 158.895 478.800,158.784 478.946,159.048 479.500 M184.899 479.140 C 183.854 479.441,181.600 481.465,181.600 482.101 C 181.600 482.339,182.185 481.877,182.900 481.074 C 183.664 480.217,184.647 479.563,185.285 479.489 C 185.882 479.420,186.497 479.237,186.652 479.082 C 186.985 478.748,186.161 478.776,184.899 479.140 M195.149 479.500 C 194.671 480.109,194.678 480.140,195.200 479.735 C 195.530 479.480,196.340 479.192,197.000 479.095 L 198.200 478.920 196.949 478.860 C 196.177 478.823,195.488 479.068,195.149 479.500 M238.000 480.000 C 238.000 480.660,237.820 481.200,237.600 481.200 C 237.056 481.200,237.091 482.685,237.643 483.026 C 237.938 483.209,237.999 483.028,237.827 482.484 C 237.684 482.035,237.755 481.552,237.984 481.410 C 238.213 481.269,238.400 480.713,238.400 480.176 C 238.400 479.025,239.579 478.836,240.571 479.829 C 240.917 480.174,241.200 480.271,241.200 480.043 C 241.200 479.497,239.868 478.800,238.826 478.800 C 238.175 478.800,238.000 479.054,238.000 480.000 M244.400 479.084 C 243.120 479.554,242.401 480.547,242.460 481.762 L 242.520 483.000 242.692 481.839 C 242.898 480.458,243.690 479.574,244.796 479.490 C 245.238 479.457,245.600 479.288,245.600 479.115 C 245.600 478.764,245.291 478.756,244.400 479.084 M248.267 481.339 C 248.444 483.229,248.366 484.159,247.994 484.607 C 247.600 485.082,247.586 485.346,247.937 485.697 C 248.192 485.952,248.400 486.988,248.400 488.000 C 248.400 489.749,248.904 490.800,249.742 490.800 C 249.952 490.800,249.825 490.470,249.460 490.066 C 248.925 489.475,248.783 488.367,248.729 484.366 L 248.662 479.400 250.013 479.468 C 250.776 479.506,251.587 479.842,251.878 480.239 C 252.160 480.625,252.485 480.849,252.598 480.735 C 253.053 480.281,251.166 479.119,249.641 478.915 L 248.021 478.697 248.267 481.339 M259.400 479.222 C 258.680 479.550,258.700 479.578,259.600 479.493 C 260.550 479.405,260.593 479.489,260.459 481.200 C 260.280 483.504,260.613 483.179,260.973 480.700 C 261.267 478.679,261.045 478.470,259.400 479.222 M264.000 479.197 C 264.000 479.444,264.148 479.556,264.329 479.444 C 264.509 479.332,265.184 479.512,265.829 479.843 C 266.807 480.346,266.901 480.350,266.400 479.866 C 265.573 479.067,264.000 478.628,264.000 479.197 M290.801 479.100 C 290.801 479.265,291.386 479.430,292.101 479.467 C 293.143 479.522,293.241 479.468,292.600 479.196 C 291.572 478.760,290.800 478.719,290.801 479.100 M94.446 479.600 C 94.468 480.498,95.534 483.104,95.570 482.346 C 95.586 481.986,95.337 481.086,95.016 480.346 C 94.694 479.606,94.438 479.270,94.446 479.600 M116.977 480.089 C 117.320 480.578,117.614 481.343,117.632 481.789 C 117.650 482.252,117.753 482.377,117.872 482.080 C 118.129 481.437,117.241 479.200,116.729 479.200 C 116.523 479.200,116.635 479.600,116.977 480.089 M153.454 480.029 C 152.874 480.485,152.403 481.070,152.406 481.329 C 152.410 481.639,152.513 481.658,152.706 481.386 C 152.868 481.159,153.519 480.574,154.154 480.086 C 154.789 479.599,155.128 479.200,154.908 479.200 C 154.688 479.200,154.034 479.573,153.454 480.029 M161.445 479.592 C 161.909 479.780,162.674 480.423,163.145 481.021 C 163.615 481.619,164.000 481.937,164.000 481.729 C 164.000 481.132,161.819 479.197,161.178 479.225 C 160.854 479.240,160.971 479.400,161.445 479.592 M166.795 484.100 C 166.792 486.795,166.675 489.450,166.535 490.000 C 166.388 490.583,166.432 490.862,166.641 490.668 C 167.079 490.264,167.522 479.198,167.100 479.199 C 166.935 479.200,166.798 481.405,166.795 484.100 M170.875 479.448 C 171.247 479.558,171.636 480.043,171.741 480.525 C 171.900 481.258,171.920 481.239,171.866 480.404 C 171.821 479.728,171.543 479.382,171.000 479.327 C 170.424 479.269,170.389 479.302,170.875 479.448 M191.044 479.592 C 191.509 479.780,192.008 480.244,192.154 480.624 C 192.300 481.004,192.533 481.200,192.674 481.060 C 193.055 480.678,191.572 479.196,190.838 479.225 C 190.395 479.243,190.458 479.355,191.044 479.592 M199.400 480.400 C 199.741 481.060,200.090 481.600,200.176 481.600 C 200.261 481.600,200.127 481.060,199.878 480.400 C 199.628 479.740,199.279 479.200,199.102 479.200 C 198.925 479.200,199.059 479.740,199.400 480.400 M230.575 479.720 C 230.465 480.006,230.427 482.661,230.490 485.620 L 230.604 491.000 230.802 485.099 C 230.997 479.290,230.972 478.688,230.575 479.720 M234.787 479.823 C 235.110 480.250,235.416 480.666,235.468 480.748 C 235.520 480.829,235.870 480.588,236.246 480.212 C 236.891 479.567,236.886 479.535,236.165 479.654 C 235.744 479.723,235.130 479.615,234.800 479.413 C 234.270 479.089,234.268 479.137,234.787 479.823 M297.995 484.100 C 297.992 486.795,297.875 489.450,297.735 490.000 C 297.588 490.583,297.632 490.861,297.841 490.668 C 298.279 490.262,298.722 479.198,298.300 479.199 C 298.135 479.200,297.998 481.405,297.995 484.100 M302.368 480.700 C 302.559 482.081,302.587 482.109,302.719 481.051 C 302.798 480.419,302.705 479.745,302.512 479.552 C 302.310 479.350,302.249 479.840,302.368 480.700 M257.268 480.527 C 256.047 481.827,256.182 482.182,257.424 480.939 C 257.988 480.376,258.378 479.845,258.292 479.759 C 258.207 479.673,257.746 480.019,257.268 480.527 M138.412 480.400 C 138.412 480.730,138.587 481.270,138.800 481.600 C 139.145 482.133,139.188 482.133,139.188 481.600 C 139.188 481.270,139.013 480.730,138.800 480.400 C 138.455 479.867,138.412 479.867,138.412 480.400 M185.882 481.100 C 185.557 483.059,185.598 487.385,185.945 487.929 C 186.142 488.238,186.304 486.700,186.334 484.229 C 186.385 480.037,186.232 478.980,185.882 481.100 M188.874 482.121 L 188.800 484.442 190.900 484.321 C 192.930 484.204,193.001 484.160,193.037 483.000 C 193.072 481.868,193.065 481.862,192.912 482.900 C 192.763 483.908,192.603 484.000,190.996 484.000 L 189.242 484.000 189.095 481.900 L 188.948 479.800 188.874 482.121 M112.814 480.454 C 112.806 480.594,113.063 481.314,113.384 482.054 C 113.706 482.794,113.969 483.130,113.970 482.800 C 113.972 482.224,112.843 479.934,112.814 480.454 M195.217 480.800 C 195.231 481.517,196.365 483.600,196.386 482.946 C 196.394 482.696,196.131 481.976,195.802 481.346 C 195.474 480.716,195.210 480.470,195.217 480.800 M287.980 481.500 C 287.969 482.105,287.896 483.337,287.817 484.237 C 287.739 485.137,287.802 486.487,287.956 487.237 C 288.146 488.157,288.261 487.269,288.311 484.500 C 288.351 482.245,288.298 480.400,288.192 480.400 C 288.086 480.400,287.991 480.895,287.980 481.500 M290.872 482.321 L 290.800 484.442 292.900 484.321 C 294.919 484.205,295.003 484.154,295.078 483.000 C 295.151 481.884,295.136 481.870,294.863 482.800 C 294.619 483.628,294.283 483.821,292.907 483.922 L 291.246 484.044 291.095 482.122 L 290.944 480.200 290.872 482.321 M304.832 481.139 C 304.179 482.360,304.314 482.700,305.041 481.663 C 305.393 481.160,305.588 480.654,305.473 480.540 C 305.359 480.425,305.070 480.695,304.832 481.139 M178.953 485.400 C 178.953 488.040,179.018 489.068,179.097 487.684 C 179.175 486.301,179.174 484.141,179.095 482.884 C 179.016 481.628,178.952 482.760,178.953 485.400 M263.219 481.377 C 262.947 481.705,262.817 482.204,262.931 482.487 C 263.066 482.823,263.148 482.770,263.168 482.333 C 263.186 481.967,263.425 481.586,263.700 481.488 C 263.975 481.390,264.091 481.191,263.957 481.045 C 263.823 480.900,263.491 481.049,263.219 481.377 M99.632 481.596 C 99.590 482.381,100.919 485.597,101.286 485.599 C 101.443 485.599,101.246 484.835,100.848 483.900 C 100.450 482.965,100.020 481.930,99.894 481.600 C 99.691 481.073,99.659 481.072,99.632 481.596 M235.043 481.833 C 234.692 482.747,234.743 490.800,235.100 490.800 C 235.265 490.799,235.400 488.639,235.400 485.999 C 235.400 483.360,235.374 481.200,235.343 481.200 C 235.311 481.200,235.176 481.485,235.043 481.833 M283.685 482.173 C 282.364 485.072,283.723 489.273,286.400 490.569 C 286.730 490.729,286.499 490.467,285.888 489.987 C 283.953 488.471,282.793 483.767,284.045 482.515 C 284.290 482.270,284.418 481.854,284.330 481.590 C 284.242 481.325,283.952 481.588,283.685 482.173 M156.140 484.800 C 156.140 486.670,156.209 487.435,156.293 486.500 C 156.377 485.565,156.377 484.035,156.293 483.100 C 156.209 482.165,156.140 482.930,156.140 484.800 M171.353 486.200 C 171.353 488.840,171.418 489.868,171.497 488.484 C 171.575 487.101,171.574 484.941,171.495 483.684 C 171.416 482.428,171.352 483.560,171.353 486.200 M252.884 485.451 C 252.813 488.897,252.905 489.584,253.500 490.051 C 254.116 490.534,254.142 490.525,253.715 489.978 C 253.435 489.617,253.175 487.683,253.099 485.378 L 252.967 481.400 252.884 485.451 M134.428 482.676 C 134.518 483.715,135.144 484.596,135.172 483.724 C 135.187 483.242,135.020 482.736,134.800 482.600 C 134.580 482.464,134.413 482.498,134.428 482.676 M139.403 483.797 C 139.501 484.675,139.765 485.455,139.991 485.530 C 140.216 485.605,140.418 486.147,140.440 486.733 L 140.480 487.800 140.800 486.800 C 141.406 484.907,141.300 483.311,140.629 484.224 C 140.024 485.046,139.957 484.978,139.436 483.000 C 139.320 482.560,139.305 482.919,139.403 483.797 M200.416 482.854 C 200.407 483.214,200.669 484.024,200.998 484.654 C 201.766 486.128,201.780 485.306,201.016 483.546 C 200.694 482.806,200.424 482.494,200.416 482.854 M255.797 484.100 C 255.659 485.035,255.715 486.250,255.923 486.800 C 256.224 487.595,256.305 487.248,256.321 485.100 C 256.343 482.003,256.160 481.653,255.797 484.100 M164.120 484.800 C 164.120 486.010,164.195 486.505,164.287 485.900 C 164.378 485.295,164.378 484.305,164.287 483.700 C 164.195 483.095,164.120 483.590,164.120 484.800 M181.320 484.800 C 181.320 486.010,181.395 486.505,181.487 485.900 C 181.578 485.295,181.578 484.305,181.487 483.700 C 181.395 483.095,181.320 483.590,181.320 484.800 M243.905 483.483 C 244.402 483.579,245.122 483.575,245.505 483.475 C 245.887 483.375,245.480 483.296,244.600 483.301 C 243.720 483.305,243.407 483.387,243.905 483.483 M263.834 483.652 C 264.150 484.170,265.486 484.273,266.096 483.826 C 266.615 483.447,266.455 483.367,265.205 483.382 C 264.366 483.392,263.749 483.513,263.834 483.652 M95.822 484.600 C 95.974 485.040,96.238 485.940,96.409 486.600 C 96.692 487.698,96.720 487.715,96.745 486.800 C 96.760 486.250,96.496 485.350,96.158 484.800 C 95.751 484.136,95.638 484.069,95.822 484.600 M196.400 484.287 C 196.400 484.543,196.580 484.864,196.800 485.000 C 197.020 485.136,197.221 485.642,197.246 486.124 C 197.282 486.789,197.337 486.833,197.474 486.307 C 197.574 485.927,197.373 485.211,197.028 484.718 C 196.683 484.225,196.400 484.031,196.400 484.287 M118.839 485.200 C 118.832 485.530,119.175 486.520,119.600 487.400 C 120.025 488.280,120.381 488.730,120.392 488.400 C 120.402 488.070,120.527 487.365,120.670 486.833 C 120.883 486.036,120.809 485.911,120.249 486.126 C 119.775 486.308,119.461 486.116,119.210 485.493 C 119.012 485.002,118.845 484.870,118.839 485.200 M244.461 485.367 C 240.390 486.401,241.061 491.213,245.274 491.194 C 247.111 491.185,247.834 490.692,247.010 490.008 C 246.477 489.566,246.420 489.587,246.634 490.143 C 246.842 490.685,246.604 490.800,245.271 490.800 C 241.574 490.800,241.049 486.353,244.678 485.773 C 246.196 485.530,246.347 485.587,246.512 486.454 C 246.680 487.339,246.695 487.331,246.746 486.324 C 246.816 484.938,246.563 484.832,244.461 485.367 M135.222 485.400 C 135.216 485.620,135.467 486.610,135.779 487.600 C 136.098 488.612,136.358 489.026,136.373 488.546 C 136.388 488.076,136.137 487.086,135.816 486.346 C 135.494 485.606,135.227 485.180,135.222 485.400 M114.802 485.854 C 114.798 486.595,115.967 489.059,115.984 488.346 C 115.993 487.986,115.731 487.176,115.402 486.546 C 115.074 485.916,114.804 485.604,114.802 485.854 M151.630 486.600 C 151.602 487.416,152.981 490.000,153.443 490.000 C 153.583 490.000,153.496 489.756,153.248 489.458 C 153.001 489.160,152.541 488.215,152.227 487.358 C 151.880 486.411,151.646 486.114,151.630 486.600 M201.600 486.671 C 201.600 486.874,201.763 487.211,201.961 487.420 C 202.160 487.629,202.409 488.160,202.515 488.600 C 202.666 489.230,202.717 489.177,202.754 488.349 C 202.779 487.771,202.530 487.074,202.200 486.800 C 201.870 486.526,201.600 486.468,201.600 486.671 M275.602 486.824 C 275.601 487.166,275.864 487.796,276.187 488.224 C 276.951 489.234,276.959 488.796,276.202 487.346 C 275.874 486.716,275.604 486.481,275.602 486.824 M260.460 487.838 C 260.421 488.647,260.693 489.340,261.246 489.838 L 262.092 490.600 260.746 490.847 C 259.402 491.094,259.402 491.095,260.600 491.124 C 261.260 491.141,262.520 491.005,263.400 490.823 L 265.000 490.492 263.562 490.446 C 261.894 490.393,260.941 489.514,260.693 487.800 L 260.520 486.600 260.460 487.838 M181.600 487.554 C 181.600 487.775,182.005 488.379,182.500 488.897 C 182.995 489.415,183.175 489.546,182.900 489.188 C 182.625 488.830,182.400 488.337,182.400 488.092 C 182.400 487.847,182.220 487.536,182.000 487.400 C 181.780 487.264,181.600 487.333,181.600 487.554 M197.793 487.800 C 197.963 488.240,198.191 489.008,198.299 489.506 C 198.407 490.004,198.640 490.501,198.817 490.610 C 199.270 490.891,198.416 487.886,197.904 487.400 C 197.611 487.122,197.577 487.245,197.793 487.800 M101.067 487.867 C 100.920 488.013,100.811 488.508,100.825 488.967 C 100.849 489.733,100.882 489.723,101.234 488.842 C 101.626 487.863,101.544 487.389,101.067 487.867 M163.200 488.601 C 162.906 489.150,162.550 489.600,162.409 489.600 C 162.268 489.600,161.804 489.873,161.376 490.207 C 160.656 490.769,160.679 490.779,161.694 490.345 C 162.730 489.902,164.253 488.120,163.899 487.766 C 163.809 487.675,163.494 488.051,163.200 488.601 M256.400 488.356 C 256.400 488.518,256.940 489.168,257.600 489.800 C 258.260 490.432,258.800 490.840,258.800 490.706 C 258.800 490.571,258.260 489.922,257.600 489.262 C 256.940 488.602,256.400 488.194,256.400 488.356 M280.803 488.090 C 280.801 488.250,281.159 488.970,281.599 489.690 C 282.038 490.411,282.396 490.820,282.396 490.600 C 282.395 490.380,282.037 489.660,281.600 489.000 C 281.163 488.340,280.804 487.931,280.803 488.090 M97.004 489.200 C 97.526 490.975,99.811 492.074,100.539 490.900 C 100.641 490.735,100.071 490.600,99.272 490.600 C 98.135 490.600,97.786 490.426,97.670 489.800 C 97.589 489.360,97.340 488.820,97.116 488.600 C 96.842 488.330,96.806 488.525,97.004 489.200 M186.400 489.373 C 186.400 489.688,186.805 490.086,187.300 490.256 C 188.116 490.538,188.070 490.591,186.800 490.831 C 185.432 491.089,185.428 491.096,186.600 491.141 C 187.260 491.167,188.070 491.013,188.400 490.800 C 188.800 490.542,188.833 490.410,188.500 490.406 C 188.225 490.403,187.640 490.040,187.200 489.600 C 186.611 489.011,186.400 488.951,186.400 489.373 M288.400 488.992 C 288.400 489.182,288.698 489.666,289.062 490.069 C 289.691 490.763,289.656 490.802,288.362 490.832 C 287.613 490.849,287.235 490.957,287.521 491.072 C 288.574 491.494,291.077 490.784,290.188 490.316 C 289.755 490.087,289.175 489.619,288.900 489.274 C 288.625 488.929,288.400 488.802,288.400 488.992 M116.000 489.482 C 116.000 490.243,117.197 491.200,118.149 491.200 C 119.096 491.200,120.008 490.516,119.988 489.820 C 119.981 489.589,119.792 489.715,119.568 490.100 C 118.997 491.080,117.369 490.976,116.623 489.911 C 116.280 489.422,116.000 489.229,116.000 489.482 M131.055 490.200 C 130.896 490.615,131.082 490.800,131.662 490.800 C 132.360 490.800,132.416 490.701,132.000 490.200 C 131.726 489.870,131.453 489.600,131.394 489.600 C 131.334 489.600,131.182 489.870,131.055 490.200 M156.406 490.100 C 156.403 490.485,156.190 490.800,155.933 490.800 C 155.677 490.800,155.573 490.906,155.703 491.037 C 156.202 491.535,157.172 490.602,156.788 489.994 C 156.470 489.492,156.411 489.508,156.406 490.100 M201.608 490.385 C 201.342 490.882,200.933 491.088,200.494 490.947 C 199.926 490.765,199.906 490.799,200.381 491.136 C 200.700 491.362,201.104 491.459,201.279 491.351 C 201.681 491.103,202.496 489.600,202.228 489.600 C 202.118 489.600,201.839 489.953,201.608 490.385 M177.000 490.800 L 175.000 491.074 176.800 491.131 C 177.790 491.162,178.870 491.013,179.200 490.800 C 179.530 490.587,179.620 490.438,179.400 490.469 C 179.180 490.500,178.100 490.649,177.000 490.800 M106.505 491.087 C 107.114 491.179,108.014 491.177,108.505 491.082 C 108.997 490.987,108.500 490.911,107.400 490.914 C 106.300 490.917,105.897 490.995,106.505 491.087 M145.300 491.087 C 145.905 491.178,146.895 491.178,147.500 491.087 C 148.105 490.995,147.610 490.920,146.400 490.920 C 145.190 490.920,144.695 490.995,145.300 491.087 M168.300 491.082 C 168.795 491.178,169.605 491.178,170.100 491.082 C 170.595 490.987,170.190 490.909,169.200 490.909 C 168.210 490.909,167.805 490.987,168.300 491.082 M231.900 491.082 C 232.395 491.178,233.205 491.178,233.700 491.082 C 234.195 490.987,233.790 490.909,232.800 490.909 C 231.810 490.909,231.405 490.987,231.900 491.082 M251.100 491.082 C 251.595 491.178,252.405 491.178,252.900 491.082 C 253.395 490.987,252.990 490.909,252.000 490.909 C 251.010 490.909,250.605 490.987,251.100 491.082 M270.505 491.087 C 271.114 491.179,272.014 491.177,272.505 491.082 C 272.997 490.987,272.500 490.911,271.400 490.914 C 270.300 490.917,269.897 490.995,270.505 491.087 M278.905 491.087 C 279.514 491.179,280.414 491.177,280.905 491.082 C 281.397 490.987,280.900 490.911,279.800 490.914 C 278.700 490.917,278.297 490.995,278.905 491.087 M299.305 491.087 C 299.914 491.179,300.814 491.177,301.305 491.082 C 301.797 490.987,301.300 490.911,300.200 490.914 C 299.100 490.917,298.697 490.995,299.305 491.087 M193.843 493.833 C 193.286 495.284,194.184 497.200,195.420 497.200 C 195.617 497.200,195.378 496.920,194.889 496.577 C 193.922 495.900,193.716 494.444,194.480 493.680 C 194.801 493.359,194.815 493.200,194.523 493.200 C 194.282 493.200,193.976 493.485,193.843 493.833 M111.254 494.838 C 111.221 495.471,111.551 496.173,112.100 496.638 C 112.993 497.394,112.995 497.394,112.336 496.600 C 111.972 496.160,111.591 495.350,111.491 494.800 L 111.309 493.800 111.254 494.838 M114.344 494.954 C 113.701 495.817,114.100 497.200,114.993 497.200 C 115.161 497.200,115.074 496.930,114.800 496.600 C 114.408 496.128,114.406 495.875,114.789 495.413 C 115.057 495.091,115.214 494.658,115.138 494.450 C 115.062 494.243,114.705 494.470,114.344 494.954 M196.222 495.564 C 195.812 496.227,196.472 497.200,197.332 497.200 C 198.172 497.200,198.172 497.196,197.282 496.573 C 196.790 496.228,196.490 495.778,196.617 495.573 C 196.744 495.368,196.757 495.200,196.647 495.200 C 196.537 495.200,196.346 495.364,196.222 495.564 " stroke="none" fill="#94acdc" fill-rule="evenodd"></path></g></svg>