<svg width="204" height="120" viewBox="0 0 204 120" fill="none" xmlns="http://www.w3.org/2000/svg">
<path d="M71.3613 21.6489V61.9785H132.927V21.6489" stroke="white" stroke-width="4" stroke-miterlimit="10" stroke-linecap="round"/>
<path d="M132.187 35.4912H113.693C111.636 35.4912 109.664 36.3026 108.209 37.7468C106.755 39.191 105.937 41.1498 105.938 43.1923V43.1923C105.938 44.2036 106.138 45.205 106.528 46.1394C106.918 47.0737 107.489 47.9227 108.209 48.6378C108.929 49.3529 109.784 49.9201 110.725 50.3072C111.666 50.6942 112.675 50.8934 113.693 50.8934H132.187" stroke="white" stroke-width="4" stroke-miterlimit="10" stroke-linecap="round"/>
<path d="M115.436 45.8482C116.914 45.8482 118.111 44.6592 118.111 43.1924C118.111 41.7257 116.914 40.5366 115.436 40.5366C113.959 40.5366 112.762 41.7257 112.762 43.1924C112.762 44.6592 113.959 45.8482 115.436 45.8482Z" fill="white"/>
<path d="M91.4551 12.6753L102.262 19.8954L112.753 12.6753" stroke="white" stroke-width="4" stroke-miterlimit="10" stroke-linecap="round"/>
<path d="M71.3613 2.2207H132.575" stroke="white" stroke-width="4" stroke-miterlimit="10" stroke-linecap="round"/>
<path d="M13.2223 96.2H19.6303V96.656H18.3103V112.544H19.6303V113H12.3103V112.544H13.6303V97.544H13.5343L9.93431 113H6.93431L2.71031 97.472H2.61431V112.544H3.93431V113H0.670313V112.544H1.99031V96.656H0.670313V96.2H7.15031L10.3423 108.56L13.2223 96.2ZM19.62 102.008V101.576H26.58V102.008H25.284L27.9 109.976L30.684 102.008H29.076V101.576H32.46V102.008H31.26L26.772 114.944C26.244 116.448 25.652 117.496 24.996 118.088C24.34 118.696 23.54 119 22.596 119C21.652 119 20.908 118.784 20.364 118.352C19.82 117.92 19.548 117.368 19.548 116.696C19.548 116.024 19.724 115.512 20.076 115.16C20.428 114.808 20.892 114.632 21.468 114.632C22.796 114.632 23.46 115.184 23.46 116.288C23.46 116.528 23.412 116.816 23.316 117.152H22.476C22.348 117.52 22.332 117.824 22.428 118.064C22.524 118.304 22.74 118.424 23.076 118.424C23.732 118.424 24.316 118.096 24.828 117.44C25.34 116.8 25.828 115.816 26.292 114.488L26.82 113H24.708L20.604 102.008H19.62ZM49.7379 96.2H56.1459V96.656H54.8259V112.544H56.1459V113H48.8259V112.544H50.1459V97.544H50.0499L46.4499 113H43.4499L39.2259 97.472H39.1299V112.544H40.4499V113H37.1859V112.544H38.5059V96.656H37.1859V96.2H43.6659L46.8579 108.56L49.7379 96.2ZM64.7342 108.272V106.232C64.7342 104.68 64.6462 103.552 64.4702 102.848C64.3102 102.128 63.9262 101.768 63.3182 101.768C62.9662 101.768 62.6782 101.872 62.4542 102.08C62.2462 102.272 62.0942 102.6 61.9982 103.064C61.8542 103.784 61.7822 104.88 61.7822 106.352V108.224C61.7822 109.968 61.8302 111.016 61.9262 111.368C62.0382 111.72 62.1502 112.008 62.2622 112.232C62.4382 112.616 62.7822 112.808 63.2942 112.808C63.9182 112.808 64.3262 112.448 64.5182 111.728C64.6622 111.216 64.7342 110.064 64.7342 108.272ZM63.2462 113.24C61.2462 113.24 59.7342 112.728 58.7102 111.704C57.6862 110.68 57.1742 109.216 57.1742 107.312C57.1742 105.392 57.7182 103.92 58.8062 102.896C59.9102 101.856 61.4542 101.336 63.4382 101.336C65.4222 101.336 66.9022 101.816 67.8782 102.776C68.8542 103.72 69.3422 105.168 69.3422 107.12C69.3422 111.2 67.3102 113.24 63.2462 113.24ZM70.0614 101.576H75.8454V103.784C76.1014 103.048 76.4934 102.456 77.0214 102.008C77.5494 101.56 78.3494 101.336 79.4214 101.336C81.9014 101.336 83.1414 102.672 83.1414 105.344V112.568H84.4854V113H77.6934V112.568H78.6774V104.768C78.6774 103.808 78.6134 103.192 78.4854 102.92C78.3574 102.632 78.1254 102.488 77.7894 102.488C77.2774 102.488 76.8214 102.824 76.4214 103.496C76.0374 104.168 75.8454 104.984 75.8454 105.944V112.568H76.8774V113H70.0614V112.568H71.3814V102.008H70.0614V101.576ZM91.1145 113.24C89.0505 113.24 87.4985 112.712 86.4585 111.656C85.4345 110.584 84.9225 109.104 84.9225 107.216C84.9225 105.312 85.4985 103.856 86.6505 102.848C87.8185 101.84 89.2985 101.336 91.0905 101.336C94.7225 101.336 96.4665 103.16 96.3225 106.808H89.5545V107.744C89.5545 109.312 89.7545 110.496 90.1545 111.296C90.5545 112.096 91.2505 112.496 92.2425 112.496C94.0985 112.496 95.3145 111.504 95.8905 109.52L96.3225 109.592C96.0185 110.744 95.4665 111.64 94.6665 112.28C93.8825 112.92 92.6985 113.24 91.1145 113.24ZM89.5785 106.328H92.0505V105.152C92.0505 103.856 91.9705 102.976 91.8105 102.512C91.6665 102.032 91.3625 101.792 90.8985 101.792C90.4505 101.792 90.1145 102.048 89.8905 102.56C89.6825 103.056 89.5785 103.92 89.5785 105.152V106.328ZM96.4481 102.008V101.576H103.408V102.008H102.112L104.728 109.976L107.512 102.008H105.904V101.576H109.288V102.008H108.088L103.6 114.944C103.072 116.448 102.48 117.496 101.824 118.088C101.168 118.696 100.368 119 99.4241 119C98.4801 119 97.7361 118.784 97.1921 118.352C96.6481 117.92 96.3761 117.368 96.3761 116.696C96.3761 116.024 96.5521 115.512 96.9041 115.16C97.2561 114.808 97.7201 114.632 98.2961 114.632C99.6241 114.632 100.288 115.184 100.288 116.288C100.288 116.528 100.24 116.816 100.144 117.152H99.3041C99.1761 117.52 99.1601 117.824 99.2561 118.064C99.3521 118.304 99.5681 118.424 99.9041 118.424C100.56 118.424 101.144 118.096 101.656 117.44C102.168 116.8 102.656 115.816 103.12 114.488L103.648 113H101.536L97.4321 102.008H96.4481ZM128.678 96.2L128.918 102.224H128.462C127.758 100.096 127.134 98.648 126.59 97.88C126.046 97.096 125.262 96.704 124.238 96.704H123.95V112.496H125.99V113H117.23V112.496H119.27V96.704H118.958C117.934 96.704 117.142 97.112 116.582 97.928C116.022 98.728 115.406 100.16 114.734 102.224H114.278L114.518 96.2H128.678ZM137.584 102.248C136.992 102.248 136.472 102.632 136.024 103.4C135.576 104.168 135.352 105.08 135.352 106.136V112.568H137.056V113H129.568V112.568H130.888V102.008H129.568V101.576H135.352V103.88C135.56 103.064 135.96 102.44 136.552 102.008C137.144 101.56 137.816 101.336 138.568 101.336C139.32 101.336 139.928 101.552 140.392 101.984C140.872 102.4 141.112 103 141.112 103.784C141.112 104.552 140.936 105.144 140.584 105.56C140.232 105.976 139.688 106.184 138.952 106.184C138.232 106.184 137.696 105.944 137.344 105.464C137.008 104.984 136.968 104.32 137.224 103.472H138.088C138.488 102.656 138.32 102.248 137.584 102.248ZM146.859 107.36H147.555V105.512C147.555 103.992 147.467 102.976 147.291 102.464C147.131 101.936 146.811 101.672 146.331 101.672C146.043 101.672 145.779 101.752 145.539 101.912C145.315 102.056 145.203 102.264 145.203 102.536C145.203 102.792 145.251 103.056 145.347 103.328H145.947C146.075 103.664 146.139 104.072 146.139 104.552C146.139 105.016 145.939 105.424 145.539 105.776C145.139 106.112 144.635 106.28 144.027 106.28C142.651 106.28 141.963 105.616 141.963 104.288C141.963 102.32 143.635 101.336 146.979 101.336C148.883 101.336 150.195 101.664 150.915 102.32C151.651 102.96 152.019 104.144 152.019 105.872V110.744C152.019 111.576 152.251 111.992 152.715 111.992C153.259 111.992 153.579 111.168 153.675 109.52L154.035 109.544C153.971 110.952 153.707 111.92 153.243 112.448C152.779 112.976 152.019 113.24 150.963 113.24C149.043 113.24 147.939 112.648 147.651 111.464C147.443 112.072 147.131 112.52 146.715 112.808C146.299 113.096 145.691 113.24 144.891 113.24C142.523 113.24 141.339 112.272 141.339 110.336C141.339 109.2 141.787 108.424 142.683 108.008C143.595 107.576 144.987 107.36 146.859 107.36ZM145.899 110.312C145.899 111.144 145.939 111.68 146.019 111.92C146.115 112.16 146.283 112.28 146.523 112.28C146.779 112.28 147.011 112.08 147.219 111.68C147.443 111.264 147.555 110.696 147.555 109.976V107.744H147.387C146.395 107.744 145.899 108.472 145.899 109.928V110.312ZM160.991 101.768C160.287 101.768 159.783 102.152 159.479 102.92C159.175 103.688 159.023 104.96 159.023 106.736V107.984C159.023 109.568 159.199 110.704 159.551 111.392C159.903 112.08 160.551 112.424 161.495 112.424C162.439 112.424 163.191 112.104 163.751 111.464C164.311 110.824 164.671 110.096 164.831 109.28L165.263 109.328C164.959 110.704 164.399 111.696 163.583 112.304C162.751 112.928 161.607 113.24 160.151 113.24C158.295 113.24 156.871 112.744 155.879 111.752C154.887 110.744 154.391 109.28 154.391 107.36C154.391 105.424 154.951 103.936 156.071 102.896C157.207 101.856 158.783 101.336 160.799 101.336C162.223 101.336 163.311 101.616 164.063 102.176C164.815 102.72 165.191 103.408 165.191 104.24C165.191 105.072 165.007 105.68 164.639 106.064C164.287 106.448 163.791 106.64 163.151 106.64C162.527 106.64 162.023 106.472 161.639 106.136C161.255 105.8 161.063 105.304 161.063 104.648C161.063 104.36 161.103 104.072 161.183 103.784H161.975C162.087 103.464 162.143 103.176 162.143 102.92C162.143 102.152 161.759 101.768 160.991 101.768ZM173.486 113V112.568H174.59L171.878 107L171.422 107.12V112.568H172.526V113H165.638V112.568H166.958V95.432H165.542V95H171.422V106.64L171.806 106.496L177.206 102.008H174.95V101.576H179.678V102.008H177.998L175.142 104.432L179.294 112.568H180.158V113H173.486ZM186.224 113.24C184.16 113.24 182.608 112.712 181.568 111.656C180.544 110.584 180.032 109.104 180.032 107.216C180.032 105.312 180.608 103.856 181.76 102.848C182.928 101.84 184.408 101.336 186.2 101.336C189.832 101.336 191.576 103.16 191.432 106.808H184.664V107.744C184.664 109.312 184.864 110.496 185.264 111.296C185.664 112.096 186.36 112.496 187.352 112.496C189.208 112.496 190.424 111.504 191 109.52L191.432 109.592C191.128 110.744 190.576 111.64 189.776 112.28C188.992 112.92 187.808 113.24 186.224 113.24ZM184.688 106.328H187.16V105.152C187.16 103.856 187.08 102.976 186.92 102.512C186.776 102.032 186.472 101.792 186.008 101.792C185.56 101.792 185.224 102.048 185 102.56C184.792 103.056 184.688 103.92 184.688 105.152V106.328ZM200.303 102.248C199.711 102.248 199.191 102.632 198.743 103.4C198.295 104.168 198.071 105.08 198.071 106.136V112.568H199.775V113H192.287V112.568H193.607V102.008H192.287V101.576H198.071V103.88C198.279 103.064 198.679 102.44 199.271 102.008C199.863 101.56 200.535 101.336 201.287 101.336C202.039 101.336 202.647 101.552 203.111 101.984C203.591 102.4 203.831 103 203.831 103.784C203.831 104.552 203.655 105.144 203.303 105.56C202.951 105.976 202.407 106.184 201.671 106.184C200.951 106.184 200.415 105.944 200.063 105.464C199.727 104.984 199.687 104.32 199.943 103.472H200.807C201.207 102.656 201.039 102.248 200.303 102.248Z" fill="white"/>
</svg>
