<svg width="300" height="351" viewBox="0 0 300 351" fill="none" xmlns="http://www.w3.org/2000/svg">
<path d="M0 318C0 313.582 3.58172 310 8 310H292C296.418 310 300 313.582 300 318V343C300 347.418 296.418 351 292 351H7.99999C3.58171 351 0 347.418 0 343V318Z" fill="#034AB3"/>
<path d="M128.576 326.2H130.396V334.46H135.52V336H128.576V326.2ZM140.18 336.098C139.424 336.098 138.743 335.935 138.136 335.608C137.53 335.281 137.054 334.829 136.708 334.25C136.372 333.662 136.204 332.999 136.204 332.262C136.204 331.525 136.372 330.867 136.708 330.288C137.054 329.709 137.53 329.257 138.136 328.93C138.743 328.603 139.424 328.44 140.18 328.44C140.946 328.44 141.632 328.603 142.238 328.93C142.845 329.257 143.316 329.709 143.652 330.288C143.998 330.867 144.17 331.525 144.17 332.262C144.17 332.999 143.998 333.662 143.652 334.25C143.316 334.829 142.845 335.281 142.238 335.608C141.632 335.935 140.946 336.098 140.18 336.098ZM140.18 334.6C140.824 334.6 141.356 334.385 141.776 333.956C142.196 333.527 142.406 332.962 142.406 332.262C142.406 331.562 142.196 330.997 141.776 330.568C141.356 330.139 140.824 329.924 140.18 329.924C139.536 329.924 139.004 330.139 138.584 330.568C138.174 330.997 137.968 331.562 137.968 332.262C137.968 332.962 138.174 333.527 138.584 333.956C139.004 334.385 139.536 334.6 140.18 334.6ZM153.364 328.524V334.866C153.364 337.498 152.02 338.814 149.332 338.814C148.613 338.814 147.932 338.721 147.288 338.534C146.644 338.357 146.112 338.095 145.692 337.75L146.476 336.434C146.802 336.705 147.213 336.919 147.708 337.078C148.212 337.246 148.72 337.33 149.234 337.33C150.055 337.33 150.657 337.143 151.04 336.77C151.422 336.397 151.614 335.827 151.614 335.062V334.67C151.315 334.997 150.951 335.244 150.522 335.412C150.092 335.58 149.621 335.664 149.108 335.664C148.398 335.664 147.754 335.515 147.176 335.216C146.606 334.908 146.154 334.479 145.818 333.928C145.491 333.377 145.328 332.747 145.328 332.038C145.328 331.329 145.491 330.703 145.818 330.162C146.154 329.611 146.606 329.187 147.176 328.888C147.754 328.589 148.398 328.44 149.108 328.44C149.649 328.44 150.139 328.529 150.578 328.706C151.026 328.883 151.399 329.154 151.698 329.518V328.524H153.364ZM149.374 334.18C150.036 334.18 150.578 333.984 150.998 333.592C151.427 333.191 151.642 332.673 151.642 332.038C151.642 331.413 151.427 330.904 150.998 330.512C150.578 330.12 150.036 329.924 149.374 329.924C148.702 329.924 148.151 330.12 147.722 330.512C147.302 330.904 147.092 331.413 147.092 332.038C147.092 332.673 147.302 333.191 147.722 333.592C148.151 333.984 148.702 334.18 149.374 334.18ZM159.902 326.2H161.722V336H159.902V326.2ZM168.546 328.44C169.489 328.44 170.245 328.715 170.814 329.266C171.384 329.817 171.668 330.633 171.668 331.716V336H169.918V331.94C169.918 331.287 169.764 330.797 169.456 330.47C169.148 330.134 168.71 329.966 168.14 329.966C167.496 329.966 166.988 330.162 166.614 330.554C166.241 330.937 166.054 331.492 166.054 332.22V336H164.304V328.524H165.97V329.49C166.26 329.145 166.624 328.883 167.062 328.706C167.501 328.529 167.996 328.44 168.546 328.44Z" fill="white"/>
<path d="M42.058 238.608V240H33.93V228.8H41.834V230.192H35.53V233.632H41.146V234.992H35.53V238.608H42.058ZM55.0328 231.44C56.0994 231.44 56.9421 231.749 57.5608 232.368C58.1901 232.987 58.5048 233.904 58.5048 235.12V240H56.9688V235.296C56.9688 234.475 56.7768 233.856 56.3928 233.44C56.0194 233.024 55.4808 232.816 54.7768 232.816C53.9981 232.816 53.3794 233.061 52.9208 233.552C52.4621 234.032 52.2328 234.725 52.2328 235.632V240H50.6968V235.296C50.6968 234.475 50.5048 233.856 50.1208 233.44C49.7474 233.024 49.2088 232.816 48.5048 232.816C47.7261 232.816 47.1074 233.061 46.6488 233.552C46.1901 234.032 45.9608 234.725 45.9608 235.632V240H44.4248V231.52H45.8968V232.784C46.2061 232.347 46.6114 232.016 47.1128 231.792C47.6141 231.557 48.1848 231.44 48.8248 231.44C49.4861 231.44 50.0728 231.573 50.5848 231.84C51.0968 232.107 51.4914 232.496 51.7688 233.008C52.0888 232.517 52.5314 232.133 53.0968 231.856C53.6728 231.579 54.3181 231.44 55.0328 231.44ZM64.419 231.44C65.5923 231.44 66.4883 231.728 67.107 232.304C67.7363 232.88 68.051 233.739 68.051 234.88V240H66.595V238.88C66.339 239.275 65.971 239.579 65.491 239.792C65.0217 239.995 64.4617 240.096 63.811 240.096C62.8617 240.096 62.099 239.867 61.523 239.408C60.9577 238.949 60.675 238.347 60.675 237.6C60.675 236.853 60.947 236.256 61.491 235.808C62.035 235.349 62.899 235.12 64.083 235.12H66.515V234.816C66.515 234.155 66.323 233.648 65.939 233.296C65.555 232.944 64.9897 232.768 64.243 232.768C63.7417 232.768 63.251 232.853 62.771 233.024C62.291 233.184 61.8857 233.403 61.555 233.68L60.915 232.528C61.3523 232.176 61.875 231.909 62.483 231.728C63.091 231.536 63.7363 231.44 64.419 231.44ZM64.067 238.912C64.6537 238.912 65.1603 238.784 65.587 238.528C66.0137 238.261 66.323 237.888 66.515 237.408V236.224H64.147C62.8457 236.224 62.195 236.661 62.195 237.536C62.195 237.963 62.3603 238.299 62.691 238.544C63.0217 238.789 63.4803 238.912 64.067 238.912ZM70.8935 231.52H72.4295V240H70.8935V231.52ZM71.6615 229.888C71.3628 229.888 71.1122 229.792 70.9095 229.6C70.7175 229.408 70.6215 229.173 70.6215 228.896C70.6215 228.619 70.7175 228.384 70.9095 228.192C71.1122 227.989 71.3628 227.888 71.6615 227.888C71.9602 227.888 72.2055 227.984 72.3975 228.176C72.6002 228.357 72.7015 228.587 72.7015 228.864C72.7015 229.152 72.6002 229.397 72.3975 229.6C72.2055 229.792 71.9602 229.888 71.6615 229.888ZM75.3623 228.128H76.8983V240H75.3623V228.128ZM91.6319 231.52L87.9199 240H86.3519L82.6399 231.52H84.2399L87.1519 238.32L90.1279 231.52H91.6319ZM100.495 235.808C100.495 235.925 100.484 236.08 100.463 236.272H93.583C93.679 237.019 94.0043 237.621 94.559 238.08C95.1243 238.528 95.823 238.752 96.655 238.752C97.6683 238.752 98.4843 238.411 99.103 237.728L99.951 238.72C99.567 239.168 99.087 239.509 98.511 239.744C97.9457 239.979 97.311 240.096 96.607 240.096C95.711 240.096 94.9163 239.915 94.223 239.552C93.5297 239.179 92.991 238.661 92.607 238C92.2337 237.339 92.047 236.592 92.047 235.76C92.047 234.939 92.2283 234.197 92.591 233.536C92.9643 232.875 93.471 232.363 94.111 232C94.7617 231.627 95.4923 231.44 96.303 231.44C97.1137 231.44 97.8337 231.627 98.463 232C99.103 232.363 99.599 232.875 99.951 233.536C100.314 234.197 100.495 234.955 100.495 235.808ZM96.303 232.736C95.567 232.736 94.9483 232.96 94.447 233.408C93.9563 233.856 93.6683 234.443 93.583 235.168H99.023C98.9377 234.453 98.6443 233.872 98.143 233.424C97.6523 232.965 97.039 232.736 96.303 232.736ZM104.1 232.944C104.367 232.453 104.761 232.08 105.284 231.824C105.807 231.568 106.441 231.44 107.188 231.44V232.928C107.103 232.917 106.985 232.912 106.836 232.912C106.004 232.912 105.348 233.163 104.868 233.664C104.399 234.155 104.164 234.859 104.164 235.776V240H102.628V231.52H104.1V232.944ZM110.553 232.944C110.82 232.453 111.214 232.08 111.737 231.824C112.26 231.568 112.894 231.44 113.641 231.44V232.928C113.556 232.917 113.438 232.912 113.289 232.912C112.457 232.912 111.801 233.163 111.321 233.664C110.852 234.155 110.617 234.859 110.617 235.776V240H109.081V231.52H110.553V232.944ZM115.534 231.52H117.07V240H115.534V231.52ZM116.302 229.888C116.003 229.888 115.753 229.792 115.55 229.6C115.358 229.408 115.262 229.173 115.262 228.896C115.262 228.619 115.358 228.384 115.55 228.192C115.753 227.989 116.003 227.888 116.302 227.888C116.601 227.888 116.846 227.984 117.038 228.176C117.241 228.357 117.342 228.587 117.342 228.864C117.342 229.152 117.241 229.397 117.038 229.6C116.846 229.792 116.601 229.888 116.302 229.888ZM123.107 229.296C122.19 229.296 121.731 229.792 121.731 230.784V231.52H124.195V232.784H121.763V240H120.227V232.784H118.787V231.52H120.227V230.768C120.227 229.925 120.472 229.259 120.963 228.768C121.454 228.277 122.142 228.032 123.027 228.032C123.368 228.032 123.688 228.075 123.987 228.16C124.286 228.245 124.542 228.368 124.755 228.528L124.291 229.696C123.939 229.429 123.544 229.296 123.107 229.296ZM126.931 231.52H128.467V240H126.931V231.52ZM127.699 229.888C127.4 229.888 127.15 229.792 126.947 229.6C126.755 229.408 126.659 229.173 126.659 228.896C126.659 228.619 126.755 228.384 126.947 228.192C127.15 227.989 127.4 227.888 127.699 227.888C127.998 227.888 128.243 227.984 128.435 228.176C128.638 228.357 128.739 228.587 128.739 228.864C128.739 229.152 128.638 229.397 128.435 229.6C128.243 229.792 127.998 229.888 127.699 229.888ZM135.09 240.096C134.226 240.096 133.452 239.909 132.77 239.536C132.098 239.163 131.57 238.651 131.186 238C130.802 237.339 130.61 236.592 130.61 235.76C130.61 234.928 130.802 234.187 131.186 233.536C131.57 232.875 132.098 232.363 132.77 232C133.452 231.627 134.226 231.44 135.09 231.44C135.858 231.44 136.54 231.595 137.138 231.904C137.746 232.213 138.215 232.661 138.546 233.248L137.378 234C137.111 233.595 136.78 233.291 136.386 233.088C135.991 232.885 135.554 232.784 135.074 232.784C134.519 232.784 134.018 232.907 133.57 233.152C133.132 233.397 132.786 233.749 132.53 234.208C132.284 234.656 132.162 235.173 132.162 235.76C132.162 236.357 132.284 236.885 132.53 237.344C132.786 237.792 133.132 238.139 133.57 238.384C134.018 238.629 134.519 238.752 135.074 238.752C135.554 238.752 135.991 238.651 136.386 238.448C136.78 238.245 137.111 237.941 137.378 237.536L138.546 238.272C138.215 238.859 137.746 239.312 137.138 239.632C136.54 239.941 135.858 240.096 135.09 240.096ZM143.622 231.44C144.795 231.44 145.691 231.728 146.31 232.304C146.939 232.88 147.254 233.739 147.254 234.88V240H145.798V238.88C145.542 239.275 145.174 239.579 144.694 239.792C144.225 239.995 143.665 240.096 143.014 240.096C142.065 240.096 141.302 239.867 140.726 239.408C140.161 238.949 139.878 238.347 139.878 237.6C139.878 236.853 140.15 236.256 140.694 235.808C141.238 235.349 142.102 235.12 143.286 235.12H145.718V234.816C145.718 234.155 145.526 233.648 145.142 233.296C144.758 232.944 144.193 232.768 143.446 232.768C142.945 232.768 142.454 232.853 141.974 233.024C141.494 233.184 141.089 233.403 140.758 233.68L140.118 232.528C140.555 232.176 141.078 231.909 141.686 231.728C142.294 231.536 142.939 231.44 143.622 231.44ZM143.27 238.912C143.857 238.912 144.363 238.784 144.79 238.528C145.217 238.261 145.526 237.888 145.718 237.408V236.224H143.35C142.049 236.224 141.398 236.661 141.398 237.536C141.398 237.963 141.563 238.299 141.894 238.544C142.225 238.789 142.683 238.912 143.27 238.912ZM154.865 239.504C154.641 239.696 154.363 239.845 154.033 239.952C153.702 240.048 153.361 240.096 153.009 240.096C152.155 240.096 151.494 239.867 151.025 239.408C150.555 238.949 150.321 238.293 150.321 237.44V232.784H148.881V231.52H150.321V229.664H151.857V231.52H154.289V232.784H151.857V237.376C151.857 237.835 151.969 238.187 152.193 238.432C152.427 238.677 152.758 238.8 153.185 238.8C153.654 238.8 154.054 238.667 154.385 238.4L154.865 239.504ZM156.722 231.52H158.258V240H156.722V231.52ZM157.49 229.888C157.191 229.888 156.94 229.792 156.738 229.6C156.546 229.408 156.45 229.173 156.45 228.896C156.45 228.619 156.546 228.384 156.738 228.192C156.94 227.989 157.191 227.888 157.49 227.888C157.788 227.888 158.034 227.984 158.226 228.176C158.428 228.357 158.53 228.587 158.53 228.864C158.53 229.152 158.428 229.397 158.226 229.6C158.034 229.792 157.788 229.888 157.49 229.888ZM164.822 240.096C163.98 240.096 163.222 239.909 162.55 239.536C161.878 239.163 161.35 238.651 160.966 238C160.593 237.339 160.406 236.592 160.406 235.76C160.406 234.928 160.593 234.187 160.966 233.536C161.35 232.875 161.878 232.363 162.55 232C163.222 231.627 163.98 231.44 164.822 231.44C165.665 231.44 166.417 231.627 167.078 232C167.75 232.363 168.273 232.875 168.646 233.536C169.03 234.187 169.222 234.928 169.222 235.76C169.222 236.592 169.03 237.339 168.646 238C168.273 238.651 167.75 239.163 167.078 239.536C166.417 239.909 165.665 240.096 164.822 240.096ZM164.822 238.752C165.366 238.752 165.852 238.629 166.278 238.384C166.716 238.128 167.057 237.776 167.302 237.328C167.548 236.869 167.67 236.347 167.67 235.76C167.67 235.173 167.548 234.656 167.302 234.208C167.057 233.749 166.716 233.397 166.278 233.152C165.852 232.907 165.366 232.784 164.822 232.784C164.278 232.784 163.788 232.907 163.35 233.152C162.924 233.397 162.582 233.749 162.326 234.208C162.081 234.656 161.958 235.173 161.958 235.76C161.958 236.347 162.081 236.869 162.326 237.328C162.582 237.776 162.924 238.128 163.35 238.384C163.788 238.629 164.278 238.752 164.822 238.752ZM175.875 231.44C176.952 231.44 177.805 231.755 178.435 232.384C179.075 233.003 179.395 233.915 179.395 235.12V240H177.859V235.296C177.859 234.475 177.661 233.856 177.267 233.44C176.872 233.024 176.307 232.816 175.571 232.816C174.739 232.816 174.083 233.061 173.603 233.552C173.123 234.032 172.883 234.725 172.883 235.632V240H171.347V231.52H172.819V232.8C173.128 232.363 173.544 232.027 174.067 231.792C174.6 231.557 175.203 231.44 175.875 231.44ZM190.23 240.096C189.366 240.096 188.593 239.909 187.91 239.536C187.238 239.163 186.71 238.651 186.326 238C185.942 237.339 185.75 236.592 185.75 235.76C185.75 234.928 185.942 234.187 186.326 233.536C186.71 232.875 187.238 232.363 187.91 232C188.593 231.627 189.366 231.44 190.23 231.44C190.998 231.44 191.681 231.595 192.278 231.904C192.886 232.213 193.355 232.661 193.686 233.248L192.518 234C192.251 233.595 191.921 233.291 191.526 233.088C191.131 232.885 190.694 232.784 190.214 232.784C189.659 232.784 189.158 232.907 188.71 233.152C188.273 233.397 187.926 233.749 187.67 234.208C187.425 234.656 187.302 235.173 187.302 235.76C187.302 236.357 187.425 236.885 187.67 237.344C187.926 237.792 188.273 238.139 188.71 238.384C189.158 238.629 189.659 238.752 190.214 238.752C190.694 238.752 191.131 238.651 191.526 238.448C191.921 238.245 192.251 237.941 192.518 237.536L193.686 238.272C193.355 238.859 192.886 239.312 192.278 239.632C191.681 239.941 190.998 240.096 190.23 240.096ZM199.182 240.096C198.339 240.096 197.582 239.909 196.91 239.536C196.238 239.163 195.71 238.651 195.326 238C194.952 237.339 194.766 236.592 194.766 235.76C194.766 234.928 194.952 234.187 195.326 233.536C195.71 232.875 196.238 232.363 196.91 232C197.582 231.627 198.339 231.44 199.182 231.44C200.024 231.44 200.776 231.627 201.438 232C202.11 232.363 202.632 232.875 203.006 233.536C203.39 234.187 203.582 234.928 203.582 235.76C203.582 236.592 203.39 237.339 203.006 238C202.632 238.651 202.11 239.163 201.438 239.536C200.776 239.909 200.024 240.096 199.182 240.096ZM199.182 238.752C199.726 238.752 200.211 238.629 200.638 238.384C201.075 238.128 201.416 237.776 201.662 237.328C201.907 236.869 202.03 236.347 202.03 235.76C202.03 235.173 201.907 234.656 201.662 234.208C201.416 233.749 201.075 233.397 200.638 233.152C200.211 232.907 199.726 232.784 199.182 232.784C198.638 232.784 198.147 232.907 197.71 233.152C197.283 233.397 196.942 233.749 196.686 234.208C196.44 234.656 196.318 235.173 196.318 235.76C196.318 236.347 196.44 236.869 196.686 237.328C196.942 237.776 197.283 238.128 197.71 238.384C198.147 238.629 198.638 238.752 199.182 238.752ZM216.314 231.44C217.381 231.44 218.223 231.749 218.842 232.368C219.471 232.987 219.786 233.904 219.786 235.12V240H218.25V235.296C218.25 234.475 218.058 233.856 217.674 233.44C217.301 233.024 216.762 232.816 216.058 232.816C215.279 232.816 214.661 233.061 214.202 233.552C213.743 234.032 213.514 234.725 213.514 235.632V240H211.978V235.296C211.978 234.475 211.786 233.856 211.402 233.44C211.029 233.024 210.49 232.816 209.786 232.816C209.007 232.816 208.389 233.061 207.93 233.552C207.471 234.032 207.242 234.725 207.242 235.632V240H205.706V231.52H207.178V232.784C207.487 232.347 207.893 232.016 208.394 231.792C208.895 231.557 209.466 231.44 210.106 231.44C210.767 231.44 211.354 231.573 211.866 231.84C212.378 232.107 212.773 232.496 213.05 233.008C213.37 232.517 213.813 232.133 214.378 231.856C214.954 231.579 215.599 231.44 216.314 231.44ZM227.108 231.44C227.93 231.44 228.666 231.621 229.316 231.984C229.967 232.347 230.474 232.853 230.836 233.504C231.21 234.155 231.396 234.907 231.396 235.76C231.396 236.613 231.21 237.371 230.836 238.032C230.474 238.683 229.967 239.189 229.316 239.552C228.666 239.915 227.93 240.096 227.108 240.096C226.5 240.096 225.94 239.979 225.428 239.744C224.927 239.509 224.5 239.168 224.148 238.72V243.104H222.612V231.52H224.084V232.864C224.426 232.395 224.858 232.043 225.38 231.808C225.903 231.563 226.479 231.44 227.108 231.44ZM226.98 238.752C227.524 238.752 228.01 238.629 228.436 238.384C228.874 238.128 229.215 237.776 229.46 237.328C229.716 236.869 229.844 236.347 229.844 235.76C229.844 235.173 229.716 234.656 229.46 234.208C229.215 233.749 228.874 233.397 228.436 233.152C228.01 232.907 227.524 232.784 226.98 232.784C226.447 232.784 225.962 232.912 225.524 233.168C225.098 233.413 224.756 233.76 224.5 234.208C224.255 234.656 224.132 235.173 224.132 235.76C224.132 236.347 224.255 236.869 224.5 237.328C224.746 237.776 225.087 238.128 225.524 238.384C225.962 238.629 226.447 238.752 226.98 238.752ZM233.519 228.128H235.055V240H233.519V228.128ZM245.651 235.808C245.651 235.925 245.641 236.08 245.619 236.272H238.739C238.835 237.019 239.161 237.621 239.715 238.08C240.281 238.528 240.979 238.752 241.811 238.752C242.825 238.752 243.641 238.411 244.259 237.728L245.107 238.72C244.723 239.168 244.243 239.509 243.667 239.744C243.102 239.979 242.467 240.096 241.763 240.096C240.867 240.096 240.073 239.915 239.379 239.552C238.686 239.179 238.147 238.661 237.763 238C237.39 237.339 237.203 236.592 237.203 235.76C237.203 234.939 237.385 234.197 237.747 233.536C238.121 232.875 238.627 232.363 239.267 232C239.918 231.627 240.649 231.44 241.459 231.44C242.27 231.44 242.99 231.627 243.619 232C244.259 232.363 244.755 232.875 245.107 233.536C245.47 234.197 245.651 234.955 245.651 235.808ZM241.459 232.736C240.723 232.736 240.105 232.96 239.603 233.408C239.113 233.856 238.825 234.443 238.739 235.168H244.179C244.094 234.453 243.801 233.872 243.299 233.424C242.809 232.965 242.195 232.736 241.459 232.736ZM252.552 239.504C252.328 239.696 252.051 239.845 251.72 239.952C251.389 240.048 251.048 240.096 250.696 240.096C249.843 240.096 249.181 239.867 248.712 239.408C248.243 238.949 248.008 238.293 248.008 237.44V232.784H246.568V231.52H248.008V229.664H249.544V231.52H251.976V232.784H249.544V237.376C249.544 237.835 249.656 238.187 249.88 238.432C250.115 238.677 250.445 238.8 250.872 238.8C251.341 238.8 251.741 238.667 252.072 238.4L252.552 239.504ZM261.792 235.808C261.792 235.925 261.781 236.08 261.76 236.272H254.88C254.976 237.019 255.301 237.621 255.856 238.08C256.421 238.528 257.12 238.752 257.952 238.752C258.965 238.752 259.781 238.411 260.4 237.728L261.248 238.72C260.864 239.168 260.384 239.509 259.808 239.744C259.243 239.979 258.608 240.096 257.904 240.096C257.008 240.096 256.213 239.915 255.52 239.552C254.827 239.179 254.288 238.661 253.904 238C253.531 237.339 253.344 236.592 253.344 235.76C253.344 234.939 253.525 234.197 253.888 233.536C254.261 232.875 254.768 232.363 255.408 232C256.059 231.627 256.789 231.44 257.6 231.44C258.411 231.44 259.131 231.627 259.76 232C260.4 232.363 260.896 232.875 261.248 233.536C261.611 234.197 261.792 234.955 261.792 235.808ZM257.6 232.736C256.864 232.736 256.245 232.96 255.744 233.408C255.253 233.856 254.965 234.443 254.88 235.168H260.32C260.235 234.453 259.941 233.872 259.44 233.424C258.949 232.965 258.336 232.736 257.6 232.736ZM263.717 228.8H265.525L265.221 236.464H264.005L263.717 228.8ZM264.629 240.096C264.33 240.096 264.079 240 263.877 239.808C263.674 239.605 263.573 239.36 263.573 239.072C263.573 238.784 263.674 238.544 263.877 238.352C264.079 238.149 264.33 238.048 264.629 238.048C264.927 238.048 265.173 238.149 265.365 238.352C265.557 238.544 265.653 238.784 265.653 239.072C265.653 239.36 265.551 239.605 265.349 239.808C265.157 240 264.917 240.096 264.629 240.096Z" fill="#49505A"/>
<g clip-path="url(#clip0)">
<path d="M178.296 132.591L179.621 158C179.621 158 123.554 104.721 116.569 89.1323C109.584 73.5436 122.732 34.9819 122.732 34.9819L151.904 50.9809L178.296 132.591Z" fill="#9F616A"/>
<path d="M92.3261 24.3159L83.6976 25.1364C83.6976 25.1364 79.1778 34.9819 93.1479 35.8024L92.3261 24.3159Z" fill="#9F616A"/>
<path d="M92.3261 39.4946L83.6976 40.3151C83.6976 40.3151 79.1778 50.1606 93.1479 50.9811L92.3261 39.4946Z" fill="#9F616A"/>
<path d="M92.3261 55.9038L83.6976 56.7243C83.6976 56.7243 79.1778 66.5698 93.1479 67.3903L92.3261 55.9038Z" fill="#9F616A"/>
<path d="M94.7909 72.313L86.1624 73.1334C86.1624 73.1334 81.6427 82.979 95.6127 83.7994L94.7909 72.313Z" fill="#9F616A"/>
<path d="M88.125 28.2713H88.7797V10.3642C88.7797 9.00313 89.0482 7.65542 89.5699 6.39798C90.0916 5.14054 90.8562 3.998 91.8201 3.0356C92.7841 2.0732 93.9284 1.30978 95.1878 0.78893C96.4473 0.268081 97.7971 1.04277e-06 99.1603 0H137.159C138.523 -2.78065e-06 139.872 0.268072 141.132 0.788917C142.391 1.30976 143.536 2.07318 144.5 3.03558C145.464 3.99798 146.228 5.14051 146.75 6.39794C147.272 7.65538 147.54 9.00309 147.54 10.3641V108.604C147.54 109.965 147.272 111.313 146.75 112.57C146.228 113.828 145.464 114.97 144.5 115.933C143.536 116.895 142.391 117.658 141.132 118.179C139.872 118.7 138.523 118.968 137.159 118.968H99.1604C96.4073 118.968 93.7669 117.876 91.8202 115.933C89.8734 113.989 88.7797 111.353 88.7797 108.604V41.0179H88.125V28.2713Z" fill="#3F3D56"/>
<path d="M98.7424 2.6963H103.703C103.474 3.25465 103.387 3.86043 103.449 4.46029C103.511 5.06015 103.719 5.63567 104.056 6.13615C104.393 6.63664 104.848 7.04673 105.381 7.3303C105.914 7.61386 106.509 7.7622 107.112 7.76225H128.882C129.486 7.7622 130.08 7.61386 130.613 7.3303C131.146 7.04673 131.601 6.63665 131.938 6.13616C132.275 5.63567 132.484 5.06015 132.545 4.46029C132.607 3.86043 132.52 3.25464 132.292 2.69629H136.924C138.98 2.69629 140.952 3.51173 142.406 4.96323C143.86 6.41473 144.677 8.38338 144.677 10.4361V108.532C144.677 109.548 144.476 110.555 144.086 111.494C143.697 112.433 143.126 113.286 142.406 114.005C141.686 114.724 140.832 115.294 139.891 115.683C138.95 116.072 137.942 116.272 136.924 116.272H98.7424C97.7244 116.272 96.7163 116.072 95.7758 115.683C94.8352 115.294 93.9806 114.724 93.2608 114.005C92.5409 113.286 91.9699 112.433 91.5803 111.494C91.1907 110.555 90.9902 109.548 90.9902 108.532V10.4361C90.9902 9.41971 91.1907 8.41326 91.5803 7.47422C91.9699 6.53518 92.5409 5.68195 93.2608 4.96324C93.9806 4.24453 94.8352 3.67441 95.7758 3.28545C96.7163 2.89649 97.7244 2.6963 98.7424 2.6963Z" fill="white"/>
<path d="M126.013 30.1777H109.652V34.1195H126.013V30.1777Z" fill="#034AB3"/>
<path d="M126.792 47.1157H108.873V51.0575H126.792V47.1157Z" fill="#E5E5E5"/>
<path d="M137.829 55.583H97.8359V59.5248H137.829V55.583Z" fill="#E5E5E5"/>
<path d="M137.829 64.0503H97.8359V67.992H137.829V64.0503Z" fill="#E5E5E5"/>
<path d="M217 145.825L171.011 93.4398L169.367 59.8009L152.11 31.0847L147.179 18.7778C147.179 18.7778 135.675 20.0085 145.125 43.3917L149.028 55.9037C145.51 63.4702 143.687 71.712 143.687 80.0542V108.725C143.687 115.477 175.91 152.25 179.661 157.868L217 145.825Z" fill="#9F616A"/>
<path opacity="0.2" d="M148.531 33.518L151.962 31.8346L151.845 31.5969L148.675 33.1524L143.89 20.627L143.643 20.7214L148.531 33.518Z" fill="black"/>
<path opacity="0.2" d="M83.744 25.0119L83.6523 25.2603L88.7346 27.1294L88.8262 26.881L83.744 25.0119Z" fill="black"/>
<path opacity="0.2" d="M83.744 40.3634L83.6523 40.6118L88.7346 42.481L88.8262 42.2326L83.744 40.3634Z" fill="black"/>
<path opacity="0.2" d="M83.744 56.7736L83.6523 57.022L88.7346 58.8911L88.8262 58.6427L83.744 56.7736Z" fill="black"/>
<path opacity="0.2" d="M86.4057 73.1887L86.291 73.4272L88.7653 74.6129L88.88 74.3744L86.4057 73.1887Z" fill="black"/>
<path d="M117.853 102.009C124.182 102.009 129.313 96.8865 129.313 90.5671C129.313 84.2478 124.182 79.125 117.853 79.125C111.524 79.125 106.393 84.2478 106.393 90.5671C106.393 96.8865 111.524 102.009 117.853 102.009Z" fill="#034AB3"/>
<path d="M116.762 95.3973L113.332 90.9938L115.327 89.4449L116.951 91.5298L122.437 85.7471L124.272 87.4826L116.762 95.3973Z" fill="white"/>
</g>
<defs>
<clipPath id="clip0">
<rect width="134" height="158" fill="white" transform="translate(83)"/>
</clipPath>
</defs>
</svg>
