<svg width="24" height="24" viewBox="0 0 24 24" fill="none" xmlns="http://www.w3.org/2000/svg">
<path d="M11.9994 19.3582C16.0636 19.3582 19.3582 16.0636 19.3582 11.9994C19.3582 7.93528 16.0636 4.64062 11.9994 4.64062C7.93528 4.64062 4.64062 7.93528 4.64062 11.9994C4.64062 16.0636 7.93528 19.3582 11.9994 19.3582Z" fill="#FEDB41"/>
<path d="M17.8588 12.3275C17.772 12.3274 17.6887 12.2929 17.6273 12.2315C17.5659 12.1701 17.5313 12.0868 17.5312 12C17.5298 10.5335 16.9465 9.12744 15.9095 8.09046C14.8726 7.05347 13.4665 6.47024 12 6.46875C11.913 6.46875 11.8295 6.43418 11.768 6.37264C11.7064 6.31111 11.6719 6.22765 11.6719 6.14062C11.6719 6.0536 11.7064 5.97014 11.768 5.90861C11.8295 5.84707 11.913 5.8125 12 5.8125C13.6405 5.81424 15.2133 6.46669 16.3733 7.62669C17.5333 8.78669 18.1858 10.3595 18.1875 12C18.1875 12.0431 18.1789 12.0857 18.1624 12.1255C18.1458 12.1653 18.1216 12.2015 18.0911 12.2319C18.0605 12.2623 18.0243 12.2864 17.9845 12.3028C17.9446 12.3192 17.9019 12.3276 17.8588 12.3275Z" fill="#FEA832"/>
<path d="M12.0001 3.1407C12.5347 3.14133 13.0681 3.19034 13.5938 3.28714C13.601 3.18495 13.6056 3.08089 13.6056 2.97626C13.6055 1.51357 12.0001 0.327637 12.0001 0.327637C12.0001 0.327637 10.3945 1.51357 10.3945 2.97626C10.3945 3.08164 10.3994 3.18495 10.4065 3.28714C10.9322 3.19034 11.4656 3.14133 12.0001 3.1407Z" fill="#FEA832"/>
<path d="M11.9999 20.8582C12.5345 20.8575 13.0679 20.8086 13.5937 20.7119C13.6008 20.8139 13.6055 20.9172 13.6055 21.0226C13.6055 22.4851 12.0001 23.6712 12.0001 23.6712C12.0001 23.6712 10.3945 22.4855 10.3945 21.0226C10.3945 20.9172 10.3994 20.8139 10.4065 20.7119C10.9322 20.8085 11.4655 20.8575 11.9999 20.8582Z" fill="#FEA832"/>
<path d="M18.2636 5.73535C18.641 6.11384 18.9834 6.52564 19.2868 6.96572C19.3642 6.8986 19.4405 6.82885 19.515 6.75441C20.5494 5.71997 20.2526 3.74635 20.2526 3.74635C20.2526 3.74635 18.279 3.4501 17.2445 4.48397C17.1695 4.55897 17.1003 4.63397 17.0332 4.71216C17.4733 5.01549 17.8851 5.35794 18.2636 5.73535Z" fill="#FEA832"/>
<path d="M5.7355 18.2636C6.1139 18.6411 6.52571 18.9835 6.96587 19.2868C6.89875 19.3642 6.829 19.4405 6.75456 19.515C5.72012 20.5494 3.74649 20.2526 3.74649 20.2526C3.74649 20.2526 3.44968 18.279 4.48412 17.2445C4.55912 17.1695 4.63412 17.1003 4.71231 17.0332C5.01559 17.4733 5.35805 17.8851 5.7355 18.2636Z" fill="#FEA832"/>
<path d="M20.8591 12.0002C20.8585 12.5348 20.8095 13.0682 20.7129 13.594C20.8149 13.6011 20.9182 13.606 21.0236 13.606C22.4861 13.606 23.6722 12.0004 23.6722 12.0004C23.6722 12.0004 22.4863 10.395 21.0236 10.395C20.9182 10.395 20.8149 10.3997 20.7129 10.4068C20.8095 10.9325 20.8585 11.4658 20.8591 12.0002Z" fill="#FEA832"/>
<path d="M3.14119 11.9999C3.14184 12.5345 3.19079 13.0679 3.28744 13.5936C3.18544 13.6008 3.08119 13.6056 2.97675 13.6056C1.51406 13.6049 0.328125 11.9999 0.328125 11.9999C0.328125 11.9999 1.51406 10.3945 2.97675 10.3945C3.08213 10.3945 3.18544 10.3992 3.28744 10.4063C3.19081 10.932 3.14186 11.4654 3.14119 11.9999Z" fill="#FEA832"/>
<path d="M18.2636 18.2636C17.8851 18.641 17.4733 18.9834 17.0332 19.2868C17.1003 19.3642 17.1701 19.4405 17.2445 19.515C18.279 20.5494 20.2526 20.2526 20.2526 20.2526C20.2526 20.2526 20.5494 18.279 19.515 17.2445C19.44 17.1695 19.365 17.1003 19.2868 17.0332C18.9835 17.4733 18.641 17.8851 18.2636 18.2636Z" fill="#FEA832"/>
<path d="M5.7355 5.73535C5.35809 6.11384 5.01564 6.52564 4.71231 6.96572C4.63487 6.8986 4.55856 6.82885 4.48412 6.75441C3.44968 5.71997 3.74649 3.74635 3.74649 3.74635C3.74649 3.74635 5.72012 3.4501 6.75456 4.48397C6.82956 4.55897 6.89875 4.63397 6.96587 4.71216C6.52575 5.01544 6.11395 5.3579 5.7355 5.73535Z" fill="#FEA832"/>
</svg>
