<svg width="20" height="17" viewBox="0 0 20 17" fill="none" xmlns="http://www.w3.org/2000/svg">
<path d="M20 1.98852C19.2641 2.31484 18.4733 2.53539 17.6433 2.63461C18.4905 2.1268 19.1411 1.32266 19.4474 0.364531C18.642 0.842488 17.7608 1.17924 16.8419 1.36023C16.0934 0.562812 15.027 0.0644531 13.8468 0.0644531C11.5807 0.0644531 9.74344 1.90164 9.74344 4.16758C9.74344 4.48922 9.77977 4.80234 9.84969 5.10273C6.43953 4.93156 3.41609 3.29805 1.39227 0.815547C1.03914 1.42156 0.836797 2.12648 0.836797 2.87836C0.836797 4.30195 1.56125 5.55781 2.66219 6.29367C2.01059 6.27326 1.37332 6.09727 0.803594 5.78039C0.803359 5.79758 0.803359 5.81476 0.803359 5.83203C0.803359 7.82008 2.21773 9.47851 4.09477 9.85547C3.49054 10.0198 2.85674 10.0438 2.2418 9.92578C2.76391 11.5559 4.2793 12.7422 6.07477 12.7754C4.67047 13.8759 2.90117 14.5319 0.978828 14.5319C0.647578 14.5319 0.321016 14.5124 0 14.4745C1.81586 15.6387 3.97266 16.318 6.28984 16.318C13.8373 16.318 17.9644 10.0656 17.9644 4.64344C17.9644 4.46547 17.9605 4.28851 17.9525 4.11258C18.7558 3.53186 19.4492 2.81259 20 1.98852Z" fill="#55ACEE"/>
</svg>
